<svg xmlns="http://www.w3.org/2000/svg" width="294" height="239" fill="none" viewBox="0 0 294 239"><g clip-path="url(#clip0)"><path fill="#6C63FF" d="M177.851 239C194.447 239 207.901 236.749 207.901 233.972C207.901 231.195 194.447 228.944 177.851 228.944C161.255 228.944 147.801 231.195 147.801 233.972C147.801 236.749 161.255 239 177.851 239Z" opacity=".1"/><path fill="#006" d="M176.59 29.5549C164.288 39.9759 148.327 39.3025 134.355 33.8815C120.384 28.4606 107.514 18.8055 93.8914 11.9451C82.7405 6.27948 70.729 2.49199 58.3419 0.735576C40.9789 -1.66907 21.5842 1.26028 9.48431 18.1068C-3.98969 36.867 -2.95279 70.7032 11.6199 87.9342C19.0327 96.6942 28.7385 100.993 37.2051 107.834C45.6716 114.674 53.5031 126.03 52.7837 139.231C52.1178 151.454 44.3537 160.837 36.3283 166.729C30.121 171.275 22.4778 176.241 21.7163 185.66C20.9913 194.774 27.4178 201.915 33.5577 205.978C53.5762 219.227 78.2368 219.098 98.1879 205.644C105.306 200.843 111.845 194.46 119.308 190.717C138.899 180.896 160.491 190.781 181.235 194.398C198.795 197.459 216.801 195.874 233.909 189.76C244.182 186.09 254.495 180.478 261.714 170.023C266.918 162.484 270.16 152.941 273.204 143.519C276.452 133.47 279.573 123.351 282.567 113.162C284.362 107.045 286.133 100.816 286.596 94.2671C287.439 82.4066 283.893 70.6976 279.068 60.675C267.623 36.8923 248.327 20.1832 227.44 15.9379C206.553 11.6926 184.421 19.984 168.213 38.124"/><g opacity=".35"><path fill="#6C63FF" d="M140.778 57.2512V55.3853H111.329C109.975 55.3853 110.801 57.2624 110.801 57.2624H94.8008V99.1122H165.051V57.2512H140.778Z" opacity=".2"/></g><path stroke="#535461" stroke-miterlimit="10" stroke-width="2" d="M234.188 88.4669C234.188 88.4669 243.043 72.8045 256.388 68.2926C261.993 66.4353 266.843 62.812 270.21 57.9669C271.791 55.6557 273.156 53.2043 274.287 50.6436"/><path fill="#6C63FF" d="M282.661 47.748C281.144 49.2211 274.068 50.7447 274.068 50.7447C274.068 50.7447 275.802 43.73 277.322 42.2541C278.052 41.5471 279.033 41.1585 280.05 41.1738C281.066 41.189 282.035 41.6069 282.743 42.3354C283.451 43.064 283.84 44.0435 283.825 45.0586C283.809 46.0736 283.391 47.041 282.661 47.748Z"/><path fill="#6C63FF" d="M278.66 60.4362C276.584 60.8487 269.814 58.2869 269.814 58.2869C269.814 58.2869 275.092 53.3402 277.168 52.9277C277.662 52.8299 278.17 52.8301 278.664 52.9284C279.157 53.0267 279.627 53.2211 280.045 53.5005C280.464 53.78 280.823 54.139 281.102 54.557C281.382 54.9751 281.576 55.444 281.674 55.937C281.772 56.43 281.772 56.9375 281.673 57.4304C281.575 57.9233 281.38 58.3921 281.1 58.8099C280.821 59.2277 280.461 59.5863 280.042 59.8654C279.624 60.1444 279.154 60.3384 278.66 60.4362Z"/><path fill="#6C63FF" d="M264.084 74.1849C262.084 73.4946 257.537 67.8716 257.537 67.8716C257.537 67.8716 264.593 66.2582 266.594 66.9513C267.069 67.1158 267.508 67.3723 267.884 67.706C268.261 68.0398 268.568 68.4443 268.787 68.8965C269.007 69.3487 269.136 69.8397 269.166 70.3415C269.195 70.8432 269.126 71.3459 268.961 71.8209C268.796 72.2959 268.54 72.7338 268.205 73.1096C267.871 73.4855 267.466 73.7919 267.013 74.0114C266.56 74.2309 266.069 74.3592 265.566 74.389C265.064 74.4188 264.56 74.3494 264.084 74.1849Z"/><path fill="#6C63FF" d="M250.712 82.1001C248.624 81.7606 243.189 76.9906 243.189 76.9906C243.189 76.9906 249.872 74.2128 251.962 74.5551C252.459 74.6371 252.935 74.816 253.362 75.0815C253.79 75.347 254.16 75.6941 254.454 76.1027C254.747 76.5114 254.956 76.9737 255.071 77.4633C255.185 77.9529 255.201 78.4602 255.119 78.9561C255.037 79.4521 254.858 79.9271 254.592 80.3539C254.326 80.7807 253.979 81.1511 253.569 81.4438C253.16 81.7366 252.697 81.9459 252.207 82.06C251.717 82.174 251.209 82.1905 250.712 82.1086V82.1001Z"/><path fill="#6C63FF" d="M263.914 52.8122C263.914 54.9279 267.744 61.0588 267.744 61.0588C267.744 61.0588 271.582 54.9307 271.582 52.815C271.596 52.3035 271.507 51.7944 271.321 51.3178C271.134 50.8412 270.854 50.4067 270.496 50.04C270.139 49.6734 269.712 49.3819 269.24 49.1829C268.767 48.9839 268.26 48.8813 267.748 48.8813C267.235 48.8813 266.728 48.9839 266.256 49.1829C265.784 49.3819 265.357 49.6734 264.999 50.04C264.642 50.4067 264.361 50.8412 264.175 51.3178C263.989 51.7944 263.9 52.3035 263.914 52.815V52.8122Z"/><path fill="#6C63FF" d="M248.394 62.2681C249.026 64.2855 254.519 69.0022 254.519 69.0022C254.519 69.0022 256.343 62.0071 255.711 59.9897C255.58 59.4881 255.348 59.0183 255.03 58.6087C254.712 58.1992 254.314 57.8584 253.86 57.6072C253.406 57.3559 252.905 57.1994 252.389 57.147C251.872 57.0947 251.351 57.1476 250.855 57.3027C250.36 57.4577 249.901 57.7116 249.507 58.0489C249.113 58.3863 248.792 58.8001 248.563 59.2652C248.333 59.7303 248.201 60.237 248.174 60.7547C248.147 61.2723 248.226 61.79 248.405 62.2765L248.394 62.2681Z"/><path fill="#6C63FF" d="M234.569 73.5255C234.85 75.6215 239.47 81.1884 239.47 81.1884C239.47 81.1884 242.451 74.603 242.17 72.507C242.134 71.9844 241.991 71.4748 241.75 71.0097C241.508 70.5445 241.174 70.1337 240.768 69.8027C240.361 69.4717 239.891 69.2274 239.386 69.0851C238.881 68.9427 238.352 68.9053 237.832 68.9751C237.312 69.0449 236.812 69.2204 236.363 69.4909C235.914 69.7613 235.525 70.1209 235.22 70.5474C234.916 70.9739 234.702 71.4582 234.593 71.9705C234.483 72.4827 234.48 73.012 234.583 73.5255H234.569Z"/><path fill="#000" d="M282.661 47.748C281.144 49.2211 274.068 50.7447 274.068 50.7447C274.068 50.7447 275.802 43.73 277.322 42.2541C278.052 41.5471 279.033 41.1585 280.05 41.1738C281.066 41.189 282.035 41.6069 282.743 42.3354C283.451 43.064 283.84 44.0435 283.825 45.0586C283.809 46.0736 283.391 47.041 282.661 47.748Z" opacity=".25"/><path fill="#000" d="M278.66 60.4362C276.584 60.8487 269.814 58.2869 269.814 58.2869C269.814 58.2869 275.092 53.3402 277.168 52.9277C277.662 52.8299 278.17 52.8301 278.664 52.9284C279.157 53.0267 279.627 53.2211 280.045 53.5005C280.464 53.78 280.823 54.139 281.102 54.557C281.382 54.9751 281.576 55.444 281.674 55.937C281.772 56.43 281.772 56.9375 281.673 57.4304C281.575 57.9233 281.38 58.3921 281.1 58.8099C280.821 59.2277 280.461 59.5863 280.042 59.8654C279.624 60.1444 279.154 60.3384 278.66 60.4362Z" opacity=".25"/><path fill="#000" d="M264.084 74.1849C262.084 73.4946 257.537 67.8716 257.537 67.8716C257.537 67.8716 264.593 66.2582 266.594 66.9513C267.069 67.1158 267.508 67.3723 267.884 67.706C268.261 68.0398 268.568 68.4443 268.787 68.8965C269.007 69.3487 269.136 69.8397 269.166 70.3415C269.195 70.8432 269.126 71.3459 268.961 71.8209C268.796 72.2959 268.54 72.7338 268.205 73.1096C267.871 73.4855 267.466 73.7919 267.013 74.0114C266.56 74.2309 266.069 74.3592 265.566 74.389C265.064 74.4188 264.56 74.3494 264.084 74.1849Z" opacity=".25"/><path fill="#000" d="M250.712 82.1001C248.624 81.7606 243.189 76.9906 243.189 76.9906C243.189 76.9906 249.872 74.2128 251.962 74.5551C252.459 74.6371 252.935 74.816 253.362 75.0815C253.79 75.347 254.16 75.6941 254.454 76.1027C254.747 76.5114 254.956 76.9737 255.071 77.4633C255.185 77.9529 255.201 78.4602 255.119 78.9561C255.037 79.4521 254.858 79.9271 254.592 80.3539C254.326 80.7807 253.979 81.1511 253.569 81.4438C253.16 81.7366 252.697 81.9459 252.207 82.06C251.717 82.174 251.209 82.1905 250.712 82.1086V82.1001Z" opacity=".25"/><path fill="#000" d="M263.914 52.8122C263.914 54.9279 267.744 61.0588 267.744 61.0588C267.744 61.0588 271.582 54.9307 271.582 52.815C271.596 52.3035 271.507 51.7944 271.321 51.3178C271.134 50.8412 270.854 50.4067 270.496 50.04C270.139 49.6734 269.712 49.3819 269.24 49.1829C268.767 48.9839 268.26 48.8813 267.748 48.8813C267.235 48.8813 266.728 48.9839 266.256 49.1829C265.784 49.3819 265.357 49.6734 264.999 50.04C264.642 50.4067 264.361 50.8412 264.175 51.3178C263.989 51.7944 263.9 52.3035 263.914 52.815V52.8122Z" opacity=".25"/><path fill="#000" d="M248.394 62.2681C249.026 64.2855 254.519 69.0022 254.519 69.0022C254.519 69.0022 256.343 62.0071 255.711 59.9897C255.58 59.4881 255.348 59.0183 255.03 58.6087C254.712 58.1992 254.314 57.8584 253.86 57.6072C253.406 57.3559 252.905 57.1994 252.389 57.147C251.872 57.0947 251.351 57.1476 250.855 57.3027C250.36 57.4577 249.901 57.7116 249.507 58.0489C249.113 58.3863 248.792 58.8001 248.563 59.2652C248.333 59.7303 248.201 60.237 248.174 60.7547C248.147 61.2723 248.226 61.79 248.405 62.2765L248.394 62.2681Z" opacity=".25"/><path fill="#000" d="M234.569 73.5255C234.85 75.6215 239.47 81.1884 239.47 81.1884C239.47 81.1884 242.451 74.603 242.17 72.507C242.134 71.9844 241.991 71.4748 241.75 71.0097C241.508 70.5445 241.174 70.1337 240.768 69.8027C240.361 69.4717 239.891 69.2274 239.386 69.0851C238.881 68.9427 238.352 68.9053 237.832 68.9751C237.312 69.0449 236.812 69.2204 236.363 69.4909C235.914 69.7613 235.525 70.1209 235.22 70.5474C234.916 70.9739 234.702 71.4582 234.593 71.9705C234.483 72.4827 234.48 73.012 234.583 73.5255H234.569Z" opacity=".25"/><path stroke="#535461" stroke-miterlimit="10" stroke-width="2" d="M234.7 88.1556C234.7 88.1556 236.437 70.254 246.783 60.7336C251.154 56.7689 254.118 51.494 255.227 45.7025C255.735 42.949 255.988 40.1547 255.983 37.355"/><path fill="#6C63FF" d="M262.492 31.3167C261.699 33.2809 255.849 37.5346 255.849 37.5346C255.849 37.5346 254.587 30.4132 255.38 28.4491C255.568 27.9828 255.846 27.5581 256.199 27.1992C256.551 26.8403 256.971 26.5543 257.434 26.3574C257.898 26.1606 258.395 26.0568 258.899 26.0519C259.402 26.0471 259.902 26.1413 260.369 26.3293C260.836 26.5172 261.261 26.7951 261.621 27.1472C261.98 27.4992 262.266 27.9185 262.464 28.3812C262.661 28.8438 262.765 29.3406 262.769 29.8433C262.774 30.3461 262.68 30.8448 262.492 31.3111V31.3167Z"/><path fill="#6C63FF" d="M263.984 44.5432C262.253 45.761 255.025 46.1566 255.025 46.1566C255.025 46.1566 257.835 39.4982 259.572 38.2833C259.984 37.994 260.448 37.7886 260.939 37.6786C261.431 37.5687 261.939 37.5564 262.435 37.6425C262.93 37.7286 263.405 37.9114 263.83 38.1805C264.255 38.4495 264.623 38.7996 264.912 39.2106C265.202 39.6216 265.408 40.0856 265.518 40.5761C265.628 41.0665 265.64 41.5738 265.554 42.069C265.468 42.5641 265.285 43.0375 265.015 43.462C264.746 43.8866 264.395 44.254 263.984 44.5432Z"/><path fill="#6C63FF" d="M256.234 63.0034C254.123 63.1802 247.686 59.8805 247.686 59.8805C247.686 59.8805 253.483 55.551 255.593 55.3742C256.095 55.3322 256.6 55.3893 257.079 55.5422C257.559 55.6951 258.004 55.9408 258.388 56.2653C258.773 56.5898 259.089 56.9868 259.32 57.4335C259.551 57.8803 259.691 58.368 259.733 58.869C259.776 59.3699 259.718 59.8742 259.565 60.3531C259.412 60.832 259.166 61.2761 258.841 61.66C258.516 62.0439 258.119 62.3602 257.671 62.5907C257.224 62.8212 256.735 62.9614 256.234 63.0034Z"/><path fill="#6C63FF" d="M247.222 75.6497C245.174 76.1828 238.267 74.0138 238.267 74.0138C238.267 74.0138 243.249 68.7696 245.292 68.2393C245.779 68.1131 246.286 68.084 246.785 68.1536C247.283 68.2232 247.763 68.3902 248.197 68.645C248.631 68.8998 249.011 69.2375 249.314 69.6387C249.617 70.0399 249.838 70.4969 249.965 70.9835C250.091 71.47 250.12 71.9767 250.051 72.4745C249.981 72.9724 249.814 73.4516 249.558 73.8849C249.303 74.3182 248.965 74.6971 248.563 74.9999C248.161 75.3027 247.704 75.5235 247.216 75.6497H247.222Z"/><path fill="#6C63FF" d="M247.404 43.5337C248.262 45.4669 254.252 49.5214 254.252 49.5214C254.252 49.5214 255.273 42.3664 254.415 40.4332C254.006 39.5029 253.242 38.7734 252.294 38.4051C251.345 38.0367 250.289 38.0597 249.357 38.469C248.426 38.8783 247.695 39.6404 247.326 40.5876C246.957 41.5347 246.981 42.5894 247.39 43.5196L247.404 43.5337Z"/><path fill="#6C63FF" d="M237.052 58.4717C238.457 60.0598 245.381 62.1418 245.381 62.1418C245.381 62.1418 244.209 55.0092 242.813 53.4183C242.142 52.6555 241.195 52.19 240.181 52.1243C239.167 52.0585 238.167 52.3978 237.404 53.0676C236.64 53.7373 236.174 54.6826 236.108 55.6956C236.042 56.7085 236.382 57.7061 237.052 58.4689V58.4717Z"/><path fill="#6C63FF" d="M228.982 74.3419C230.106 76.1433 236.569 79.3645 236.569 79.3645C236.569 79.3645 236.64 72.1365 235.516 70.3351C234.973 69.4931 234.121 68.8969 233.143 68.6744C232.165 68.4518 231.139 68.6207 230.284 69.1447C229.429 69.6687 228.814 70.5062 228.57 71.4776C228.326 72.4491 228.473 73.4774 228.98 74.3419H228.982Z"/><path stroke="#535461" stroke-miterlimit="10" stroke-width="2" d="M43.1316 160.572C43.1316 160.572 32.1726 147.011 32.861 133.403C33.1884 127.698 31.6542 122.041 28.4886 117.28C26.9676 115.033 25.2435 112.929 23.3379 110.995"/><path fill="#6C63FF" d="M23.7222 102.418C24.509 104.312 23.3597 111.222 23.3597 111.222C23.3597 111.222 17.6497 107.154 16.8629 105.26C16.4858 104.351 16.4858 103.33 16.8628 102.421C17.2399 101.512 17.9631 100.789 18.8735 100.413C19.7838 100.036 20.8067 100.036 21.717 100.413C22.6274 100.789 23.3507 101.511 23.7278 102.42L23.7222 102.418Z"/><path fill="#6C63FF" d="M33.7566 110.558C33.3857 112.572 28.6565 117.743 28.6565 117.743C28.6565 117.743 26.0685 111.223 26.4506 109.213C26.5332 108.729 26.7113 108.266 26.9746 107.851C27.238 107.436 27.5813 107.077 27.9846 106.795C28.388 106.514 28.8433 106.315 29.3242 106.211C29.8051 106.107 30.3019 106.099 30.7858 106.188C31.2698 106.277 31.7312 106.461 32.1433 106.73C32.5554 106.998 32.9099 107.346 33.1863 107.752C33.4627 108.159 33.6554 108.616 33.7533 109.098C33.8513 109.579 33.8524 110.076 33.7566 110.558Z"/><path fill="#6C63FF" d="M40.933 128.577C39.5926 130.132 32.8936 132.211 32.8936 132.211C32.8936 132.211 33.9614 125.289 35.3017 123.734C35.9574 123.035 36.8583 122.617 37.8159 122.566C38.7735 122.516 39.7137 122.837 40.4397 123.462C41.1657 124.088 41.6213 124.97 41.7111 125.923C41.801 126.876 41.5181 127.827 40.9217 128.577H40.933Z"/><path fill="#6C63FF" d="M43.2936 143.434C42.237 145.191 35.9876 148.373 35.9876 148.373C35.9876 148.373 35.8667 141.358 36.9261 139.613C37.4395 138.782 38.2603 138.187 39.2104 137.956C40.1605 137.725 41.1634 137.878 42.0014 138.381C42.8395 138.884 43.4452 139.697 43.6871 140.643C43.929 141.589 43.7876 142.592 43.2936 143.434Z"/><path fill="#6C63FF" d="M21.5893 121.094C23.4973 121.848 30.3987 120.594 30.3987 120.594C30.3987 120.594 26.2399 114.954 24.3347 114.197C23.4252 113.864 22.4214 113.898 21.5371 114.293C20.6527 114.688 19.9576 115.412 19.5998 116.311C19.242 117.21 19.2497 118.213 19.6213 119.106C19.9929 119.999 20.699 120.712 21.5893 121.094Z"/><path fill="#6C63FF" d="M24.5738 138.44C26.6195 138.592 32.8296 135.334 32.8296 135.334C32.8296 135.334 27.1703 131.192 25.1246 131.041C24.638 131.004 24.149 131.063 23.6853 131.215C23.2217 131.367 22.7926 131.609 22.4224 131.926C22.0523 132.244 21.7484 132.631 21.5281 133.065C21.3078 133.5 21.1755 133.974 21.1386 134.46C21.1017 134.946 21.161 135.434 21.3131 135.897C21.4652 136.36 21.7071 136.788 22.025 137.158C22.343 137.528 22.7307 137.831 23.1661 138.051C23.6015 138.271 24.076 138.403 24.5626 138.44H24.5738Z"/><path fill="#6C63FF" d="M29.7892 154.891C31.7787 155.387 38.4525 153.207 38.4525 153.207C38.4525 153.207 33.5743 148.188 31.5848 147.699C30.6287 147.462 29.6171 147.613 28.7726 148.12C27.9281 148.627 27.3199 149.448 27.0818 150.403C26.8437 151.358 26.9952 152.368 27.5029 153.211C28.0107 154.054 28.8331 154.661 29.7892 154.899V154.891Z"/><path fill="url(#paint0_linear)" d="M225.835 52.1783H225.599C225.97 51.7574 226.161 51.3365 226.13 50.9634L223.995 48.8309L224.809 47.0071H222.064L222.573 45.5845H220.946L202.945 51.5722C202.945 51.5722 202.925 51.822 202.945 52.1783H191.354V104.326H241.698V52.1783H225.835Z"/><path fill="#F6F7F9" d="M241.313 52.3608H191.728V103.776H241.313V52.3608Z"/><path fill="#000" d="M225.697 52.3608C223.348 55.8149 207.657 60.3632 207.657 60.3632L207.755 56.7633H204.853C204.932 56.4166 204.897 56.0535 204.752 55.7286C204.607 55.4038 204.36 55.1347 204.049 54.9619C203.206 54.4989 203.124 52.9978 203.136 52.3608H225.697Z" opacity=".1"/><path fill="#9D9CB5" d="M220.878 45.8592L203.149 51.7516C203.149 51.7516 202.947 54.0524 204.049 54.6501C204.359 54.8236 204.605 55.0927 204.75 55.4174C204.895 55.7421 204.931 56.1048 204.852 56.4515H207.755L207.657 60.0514C207.657 60.0514 226.287 54.6501 225.986 51.1512L223.884 49.0495L224.685 47.2482H221.979L222.482 45.8452L220.878 45.8592Z"/><g opacity=".35"><path fill="#6C63FF" d="M232.146 69.0278H200.894V69.9033H232.146V69.0278Z" opacity=".2"/></g><g opacity=".35"><path fill="#6C63FF" d="M232.146 73.6431H200.894V74.5185H232.146V73.6431Z" opacity=".2"/></g><g opacity=".35"><path fill="#6C63FF" d="M232.146 78.2563H200.894V79.1318H232.146V78.2563Z" opacity=".2"/></g><g opacity=".35"><path fill="#6C63FF" d="M232.146 82.8691H200.894V83.7446H232.146V82.8691Z" opacity=".2"/></g><g opacity=".35"><path fill="#6C63FF" d="M232.146 87.4819H200.894V88.3574H232.146V87.4819Z" opacity=".2"/></g><g opacity=".35"><path fill="#6C63FF" d="M232.146 92.0977H200.894V92.9731H232.146V92.0977Z" opacity=".2"/></g><path fill="url(#paint1_linear)" d="M57.8304 47.9526H57.7124C58.6003 45.6798 59.4209 43.4632 59.3843 43.0395C59.3056 42.1977 57.6168 44.0272 57.5381 43.5698C57.4595 43.1125 57.5381 41.3784 56.771 41.3784C56.0039 41.3784 55.5402 42.2791 55.085 42.2791C54.6298 42.2791 52.778 41.9761 52.778 41.9761L50.4204 47.9526H32.6611V103.647H76.7333V47.9526H57.8304Z"/><path fill="#F6F7F9" d="M76.2299 48.2612H33.1553V103.273H76.2299V48.2612Z"/><path fill="#000" d="M57.7599 48.2612C56.8523 50.6154 55.8294 53.0958 55.5962 53.6878C55.1438 54.8102 54.8459 54.2125 54.3177 54.0638C53.7894 53.9151 53.1178 54.2125 52.8171 54.0638C52.5164 53.9151 50.7518 54.0638 50.7518 54.0638C50.7715 53.7882 50.7715 53.5116 50.7518 53.2361C50.7124 52.9386 48.6836 53.2361 48.6836 53.2361L50.6169 48.2612H57.7599Z" opacity=".1"/><path fill="#9D9CB5" d="M52.8171 42.3602L48.6836 52.9384C48.6836 52.9384 50.7124 52.6382 50.749 52.9384C50.7702 53.213 50.7702 53.4888 50.749 53.7634C50.749 53.7634 52.5164 53.6118 52.8171 53.7634C53.1178 53.9149 53.7922 53.6118 54.3177 53.7634C54.8431 53.9149 55.1438 54.5125 55.5962 53.3874C56.0486 52.2622 59.3532 44.2346 59.2773 43.4096C59.2015 42.5847 57.5492 44.3861 57.4733 43.9343C57.3974 43.4826 57.4733 41.771 56.723 41.771C55.9728 41.771 55.5203 42.6605 55.0707 42.6605C54.6211 42.6605 52.8171 42.3602 52.8171 42.3602Z"/><g opacity=".35"><path fill="#6C63FF" d="M70.3203 62.8633H39.0674V63.7387H70.3203V62.8633Z" opacity=".2"/></g><g opacity=".35"><path fill="#6C63FF" d="M70.3203 66.1655H39.0674V67.041H70.3203V66.1655Z" opacity=".2"/></g><g opacity=".35"><path fill="#6C63FF" d="M70.3203 69.4653H39.0674V70.3408H70.3203V69.4653Z" opacity=".2"/></g><g opacity=".35"><path fill="#6C63FF" d="M70.3203 72.7681H39.0674V73.6435H70.3203V72.7681Z" opacity=".2"/></g><g opacity=".35"><path fill="#6C63FF" d="M70.3203 76.0679H39.0674V76.9433H70.3203V76.0679Z" opacity=".2"/></g><g opacity=".35"><path fill="#6C63FF" d="M70.3203 79.3672H39.0674V80.2426H70.3203V79.3672Z" opacity=".2"/></g><path fill="url(#paint2_linear)" d="M220.375 130.303H220.257C221.347 127.497 222.353 124.756 222.305 124.242C222.212 123.212 220.139 125.46 220.057 124.899C219.976 124.338 220.057 122.194 219.116 122.194C218.174 122.194 217.61 123.316 217.045 123.316C216.48 123.316 214.218 122.94 214.218 122.94L211.312 130.303H189.549V199.016H243.566V130.303H220.375Z"/><path fill="#F6F7F9" d="M243.057 130.78H189.981V198.57H243.057V130.78Z"/><path fill="#000" d="M220.271 130.78C219.164 133.659 217.922 136.672 217.632 137.396C217.07 138.782 216.708 138.041 216.059 137.859C215.41 137.677 214.578 138.041 214.207 137.859C213.836 137.677 211.661 137.859 211.661 137.859C211.685 137.52 211.685 137.18 211.661 136.841C211.613 136.473 209.115 136.841 209.115 136.841L211.484 130.78H220.271Z" opacity=".1"/><path fill="#9D9CB5" d="M214.207 123.507L209.115 136.54C209.115 136.54 211.613 136.17 211.661 136.54C211.685 136.878 211.685 137.218 211.661 137.556C211.661 137.556 213.836 137.374 214.207 137.556C214.578 137.738 215.41 137.374 216.059 137.556C216.708 137.738 217.076 138.482 217.632 137.096C218.189 135.71 222.26 125.816 222.168 124.801C222.075 123.785 220.038 126.001 219.945 125.449C219.852 124.896 219.945 122.78 219.02 122.78C218.096 122.78 217.54 123.877 216.983 123.877C216.427 123.877 214.207 123.507 214.207 123.507Z"/><g opacity=".35"><path fill="#6C63FF" d="M232.146 149.722H200.894V151.947H232.146V149.722Z" opacity=".2"/></g><g opacity=".35"><path fill="#6C63FF" d="M232.146 164.175H200.894V166.4H232.146V164.175Z" opacity=".2"/></g><g opacity=".35"><path fill="#6C63FF" d="M232.146 178.631H200.894V180.856H232.146V178.631Z" opacity=".2"/></g><path fill="url(#paint3_linear)" d="M66.8693 132.651V124.354H55.2049V132.651H30.8506V198.023H88.0539V132.651H66.8693Z"/><path fill="#F6F7F9" d="M87.4501 132.982H31.4551V197.596H87.4501V132.982Z"/><path fill="#000" d="M66.7148 132.982H55.2949V141.785H66.7148V132.982Z" opacity=".1"/><path fill="#9D9CB5" d="M66.7148 124.781H55.2949V141.484H66.7148V124.781Z"/><g opacity=".35"><path fill="#6C63FF" d="M75.0781 148.611H43.8252V150.836H75.0781V148.611Z" opacity=".2"/></g><g opacity=".35"><path fill="#6C63FF" d="M75.0781 153.036H43.8252V155.261H75.0781V153.036Z" opacity=".2"/></g><g opacity=".35"><path fill="#6C63FF" d="M75.0781 157.464H43.8252V159.689H75.0781V157.464Z" opacity=".2"/></g><g opacity=".35"><path fill="#6C63FF" d="M75.0781 161.889H43.8252V164.114H75.0781V161.889Z" opacity=".2"/></g><g opacity=".35"><path fill="#6C63FF" d="M75.0802 166.816H66.7148V173.567H75.0802V166.816Z" opacity=".2"/></g><g opacity=".35"><path fill="#6C63FF" d="M52.1906 175.166H43.8252V181.917H52.1906V175.166Z" opacity=".2"/></g><path fill="url(#paint4_linear)" d="M147.206 132.547H147.127C148.038 128.992 148.723 126.161 148.723 126.161L144.84 127.985C144.84 127.985 142.083 124.337 141.063 124.946C140.043 125.555 137.804 127.073 137.804 127.073L134.831 125.552L133.692 132.547H110.215V183.022L111.724 183.923C112.969 183.477 115.017 182.719 115.017 182.719L114.076 185.329L114.711 185.705L115.781 184.737L116.178 186.586L117.451 187.346L119.46 186.069L118.898 188.219L120.783 189.341L126.266 187.284L124.613 191.628L125.701 192.279L128.182 191.844C128.182 191.844 128.07 192.711 127.999 193.651L130.489 195.138C131.509 194.742 132.47 194.352 132.47 194.352C132.47 194.352 132.372 195.301 132.327 196.232L133.996 197.231C135.314 196.463 136.991 195.416 136.991 195.416L135.586 198.025H167.311V132.547H147.206Z"/><path fill="#F6F7F9" d="M166.687 132.982V197.596H135.571L136.959 195.023C136.959 195.023 135.316 196.053 134.023 196.814L132.388 195.826C132.433 194.908 132.531 193.971 132.531 193.971C132.531 193.971 131.587 194.356 130.586 194.746L128.144 193.278C128.215 192.352 128.322 191.496 128.322 191.496L125.891 191.926L124.826 191.283L126.444 186.996L121.069 189.027L119.217 187.905L119.757 185.784L117.79 187.043L116.542 186.294L116.154 184.47L115.103 185.43L114.479 185.057L115.404 182.484C115.404 182.484 113.395 183.23 112.172 183.671L110.694 182.784V132.982H166.687Z"/><g opacity=".35"><path fill="#6C63FF" d="M154.314 153.036H123.062V155.261H154.314V153.036Z" opacity=".2"/></g><g opacity=".35"><path fill="#6C63FF" d="M154.314 159.689H123.062V161.914H154.314V159.689Z" opacity=".2"/></g><g opacity=".35"><path fill="#6C63FF" d="M154.314 166.338H123.062V168.563H154.314V166.338Z" opacity=".2"/></g><g opacity=".35"><path fill="#6C63FF" d="M129.322 172.991H123.062V175.216H129.322V172.991Z" opacity=".2"/></g><path fill="#000" d="M146.966 132.982C145.443 138.981 143.223 147.292 142.644 147.146C141.745 146.902 140.34 145.182 140.34 145.182C140.34 145.182 137.035 148.283 135.434 146.683C133.832 145.084 131.626 146.181 131.626 146.181L133.762 132.979L146.966 132.982Z" opacity=".1"/><path fill="#9D9CB5" d="M134.832 126.094L131.626 145.898C131.626 145.898 133.829 144.798 135.431 146.4C137.032 148.002 140.34 144.893 140.34 144.893C140.34 144.893 141.745 146.61 142.644 146.857C143.543 147.104 148.455 126.694 148.455 126.694L144.648 128.496C144.648 128.496 141.944 124.893 140.941 125.493C139.938 126.094 137.746 127.595 137.746 127.595L134.832 126.094Z"/><path fill="url(#paint5_linear)" d="M161.022 39.6891V37.7896H131.202C129.834 37.7896 130.671 39.6891 130.671 39.6891H114.469V82.0412H185.59V39.6723L161.022 39.6891Z"/><path fill="#F6F7F9" d="M185.163 39.8911H114.918V81.7522H185.163V39.8911Z"/><path fill="#000" d="M160.898 46.7178H133.026C133.026 46.7178 132.725 43.4911 133.703 42.8934C134.681 42.2958 130.921 40.1913 130.921 40.1913C130.879 40.0932 130.843 39.993 130.812 39.8911H160.898V40.8676C160.898 40.8676 164.731 44.243 160.898 46.7178Z" opacity=".1"/><path fill="#9D9CB5" d="M131.446 38.0171H160.898V40.5676C160.898 40.5676 164.731 43.9347 160.898 46.4179H133.026C133.026 46.4179 132.725 43.1911 133.703 42.5935C134.681 41.9958 130.921 39.8914 130.921 39.8914C130.921 39.8914 130.095 38.0171 131.446 38.0171Z"/><g opacity=".35"><path fill="#6C63FF" d="M176.539 53.02H123.548V53.8955H176.539V53.02Z" opacity=".2"/></g><g opacity=".35"><path fill="#6C63FF" d="M155.203 56.3198H123.548V57.1953H155.203V56.3198Z" opacity=".2"/></g><g opacity=".35"><path fill="#6C63FF" d="M176.539 59.6221H123.548V60.4975H176.539V59.6221Z" opacity=".2"/></g><g opacity=".35"><path fill="#6C63FF" d="M176.539 62.9219H123.548V63.7973H176.539V62.9219Z" opacity=".2"/></g><g opacity=".35"><path fill="#6C63FF" d="M176.539 66.2217H123.548V67.0971H176.539V66.2217Z" opacity=".2"/></g><path fill="url(#paint6_linear)" d="M198.336 233.074C197.833 230.936 197.524 229.062 197.524 229.062C197.524 229.062 197.64 226.736 196.594 224.99V224.41V220.114C196.891 219.336 197.253 218.585 197.679 217.869C198.454 216.517 197.679 211.567 197.679 211.567C197.679 211.567 194.807 204.589 195.507 200.164C196.206 195.739 189.606 180.509 189.606 180.509C189.646 179.039 189.855 177.579 190.227 176.157C190.295 175.858 190.324 175.551 190.311 175.245C190.311 175.208 190.311 175.172 190.311 175.133V175.169C190.213 172.251 187.903 166.779 187.903 166.779L188.212 156.35C188.212 156.35 189.687 150.199 187.282 141.947C186.439 139.066 185.902 136.762 185.562 134.983C185.523 134.781 185.486 134.587 185.453 134.402C190.407 133.648 194.189 133.019 194.189 133.019C194.189 133.019 191.314 121.01 189.375 118.911C187.436 116.812 185.882 110.213 185.882 110.213C185.882 110.213 184.871 101.736 186.503 99.2698C188.136 96.8034 188.364 92.516 188.364 92.516C188.364 92.516 192.09 89.8167 192.556 88.6158C193.023 87.4149 193.798 84.7156 193.798 83.2846C193.798 81.8536 193.332 80.5826 193.489 79.8334C193.647 79.0842 192.402 76.2334 193.023 74.881C193.184 74.4657 193.268 74.0245 193.27 73.5791C193.272 73.566 193.272 73.5528 193.27 73.5398C193.27 73.5398 193.27 73.5398 193.27 73.5258C193.274 72.3441 193.164 71.1649 192.941 70.0044C192.941 70.0044 191.255 68.5201 189.257 68.0403L189.176 67.7176L188.965 66.8758C188.846 66.7963 188.724 66.7232 188.597 66.6569V66.3511L188.563 65.1333L189.148 62.392C190.291 57.622 183.927 56.9177 183.927 56.9177C183.545 56.1829 182.903 55.6166 182.125 55.3296C180.844 54.8778 181.912 62.4958 182.51 62.9812C182.963 63.3488 184.354 65.7366 185.023 66.9095L185.132 67.1031C185.031 67.1975 184.937 67.2997 184.851 67.4089L185.093 69.0616L185.129 69.3141C184.708 69.8386 184.366 70.4218 184.115 71.0454C184.115 71.0454 185.281 72.3192 185.048 73.7446C184.815 75.17 185.405 76.9461 185.433 77.0443C185.363 76.9658 184.545 76.0791 183.727 76.2952C182.909 76.5112 180.636 77.1959 180.636 77.1959C180.636 77.1959 178.928 77.4961 179.085 77.8721C179.242 78.2481 177.919 79.8979 177.919 79.8979L173.33 75.5544C173.285 75.4253 173.24 75.2963 173.198 75.1616C173.007 74.5411 172.873 73.9042 172.799 73.2592C173.299 73.1401 173.789 72.9844 174.266 72.7934C174.748 72.6292 175.184 72.351 175.536 71.9825C175.997 71.4213 176.098 70.689 176.275 70.0184C176.638 68.6828 177.419 67.4931 177.978 66.2276C178.922 64.09 179.24 61.7285 178.894 59.4178C178.822 58.707 178.58 58.0239 178.189 57.4256C177.441 56.3958 176.081 55.9777 175.098 55.1556C174.114 54.3335 173.473 53.0821 172.321 52.4648C171.282 51.9036 170.012 51.9737 168.84 52.1645C166.543 52.5421 164.337 53.3432 162.335 54.5271C161.666 54.9227 160.93 55.3689 160.16 55.2398C159.502 55.1219 159.019 54.5944 158.594 54.0922C158.6 54.0703 158.606 54.0487 158.614 54.0276L158.564 53.9687C158.078 55.0458 157.834 56.2162 157.85 57.3975C157.85 57.5799 157.85 57.7623 157.872 57.9587C157.872 58.0232 157.872 58.0878 157.872 58.1523C157.876 58.2046 157.876 58.2571 157.872 58.3094C157.872 58.391 157.861 58.4723 157.839 58.5507C157.741 58.7856 157.594 58.997 157.409 59.1708C157.268 59.3281 157.143 59.4982 157.035 59.6787C157.055 59.617 157.074 59.5552 157.097 59.4935C156.804 59.9192 156.639 60.4196 156.622 60.9357C156.597 61.3127 156.721 61.6845 156.967 61.9711C157.196 62.1954 157.447 62.3965 157.715 62.5716C157.399 64.3318 157.63 66.1465 158.379 67.7711C159.128 69.3957 160.357 70.752 161.902 71.657C161.955 71.7861 162.006 71.918 162.059 72.0499C162.644 73.5931 163.085 75.3889 162.902 77.0472C162.885 77.1706 162.868 77.2913 162.846 77.4119C162.787 77.4736 162.731 77.5382 162.68 77.6027C162.68 77.6027 155.093 77.6757 153.32 76.0623C151.547 74.4489 148.824 79.9905 148.824 79.9905C148.824 79.9905 146.107 80.518 145.564 79.9905C145.022 79.463 141.838 79.9176 141.838 79.9176C141.838 79.9176 139.897 78.0404 137.104 78.192C136.043 77.3868 134.872 76.7368 133.628 76.2615L133.54 76.2306C132.994 76.0335 132.41 75.9597 131.832 76.0146C131.832 76.0146 128.106 72.9281 127.021 71.2895C125.937 69.6508 120.758 63.5172 120.735 63.4891L120.716 63.2085L120.657 62.3162C120.503 62.3404 120.348 62.3535 120.193 62.3555L120.089 62.0469C119.792 61.1764 119.423 60.3318 118.987 59.5216C118.987 59.5216 118.987 58.3992 119.316 58.1186C119.645 57.838 119.181 53.7106 119.181 53.7106C119.181 53.7106 115.823 45.8709 112.817 51.724C112.817 51.724 107.132 55.5092 111.903 59.9172C111.903 59.9172 113.806 60.8403 114.075 61.5699C114.253 62.0441 114.899 63.3656 115.334 64.2467C115.407 64.3926 115.472 64.5273 115.528 64.6395L115.475 64.6844L115.545 65.4196L115.573 65.7001C114.674 66.2108 114.064 66.7131 114.213 67.1031C114.479 67.7528 114.661 68.4335 114.756 69.1289C114.756 69.1289 121.353 77.3811 122.208 80.9137C122.208 80.9137 139.911 91.4161 145.727 92.1681L144.719 97.4179C144.719 97.4179 144.407 100.569 144.485 101.694C144.564 102.819 143.786 107.923 143.786 107.923C143.786 107.923 142.777 115.423 141.923 116.473C141.068 117.522 141.226 122.026 141.226 122.026C141.02 124.181 140.63 126.315 140.06 128.403C139.217 131.254 139.829 134.778 139.829 134.778C139.829 134.778 136.879 141.532 143.943 136.956C143.943 136.956 147.411 136.74 151.404 136.605C151.404 136.734 151.404 136.866 151.404 137.001C151.404 137.514 151.387 138.07 151.381 138.656C151.328 142.523 151.305 147.851 151.48 151.883C151.789 159.01 153.964 173.115 153.964 173.115V180.2C153.823 180.866 153.754 181.545 153.758 182.226C153.711 184.724 154.374 187.183 155.672 189.319L156.153 193.997C156.153 193.997 157.428 197.111 157.454 198.971C157.448 199.123 157.429 199.274 157.397 199.423C157.35 199.661 157.329 199.904 157.336 200.147C157.263 202.294 158.558 207.426 158.558 207.426C158.558 207.426 158.637 212.602 159.401 212.903C160.064 213.158 158.516 215.885 158.052 216.668C158.052 216.618 158.032 216.57 158.024 216.519C157.965 216.62 157.928 216.677 157.928 216.677C157.769 217.094 157.687 217.537 157.687 217.984C157.643 218.338 157.7 218.697 157.853 219.019C158.005 219.341 158.245 219.614 158.547 219.805C160.022 220.706 160.814 221.455 159.564 221.769C159.103 221.839 158.646 221.933 158.195 222.05C158.173 221.991 158.15 221.932 158.131 221.876C157.956 221.948 157.811 222.076 157.718 222.241C157.625 222.405 157.591 222.596 157.619 222.782C157.586 223.161 157.712 223.714 158.083 224.539C159.325 227.314 160.185 228.366 160.185 228.366L160.781 228.299C160.69 228.524 160.574 228.739 160.435 228.938C160.208 229.264 159.907 229.53 159.555 229.716C159.232 229.91 158.871 230.034 158.496 230.077C158.075 230.092 157.661 230.194 157.282 230.378C156.903 230.562 156.567 230.824 156.296 231.147C155.523 232.145 155.037 233.509 156.577 234.704L162.129 236.618C162.129 236.618 171.683 237.855 171.169 235.717C170.655 233.579 170.357 231.705 170.357 231.705C170.357 231.705 170.464 229.617 169.582 227.911C169.483 227.716 169.37 227.529 169.244 227.35L169.582 227.311C169.582 227.311 170.278 222.586 171.211 221.699C171.425 221.491 171.473 221.332 171.422 221.211C171.52 220.953 171.276 220.801 170.964 220.717L170.897 220.902C170.592 220.836 170.281 220.801 169.969 220.798C169.969 220.798 169.657 218.324 170.666 217.431C170.748 217.329 170.808 217.211 170.842 217.084C170.876 216.958 170.883 216.826 170.863 216.696C170.871 216.357 170.837 216.019 170.759 215.689C170.759 215.706 170.736 215.728 170.722 215.745C170.214 213.5 168.494 209.928 168.494 209.928C168.494 209.928 168.415 207.684 169.036 206.78C169.657 205.877 168.961 194.549 168.961 194.549C168.961 194.549 169.194 189.075 168.494 186.524C167.794 183.974 169.337 180.972 169.337 180.972C169.337 180.972 169.337 180.913 169.32 180.809L169.34 180.77C169.34 180.77 169.306 180.433 169.25 179.908C169.242 179.925 169.236 179.941 169.23 179.959C169.076 178.511 168.778 175.885 168.562 174.67C168.25 172.944 168.637 164.692 168.637 164.692L170.042 161.168L172.526 167.242L175.168 175.346C175.168 175.346 176.475 177.057 176.505 178.791C176.505 178.876 176.505 178.96 176.489 179.044C176.467 179.224 176.457 179.405 176.458 179.586C176.411 180.609 176.693 181.62 177.261 182.473C177.261 182.473 177.961 186.297 179.049 187.274C180.136 188.25 180.133 190.124 180.133 190.124C180.133 190.124 181.454 195.674 182.075 196.651C182.598 197.473 182.637 199.737 182.62 200.425C182.62 200.554 182.62 200.627 182.62 200.627C182.62 200.627 182.803 202.611 182.797 204.275C182.797 204.479 182.797 204.679 182.777 204.867V204.825C182.776 205.279 182.722 205.732 182.617 206.174C182.608 206.199 182.601 206.224 182.595 206.25C182.595 206.157 182.595 206.062 182.617 205.969C182.347 207.102 182.216 208.264 182.229 209.429C182.193 211.424 182.51 213.789 183.708 215.175C185.804 217.577 187.124 217.277 187.124 217.277C187.124 217.277 186.113 220.277 184.876 220.877C184.83 220.901 184.786 220.929 184.744 220.961C184.744 220.902 184.722 220.846 184.713 220.787C184.455 221.012 184.351 221.416 184.351 221.91C184.261 223.228 185.093 225.372 185.888 226.357C186.181 226.644 186.542 226.854 186.936 226.969C186.873 227.012 186.807 227.052 186.74 227.089C186.601 227.165 186.459 227.231 186.312 227.288C186.112 227.377 185.898 227.433 185.68 227.454C185.259 227.464 184.844 227.563 184.464 227.744C184.083 227.926 183.746 228.187 183.474 228.509C182.702 229.505 182.215 230.869 183.755 232.064L189.308 233.978C189.308 233.978 198.845 235.212 198.336 233.074Z"/><path fill="#2D293D" d="M161.873 236.618L156.501 234.704C155.017 233.509 155.489 232.145 156.239 231.146C156.496 230.826 156.819 230.565 157.186 230.381C157.553 230.197 157.956 230.093 158.366 230.077C158.731 230.033 159.081 229.909 159.392 229.715C159.731 229.527 160.02 229.261 160.235 228.938C160.628 228.317 160.84 227.599 160.848 226.865C160.848 226.865 166.749 225.139 168.362 226.865C168.65 227.177 168.89 227.529 169.075 227.911C169.918 229.617 169.828 231.705 169.828 231.705C169.828 231.705 170.129 233.576 170.615 235.717C171.101 237.858 161.873 236.618 161.873 236.618Z"/><path fill="#2D293D" d="M188.166 233.975L182.793 232.061C181.312 230.866 181.785 229.502 182.532 228.506C182.789 228.186 183.112 227.924 183.479 227.74C183.846 227.555 184.248 227.452 184.659 227.437C184.872 227.416 185.08 227.36 185.275 227.272C185.416 227.214 185.554 227.147 185.688 227.072C187.191 226.247 187.152 224.222 187.152 224.222C187.152 224.222 193.053 222.496 194.666 224.222C194.882 224.455 195.07 224.712 195.228 224.988C196.239 226.733 196.127 229.062 196.127 229.062C196.127 229.062 196.428 230.936 196.916 233.074C197.405 235.212 188.166 233.975 188.166 233.975Z"/><path fill="#000" d="M168.371 226.865C168.659 227.177 168.899 227.529 169.085 227.911L160.244 228.935C160.637 228.314 160.849 227.596 160.857 226.862C160.857 226.862 166.758 225.142 168.371 226.865Z" opacity=".1"/><path fill="#000" d="M195.231 224.988V226.64C193.857 228.902 187.206 228.408 185.275 227.272C185.417 227.214 185.555 227.147 185.688 227.072C187.192 226.247 187.152 224.222 187.152 224.222C187.152 224.222 193.053 222.496 194.666 224.222C194.883 224.455 195.073 224.712 195.231 224.988Z" opacity=".1"/><path fill="#575988" d="M196.282 217.863C195.869 218.581 195.518 219.332 195.231 220.108V226.04C193.727 228.515 185.913 227.69 184.862 226.34C183.811 224.99 182.684 221.463 183.884 220.863C185.084 220.262 186.059 217.263 186.059 217.263C186.059 217.263 184.78 217.563 182.751 215.161C180.723 212.76 181.324 207.434 181.703 206.16C182.083 204.886 181.703 200.607 181.703 200.607C181.703 200.607 181.779 197.608 181.178 196.631C180.576 195.655 179.315 190.105 179.315 190.105C179.315 190.105 179.315 188.23 178.261 187.254C177.207 186.278 176.533 182.453 176.533 182.453C175.918 181.497 175.653 180.358 175.783 179.229C176.007 177.352 174.504 175.326 174.504 175.326L171.95 167.226L169.547 161.148L168.196 164.675C168.196 164.675 167.819 172.927 168.12 174.653C168.42 176.378 168.87 180.955 168.87 180.955C168.87 180.955 167.369 183.954 168.044 186.505C168.718 189.055 168.496 194.532 168.496 194.532C168.496 194.532 169.171 205.86 168.569 206.761C167.968 207.661 168.044 209.912 168.044 209.912C168.044 209.912 171.135 216.511 170.148 217.412C169.162 218.312 169.471 220.779 169.471 220.779C169.471 220.779 171.576 220.779 170.674 221.679C169.772 222.58 169.095 227.291 169.095 227.291L160.013 228.343C160.013 228.343 159.17 227.291 157.978 224.516C156.787 221.741 158.203 222.041 159.411 221.741C160.62 221.441 159.855 220.692 158.428 219.777C157 218.862 157.827 216.851 157.827 216.851C157.827 216.851 160.004 213.175 159.254 212.875C158.504 212.574 158.428 207.397 158.428 207.397C158.428 207.397 156.925 201.247 157.304 199.597C157.683 197.947 156.087 193.997 156.087 193.997L155.562 189.269C152.856 184.619 153.909 180.343 153.909 180.343V173.076C153.909 173.076 151.805 158.973 151.504 151.847C151.313 147.281 151.366 141.052 151.428 137.166C151.465 134.986 151.504 133.541 151.504 133.541L183.96 130.174C183.96 130.174 183.926 131.669 184.55 134.989C184.879 136.768 185.393 139.071 186.213 141.953C188.543 150.205 187.115 156.356 187.115 156.356L186.815 166.779C186.815 166.779 189.67 173.758 189.063 176.157C188.702 177.581 188.501 179.04 188.461 180.509C188.461 180.509 194.854 195.733 194.177 200.17C193.5 204.606 196.282 211.573 196.282 211.573C196.282 211.573 197.032 216.511 196.282 217.863Z"/><path fill="#000" d="M177.725 178.777L187.605 177.464C187.605 177.464 182.007 183.165 177.725 178.777Z" opacity=".05"/><path fill="#000" d="M186.177 167.826C186.177 167.826 186.514 171.313 184.373 172.627C184.373 172.627 188.206 172.026 186.177 167.826Z" opacity=".1"/><path fill="#000" d="M185.571 156.723C185.571 156.723 177.312 163.51 174.308 162.949C171.304 162.388 185.571 156.723 185.571 156.723Z" opacity=".1"/><path fill="#000" d="M165.479 181.968C165.479 181.968 159.207 183.39 159.016 185.896C158.825 188.402 165.479 181.968 165.479 181.968Z" opacity=".1"/><path fill="#000" d="M166.859 213.248C166.859 213.248 157.993 214.9 160.511 216.025C163.028 217.151 167.159 218.048 167.159 218.048C167.159 218.048 170.014 218.2 166.859 213.248Z" opacity=".05"/><g opacity=".05"><path fill="#000" d="M158.721 217.81C158.498 217.671 158.309 217.484 158.168 217.262C158.027 217.04 157.939 216.789 157.909 216.528L157.819 216.685C157.819 216.685 156.993 218.711 158.42 219.611L158.884 219.915C159.145 219.867 159.429 219.83 159.704 219.76C160.913 219.46 160.148 218.711 158.721 217.81Z" opacity=".05"/><path fill="#000" d="M170.14 217.209C170.382 216.985 170.374 216.41 170.225 215.669C169.826 216.25 169.73 217.153 169.722 217.841C169.814 217.603 169.957 217.388 170.14 217.209Z" opacity=".05"/><path fill="#000" d="M168.774 179.888C168.446 180.775 168.244 181.703 168.176 182.646C168.345 181.995 168.575 181.361 168.861 180.752C168.861 180.752 168.828 180.413 168.774 179.888Z" opacity=".05"/><path fill="#000" d="M189.072 175.949C189.133 175.68 189.16 175.405 189.153 175.129C189.044 175.691 188.965 176.21 188.909 176.664C188.957 176.431 189.01 176.193 189.072 175.949Z" opacity=".05"/><path fill="#000" d="M168.561 206.558C168.685 206.373 168.753 205.756 168.786 204.892C168.505 205.439 168.39 206.323 168.354 206.996C168.405 206.842 168.475 206.695 168.561 206.558Z" opacity=".05"/><path fill="#000" d="M170.424 220.706C169.806 222.389 169.387 225.313 169.387 225.313L160.302 226.362C160.302 226.362 159.459 225.313 158.268 222.538C158.164 222.294 158.08 222.075 158.012 221.876C157.467 222.125 157.253 222.689 157.967 224.336C159.17 227.111 160.002 228.164 160.002 228.164L169.086 227.106C169.086 227.106 169.764 222.381 170.666 221.494C171.11 221.045 170.826 220.818 170.424 220.706Z" opacity=".05"/><path fill="#000" d="M158.42 207.232C158.42 207.232 158.496 212.409 159.246 212.709C159.625 211.853 159.878 211.025 159.527 210.905C158.777 210.607 158.701 205.43 158.701 205.43C158.701 205.43 157.197 199.277 157.577 197.627C157.956 195.977 156.374 192.001 156.374 192.001L155.849 187.276C153.143 182.624 154.196 178.348 154.196 178.348V171.075C154.196 171.075 152.092 156.97 151.791 149.843C151.6 145.281 151.653 139.052 151.715 135.165C151.715 134.461 151.74 133.838 151.752 133.313L151.49 133.339C151.49 133.339 151.451 134.784 151.415 136.964C151.353 140.85 151.299 147.065 151.49 151.644C151.791 158.771 153.896 172.874 153.896 172.874V180.152C153.896 180.152 152.842 184.428 155.548 189.078L156.073 193.806C156.073 193.806 157.65 197.782 157.276 199.417C156.902 201.053 158.42 207.232 158.42 207.232Z" opacity=".05"/><path fill="#000" d="M185.165 224.336C184.427 223.27 183.935 222.053 183.726 220.773C182.799 221.615 183.864 224.856 184.85 226.138C185.901 227.487 193.716 228.312 195.219 225.838V224.409C193.202 226.421 186.16 225.613 185.165 224.336Z" opacity=".05"/><path fill="#000" d="M196.585 215.86C196.171 216.577 195.819 217.328 195.531 218.105V219.157C195.703 218.772 195.947 218.259 196.284 217.656C196.501 217.266 196.591 216.578 196.613 215.795C196.602 215.821 196.593 215.843 196.585 215.86Z" opacity=".05"/><path fill="#000" d="M185.626 217.041C185.913 216.465 186.161 215.869 186.368 215.26C186.368 215.26 185.089 215.56 183.06 213.161C181.585 211.413 181.501 208.11 181.711 205.958C181.332 207.235 180.733 212.56 182.759 214.959C184.091 216.531 185.089 216.943 185.626 217.041Z" opacity=".05"/><path fill="#000" d="M181.709 200.405C181.841 201.884 181.891 203.369 181.858 204.853C181.896 204.618 181.948 204.386 182.012 204.157C182.392 202.883 182.012 198.607 182.012 198.607C182.012 198.607 182.088 195.604 181.487 194.631C180.886 193.657 179.596 188.104 179.596 188.104C179.596 188.104 179.596 186.227 178.545 185.253C177.494 184.28 176.817 180.453 176.817 180.453C176.202 179.495 175.937 178.356 176.066 177.226C176.291 175.351 174.788 173.326 174.788 173.326L172.234 165.222L169.831 159.147L168.477 162.672C168.477 162.672 168.457 163.115 168.432 163.811L169.53 160.946L171.933 167.024L174.487 175.124C174.487 175.124 175.991 177.15 175.766 179.027C175.636 180.156 175.901 181.295 176.516 182.251C176.516 182.251 177.193 186.078 178.244 187.052C179.295 188.026 179.315 189.903 179.315 189.903C179.315 189.903 180.593 195.456 181.195 196.429C181.796 197.403 181.709 200.405 181.709 200.405Z" opacity=".05"/></g><path fill="#FFCDD3" d="M188.026 62.4001L187.464 65.1387L187.498 66.3564L187.521 67.2571L184.373 67.5658L184.022 66.9176C183.373 65.7447 182.027 63.3569 181.589 62.9893C181.01 62.5011 179.976 54.8859 181.218 55.3377C181.974 55.6301 182.596 56.1918 182.963 56.9146C182.963 56.9146 189.128 57.6301 188.026 62.4001Z"/><path fill="#000" d="M187.509 67.2431L184.373 67.5657L184.021 66.9176C184.471 66.4546 185.755 65.4024 187.483 66.3564L187.509 67.2431Z" opacity=".1"/><path fill="#DCE6F2" d="M188.307 68.7248L184.168 69.6957L184.081 69.0784L183.848 67.4257C183.848 67.4257 185.48 65.2483 187.849 66.8785L188.054 67.7203L188.307 68.7248Z"/><path fill="#FFCDD3" d="M121.339 62.681L116.933 65.0492C116.933 65.0492 116.764 64.7012 116.534 64.2074C116.112 63.3291 115.488 62.0048 115.317 61.5306C115.056 60.801 113.212 59.8807 113.212 59.8807C108.596 55.4727 114.097 51.6847 114.097 51.6847C117.009 45.8344 120.257 53.6713 120.257 53.6713C120.257 53.6713 120.707 57.8015 120.389 58.0793C120.072 58.3571 120.072 59.4823 120.072 59.4823C120.493 60.2942 120.848 61.1387 121.134 62.0076C121.266 62.4285 121.339 62.681 121.339 62.681Z"/><path fill="#000" d="M121.339 62.6809L116.933 65.049C116.933 65.049 116.765 64.7011 116.534 64.2073C117.155 63.6882 119.364 61.9008 120.089 61.9822C120.436 62.0251 120.786 62.0336 121.134 62.0074C121.266 62.4283 121.339 62.6809 121.339 62.6809Z" opacity=".1"/><path fill="#DCE6F2" d="M121.791 64.0165L116.831 66.4576L116.733 65.3914L116.651 64.645C116.651 64.645 119.523 62.1871 120.372 62.2825C120.801 62.3457 121.238 62.3457 121.667 62.2825L121.723 63.1748L121.791 64.0165Z"/><path fill="#FFCDD3" d="M175.997 80.5794C175.997 80.5794 154.377 83.015 158.417 81.7018C161.227 80.7871 162.351 78.9997 162.582 77.0188C162.773 75.3605 162.346 73.5675 161.778 72.0243C161.267 70.6622 160.62 69.3555 159.845 68.1241C159.845 68.1241 176.373 59.0443 173.052 67.2823C172.542 68.531 172.227 69.85 172.116 71.1937C172.015 72.5282 172.159 73.87 172.54 75.1529C173.166 77.2467 174.363 79.1255 175.997 80.5794Z"/><path fill="#000" d="M173.066 67.2991C172.556 68.5478 172.241 69.8668 172.13 71.2106C170.573 72.5153 168.865 72.4311 166.673 72.4311C164.987 72.4311 163.124 72.838 161.778 72.0271C161.267 70.665 160.62 69.3583 159.845 68.1269C159.845 68.1269 176.373 59.047 173.066 67.2991Z" opacity=".1"/><path fill="#FFCDD3" d="M166.381 73.0037C171.319 73.0037 175.322 69.0063 175.322 64.0753C175.322 59.1443 171.319 55.147 166.381 55.147C161.443 55.147 157.439 59.1443 157.439 64.0753C157.439 69.0063 161.443 73.0037 166.381 73.0037Z"/><path fill="#000" d="M175.997 80.5795C175.997 80.5795 154.377 83.015 158.417 81.7019C161.227 80.7872 162.351 78.9998 162.582 77.0189C163.658 75.8572 165.822 75.0154 167.21 74.5693C168.483 74.1414 169.857 74.1188 171.144 74.5048C171.648 74.655 172.128 74.8781 172.568 75.167C173.189 77.2526 174.376 79.1259 175.997 80.5795Z" opacity=".1"/><path fill="#000" d="M188.307 68.7245L184.168 69.6953L184.081 69.078C185.247 67.5909 186.717 67.4113 188.054 67.7228L188.307 68.7245Z" opacity=".1"/><path fill="#000" d="M121.791 64.0163L116.832 66.4574L116.733 65.3912C118.507 64.3474 121.477 63.2728 121.735 63.1802L121.791 64.0163Z" opacity=".1"/><path fill="#000" d="M184.55 134.98C176.176 136.299 164.259 138.019 162.368 137.444C160.8 136.967 155.79 137.017 151.429 137.163C151.465 134.983 151.505 133.538 151.505 133.538L183.96 130.171C183.96 130.171 183.926 131.661 184.55 134.98Z" opacity=".1"/><path fill="#656691" d="M192.902 133.016C192.902 133.016 165.33 137.744 162.368 136.843C159.406 135.943 144.218 136.919 144.218 136.919C137.381 141.493 140.236 134.742 140.236 134.742C140.236 134.742 139.635 131.217 140.461 128.367C141.012 126.276 141.388 124.142 141.585 121.989C141.585 121.989 141.436 117.499 142.262 116.439C143.089 115.378 144.064 107.886 144.064 107.886C144.064 107.886 144.817 102.785 144.741 101.66C144.665 100.535 144.966 97.384 144.966 97.384L145.946 92.1426C140.326 91.3934 123.185 80.891 123.185 80.891C122.359 77.364 115.972 69.1063 115.972 69.1063C115.879 68.4123 115.703 67.7321 115.447 67.0804C114.994 65.8795 121.758 63.4805 121.758 63.4805C121.758 63.4805 126.791 69.631 127.841 71.2808C128.892 72.9307 132.5 76.0088 132.5 76.0088C133.061 75.9513 133.626 76.0252 134.153 76.2248C134.184 76.2248 134.209 76.2416 134.24 76.2501C134.271 76.2585 134.24 76.2501 134.24 76.2501C135.926 76.8365 137.612 78.1777 137.612 78.1777C140.318 78.029 142.195 79.9033 142.195 79.9033C142.195 79.9033 145.286 79.4544 145.8 79.9791C146.314 80.5038 148.956 79.9791 148.956 79.9791C148.956 79.9791 151.586 74.4262 153.314 76.0508C155.042 77.6755 162.374 77.5885 162.374 77.5885C163.352 76.2922 165.729 75.3634 167.215 74.8836C168.488 74.4556 169.863 74.4331 171.149 74.8191C171.704 74.9768 172.227 75.2293 172.695 75.5654L177.143 79.9146C177.143 79.9146 178.422 78.2647 178.267 77.8887C178.113 77.5127 179.77 77.2153 179.77 77.2153C179.77 77.2153 181.948 76.5391 182.774 76.3146C183.6 76.0901 184.359 76.9824 184.427 77.061C184.399 76.9656 183.834 75.1502 184.053 73.7641C184.272 72.3779 183.151 71.062 183.151 71.062C185.781 64.6084 191.716 70.0126 191.716 70.0126C191.716 70.0126 192.393 73.5396 191.792 74.8892C191.19 76.2388 192.393 79.098 192.241 79.8388C192.09 80.5796 192.542 81.8647 192.542 83.29C192.542 84.7154 191.792 87.4175 191.339 88.6212C190.887 89.825 187.268 92.5074 187.268 92.5074C187.268 92.5074 187.04 96.7836 185.464 99.2584C183.887 101.733 184.862 110.201 184.862 110.201C184.862 110.201 186.366 116.804 188.234 118.9C190.103 120.996 192.902 133.016 192.902 133.016Z"/><path fill="#000" d="M152.707 83.655C152.707 83.655 151.881 81.1802 151.131 80.9529C150.383 80.6783 149.654 80.353 148.95 79.9793L149.434 79.0562C149.434 79.0562 152.258 79.8278 152.707 80.6527C153.157 81.4776 152.707 83.655 152.707 83.655Z" opacity=".1"/><path fill="#000" d="M137.606 78.1778C137.457 78.9297 130.77 79.6031 130.77 79.6031L134.142 76.2192L134.226 76.2473C135.934 76.8365 137.606 78.1778 137.606 78.1778Z" opacity=".1"/><path fill="#575988" d="M118.26 68.4802C118.592 68.4802 118.861 68.2114 118.861 67.8798C118.861 67.5481 118.592 67.2793 118.26 67.2793C117.927 67.2793 117.658 67.5481 117.658 67.8798C117.658 68.2114 117.927 68.4802 118.26 68.4802Z"/><path fill="#575988" d="M119.029 69.6814C119.361 69.6814 119.63 69.4126 119.63 69.0809C119.63 68.7493 119.361 68.4805 119.029 68.4805C118.697 68.4805 118.428 68.7493 118.428 69.0809C118.428 69.4126 118.697 69.6814 119.029 69.6814Z"/><path fill="#575988" d="M119.782 70.7898C120.114 70.7898 120.383 70.5209 120.383 70.1893C120.383 69.8577 120.114 69.5889 119.782 69.5889C119.45 69.5889 119.181 69.8577 119.181 70.1893C119.181 70.5209 119.45 70.7898 119.782 70.7898Z"/><path fill="#575988" d="M120.569 71.988C120.901 71.988 121.17 71.7192 121.17 71.3876C121.17 71.0559 120.901 70.7871 120.569 70.7871C120.237 70.7871 119.968 71.0559 119.968 71.3876C119.968 71.7192 120.237 71.988 120.569 71.988Z"/><path fill="#575988" d="M191.386 71.8109C191.656 71.8109 191.875 71.5923 191.875 71.3227C191.875 71.0531 191.656 70.8345 191.386 70.8345C191.116 70.8345 190.897 71.0531 190.897 71.3227C190.897 71.5923 191.116 71.8109 191.386 71.8109Z"/><path fill="#575988" d="M191.463 72.9164C191.733 72.9164 191.952 72.6978 191.952 72.4282C191.952 72.1585 191.733 71.9399 191.463 71.9399C191.193 71.9399 190.974 72.1585 190.974 72.4282C190.974 72.6978 191.193 72.9164 191.463 72.9164Z"/><path fill="#575988" d="M191.53 74.0248C191.8 74.0248 192.019 73.8062 192.019 73.5366C192.019 73.2669 191.8 73.0483 191.53 73.0483C191.26 73.0483 191.041 73.2669 191.041 73.5366C191.041 73.8062 191.26 74.0248 191.53 74.0248Z"/><path fill="#000" d="M152.743 103.984C152.676 103.897 169.603 125.252 182.757 112.912C182.757 112.906 161.985 115.726 152.743 103.984Z" opacity=".1"/><path fill="#000" d="M143.016 115.086C143.016 115.086 153.149 115.367 154.211 118.274V121.301C153.923 121.462 153.598 121.547 153.268 121.547C152.938 121.547 152.613 121.462 152.325 121.301C151.302 120.74 145.177 117.654 143.016 119.138V115.086Z" opacity=".1"/><path fill="#656691" d="M143.204 115.086C143.204 115.086 152.896 115.35 153.91 118.125V121.012C153.635 121.166 153.324 121.247 153.008 121.247C152.692 121.247 152.382 121.166 152.106 121.012C151.131 120.488 145.269 117.525 143.204 118.95V115.086Z"/><path fill="#000" d="M148.548 93.1133C148.548 93.1133 149.708 96.0931 152.482 99.8474C154.197 102.145 156.274 104.148 158.633 105.779C158.633 105.779 148.716 94.505 148.548 93.1133Z" opacity=".1"/><path fill="#000" d="M145.232 81.354C145.232 81.354 146.918 88.6493 151.28 91.1185L145.232 81.354Z" opacity=".1"/><path fill="#000" d="M142.639 82.0921C142.597 81.9574 141.138 87.8554 148.259 91.1187C148.256 91.1187 145.232 90.0945 142.639 82.0921Z" opacity=".1"/><path fill="#000" d="M186.902 77.204C186.79 77.204 190.415 79.5076 191.398 80.571C191.398 80.5794 189.032 77.0524 186.902 77.204Z" opacity=".1"/><path fill="#2D293D" d="M163.964 72.1676C164.091 72.6278 164.245 73.1329 164.661 73.3742C164.924 73.5004 165.212 73.5647 165.504 73.5622C168.23 73.7305 171.065 73.8428 173.588 72.8018C174.058 72.6348 174.48 72.3554 174.816 71.9881C175.263 71.4409 175.35 70.6974 175.53 70.024C175.884 68.6912 176.637 67.4987 177.182 66.2332C178.096 64.0878 178.402 61.7333 178.068 59.4261C177.997 58.7174 177.764 58.0345 177.385 57.4311C176.66 56.4014 175.345 55.9833 174.387 55.164C173.428 54.3447 172.816 53.0904 171.7 52.4731C170.694 51.912 169.452 51.9821 168.328 52.1729C166.099 52.5525 163.962 53.3534 162.034 54.5327C161.387 54.9311 160.676 55.3884 159.929 55.2482C159.277 55.1247 158.805 54.5775 158.384 54.0641C157.85 55.2876 157.619 56.6216 157.712 57.953C157.741 58.1481 157.734 58.3467 157.692 58.5395C157.6 58.7728 157.458 58.9833 157.276 59.1568C156.605 59.9368 156.183 61.1714 156.849 61.9626C157.13 62.305 157.583 62.493 157.864 62.8409C158.369 63.4694 158.198 64.3701 158.187 65.1726C158.157 65.4512 158.226 65.7316 158.384 65.9638C158.636 66.2697 159.097 66.2949 159.488 66.2276C159.878 66.1603 160.277 66.0284 160.662 66.1154C161.082 66.2549 161.443 66.5317 161.685 66.901C162.944 68.4863 163.436 70.2568 163.964 72.1676Z"/><g opacity=".1"><path fill="#000" d="M175.117 71.3007C174.78 71.668 174.359 71.9474 173.889 72.1144C171.36 73.1638 168.53 73.0431 165.805 72.872C165.513 72.8768 165.224 72.8134 164.962 72.6868C164.549 72.4427 164.4 71.9404 164.265 71.4803C163.736 69.5554 163.245 67.7989 161.986 66.1996C161.743 65.8303 161.383 65.5535 160.963 65.4139C160.578 65.327 160.179 65.4588 159.788 65.5262C159.398 65.5935 158.945 65.5683 158.684 65.2624C158.527 65.0301 158.457 64.7498 158.487 64.4712C158.487 63.6687 158.667 62.7652 158.164 62.1395C157.883 61.7887 157.439 61.6035 157.147 61.2612C156.731 60.7646 156.742 60.094 156.976 59.4683C156.498 60.2259 156.29 61.1995 156.849 61.8589C157.13 62.204 157.583 62.3892 157.864 62.7399C158.367 63.3656 158.198 64.2691 158.187 65.0716C158.157 65.3503 158.226 65.6306 158.383 65.8629C158.636 66.1687 159.097 66.194 159.488 66.1266C159.878 66.0593 160.277 65.9274 160.662 66.0144C161.082 66.154 161.442 66.4308 161.685 66.8C162.944 68.3994 163.436 70.1671 163.964 72.0807C164.091 72.5381 164.245 73.0431 164.661 73.2873C164.924 73.4138 165.212 73.4773 165.504 73.4724C168.23 73.6436 171.065 73.753 173.588 72.7149C174.058 72.5479 174.48 72.2685 174.816 71.9011C174.987 71.6842 175.118 71.4392 175.204 71.1772C175.176 71.2193 175.148 71.2614 175.117 71.3007Z" opacity=".1"/><path fill="#000" d="M157.72 58.2925C157.845 58.1633 157.94 58.0094 158.001 57.8408C158.043 57.648 158.05 57.4494 158.021 57.2543C157.947 56.1608 158.089 55.0634 158.44 54.0247L158.392 53.9658C157.858 55.1893 157.627 56.5234 157.72 57.8548C157.734 58.0004 157.734 58.1469 157.72 58.2925Z" opacity=".1"/></g><path fill="#000" d="M162.368 77.5773C162.368 77.5773 173.538 79.056 174.541 77.3809L162.368 77.5773Z" opacity=".1"/><path fill="#000" d="M184.093 72.9644C184.093 72.9644 190.297 72.9644 191.663 75.2933L184.093 72.9644Z" opacity=".1"/><path fill="#A1616A" d="M68.4903 82.3507L65.6694 83.3519L64.6455 81.6527C63.8619 80.3456 62.7754 78.5575 61.9735 77.2583C60.5579 74.9708 62.4097 71.4887 62.4097 71.4887C62.4097 71.4887 62.7336 68.0066 63.9298 66.9191C65.1261 65.8316 65.4526 71.4887 65.4526 71.4887C70.235 73.6664 67.6727 78.7797 67.6727 78.7797L68.1377 80.8109L68.4903 82.3507Z"/><path fill="#000" d="M68.4912 82.3507L65.6704 83.3519L64.6465 81.6527V81.5037C64.6465 81.5037 66.2633 80.3927 68.1491 80.8109L68.4912 82.3507Z" opacity=".1"/><path fill="#5A5773" d="M63.9307 93.8006L65.3437 92.6138L64.6359 81.8381C64.6359 81.8381 68.2795 79.3363 70.9985 83.255C70.9985 83.255 70.8888 85.6496 70.9985 86.3031C71.1082 86.9566 70.2385 87.6102 70.9985 88.2611C71.7586 88.9121 70.9985 91.0897 70.9985 91.0897C70.9985 91.0897 71.8579 92.6138 72.4011 93.0503C72.9444 93.4869 73.4903 97.0762 72.4011 97.8395C71.312 98.6029 69.2485 100.341 69.2485 101.105C69.2485 101.868 66.6366 103.719 66.6366 103.719L64.3512 100.671L63.9307 93.8006Z"/><path fill="#A1616A" d="M33.3708 159.216C28.0999 156.978 29.2701 151.512 30.2626 148.759C30.4616 148.201 30.6945 147.657 30.96 147.128L33.9219 145.337C33.9219 145.337 34.5253 146.877 35.1704 148.944C36.6618 153.731 38.3831 161.344 33.3708 159.216Z"/><path fill="#A1616A" d="M40.6162 209.092C40.2588 209.787 39.9953 210.526 39.8326 211.29C39.5761 212.522 39.4665 213.781 39.5061 215.039C39.527 215.909 39.6001 216.479 39.6001 216.479L33.7285 220.521C33.7285 220.521 33.7625 220.048 33.8199 219.352C33.9714 217.502 34.2875 214.066 34.5852 213.622C34.7916 213.311 34.9352 212.072 35.0266 210.924C35.1181 209.777 35.1546 208.765 35.1546 208.765C35.1546 208.765 42.2068 206.111 40.6162 209.092Z"/><path fill="#A1616A" d="M54.4827 211.991C54.4827 211.991 54.4827 213.115 54.4409 214.422C54.3991 215.729 54.3208 217.269 54.1562 217.991C54.0047 218.647 53.9943 219.86 54.023 220.976C54.0622 222.283 54.1562 223.46 54.1562 223.46C54.1562 223.46 48.1488 217.787 48.773 217.337C48.9376 217.217 49.0995 216.733 49.2484 216.09C49.4312 215.306 49.5958 214.26 49.7185 213.369C49.8648 212.323 49.9562 211.46 49.9562 211.46L54.4827 211.991Z"/><path fill="#605D82" d="M66.7573 156.4C64.3648 161.628 63.3853 167.827 63.3853 167.827L62.5181 173.055C62.5181 173.055 62.9517 175.34 62.5181 176.21C62.0845 177.081 61.2122 178.495 61.2122 178.495C61.2122 178.495 61.8651 183.831 61.2122 184.372C60.5592 184.913 61.2122 188.183 61.2122 188.183L59.0364 199.176L55.9909 213.324C53.0551 215.719 49.1477 212.671 49.1477 212.671L50.0096 203.422C50.0096 203.422 51.3156 187.214 50.7723 186.55C50.229 185.886 50.9891 183.831 50.9891 183.831C50.9891 183.831 51.7518 181.87 51.2085 181.107C50.6652 180.343 51.3156 178.712 51.3156 178.712C51.3156 178.712 51.0988 172.075 51.7518 170.551C52.4047 169.027 51.7518 159.597 51.7518 159.597L51.4906 156.662L51.3417 155.036L51.326 154.876C51.326 154.876 51.2268 155.53 51.0648 156.539C50.5842 159.61 49.5604 165.976 49.1555 167.286C48.8753 168.225 48.4971 169.133 48.0272 169.994C48.0272 169.994 48.5913 173.259 48.0272 174.13C47.463 175 47.941 175.98 47.941 175.98C47.941 175.98 48.4842 178.699 46.8518 179.789C45.2193 180.879 46.8518 181.421 46.8518 181.421C46.8518 181.421 45.6555 184.035 45.2219 185.122C44.7884 186.21 45.2219 187.736 45.2219 187.736L44.3705 196.549C44.3705 196.549 43.6078 200.248 43.7175 202.752C43.8272 205.257 42.7249 211.037 42.7249 211.037C42.7249 211.037 34.3511 211.037 33.0608 210.056C31.7705 209.076 35.2287 199.487 35.2287 199.487C35.2287 199.487 36.2082 182.725 35.9888 182.288C35.7694 181.852 35.9888 178.589 36.7515 177.936C37.5142 177.282 36.7515 175.978 36.7515 175.978C36.7515 175.978 36.5347 173.364 36.7515 172.713C36.9683 172.062 36.7175 169.881 36.7175 169.881C36.7175 169.881 35.9888 164.549 35.8817 161.5C35.7746 158.452 35.2287 151.595 35.2287 151.595C35.2287 151.595 35.7981 147.355 35.8843 145.337C35.9156 144.594 36.2474 143.669 36.6548 142.796C37.1258 141.809 37.667 140.858 38.2742 139.949C38.2742 139.949 64.0461 132.331 65.1353 133.092C65.4226 133.293 65.8405 134.66 66.2532 136.642C67.3946 142.166 68.5177 152.542 66.7573 156.4Z"/><path fill="#5A5773" d="M45.6594 94.3445C45.6594 94.3445 38.6986 95.4347 37.0688 96.5222C35.439 97.6097 32.1741 99.6723 32.1741 104.143C32.1741 108.613 31.414 113.175 30.9778 114.482C30.5416 115.789 37.8393 126.337 37.8393 126.337L35.2274 142.336C35.2274 142.336 45.6751 142.012 49.1542 142.336C52.6333 142.66 64.8075 136.896 64.8075 136.896C64.8075 136.896 71.9851 133.084 73.5078 132.974C75.0306 132.865 70.4623 124.593 70.4623 124.593C70.4623 124.593 63.3944 111.206 64.5907 109.028C65.7869 106.851 66.6567 103.695 66.6567 103.695L65.3508 92.593C65.3508 92.593 63.3944 91.9421 61.762 93.1368C60.1295 94.3315 54.5844 93.6831 54.5844 93.6831L45.6594 94.3445Z"/><path fill="#5A5773" d="M33.6968 113.718L30.9778 114.482L30.2178 124.714C30.2178 124.714 31.1972 127.432 30.2178 128.306C29.2383 129.179 29.0215 147.787 29.0215 147.787C29.0215 147.787 32.1741 150.074 35.8726 148.33C35.8726 148.33 35.3293 146.263 36.9591 138.752C38.589 131.241 38.5916 127.432 38.5916 127.432C38.5916 127.432 38.5916 118.074 39.3517 116.55C40.1117 115.026 39.3517 111.217 39.3517 111.217C39.3517 111.217 37.8289 109.149 37.9386 108.385C38.0483 107.622 33.6968 113.718 33.6968 113.718Z"/><path fill="#000" d="M61.538 115.357C61.538 115.357 60.1249 127.547 55.9902 129.832C55.9902 129.827 65.2339 127.215 61.538 115.357Z" opacity=".1"/><path fill="#000" d="M40.7686 116.439C40.7686 116.439 45.8775 118.944 44.6864 120.685C43.4954 122.426 40.7686 116.439 40.7686 116.439Z" opacity=".1"/><path fill="#000" d="M40.7686 121.449C40.7686 121.449 44.0308 124.821 43.3805 126.018C42.7301 127.216 40.7686 121.449 40.7686 121.449Z" opacity=".1"/><path fill="#000" d="M67.0938 93.4741C67.0938 93.4741 68.3736 95.6518 68.4964 97.066C68.6191 98.4803 67.0938 93.4741 67.0938 93.4741Z" opacity=".1"/><path fill="#000" d="M67.0938 90.5356C67.0938 90.5356 67.7363 89.9919 69.3766 90.5356C71.0169 91.0794 67.0938 90.5356 67.0938 90.5356Z" opacity=".1"/><path fill="#000" d="M39.3525 176.645C39.4753 176.561 45.0622 175.256 45.757 176.195L39.3525 176.645Z" opacity=".1"/><path fill="#5A5773" d="M40.17 220.113C39.3417 222.003 38.9241 224.048 38.945 226.113C38.9777 227.809 38.5479 229.482 37.7017 230.951C37.5798 231.158 37.4418 231.355 37.2891 231.54C37.2891 231.54 33.2092 231.508 31.7805 230.321C31.624 230.198 31.495 230.043 31.4018 229.867C30.5842 228.235 32.9924 221.99 32.9924 221.99C34.2566 217.172 36.8241 214.602 36.8241 214.602C41.3924 213.418 40.17 220.113 40.17 220.113Z"/><path fill="#5A5773" d="M37.1372 222.592L36.8525 233.135H38.2212C38.2212 233.135 38.4432 223.886 39.0544 222.592C39.6656 221.298 37.1372 222.592 37.1372 222.592Z"/><path fill="#5A5773" d="M55.0531 229.786C55.0065 229.803 54.9584 229.817 54.9094 229.825C54.2042 229.951 51.6053 229.877 50.1505 229.825C49.8852 229.813 49.6347 229.699 49.4498 229.509C49.265 229.318 49.1597 229.064 49.1553 228.798C49.1553 228.406 49.1553 227.927 49.124 227.418C49.0561 225.807 48.8628 223.891 48.2855 223.46C47.2643 222.675 46.4572 220.012 48.2855 216.642C48.2855 216.642 51.7908 213.965 54.3191 222.017C54.3191 222.017 54.5646 224.317 55.6668 225.133C56.7691 225.948 55.5441 229.54 55.0531 229.786Z"/><path fill="#5A5773" d="M48.7295 222.764L49.3851 231.54H50.2209V222.017L48.7295 222.764Z"/><path fill="#4A4347" d="M50.7714 70.0586C48.401 70.2391 46.1073 70.981 44.0797 72.2231C43.5573 72.5395 43.0349 72.9211 42.8181 73.491C42.63 73.9825 42.7084 74.5367 42.7162 75.0595C42.7868 79.5612 37.7719 82.9675 37.9286 87.4665C37.9913 89.252 38.8872 90.9146 39.0517 92.6949C39.326 95.6646 37.5708 98.3964 35.8887 100.856C37.6215 100.961 39.3281 100.395 40.6554 99.2748C42.4344 105.198 42.6664 111.478 41.3293 117.517H43.7349C43.9726 117.501 44.2111 117.531 44.4375 117.606C44.6492 117.705 44.8384 117.846 44.9938 118.021C47.2427 120.262 48.7498 123.574 47.8905 126.632L53.0098 124.711C54.2348 124.251 55.4781 123.783 56.5438 123.022C57.6094 122.261 58.5027 121.166 58.7273 119.885C58.8658 119.101 58.8214 118.165 59.4665 117.71C59.7834 117.539 60.1228 117.413 60.4747 117.336C61.8799 116.84 62.5016 115.214 62.7889 113.75C63.1388 111.953 63.2485 110.119 63.1154 108.294C62.8882 105.235 61.9844 102.13 62.7288 99.1441C63.1493 97.4684 64.0844 95.9051 64.1602 94.1771C64.2829 91.3224 62.0549 88.8677 61.7232 86.0313C61.4908 84.0524 62.2038 82.0551 61.9714 80.0788C61.8423 79.0587 61.4694 78.0849 60.8842 77.2398C60.299 76.3947 59.5188 75.7033 58.6098 75.2242C57.9803 74.9001 57.3039 74.6831 56.6822 74.325C55.2639 73.5015 54.3576 72.0166 53.0699 70.9971C51.7822 69.9776 49.6379 69.5933 48.6688 70.9213L50.7714 70.0586Z"/><path fill="#000" d="M33.0596 125.529C33.0596 125.529 35.0028 124.714 35.4364 125.529C35.87 126.345 33.0596 125.529 33.0596 125.529Z" opacity=".1"/><path fill="#000" d="M33.7344 126.928C33.7344 126.928 35.6776 126.109 36.1138 126.928C36.55 127.746 33.7344 126.928 33.7344 126.928Z" opacity=".1"/><path fill="#6C63FF" d="M42.8524 234.573C60.0011 234.573 73.9029 233.894 73.9029 233.056C73.9029 232.219 60.0011 231.54 42.8524 231.54C25.7036 231.54 11.8018 232.219 11.8018 233.056C11.8018 233.894 25.7036 234.573 42.8524 234.573Z" opacity=".1"/></g><defs><linearGradient id="paint0_linear" x1="216.523" x2="216.523" y1="104.326" y2="45.584" gradientUnits="userSpaceOnUse"><stop stop-color="gray" stop-opacity=".25"/><stop offset=".54" stop-color="gray" stop-opacity=".12"/><stop offset="1" stop-color="gray" stop-opacity=".1"/></linearGradient><linearGradient id="paint1_linear" x1="11998.7" x2="11998.7" y1="24638" y2="10818.8" gradientUnits="userSpaceOnUse"><stop stop-color="gray" stop-opacity=".25"/><stop offset=".54" stop-color="gray" stop-opacity=".12"/><stop offset="1" stop-color="gray" stop-opacity=".1"/></linearGradient><linearGradient id="paint2_linear" x1="45971" x2="45971" y1="56578.2" y2="35541.2" gradientUnits="userSpaceOnUse"><stop stop-color="gray" stop-opacity=".25"/><stop offset=".54" stop-color="gray" stop-opacity=".12"/><stop offset="1" stop-color="gray" stop-opacity=".1"/></linearGradient><linearGradient id="paint3_linear" x1="12133.4" x2="12133.4" y1="52115.2" y2="32773.6" gradientUnits="userSpaceOnUse"><stop stop-color="gray" stop-opacity=".25"/><stop offset=".54" stop-color="gray" stop-opacity=".12"/><stop offset="1" stop-color="gray" stop-opacity=".1"/></linearGradient><linearGradient id="paint4_linear" x1="32694.6" x2="32694.6" y1="53621.6" y2="34553.4" gradientUnits="userSpaceOnUse"><stop stop-color="gray" stop-opacity=".25"/><stop offset=".54" stop-color="gray" stop-opacity=".12"/><stop offset="1" stop-color="gray" stop-opacity=".1"/></linearGradient><linearGradient id="paint5_linear" x1="43553.9" x2="43553.9" y1="14111.6" y2="7130.89" gradientUnits="userSpaceOnUse"><stop stop-color="gray" stop-opacity=".25"/><stop offset=".54" stop-color="gray" stop-opacity=".12"/><stop offset="1" stop-color="gray" stop-opacity=".1"/></linearGradient><linearGradient id="paint6_linear" x1="55373.9" x2="55373.9" y1="163137" y2="37927.2" gradientUnits="userSpaceOnUse"><stop stop-color="gray" stop-opacity=".25"/><stop offset=".54" stop-color="gray" stop-opacity=".12"/><stop offset="1" stop-color="gray" stop-opacity=".1"/></linearGradient><clipPath id="clip0"><rect width="294" height="239" fill="#fff"/></clipPath></defs></svg>