<svg xmlns="http://www.w3.org/2000/svg" width="385" height="347" fill="none" viewBox="0 0 385 347"><g clip-path="url(#clip0)"><path fill="url(#paint0_linear)" d="M360.66 347L139.809 328.906L164.148 28.0664L385 46.16L360.66 347Z"/><path fill="#F9BF64" d="M358.013 342.706L143.11 325.094L166.796 32.3613L381.698 49.9682L358.013 342.706Z"/><path fill="url(#paint1_linear)" d="M370.714 296.415L153.11 338.478L96.5283 42.0636L314.133 0L370.714 296.415Z"/><path fill="#E0E0E0" d="M367.02 292.99L155.28 333.922L100.223 45.4885L311.963 4.56055L367.02 292.99Z"/><path fill="url(#paint2_linear)" d="M344.413 22.3882H122.831V324.224H344.413V22.3882Z"/><path fill="#fff" d="M341.431 26.4531H125.816V320.155H341.431V26.4531Z"/><path fill="url(#paint3_linear)" d="M198.474 77.1289C198.709 96.7817 214.735 112.523 234.267 112.28C253.798 112.036 269.45 95.9165 269.206 76.2591C269.13 68.9535 266.806 61.8482 262.549 55.9074C258.293 49.9666 252.31 45.478 245.412 43.0508L245.521 52.217C245.569 55.4042 244.351 58.4806 242.133 60.7722C239.916 63.0638 236.879 64.3838 233.689 64.4431C230.504 64.4612 227.442 63.219 225.171 60.9881C222.9 58.7571 221.605 55.7188 221.569 52.537L221.461 43.3707C214.626 45.9625 208.754 50.5917 204.642 56.6306C200.53 62.6695 198.377 69.8258 198.474 77.1289Z"/><path fill="#006" d="M269.22 73.384C269.22 53.7267 253.387 37.7827 233.852 37.7827C214.316 37.7827 198.483 53.7177 198.483 73.384C198.471 80.6909 200.709 87.8247 204.893 93.8172C209.078 99.8097 215.007 104.371 221.876 106.881V97.7146C221.873 94.5327 223.132 91.4792 225.376 89.2212C227.62 86.9633 230.667 85.6844 233.852 85.6642C237.036 85.6844 240.084 86.9633 242.328 89.2212C244.572 91.4792 245.83 94.5327 245.828 97.7146V106.885C252.697 104.375 258.626 99.8132 262.811 93.8198C266.996 87.8265 269.234 80.6916 269.22 73.384Z"/><path fill="#fff" stroke="#fff" stroke-miterlimit="10" d="M233.874 82.1715C241.383 82.1715 247.47 76.046 247.47 68.4898C247.47 60.9336 241.383 54.8081 233.874 54.8081C226.366 54.8081 220.279 60.9336 220.279 68.4898C220.279 76.046 226.366 82.1715 233.874 82.1715Z"/><path fill="#fff" stroke="#fff" stroke-miterlimit="10" d="M233.852 85.6641C230.667 85.6843 227.62 86.9631 225.376 89.2211C223.132 91.479 221.874 94.5325 221.876 97.7144V106.885C229.615 109.677 238.088 109.677 245.828 106.885V97.7144C245.83 94.5325 244.572 91.479 242.328 89.2211C240.084 86.9631 237.037 85.6843 233.852 85.6641Z"/><path fill="#fff" d="M220.162 67.7326C219.07 65.6052 218.57 63.2241 218.714 60.8377C218.868 58.4452 219.949 56.2067 221.727 54.5962C223.707 52.8972 226.391 52.2979 228.984 52.0906C231.578 51.8833 234.208 52.0095 236.761 51.5002C238.875 51.0672 240.881 50.2177 242.662 49.0014C244.443 47.785 245.964 46.2262 247.135 44.416C247.298 46.4214 247.46 48.4719 247.077 50.4367C246.693 52.4015 245.683 54.3573 243.978 55.3938C246.044 54.434 245.818 56.6872 245.372 58.0346C246.396 59.2784 248.881 59.4857 249.007 61.0946C249.134 62.7034 249.111 64.3663 248.489 65.8489C247.866 67.3315 248.534 69.9498 246.937 70.0625"/><path stroke="#fff" stroke-miterlimit="10" d="M220.162 67.7326C219.07 65.6052 218.57 63.224 218.714 60.8377C218.868 58.4452 219.949 56.2067 221.727 54.5962C223.707 52.8972 226.391 52.2979 228.984 52.0906C231.578 51.8833 234.208 52.0095 236.761 51.5002C238.875 51.0672 240.881 50.2177 242.662 49.0014C244.443 47.785 245.964 46.2262 247.135 44.416C247.298 46.4214 247.46 48.4719 247.077 50.4367C246.693 52.4015 245.683 54.3573 243.978 55.3938C246.044 54.434 245.818 56.6872 245.372 58.0346C246.396 59.2784 248.881 59.4857 249.007 61.0946C249.134 62.7034 249.111 64.3663 248.489 65.8489C247.866 67.3315 248.534 69.9498 246.937 70.0625"/><path fill="#fff" d="M244.735 55.0967C244.735 55.0967 254.208 55.9304 247.469 70.0988L244.735 55.0967Z"/><path fill="url(#paint4_linear)" d="M175.303 258.673H146.015V288.145H175.303V258.673Z"/><path fill="#006" d="M172.773 261.214H148.537V285.603H172.773V261.214Z"/><path fill="#69F0AE" d="M269.22 136.718H198.528V141.802H269.22V136.718Z"/><path fill="#E0E0E0" d="M317.696 143.834H198.528V148.917H317.696V143.834Z"/><path fill="#E0E0E0" d="M317.696 150.945H198.528V156.028H317.696V150.945Z"/><path fill="#69F0AE" d="M269.22 200.237H198.528V205.32H269.22V200.237Z"/><path fill="#E0E0E0" d="M317.696 207.348H198.528V212.431H317.696V207.348Z"/><path fill="#E0E0E0" d="M317.696 214.464H198.528V219.547H317.696V214.464Z"/><path fill="#006" d="M269.22 263.751H198.528V268.835H269.22V263.751Z"/><path fill="#E0E0E0" d="M317.696 270.867H198.528V275.951H317.696V270.867Z"/><path fill="#E0E0E0" d="M317.696 277.983H198.528V283.066H317.696V277.983Z"/></g><defs><linearGradient id="paint0_linear" x1="250.176" x2="274.632" y1="337.984" y2="37.025" gradientUnits="userSpaceOnUse"><stop stop-color="gray" stop-opacity=".25"/><stop offset=".54" stop-color="gray" stop-opacity=".12"/><stop offset="1" stop-color="gray" stop-opacity=".1"/></linearGradient><linearGradient id="paint1_linear" x1="235627" x2="192881" y1="229562" y2="6749.59" gradientUnits="userSpaceOnUse"><stop stop-color="gray" stop-opacity=".25"/><stop offset=".54" stop-color="gray" stop-opacity=".12"/><stop offset="1" stop-color="gray" stop-opacity=".1"/></linearGradient><linearGradient id="paint2_linear" x1="114887" x2="114887" y1="217181" y2="15017.6" gradientUnits="userSpaceOnUse"><stop stop-color="gray" stop-opacity=".25"/><stop offset=".54" stop-color="gray" stop-opacity=".12"/><stop offset="1" stop-color="gray" stop-opacity=".1"/></linearGradient><linearGradient id="paint3_linear" x1="236.094" x2="232.496" y1="111.705" y2="42.234" gradientUnits="userSpaceOnUse"><stop stop-opacity=".12"/><stop offset=".55" stop-opacity=".09"/><stop offset="1" stop-opacity=".02"/></linearGradient><linearGradient id="paint4_linear" x1="10577.5" x2="10577.5" y1="19103.4" y2="17175.9" gradientUnits="userSpaceOnUse"><stop stop-color="gray" stop-opacity=".25"/><stop offset=".54" stop-color="gray" stop-opacity=".12"/><stop offset="1" stop-color="gray" stop-opacity=".1"/></linearGradient><clipPath id="clip0"><rect width="385" height="347" fill="#fff"/></clipPath></defs></svg>