<svg width="322" height="104" viewBox="0 0 322 104" fill="none" xmlns="http://www.w3.org/2000/svg">
<path d="M45.1758 1.631C45.0898 3.546 44.7448 4.832 43.9988 6.092C43.3098 7.266 42.6778 8.601 42.5058 9.268C42.2908 10.084 42.3188 12.197 42.5488 12.864C42.8788 13.778 43.3818 14.508 44.1278 15.125C44.8028 15.669 45.3628 15.866 45.3628 15.533C45.3628 15.447 45.2338 15.063 45.0758 14.668C44.6448 13.63 44.6888 12.456 45.2198 10.948C45.4498 10.281 45.7078 9.663 45.7658 9.589C45.8378 9.515 46.0098 9.119 46.1538 8.712C46.2978 8.304 46.4408 7.921 46.4838 7.859C46.5268 7.797 46.7138 8.131 46.8998 8.588C47.1008 9.045 47.3738 9.539 47.5318 9.675C47.6758 9.823 47.8048 9.972 47.8048 10.021C47.8048 10.083 47.9628 10.318 48.1348 10.552C48.3218 10.787 48.6228 11.331 48.7948 11.763C48.9818 12.183 49.1828 12.64 49.2538 12.752C49.4548 13.086 49.4118 14.272 49.1678 14.655C48.8948 15.112 48.8948 15.569 49.1538 15.569C49.5698 15.569 49.8138 15.408 50.4168 14.729C50.7618 14.334 51.0768 14 51.1198 13.963C51.1768 13.926 51.3348 13.617 51.4788 13.283C51.8378 12.43 51.8378 9.909 51.4788 8.773C51.2058 7.859 50.0148 5.696 49.6848 5.474C49.5558 5.388 49.3398 5.313 49.2108 5.313C48.9808 5.313 48.9528 5.437 48.9528 6.166C48.9528 7.834 48.4508 7.216 48.2348 5.276C48.0628 3.818 47.8328 2.718 47.6468 2.52C47.5748 2.446 47.5608 2.347 47.6178 2.31C47.6608 2.261 47.6468 2.224 47.5608 2.224C47.4888 2.224 47.3308 2.002 47.2308 1.73C47.1308 1.458 46.9578 1.174 46.8438 1.1C46.7428 1.026 46.6568 0.901999 46.6568 0.827999C46.6568 0.580999 45.8958 0 45.5798 0C45.2768 0 45.2618 0.0619986 45.1758 1.631Z" fill="#000066"/>
<path d="M31.2521 7.69888C30.6921 8.08188 30.5631 10.2819 31.0221 11.8019C31.1801 12.3459 31.3521 12.9139 31.3951 13.0619C31.4381 13.2229 31.5241 13.3459 31.5961 13.3459C31.6681 13.3459 31.7111 13.3829 31.6961 13.4319C31.6821 13.4939 31.7531 13.6909 31.8541 13.8889C32.1121 14.4329 32.2271 15.3219 32.0411 15.3219C31.8401 15.3219 31.4241 14.7909 31.0791 14.1109C30.9351 13.8269 30.7781 13.5919 30.7201 13.5919C30.2461 13.5919 30.0451 16.2489 30.4191 17.6699C30.6771 18.6829 31.3231 20.3889 31.4381 20.3889C31.4951 20.3889 31.7831 20.7229 32.0701 21.1299C32.3711 21.5379 32.6441 21.8719 32.7021 21.8719C32.7601 21.8719 33.0471 22.0569 33.3481 22.2919C33.6491 22.5149 34.1521 22.7739 34.4681 22.8609C34.7691 22.9469 35.0281 23.0709 35.0281 23.1329C35.0281 23.1829 35.2291 23.2319 35.4591 23.2319C36.0331 23.2319 36.0191 22.9599 35.4161 22.3179C34.3821 21.2179 34.0521 19.9329 34.3251 18.0669C34.4111 17.4239 34.4541 16.4849 34.4111 15.9789L34.3251 15.0649L35.2151 15.8439C38.3881 18.6489 39.1911 19.7609 39.1911 21.3309C39.1911 22.3689 39.7801 22.2949 40.2101 21.1949C40.3251 20.9229 40.4681 20.6639 40.5401 20.6139C40.7271 20.5029 40.7271 18.3769 40.5401 18.0309C40.4401 17.8699 40.2531 17.4499 40.1241 17.1169C39.9801 16.7709 39.7511 16.3509 39.6071 16.1649C39.4491 15.9919 39.3341 15.8069 39.3341 15.7569C39.3341 15.5959 36.9511 13.4709 36.7641 13.4709C36.6351 13.4709 34.5251 11.7039 34.0941 11.2469C33.2901 10.3449 32.5871 9.35588 32.2131 8.56488C31.7681 7.61188 31.5961 7.46388 31.2521 7.69888Z" fill="#000066"/>
<path d="M60.2921 8.23008C60.1341 8.53908 60.0051 8.81107 60.0051 8.83607C60.0051 8.86107 59.8331 9.12008 59.6181 9.41708C59.3881 9.71408 59.1591 10.0351 59.0721 10.1461C58.2971 11.2091 56.5741 12.8281 55.2681 13.7171C54.3061 14.3721 53.6891 14.9161 53.1431 15.6201C52.8561 15.9661 52.5971 16.2751 52.5401 16.3121C52.2961 16.4731 51.6791 18.0671 51.5921 18.7831C51.4201 20.2911 52.0511 22.1191 52.7401 22.1191C53.0561 22.1191 53.0851 22.0701 53.1421 21.1431C53.2431 19.5611 53.6881 18.9681 56.9891 15.9411L57.7781 15.2121L57.7921 17.0661C57.8061 18.1541 57.8781 18.9691 57.9641 19.0681C58.0651 19.1671 58.0651 19.2911 57.9931 19.4021C57.9071 19.5011 57.8491 19.7971 57.8491 20.0571C57.8491 20.7001 57.3751 21.7871 56.8591 22.3551C56.6151 22.6141 56.4141 22.9601 56.4141 23.1091C56.4141 23.3441 56.4711 23.3681 56.8161 23.3071C57.5341 23.1591 58.8541 22.4791 59.4001 21.9851C59.6871 21.7131 60.0321 21.3921 60.1611 21.2811C60.4481 21.0221 61.0651 19.8971 61.3091 19.1801C61.3951 18.8961 61.5241 18.6611 61.5821 18.6611C61.9551 18.6611 62.2141 14.6451 61.8831 14.1011C61.5821 13.6441 61.2371 13.7801 60.8781 14.5091C60.7061 14.8801 60.4621 15.2501 60.3471 15.3371C59.9881 15.5961 60.1031 14.8061 60.6481 13.3851C61.3081 11.6671 61.4951 10.6791 61.3951 9.53008C61.3231 8.55408 60.9931 7.66407 60.7201 7.66407C60.6371 7.66207 60.4361 7.92108 60.2921 8.23008Z" fill="#000066"/>
<path d="M9.61816 15.6811C9.61816 16.6321 10.9962 18.4121 12.5612 19.4621C12.8622 19.6601 13.2212 19.9191 13.3362 20.0181C13.4652 20.1171 13.7672 20.3151 14.0252 20.4501C14.4562 20.6851 15.4172 21.6121 15.3172 21.6981C15.2312 21.7721 13.4942 20.9811 13.4942 20.8701C13.4942 20.8081 13.3942 20.7591 13.2792 20.7591C13.1502 20.7591 13.0642 20.8831 13.0642 21.0801C13.0642 21.4511 13.6242 22.6121 13.7962 22.6121C13.8682 22.6121 14.0112 22.7731 14.1412 22.9701C14.4422 23.4771 16.4522 25.2191 17.1562 25.5771C17.4722 25.7381 17.7592 25.9111 17.8022 25.9601C17.9462 26.1211 19.7542 26.8001 20.3862 26.9241C21.1042 27.0721 22.7122 27.0851 23.2572 26.9491C23.4722 26.9001 23.6302 26.7641 23.6592 26.6031C23.7022 26.3811 23.6022 26.3311 23.1132 26.2571C22.7972 26.2081 22.4532 26.1091 22.3522 26.0221C22.2662 25.9481 22.0222 25.8241 21.8212 25.7501C20.8592 25.3791 19.7112 24.1311 18.5912 22.2651C18.3042 21.7831 18.0032 21.3751 17.9452 21.3751C17.8872 21.3751 17.7012 21.1771 17.5292 20.9431C17.3712 20.7081 17.2712 20.5111 17.3142 20.5111C17.5442 20.5111 18.7492 20.8081 18.8072 20.8821C18.8502 20.9311 19.5102 21.0921 20.2862 21.2401C21.0472 21.3881 21.6792 21.5611 21.6792 21.6231C21.6792 21.6731 21.9232 21.7591 22.2102 21.8081C22.7272 21.8821 23.5452 22.1911 23.6892 22.3521C23.7322 22.4021 23.9472 22.5371 24.1772 22.6611C24.6362 22.9081 25.2542 23.4891 25.4832 23.8971C25.5692 24.0451 25.7562 24.1691 25.8992 24.1941C26.1432 24.2431 26.1572 24.1691 26.1002 23.4521C26.0282 22.3891 25.4542 21.4131 24.4062 20.4991C23.9322 20.0911 23.5022 19.7701 23.4302 19.7701C23.3732 19.7701 23.1862 19.6711 23.0282 19.5481C22.8842 19.4371 22.4682 19.2271 22.1092 19.0911C21.7502 18.9551 21.4342 18.8071 21.3912 18.7701C21.2912 18.6341 19.7112 18.3131 18.7782 18.2141C18.3192 18.1651 17.9452 18.0781 17.9452 18.0291C17.9452 17.9671 17.7302 17.9181 17.4862 17.9181C16.8832 17.9181 14.4712 17.4611 14.3712 17.3251C14.3282 17.2761 13.8972 17.1151 13.4382 16.9911C12.9642 16.8551 12.5192 16.6821 12.4332 16.6201C12.3472 16.5461 12.0312 16.3971 11.7442 16.2861C11.4432 16.1621 10.9402 15.9031 10.6102 15.6931C9.84817 15.2241 9.61816 15.2241 9.61816 15.6811Z" fill="#000066"/>
<path d="M81.8969 15.5953C81.7389 15.6693 81.4949 15.8423 81.3369 15.9663C81.1789 16.0773 80.8489 16.2383 80.5759 16.3243C80.3179 16.3983 80.1019 16.4973 80.1019 16.5463C80.1019 16.6083 79.7999 16.7443 79.4269 16.8673C79.0389 16.9913 78.4789 17.1883 78.1639 17.2993C77.8479 17.4233 77.0729 17.6083 76.4409 17.7313C75.8089 17.8423 75.1629 17.9783 75.0049 18.0403C74.8469 18.1023 74.3589 18.1883 73.9279 18.2253C72.9089 18.3363 71.1429 18.6703 71.0569 18.7693C71.0139 18.8193 70.7549 18.9303 70.4829 19.0283C69.5789 19.3253 68.4159 20.0413 67.5829 20.7953C67.1379 21.2153 66.8079 21.5983 66.8369 21.6483C66.8799 21.6973 66.8509 21.7473 66.7799 21.7473C66.5789 21.7473 66.0619 22.9333 65.9469 23.6253C65.8749 24.1193 65.9039 24.2303 66.1189 24.3053C66.2909 24.3543 66.4199 24.3053 66.5209 24.1443C66.6069 24.0213 67.0379 23.6003 67.4829 23.2173C68.3439 22.4883 69.4929 21.9073 70.3829 21.7843C70.6699 21.7473 70.9139 21.6733 70.9139 21.6113C70.9139 21.5623 71.5459 21.3893 72.3209 21.2403C73.0819 21.0923 73.7419 20.9313 73.7849 20.8823C73.8279 20.8323 74.0579 20.7583 74.2869 20.7093C74.5309 20.6593 74.8329 20.5983 74.9619 20.5613C75.1919 20.4993 75.1769 20.5243 74.9329 20.7833C74.0719 21.6733 73.5979 22.2783 73.0959 23.1683C72.4789 24.2433 71.2869 25.4663 70.6129 25.7143C70.3829 25.7883 70.1969 25.8993 70.1969 25.9493C70.1969 26.0483 69.6509 26.2213 68.8759 26.3693C68.6029 26.4183 68.4739 26.5303 68.4739 26.6783C68.4739 27.1853 70.7849 27.3083 72.4219 26.9003C72.7379 26.8263 73.0249 26.7273 73.0679 26.6783C73.1109 26.6413 73.4839 26.4683 73.9009 26.3203C74.3029 26.1723 74.6469 26.0113 74.6469 25.9623C74.6469 25.9123 74.8479 25.7773 75.1059 25.6533C75.6229 25.3813 77.4029 23.8863 77.9769 23.2313C78.9249 22.1313 79.3979 21.0073 78.8959 21.0073C78.6659 21.0073 77.6469 21.4893 77.5029 21.6623C77.4459 21.7243 77.2729 21.7483 77.0869 21.7243C76.7709 21.6873 76.7849 21.6743 77.2449 21.2543C77.5179 21.0073 77.9629 20.6853 78.2349 20.5123C78.5079 20.3513 78.8089 20.1543 78.9099 20.0803C79.0099 20.0183 79.4269 19.7093 79.8569 19.4003C81.2779 18.3743 82.3259 17.0273 82.4839 16.0263C82.5859 15.3973 82.4709 15.3113 81.8969 15.5953Z" fill="#000066"/>
<path d="M30.4907 25.5923C30.2607 25.8643 30.0027 26.1603 29.9017 26.2473C29.8017 26.3463 29.5857 26.7663 29.4137 27.1983C29.1697 27.8163 29.0687 28.4213 28.9977 30.0283C28.9257 31.1523 28.8397 32.1903 28.7827 32.3393C28.6537 32.6853 28.4237 32.7103 28.4237 32.3763C28.4237 32.2403 28.3807 32.1293 28.3227 32.1293C28.2507 32.1293 28.2077 31.8323 28.2077 31.4863C28.2077 30.9173 28.1647 30.8313 27.9067 30.7943C27.5477 30.7443 27.1597 31.2513 26.7727 32.2643C26.6287 32.6353 26.4707 32.9813 26.4137 33.0553C26.1987 33.2903 25.9547 34.7853 25.9547 35.8973C25.9407 36.9353 26.1847 38.4183 26.3997 38.5543C26.4427 38.5913 26.6727 38.9373 26.8877 39.3203C27.2897 40.0243 28.0077 40.6793 28.6677 40.9393C29.2277 41.1493 29.3137 40.9143 28.9977 40.1233C28.6527 39.2953 28.6387 38.3683 28.9257 37.3923C29.1697 36.6143 29.8017 35.3783 30.1027 35.1183C30.2027 35.0323 30.2897 34.8953 30.2897 34.8213C30.2897 34.7473 30.4337 34.2903 30.5907 33.8083L30.9067 32.9313L31.1647 33.5983C31.3227 33.9693 31.5097 34.3153 31.5957 34.3643C31.6817 34.4013 31.7537 34.4753 31.7397 34.5123C31.7397 34.5623 31.8977 34.8953 32.0847 35.2663C33.1327 37.3173 33.4197 38.8743 32.9457 40.0363C32.5727 40.9383 32.7307 41.1113 33.5487 40.7033C34.0077 40.4683 34.5247 39.8263 35.1277 38.7383C35.5007 38.0583 35.5297 37.8853 35.5297 36.5753C35.5157 35.2033 35.5007 35.1173 34.9557 34.0423C34.6547 33.4243 34.2377 32.7073 34.0367 32.4363C33.8357 32.1643 33.6057 31.8553 33.5197 31.7443C33.0317 31.0643 32.5577 30.1753 32.2137 29.2733C31.9987 28.7043 31.7687 28.1733 31.6967 28.0873C31.6247 28.0133 31.4957 27.4323 31.4097 26.7893C31.1647 24.8133 31.1507 24.8013 30.4907 25.5923Z" fill="#000066"/>
<path d="M45.1758 27.0251C45.1188 28.1871 45.0038 29.0021 44.8028 29.5951C44.4578 30.6451 44.1568 31.3501 44.0138 31.4731C43.8418 31.6211 43.0948 33.0671 42.7648 33.8951C42.3778 34.8341 42.2338 37.1451 42.4918 38.0221C42.7788 39.0351 43.3388 39.8761 44.0998 40.4691C44.8028 41.0131 45.3628 41.1861 45.3628 40.8641C45.3628 40.7771 45.2338 40.3701 45.0618 39.9741C44.5598 38.7261 44.8608 36.6501 45.7938 34.9071C45.9378 34.6351 46.1238 34.1901 46.2098 33.9181C46.4538 33.1401 46.6118 33.0161 46.7268 33.4981C46.8558 34.0051 47.2438 34.7461 47.4448 34.8701C47.5448 34.9321 47.5448 34.9691 47.4448 34.9691C47.3588 34.9691 47.3588 35.0061 47.4588 35.0681C47.7458 35.2291 48.6648 36.6991 48.8948 37.3541C49.0098 37.7121 49.1818 38.0951 49.2538 38.2071C49.4258 38.4911 49.4258 39.8751 49.2538 39.9371C49.1818 39.9491 49.0818 40.1841 49.0238 40.4311C48.9378 40.8261 48.9668 40.9011 49.1678 40.9011C49.6268 40.9011 50.2158 40.4931 50.6178 39.9001C50.8478 39.5661 51.0768 39.2951 51.1348 39.2951C51.3498 39.2951 51.6948 37.9601 51.7808 36.8851C51.8808 35.3531 51.4938 33.8081 50.6178 32.2261C49.8998 30.9291 49.6558 30.6441 49.2248 30.6441C48.9808 30.6441 48.9518 30.7431 48.9518 31.5581C48.9518 32.0651 48.8948 32.5101 48.8078 32.5591C48.6068 32.6701 48.2768 31.4711 48.1618 30.2731C48.0758 29.1981 47.7308 27.6781 47.5448 27.5541C47.4878 27.5171 47.2578 27.1591 47.0138 26.7511C46.5548 25.9601 45.8798 25.3301 45.4918 25.3301C45.2908 25.3321 45.2478 25.5671 45.1758 27.0251Z" fill="#000066"/>
<path d="M60.8659 25.9131C60.8659 27.0001 60.1339 29.7811 59.8469 29.7811C59.7749 29.7811 59.7319 29.8181 59.7469 29.8671C59.7899 30.0771 58.2829 32.5491 57.9809 32.7461C57.5069 33.0551 56.8469 34.9461 56.7459 36.2681C56.6169 38.0971 57.1339 39.5061 58.2959 40.5071C59.2579 41.3101 59.6019 41.1741 59.2149 40.1491C58.8699 39.2721 58.9849 37.6281 59.4449 36.7011C59.6319 36.3301 59.8319 35.9971 59.8899 35.9841C59.9619 35.9591 59.9759 35.8851 59.9189 35.8231C59.8759 35.7611 59.9189 35.7121 59.9909 35.7121C60.0769 35.7121 60.1489 35.6501 60.1489 35.5641C60.1489 35.4781 60.3789 34.9211 60.6659 34.3281C61.1539 33.3391 61.4409 33.0551 61.4409 33.5991C61.4409 33.7101 61.4979 33.8581 61.5559 33.9331C61.6279 33.9951 61.7999 34.3161 61.9289 34.6621C62.0729 34.9961 62.3739 35.6261 62.6039 36.0461C62.8189 36.4661 63.0489 36.9601 63.1059 37.1581C63.1629 37.3431 63.2779 37.5781 63.3639 37.6771C63.5649 37.8991 63.5789 39.8891 63.3639 40.0121C63.2919 40.0611 63.1339 40.2841 63.0199 40.5061C62.8619 40.8521 62.8619 40.9381 63.0339 41.0991C63.2779 41.3091 63.5799 41.1481 64.4979 40.3451C65.3589 39.5911 65.7039 39.0721 65.9619 38.0961C66.3069 36.8731 66.1919 34.3271 65.7609 32.9931C65.4449 32.0421 64.5409 30.7191 64.2539 30.8061C64.1679 30.8311 64.0529 31.2141 64.0099 31.6461C63.9239 32.6221 63.7949 32.8571 63.5219 32.5361C63.4209 32.4121 63.3639 32.2761 63.4069 32.2151C63.4359 32.1651 63.4069 32.0541 63.3349 31.9681C63.2489 31.8821 63.1629 30.9791 63.1339 29.9661C63.0769 28.3721 63.0049 27.9891 62.6889 27.1981C62.2729 26.1851 61.6409 25.4191 61.1679 25.3571C60.8949 25.3201 60.8659 25.3691 60.8659 25.9131Z" fill="#000066"/>
<path d="M5.02393 31.2891C5.02393 32.0551 6.54592 34.2181 7.52192 34.8361C7.67992 34.9351 7.90993 35.1081 8.03893 35.2071C8.15393 35.3181 8.45493 35.5161 8.68493 35.6391C9.25893 35.9601 9.86193 36.4421 10.2209 36.8751L10.5369 37.2331L10.0629 37.1581C9.80492 37.1081 9.40292 36.9351 9.15892 36.7621C8.59892 36.3541 8.18293 36.3541 8.18293 36.7621C8.18293 37.0961 8.45593 37.7011 8.68493 37.8371C8.77093 37.8991 8.77093 37.9361 8.68493 37.9361C8.59893 37.9361 8.59893 37.9731 8.69893 38.0351C8.78493 38.0851 9.05793 38.3931 9.33093 38.7271C9.99093 39.5671 11.7999 41.1001 12.4889 41.3961C12.8049 41.5321 13.0629 41.6931 13.0629 41.7541C13.0629 41.8651 14.7859 42.3841 15.1449 42.3841C15.2599 42.3841 15.3599 42.4331 15.3599 42.5071C15.3599 42.5811 15.8339 42.6311 16.5079 42.6311C17.1399 42.6311 17.6559 42.5821 17.6559 42.5201C17.6559 42.4581 17.8279 42.3841 18.0439 42.3591C18.2739 42.3341 18.4599 42.2351 18.4889 42.1241C18.5319 41.9261 18.2739 41.7901 17.1829 41.4571C16.3359 41.1981 15.0869 40.1591 14.6129 39.3191C14.4259 38.9981 14.2249 38.7011 14.1389 38.6521C14.0389 38.5901 14.0389 38.5531 14.1389 38.5531C14.2389 38.5531 14.2389 38.5161 14.1389 38.4541C14.0669 38.4051 13.8659 38.1451 13.7079 37.8731C13.3629 37.2551 12.9619 36.7361 12.5019 36.2911C12.2009 36.0191 12.1859 35.9571 12.3869 35.9571C12.5159 35.9571 12.6309 36.0061 12.6309 36.0561C12.6309 36.1181 13.2049 36.2541 13.9229 36.3771C14.6259 36.5011 15.3589 36.6741 15.5449 36.7601C15.7319 36.8341 16.3489 37.0071 16.9089 37.1311C17.4829 37.2421 17.9429 37.3781 17.9429 37.4271C17.9429 37.4771 18.1579 37.5751 18.4169 37.6621C18.9769 37.8351 19.8529 38.5391 20.4269 39.2931C20.7569 39.7131 20.8719 39.7871 21.0299 39.6641C21.2739 39.4911 21.3169 38.5521 21.1159 38.2061C21.0439 38.0951 20.7859 37.6371 20.5559 37.1931C20.3259 36.7481 19.9819 36.2541 19.7809 36.0811C19.0629 35.4631 18.5749 35.1291 18.0869 34.9071C17.8139 34.7831 17.5559 34.6481 17.5129 34.5981C17.4269 34.4741 15.7469 33.9801 15.4309 33.9801C15.3159 33.9801 15.2159 33.9311 15.2159 33.8691C15.2159 33.8071 14.8139 33.7211 14.3259 33.6711C12.8619 33.5471 10.6939 33.2141 10.6219 33.1271C10.5789 33.0781 10.2339 32.9661 9.83193 32.8801C9.14293 32.7321 7.03293 31.9291 6.88893 31.7561C6.84593 31.7191 6.54392 31.5461 6.21392 31.3851C5.86892 31.2241 5.59693 31.0511 5.59693 30.9901C5.59693 30.9411 5.46793 30.8911 5.30993 30.8911C5.08193 30.8931 5.02393 30.9801 5.02393 31.2891Z" fill="#000066"/>
<path d="M86.706 31.0172C86.706 31.0912 86.419 31.2642 86.06 31.4122C85.701 31.5602 85.414 31.7212 85.414 31.7832C85.414 31.8942 83.548 32.6602 82.758 32.8712C82.442 32.9452 81.997 33.0932 81.753 33.1802C81.322 33.3412 78.609 33.7362 77.891 33.7362C77.69 33.7362 77.518 33.7862 77.518 33.8602C77.518 33.9222 77.389 33.9842 77.245 33.9842C76.9 33.9842 75.034 34.4782 74.934 34.5892C74.891 34.6382 74.575 34.7992 74.216 34.9602C73.398 35.3182 71.905 36.6652 71.474 37.4192C71.273 37.7902 71.129 38.3342 71.086 38.8902C71.029 39.7432 71.029 39.7922 71.33 39.7922C71.488 39.7922 71.631 39.7302 71.631 39.6682C71.631 39.4952 72.205 38.7912 72.492 38.6052C72.607 38.5182 72.88 38.3212 73.08 38.1602C73.281 37.9992 73.669 37.7772 73.941 37.6902C74.214 37.5912 74.458 37.4802 74.501 37.4432C74.544 37.3932 75.061 37.2582 75.649 37.1342C76.238 37.0112 76.797 36.8622 76.884 36.8132C76.97 36.7512 77.645 36.5912 78.391 36.4422C79.137 36.2942 79.841 36.1212 79.956 36.0472C80.071 35.9732 79.999 36.0722 79.798 36.2692C79.281 36.7882 78.477 37.9002 78.162 38.5552C77.487 39.9142 76.095 41.2742 75.104 41.5212C74.774 41.6072 74.501 41.7192 74.501 41.7682C74.501 41.8172 74.314 41.8912 74.07 41.9292C73.639 42.0162 73.453 42.3862 73.84 42.3862C73.955 42.3862 74.07 42.4602 74.098 42.5342C74.184 42.7322 77.041 42.7572 77.199 42.5712C77.256 42.4972 77.673 42.3492 78.118 42.2252C78.578 42.1012 79.022 41.9282 79.137 41.8422C79.238 41.7562 79.539 41.5832 79.812 41.4592C80.07 41.3482 80.889 40.7182 81.621 40.0872C82.597 39.2342 83.085 38.6782 83.458 38.0362C84.204 36.7632 84.118 36.1212 83.271 36.7392C82.812 37.0732 81.993 37.3942 81.878 37.2832C81.734 37.1592 82.337 36.5422 83.041 36.0842C84.462 35.1572 85.84 34.0572 85.84 33.8472C85.84 33.8102 86.027 33.5632 86.271 33.3032C86.788 32.7352 87.204 31.6602 87.075 31.2152C86.993 30.9062 86.706 30.7572 86.706 31.0172Z" fill="#000066"/>
<path d="M26.0258 43.0281C25.6808 43.0901 25.4088 43.1891 25.4088 43.2381C25.4088 43.2881 25.1648 43.4361 24.8628 43.5471C23.8868 43.9301 23.1118 45.0791 23.1118 46.1421C23.1118 47.0691 24.1168 50.2691 24.5618 50.7391C24.6338 50.8131 24.9488 51.3081 25.2798 51.8511C25.5958 52.3821 26.0978 53.0741 26.3998 53.3831C26.6868 53.6921 27.0318 54.0751 27.1458 54.2481C27.3608 54.5321 28.9688 55.9291 30.1458 56.8431C30.4188 57.0651 30.8208 57.3131 31.0498 57.4111C31.2648 57.5101 31.4378 57.6341 31.4378 57.6951C31.4378 57.7571 31.6248 57.8681 31.8538 57.9541C32.0838 58.0281 32.3848 58.1891 32.5288 58.3001C32.6868 58.4241 33.0748 58.6211 33.4188 58.7451C33.7488 58.8811 34.0218 59.0291 34.0218 59.0791C34.0218 59.1281 34.2658 59.2401 34.5678 59.3141C34.8548 59.4011 35.2998 59.5611 35.5438 59.6851C35.7878 59.7961 36.3188 59.9941 36.7208 60.1051L37.4668 60.3281V80.9151C37.4668 100.575 37.4808 101.539 37.7398 102.009C38.7018 103.838 42.2188 104.27 43.9988 102.775C44.3718 102.454 44.6738 102.058 44.7738 101.762C44.8888 101.404 44.9318 93.8661 44.9318 75.0581C44.9318 52.1481 44.9028 48.7871 44.7168 48.4041C44.4588 47.8481 44.0278 47.4651 43.2098 47.0081C42.6068 46.6741 42.4628 46.6501 41.1998 46.6501C39.9078 46.6501 39.7928 46.6751 39.0038 47.0821C38.3288 47.4281 38.1138 47.6261 37.8268 48.1571C37.4818 48.7621 37.4678 48.8991 37.4678 51.2091C37.4678 52.6181 37.4108 53.6311 37.3388 53.6311C37.2668 53.6311 37.1088 53.5571 37.0088 53.4701C36.9078 53.3841 36.6358 53.2111 36.3918 53.0871C35.1718 52.4201 32.4438 50.0221 32.4438 49.5901C32.4438 49.5531 32.2568 49.2931 32.0278 48.9971C31.4398 48.2431 30.9368 47.0941 30.5348 45.5741C30.2188 44.3381 30.1468 44.2021 29.5588 43.6961C28.6528 42.9291 27.5908 42.7191 26.0258 43.0281Z" fill="#000066"/>
<path d="M63.7809 43.0773C63.5939 43.1143 63.4509 43.1883 63.4509 43.2253C63.4509 43.2743 63.2359 43.4103 62.9769 43.5343C62.4749 43.7693 61.9869 44.5473 61.7999 45.4003C61.7569 45.6593 61.6559 45.9683 61.5849 46.0803C61.5129 46.1913 61.3409 46.6113 61.2119 47.0193C60.8819 48.0083 60.3509 48.9843 59.7189 49.7383C59.4459 50.0723 59.0589 50.5543 58.8579 50.8133C58.6569 51.0603 58.1119 51.5553 57.6519 51.9013C57.1779 52.2593 56.7049 52.6183 56.5899 52.7173C56.4889 52.8163 56.1879 52.9893 55.9439 53.1003C55.6859 53.2113 55.4559 53.3353 55.4129 53.3843C55.3699 53.4333 55.2119 53.5323 55.0539 53.6063C54.7669 53.7303 54.7669 53.6923 54.8099 51.3693C54.8529 49.1823 54.8239 48.9593 54.5519 48.5023C54.0929 47.7363 53.6909 47.3783 52.8439 47.0323C51.7389 46.5753 50.3319 46.5753 49.2269 47.0323C48.4799 47.3413 47.6769 47.9833 47.6619 48.2803C47.6619 48.3543 47.5759 48.4413 47.4899 48.4653C47.2169 48.5523 47.2169 101.959 47.4899 102.034C47.5759 102.071 47.6619 102.158 47.6619 102.232C47.6759 102.504 48.5379 103.208 49.1409 103.431C50.0309 103.765 50.9499 103.851 51.9119 103.678C53.3329 103.431 54.0079 102.986 54.5819 101.96C54.8119 101.54 54.8259 100.119 54.8399 80.9283V60.3403L55.7729 60.1173C56.2899 60.0063 56.7059 59.8703 56.7059 59.8203C56.7059 59.7713 57.0789 59.5983 57.5389 59.4373C57.9839 59.2763 58.3859 59.1033 58.4289 59.0663C58.4719 59.0173 58.7019 58.8813 58.9599 58.7703C59.4479 58.5603 60.7539 57.8313 60.8689 57.7073C60.9119 57.6703 61.1709 57.4973 61.4429 57.3363C62.2899 56.8293 63.5239 55.8283 64.6869 54.6793C65.5909 53.7893 66.9979 52.0353 66.9259 51.8623C66.9119 51.8133 66.9549 51.7753 67.0269 51.7753C67.1709 51.7753 67.9169 50.3053 68.2759 49.3283C68.4049 48.9703 68.5629 48.6613 68.6209 48.6243C68.6779 48.5873 68.8509 48.0433 68.9939 47.4013C69.2089 46.4003 69.2239 46.1283 69.0659 45.5473C68.9659 45.1643 68.8509 44.8553 68.7929 44.8553C68.7359 44.8553 68.5059 44.6203 68.2619 44.3483C68.0319 44.0763 67.4869 43.6813 67.0419 43.4713C66.3959 43.1623 66.0659 43.0883 65.1759 43.0633C64.5839 43.0403 63.9529 43.0533 63.7809 43.0773Z" fill="#000066"/>
<path d="M13.279 48.5153C12.145 48.6383 10.48 48.9723 10.48 49.0713C10.48 49.1333 10.394 49.1823 10.308 49.1823C10.208 49.1823 9.547 49.4413 8.844 49.7383C8.126 50.0473 7.466 50.2943 7.365 50.2943C7.264 50.2943 7.178 50.3443 7.178 50.4053C7.178 50.4543 6.676 50.6273 6.073 50.7763C5.456 50.9243 4.824 51.1103 4.666 51.1713C4.207 51.3563 2.943 51.5293 1.407 51.6163C0.171998 51.6783 0 51.7153 0 51.9133C0 52.0363 0.128999 52.1973 0.272999 52.2713C0.430999 52.3333 0.645998 52.4693 0.746998 52.5553C0.846998 52.6543 1.393 52.8513 1.938 53.0123C2.498 53.1603 3.029 53.3463 3.115 53.4073C3.215 53.4813 4.479 53.5803 5.929 53.6303C7.365 53.6923 8.728 53.7783 8.944 53.8153C9.748 53.9883 9.217 54.2473 8.011 54.2473C6.662 54.2473 6.504 54.5933 7.652 55.0503C8.054 55.2233 8.47 55.3593 8.571 55.3593C8.657 55.3593 8.758 55.4083 8.786 55.4833C8.815 55.5453 9.633 55.7183 10.623 55.8663C12.044 56.0763 12.776 56.1133 14.14 56.0643C15.748 56.0023 17.485 55.7183 17.657 55.4953C17.7 55.4333 17.958 55.2973 18.231 55.1743C18.791 54.9273 19.796 54.0253 19.81 53.7653C19.81 53.6413 19.681 53.6173 19.279 53.6913C18.978 53.7283 18.116 53.8023 17.341 53.8393C15.848 53.9013 14.7 53.7533 13.91 53.3943C13.637 53.2703 13.063 53.0733 12.632 52.9493C12.201 52.8253 11.814 52.6903 11.771 52.6283C11.728 52.5793 11.24 52.4553 10.694 52.3563C9.761 52.1833 9.718 52.1583 10.163 52.0843C10.407 52.0343 10.622 51.9483 10.622 51.8993C10.622 51.8503 11.124 51.6893 11.742 51.5283C12.345 51.3673 12.876 51.2073 12.919 51.1573C13.019 51.0463 15.216 50.5393 15.618 50.5393C15.79 50.5393 15.934 50.4773 15.934 50.4153C15.934 50.3413 16.322 50.2913 16.795 50.2913C17.269 50.2913 17.656 50.3413 17.656 50.4023C17.656 50.4513 17.9 50.5383 18.202 50.5873C18.489 50.6243 18.948 50.6983 19.193 50.7353C19.839 50.8463 19.982 50.5133 19.466 50.1543C19.265 50.0183 19.007 49.8333 18.906 49.7463C18.806 49.6473 18.49 49.4873 18.231 49.3633C17.958 49.2403 17.7 49.1043 17.657 49.0543C17.442 48.7623 14.384 48.3913 13.279 48.5153Z" fill="#000066"/>
<path d="M75.868 48.7739C75.322 48.8729 74.834 48.9959 74.791 49.0579C74.748 49.1069 74.475 49.2429 74.188 49.3419C73.886 49.4529 73.384 49.7619 73.068 50.0339C72.164 50.7999 72.322 51.0099 73.585 50.7259C74.748 50.4669 76.241 50.4909 77.676 50.7999C78.336 50.9479 78.91 51.1089 78.954 51.1579C78.997 51.2079 79.413 51.3429 79.887 51.4669C80.361 51.5779 81.021 51.7759 81.351 51.9119C81.681 52.0359 82.069 52.1469 82.212 52.1469C82.7 52.1469 82.097 52.3699 81.365 52.4559C80.992 52.5049 80.676 52.5799 80.676 52.6289C80.676 52.6779 80.317 52.8139 79.872 52.9379C79.427 53.0619 78.781 53.2839 78.422 53.4569C78.063 53.6179 77.46 53.7909 77.073 53.8279C76.686 53.8769 76.327 53.9639 76.284 54.0129C76.198 54.1489 74.303 54.1609 74.159 54.0379C74.015 53.9149 72.738 53.6429 72.609 53.7169C72.221 53.9149 72.954 54.8049 73.829 55.1879C74.073 55.2989 74.36 55.4599 74.461 55.5459C74.662 55.7189 76.413 56.1019 77.002 56.1019C77.203 56.1019 77.404 56.1519 77.447 56.2259C77.49 56.2879 78.007 56.3499 78.595 56.3499C79.184 56.3499 79.7 56.2879 79.743 56.2259C79.786 56.1519 80.03 56.1019 80.274 56.1019C81.954 56.1019 85.27 55.1259 85.27 54.6319C85.27 54.4339 85.126 54.3969 84.193 54.3479C83.59 54.3109 83.073 54.2489 83.016 54.1999C82.729 53.9529 83.447 53.8419 85.873 53.7429C88.471 53.6439 88.945 53.5949 89.505 53.3719C89.663 53.3099 90.079 53.1739 90.424 53.0759C91.3 52.8159 92.29 52.2479 92.305 52.0129C92.305 51.7289 92.003 51.6549 90.798 51.6549C89.693 51.6549 87.267 51.3339 87.137 51.1729C87.094 51.1239 86.75 51.0119 86.348 50.9259C85.96 50.8519 84.855 50.4559 83.908 50.0489C82.96 49.6529 82.013 49.2829 81.798 49.2459C81.568 49.1969 81.396 49.1099 81.396 49.0609C81.396 48.8999 78.956 48.5669 77.879 48.5789C77.332 48.5759 76.428 48.6629 75.868 48.7739Z" fill="#000066"/>
<path d="M19.739 60.1183C19.667 60.1303 19.2221 60.2173 18.7771 60.3033C18.3181 60.3893 17.9441 60.5013 17.9441 60.5503C17.9441 60.6003 17.5851 60.7733 17.1551 60.9213C16.7241 61.0693 16.365 61.2423 16.365 61.3043C16.365 61.3663 16.178 61.4893 15.949 61.6003C15.719 61.6993 15.116 62.1563 14.614 62.6133C12.346 64.7143 11.0111 65.7643 10.2931 66.0613C10.0061 66.1853 9.76205 66.3333 9.76205 66.3823C9.76205 66.4443 9.48905 66.6043 9.14505 66.7283C8.81505 66.8643 8.48505 67.0123 8.41305 67.0623C8.35605 67.1123 7.93905 67.2723 7.49405 67.4083C6.56105 67.6923 6.34605 68.0263 6.99205 68.1743C7.79605 68.3723 11.2121 68.2733 12.2751 68.0383C12.8351 67.9143 13.309 67.7663 13.352 67.7043C13.395 67.6423 13.8831 67.5063 14.4291 67.3833C14.9891 67.2603 15.463 67.1243 15.477 67.0623C15.549 66.9263 16.195 66.9513 16.295 67.0993C16.338 67.1613 16.1371 67.3213 15.8361 67.4333C15.5351 67.5563 15.2621 67.6803 15.2191 67.7173C15.1761 67.7543 14.9751 67.8533 14.7601 67.9273C14.3291 68.0883 14.286 68.1743 14.502 68.4583C14.602 68.5943 14.9901 68.6313 16.4541 68.6193C17.4451 68.6193 18.3061 68.5573 18.3631 68.4953C18.4061 68.4463 19.023 68.2973 19.727 68.1743C22.311 67.7293 24.6511 66.4323 25.4981 64.9983C26.1441 63.8863 25.9141 63.2933 25.0821 63.9483C24.6511 64.3063 23.618 64.7393 23.23 64.7513C23.086 64.7513 22.9721 64.8003 22.9721 64.8623C22.9721 65.0473 21.981 65.1213 18.852 65.1463L15.952 65.1833L16.4261 64.8123C16.6841 64.6023 17.1581 64.2433 17.4881 64.0093C17.8181 63.7743 18.464 63.2803 18.909 62.9223C19.368 62.5763 19.7701 62.2793 19.8281 62.2793C19.8711 62.2793 20.058 62.1683 20.23 62.0323C20.417 61.9093 20.8621 61.7113 21.2351 61.6003C21.5941 61.4893 22.0101 61.3413 22.1391 61.2793C22.2681 61.2303 22.7991 61.1433 23.3161 61.0943C24.2201 61.0083 24.3931 60.9093 24.1491 60.6003C23.9481 60.3163 22.4981 60.0563 21.1921 60.0693C20.4711 60.0693 19.825 60.0933 19.739 60.1183Z" fill="#000066"/>
<path d="M70.1967 60.13C69.0477 60.291 68.3307 60.464 68.3307 60.562C68.3307 60.624 68.2297 60.673 68.1157 60.673C68.0007 60.673 67.9007 60.784 67.9007 60.92C67.9007 61.142 68.0017 61.167 68.6907 61.167C69.1217 61.167 69.4797 61.216 69.4797 61.291C69.4797 61.353 69.6377 61.415 69.8387 61.415C70.2837 61.415 71.7767 61.897 71.7767 62.033C71.7767 62.095 71.8917 62.169 72.0347 62.206C72.1787 62.256 72.5227 62.453 72.7957 62.663C73.0687 62.873 73.5707 63.244 73.9007 63.491C74.2447 63.738 74.6757 64.059 74.8477 64.195C75.0197 64.331 75.4507 64.665 75.7947 64.924C76.1537 65.183 76.3117 65.369 76.1537 65.319C75.9957 65.27 74.6607 65.233 73.1827 65.233C70.5267 65.245 69.0197 65.109 68.9337 64.875C68.9047 64.801 68.7897 64.752 68.6757 64.752C68.3597 64.752 67.4267 64.32 67.1257 64.023C66.8247 63.726 66.1787 63.665 66.1787 63.936C66.1787 64.257 66.6237 65.184 66.8247 65.283C66.9397 65.333 67.0397 65.444 67.0397 65.53C67.0537 65.913 69.2077 67.371 70.0117 67.544C70.1987 67.593 70.3417 67.667 70.3417 67.717C70.3417 67.828 72.4377 68.335 72.8827 68.335C73.0547 68.335 73.2127 68.397 73.2417 68.471C73.2707 68.558 73.9887 68.632 75.2227 68.669C77.9497 68.756 78.6247 68.471 77.1177 67.878C76.7447 67.73 76.3137 67.52 76.1557 67.421C75.8827 67.236 75.8827 67.236 76.3567 67.223C76.9167 67.223 78.5527 67.581 78.6827 67.742C78.7687 67.865 80.8937 68.335 81.3527 68.335C81.5247 68.335 81.6827 68.385 81.6827 68.459C81.6827 68.533 82.2287 68.583 83.0467 68.583C83.7937 68.583 84.4107 68.534 84.4107 68.472C84.4107 68.41 84.6687 68.336 84.9847 68.287C85.5587 68.213 85.7307 67.99 85.3867 67.756C85.2867 67.682 84.8557 67.534 84.4397 67.41C84.0237 67.299 83.6067 67.138 83.5067 67.052C83.4207 66.978 83.1197 66.829 82.8607 66.743C82.6027 66.644 82.3437 66.508 82.2867 66.434C82.2297 66.348 81.9567 66.175 81.6837 66.038C80.8227 65.606 79.8897 64.839 77.8797 62.973C77.2477 62.38 76.4867 61.787 76.1997 61.638C75.8987 61.49 75.6537 61.329 75.6537 61.28C75.6537 61.231 75.2807 61.07 74.8357 60.909C74.3767 60.761 73.9747 60.588 73.9317 60.551C73.7147 60.316 71.0157 60.007 70.1967 60.13Z" fill="#000066"/>
<path d="M126.552 49.8853C126.552 46.9253 125.532 45.4453 123.492 45.4453C122.932 45.4453 122.512 45.4853 122.232 45.5653C121.592 45.6853 121.052 45.7453 120.612 45.7453C120.092 45.7453 119.652 45.5653 119.292 45.2053C118.932 44.8053 118.752 44.3253 118.752 43.7653C118.752 42.3653 119.632 41.6653 121.392 41.6653C121.632 41.6653 121.912 41.6853 122.232 41.7253L125.412 42.1453C126.612 42.3053 127.852 42.3853 129.132 42.3853C130.372 42.3853 131.732 42.2853 133.212 42.0853L135.912 41.7253C136.232 41.6853 136.512 41.6653 136.752 41.6653C138.512 41.6653 139.392 42.3653 139.392 43.7653C139.392 44.3253 139.212 44.8053 138.852 45.2053C138.492 45.5653 138.052 45.7453 137.532 45.7453C137.132 45.7453 136.592 45.6853 135.912 45.5653C135.632 45.4853 135.212 45.4453 134.652 45.4453C132.612 45.4453 131.592 46.9253 131.592 49.8853V73.9453C131.592 76.9453 132.612 78.4453 134.652 78.4453C134.972 78.4453 135.392 78.4053 135.912 78.3253C136.672 78.2053 137.212 78.1453 137.532 78.1453C138.772 78.1453 139.392 78.7853 139.392 80.0653C139.392 81.5053 138.512 82.2253 136.752 82.2253C136.672 82.2253 136.532 82.2253 136.332 82.2253C136.172 82.1853 136.032 82.1653 135.912 82.1653L132.792 81.6853C131.752 81.5253 130.652 81.4453 129.492 81.4453C127.812 81.4453 126.312 81.5453 124.992 81.7453L122.232 82.1653C122.152 82.1653 122.012 82.1853 121.812 82.2253C121.612 82.2253 121.452 82.2253 121.332 82.2253C119.612 82.2253 118.752 81.5053 118.752 80.0653C118.752 78.7853 119.372 78.1453 120.612 78.1453C120.812 78.1453 121.352 78.1853 122.232 78.2653C122.672 78.3853 123.092 78.4453 123.492 78.4453C125.532 78.4453 126.552 76.9453 126.552 73.9453V49.8853ZM157.082 50.9053C158.122 50.9053 159.302 51.0653 160.622 51.3853C160.822 47.4653 163.102 45.5053 167.462 45.5053C169.302 45.5053 170.842 45.9853 172.082 46.9453C173.322 47.9053 173.942 49.1253 173.942 50.6053C173.942 51.5653 173.622 52.3853 172.982 53.0653C172.382 53.7453 171.662 54.0853 170.822 54.0853C170.182 54.0853 169.622 53.8653 169.142 53.4253C168.662 52.9853 168.422 52.4653 168.422 51.8653C168.422 51.2253 168.862 50.5653 169.742 49.8853C169.102 49.0853 168.282 48.6853 167.282 48.6853C165.162 48.6853 164.082 50.0053 164.042 52.6453C167.082 54.6853 168.602 57.4253 168.602 60.8653C168.602 63.6253 167.562 65.9253 165.482 67.7653C163.402 69.6053 160.802 70.5253 157.682 70.5253C155.482 70.5253 153.202 70.0053 150.842 68.9653C150.202 68.6853 149.662 68.5453 149.222 68.5453C148.662 68.5453 148.162 68.8053 147.722 69.3253C147.282 69.8053 147.062 70.3853 147.062 71.0653C147.062 73.1453 149.162 74.1853 153.362 74.1853H153.722C154.042 74.1853 154.402 74.1653 154.802 74.1253C155.202 74.1253 155.442 74.1253 155.522 74.1253C159.322 74.1253 162.402 74.4853 164.762 75.2053C166.962 75.8853 168.702 76.9453 169.982 78.3853C171.262 79.8253 171.902 81.4453 171.902 83.2453C171.902 86.1653 170.542 88.4653 167.822 90.1453C165.142 91.8653 161.502 92.7253 156.902 92.7253C152.302 92.7253 148.682 91.9253 146.042 90.3253C143.442 88.7253 142.142 86.5253 142.142 83.7253C142.142 80.4853 143.962 78.1853 147.602 76.8253C144.362 75.5453 142.742 73.6253 142.742 71.0653C142.742 68.2653 144.362 66.3453 147.602 65.3053C146.562 63.9053 146.042 62.2653 146.042 60.3853C146.042 57.6653 147.082 55.4053 149.162 53.6053C151.282 51.8053 153.922 50.9053 157.082 50.9053ZM157.262 54.8653C155.502 54.8653 154.002 55.3853 152.762 56.4253C151.522 57.4653 150.842 58.7653 150.722 60.3253C150.722 60.3253 150.722 60.4453 150.722 60.6853C150.722 62.4453 151.322 63.8653 152.522 64.9453C153.722 66.0253 155.282 66.5653 157.202 66.5653C159.202 66.5653 160.822 66.0253 162.062 64.9453C163.342 63.8653 163.982 62.4853 163.982 60.8053C163.982 59.0853 163.342 57.6653 162.062 56.5453C160.782 55.4253 159.182 54.8653 157.262 54.8653ZM157.322 78.1453C154.122 78.1453 151.602 78.6253 149.762 79.5853C147.922 80.5453 147.002 81.8453 147.002 83.4853C147.002 85.1253 147.902 86.4053 149.702 87.3253C151.502 88.2853 153.922 88.7653 156.962 88.7653C160.162 88.7653 162.682 88.2853 164.522 87.3253C166.402 86.3653 167.342 85.0853 167.342 83.4853C167.342 81.8053 166.462 80.5053 164.702 79.5853C162.942 78.6253 160.482 78.1453 157.322 78.1453ZM184.796 53.7853V55.4653C187.196 52.4253 190.396 50.9053 194.396 50.9053C196.556 50.9053 198.596 51.4653 200.516 52.5853C202.436 53.6653 203.736 55.0253 204.416 56.6653C204.976 58.0253 205.256 59.8053 205.256 62.0053V73.4053C205.256 75.1253 205.276 76.1453 205.316 76.4653C205.516 77.8253 206.056 78.5053 206.936 78.5053C207.296 78.5053 207.756 78.4653 208.316 78.3853C208.916 78.2653 209.336 78.2053 209.576 78.2053C210.096 78.2053 210.536 78.3853 210.896 78.7453C211.296 79.1053 211.496 79.5453 211.496 80.0653C211.496 80.6653 211.256 81.1653 210.776 81.5653C210.296 81.9653 209.716 82.1653 209.036 82.1653C208.476 82.1653 207.556 82.0853 206.276 81.9253C204.996 81.7653 203.796 81.6853 202.676 81.6853C201.636 81.6853 200.776 81.7253 200.096 81.8053C198.096 82.0453 197.036 82.1653 196.916 82.1653C195.316 82.1653 194.516 81.4653 194.516 80.0653C194.516 78.8253 195.196 78.2053 196.556 78.2053C196.876 78.2053 197.236 78.2453 197.636 78.3253C198.396 78.4853 198.876 78.5653 199.076 78.5653C200.036 78.5653 200.556 77.4653 200.636 75.2653L200.756 72.2053L200.816 68.5453V63.9853C200.816 61.8653 200.716 60.4053 200.516 59.6053C200.156 58.0853 199.376 56.9053 198.176 56.0653C196.856 55.1453 195.356 54.6853 193.676 54.6853C190.476 54.6853 188.176 55.8253 186.776 58.1053C185.816 59.6653 185.336 62.3253 185.336 66.0853V74.0653C185.336 75.8253 185.456 77.0253 185.696 77.6653C185.936 78.3053 186.376 78.6253 187.016 78.6253C187.336 78.6253 187.776 78.5453 188.336 78.3853C188.896 78.2253 189.356 78.1453 189.716 78.1453C190.956 78.1453 191.576 78.8253 191.576 80.1853C191.576 81.5053 190.776 82.1653 189.176 82.1653C188.856 82.1653 187.816 82.0453 186.056 81.8053C185.176 81.6853 184.196 81.6253 183.116 81.6253C182.276 81.6253 181.156 81.7053 179.756 81.8653C177.996 82.0653 176.996 82.1653 176.756 82.1653C175.076 82.1653 174.236 81.4853 174.236 80.1253C174.236 78.8453 174.876 78.2053 176.156 78.2053C176.356 78.2053 176.716 78.2653 177.236 78.3853C177.796 78.5053 178.336 78.5653 178.856 78.5653C180.056 78.5653 180.676 77.4053 180.716 75.0853L180.836 68.4253V61.1653L180.716 59.0653C180.636 57.7053 180.456 56.7853 180.176 56.3053C179.936 55.7853 179.496 55.5253 178.856 55.5253C178.576 55.5253 178.156 55.5853 177.596 55.7053C177.076 55.7853 176.676 55.8253 176.396 55.8253C174.956 55.8253 174.236 55.1853 174.236 53.9053C174.236 52.5853 175.136 51.9253 176.936 51.9253C177.176 51.9253 177.376 51.9453 177.536 51.9853L179.756 52.2253C180.396 52.2253 180.956 52.1853 181.436 52.1053C182.476 52.0253 183.016 51.9853 183.056 51.9853C184.216 51.9853 184.796 52.5853 184.796 53.7853ZM223.539 64.5253V72.3253C223.539 74.3253 223.559 75.5053 223.599 75.8653C223.799 77.6653 224.339 78.5653 225.219 78.5653C225.419 78.5653 225.919 78.4653 226.719 78.2653C226.919 78.1853 227.219 78.1453 227.619 78.1453C229.139 78.1453 229.899 78.8053 229.899 80.1253C229.899 80.6853 229.639 81.1653 229.119 81.5653C228.639 81.9653 228.019 82.1653 227.259 82.1653C226.619 82.1653 225.639 82.0853 224.319 81.9253C223.039 81.7253 222.079 81.6253 221.439 81.6253C220.399 81.6253 219.239 81.7053 217.959 81.8653C216.399 82.0653 215.359 82.1653 214.839 82.1653C213.239 82.1653 212.439 81.4853 212.439 80.1253C212.439 78.8053 213.119 78.1453 214.479 78.1453C214.799 78.1453 215.259 78.2053 215.859 78.3253C216.499 78.4453 216.979 78.5053 217.299 78.5053C218.259 78.5053 218.839 77.2253 219.039 74.6653C219.039 74.5053 219.039 72.7653 219.039 69.4453V64.5253C219.039 61.2053 219.039 59.4653 219.039 59.3053C218.839 56.7853 218.239 55.5253 217.239 55.5253C216.919 55.5253 216.459 55.6053 215.859 55.7653C215.299 55.8853 214.879 55.9453 214.599 55.9453C213.159 55.9453 212.439 55.3053 212.439 54.0253C212.439 52.6653 213.319 51.9853 215.079 51.9853C215.839 51.9853 216.379 52.0053 216.699 52.0453C217.979 52.2053 218.799 52.2853 219.159 52.2853C219.479 52.2853 219.959 52.2453 220.599 52.1653C221.279 52.0453 221.779 51.9853 222.099 51.9853C223.259 51.9853 223.839 52.7653 223.839 54.3253C223.839 54.4853 223.819 54.7253 223.779 55.0453C223.739 55.3653 223.719 55.6053 223.719 55.7653C223.679 56.0853 223.639 57.3253 223.599 59.4853C223.559 61.1253 223.539 62.8053 223.539 64.5253ZM220.419 48.8053C219.499 48.8053 218.699 48.4853 218.019 47.8453C217.379 47.1653 217.059 46.3653 217.059 45.4453C217.059 44.5253 217.379 43.7453 218.019 43.1053C218.699 42.4653 219.499 42.1453 220.419 42.1453C221.339 42.1453 222.119 42.4653 222.759 43.1053C223.439 43.7453 223.779 44.5253 223.779 45.4453C223.779 46.3653 223.439 47.1653 222.759 47.8453C222.119 48.4853 221.339 48.8053 220.419 48.8053ZM248.894 73.6453L249.014 69.8053C249.054 68.1653 249.774 67.3453 251.174 67.3453C252.574 67.3453 253.274 68.2653 253.274 70.1053C253.274 74.4653 252.714 77.5053 251.594 79.2253C250.074 81.5453 247.574 82.7053 244.094 82.7053C240.894 82.7053 238.614 81.6853 237.254 79.6453C236.254 78.1653 235.754 75.6453 235.754 72.0853V57.6853C235.754 56.8453 235.374 56.4253 234.614 56.4253H232.694C232.054 56.4253 231.514 56.2253 231.074 55.8253C230.674 55.3853 230.474 54.8653 230.474 54.2653C230.474 53.7053 230.674 53.2053 231.074 52.7653C231.514 52.3253 231.994 52.1053 232.514 52.1053H234.854C235.534 52.1053 235.874 51.7253 235.874 50.9653V44.7853C235.874 43.2653 236.654 42.5053 238.214 42.5053C239.654 42.5053 240.374 43.2653 240.374 44.7853V51.2053C240.374 51.8053 240.734 52.1053 241.454 52.1053H247.994C249.514 52.1053 250.274 52.8053 250.274 54.2053C250.274 55.6853 249.454 56.4253 247.814 56.4253H241.214C240.654 56.4253 240.374 56.8453 240.374 57.6853V72.4453C240.374 76.6453 241.754 78.7453 244.514 78.7453C247.314 78.7453 248.774 77.0453 248.894 73.6453ZM280.897 80.4253V78.5653C278.777 81.4853 275.637 82.9453 271.477 82.9453C266.757 82.9453 263.477 81.4853 261.637 78.5653C260.837 77.2853 260.397 75.7853 260.317 74.0653C260.277 73.2253 260.257 71.4653 260.257 68.7853V63.8053C260.257 58.3253 259.677 55.5853 258.517 55.5853C258.277 55.5853 257.897 55.6453 257.377 55.7653C256.857 55.8453 256.457 55.8853 256.177 55.8853C254.777 55.8853 254.077 55.2253 254.077 53.9053C254.077 52.6253 254.937 51.9853 256.657 51.9853C257.057 51.9853 257.637 52.0253 258.397 52.1053C259.197 52.1853 259.797 52.2253 260.197 52.2253C260.557 52.2253 261.177 52.1653 262.057 52.0453C262.657 51.9653 262.997 51.9253 263.077 51.9253C264.317 51.9253 264.937 52.6853 264.937 54.2053V55.4653L264.877 59.3653L264.697 63.8053V67.7053C264.697 71.1853 264.977 73.6853 265.537 75.2053C266.457 77.7253 268.657 78.9853 272.137 78.9853C273.857 78.9853 275.377 78.6053 276.697 77.8453C278.017 77.0453 278.937 76.0053 279.457 74.7253C280.097 73.1653 280.417 70.2053 280.417 65.8453V62.5453C280.417 60.1453 280.417 58.8453 280.417 58.6453C280.217 56.7253 279.697 55.7653 278.857 55.7653C278.417 55.7653 278.057 55.8053 277.777 55.8853H277.057C275.657 55.8853 274.957 55.2653 274.957 54.0253C274.957 52.6253 275.737 51.9253 277.297 51.9253C277.657 51.9253 278.197 51.9653 278.917 52.0453C279.677 52.1253 280.237 52.1653 280.597 52.1653C280.917 52.1653 281.397 52.1453 282.037 52.1053C282.677 52.0253 283.157 51.9853 283.477 51.9853C284.677 51.9853 285.277 52.6253 285.277 53.9053C285.277 54.4653 285.237 54.9053 285.157 55.2253C284.957 56.7453 284.857 58.9853 284.857 61.9453V71.1853C284.857 73.6253 284.877 74.9853 284.917 75.2653C285.117 77.3853 285.677 78.4453 286.597 78.4453C286.877 78.4453 287.277 78.4053 287.797 78.3253C288.317 78.2053 288.717 78.1453 288.997 78.1453C290.357 78.1453 291.037 78.8053 291.037 80.1253C291.037 81.4853 290.197 82.1653 288.517 82.1653C288.157 82.1653 287.637 82.1253 286.957 82.0453C285.957 81.9253 285.337 81.8653 285.097 81.8653C284.977 81.8653 284.557 81.9053 283.837 81.9853C283.357 82.1053 282.937 82.1653 282.577 82.1653C281.457 82.1653 280.897 81.5853 280.897 80.4253ZM306.226 50.9053C308.906 50.9053 311.146 51.6053 312.946 53.0053V52.7653C312.946 51.2853 313.586 50.5453 314.866 50.5453C316.186 50.5453 316.846 51.1853 316.846 52.4653C316.846 52.7053 316.806 53.3053 316.726 54.2653C316.566 55.0653 316.486 55.8653 316.486 56.6653C316.486 57.1453 316.546 57.8453 316.666 58.7653C316.826 59.6853 316.906 60.3853 316.906 60.8653C316.906 62.3853 316.246 63.1453 314.926 63.1453C313.646 63.1453 312.986 62.5053 312.946 61.2253L312.886 59.2453C312.846 58.0453 312.146 57.0253 310.786 56.1853C309.466 55.3053 307.906 54.8653 306.106 54.8653C304.266 54.8653 302.726 55.3453 301.486 56.3053C300.246 57.2253 299.626 58.3853 299.626 59.7853C299.626 62.3453 301.386 63.8653 304.906 64.3453L308.386 64.8253C315.186 65.7453 318.586 68.5653 318.586 73.2853C318.586 76.1653 317.486 78.5053 315.286 80.3053C313.086 82.0653 310.206 82.9453 306.646 82.9453C303.326 82.9453 300.446 82.0053 298.006 80.1253C298.046 80.5253 298.066 80.9053 298.066 81.2653C298.066 82.7053 297.386 83.4253 296.026 83.4253C294.546 83.4253 293.806 82.6053 293.806 80.9653C293.806 81.2453 293.926 80.2053 294.166 77.8453C294.246 77.2853 294.286 76.7253 294.286 76.1653C294.286 75.2053 294.206 74.3053 294.046 73.4653C293.886 72.6253 293.806 71.9653 293.806 71.4853C293.806 70.0853 294.446 69.3853 295.726 69.3853C296.566 69.3853 297.086 69.5853 297.286 69.9853C297.526 70.3853 297.666 71.4453 297.706 73.1653C297.746 74.8853 298.646 76.2853 300.406 77.3653C302.166 78.4453 304.406 78.9853 307.126 78.9853C309.086 78.9853 310.706 78.4853 311.986 77.4853C313.266 76.4853 313.906 75.2253 313.906 73.7053C313.906 70.9853 311.746 69.4053 307.426 68.9653C303.306 68.5253 300.166 67.7253 298.006 66.5653C295.846 65.3653 294.766 63.2853 294.766 60.3253C294.766 57.5253 295.826 55.2653 297.946 53.5453C300.066 51.7853 302.826 50.9053 306.226 50.9053Z" fill="#000066"/>
</svg>
