<svg xmlns="http://www.w3.org/2000/svg" width="722" height="915" fill="none" viewBox="0 0 722 915"><path fill="#000" d="M364.7 49.2002C364.1 64.7002 361.7 75.1002 356.5 85.3002C351.7 94.8002 347.3 105.6 346.1 111C344.6 117.6 344.8 134.7 346.4 140.1C348.7 147.5 352.2 153.4 357.4 158.4C362.1 162.8 366 164.4 366 161.7C366 161 365.1 157.9 364 154.7C361 146.3 361.3 136.8 365 124.6C366.6 119.2 368.4 114.2 368.8 113.6C369.3 113 370.5 109.8 371.5 106.5C372.5 103.2 373.5 100.1 373.8 99.6002C374.1 99.1002 375.4 101.8 376.7 105.5C378.1 109.2 380 113.2 381.1 114.3C382.1 115.5 383 116.7 383 117.1C383 117.6 384.1 119.5 385.3 121.4C386.6 123.3 388.7 127.7 389.9 131.2C391.2 134.6 392.6 138.3 393.1 139.2C394.5 141.9 394.2 151.5 392.5 154.6C390.6 158.3 390.6 162 392.4 162C395.3 162 397 160.7 401.2 155.2C403.6 152 405.8 149.3 406.1 149C406.5 148.7 407.6 146.2 408.6 143.5C411.1 136.6 411.1 116.2 408.6 107C406.7 99.6002 398.4 82.1002 396.1 80.3002C395.2 79.6002 393.7 79.0002 392.8 79.0002C391.2 79.0002 391 80.0002 391 85.9002C391 99.4002 387.5 94.4002 386 78.7002C384.8 66.9002 383.2 58.0002 381.9 56.4002C381.4 55.8002 381.3 55.0002 381.7 54.7002C382 54.3002 381.9 54.0002 381.3 54.0002C380.8 54.0002 379.7 52.2002 379 50.0002C378.3 47.8002 377.1 45.5002 376.3 44.9002C375.6 44.3002 375 43.3002 375 42.7002C375 40.7002 369.7 36.0002 367.5 36.0002C365.4 36.0002 365.3 36.5002 364.7 49.2002Z"/><path fill="#000" d="M267.7 98.3C263.8 101.4 262.9 119.2 266.1 131.5C267.2 135.9 268.4 140.5 268.7 141.7C269 143 269.6 144 270.1 144C270.6 144 270.9 144.3 270.8 144.7C270.7 145.2 271.2 146.8 271.9 148.4C273.7 152.8 274.5 160 273.2 160C271.8 160 268.9 155.7 266.5 150.2C265.5 147.9 264.4 146 264 146C260.7 146 259.3 167.5 261.9 179C263.7 187.2 268.2 201 269 201C269.4 201 271.4 203.7 273.4 207C275.5 210.3 277.4 213 277.8 213C278.2 213 280.2 214.5 282.3 216.4C284.4 218.2 287.9 220.3 290.1 221C292.2 221.7 294 222.7 294 223.2C294 223.6 295.4 224 297 224C301 224 300.9 221.8 296.7 216.6C289.5 207.7 287.2 197.3 289.1 182.2C289.7 177 290 169.4 289.7 165.3L289.1 157.9L295.3 164.2C317.4 186.9 323 195.9 323 208.6C323 217 327.1 216.4 330.1 207.5C330.9 205.3 331.9 203.2 332.4 202.8C333.7 201.9 333.7 184.7 332.4 181.9C331.7 180.6 330.4 177.2 329.5 174.5C328.5 171.7 326.9 168.3 325.9 166.8C324.8 165.4 324 163.9 324 163.5C324 162.2 307.4 145 306.1 145C305.2 145 290.5 130.7 287.5 127C281.9 119.7 277 111.7 274.4 105.3C271.3 97.6 270.1 96.4 267.7 98.3Z"/><path fill="#000" d="M470 102.6C468.9 105.1 468 107.3 468 107.5C468 107.7 466.8 109.8 465.3 112.2C463.7 114.6 462.1 117.2 461.5 118.1C456.1 126.7 444.1 139.8 435 147C428.3 152.3 424 156.7 420.2 162.4C418.2 165.2 416.4 167.7 416 168C414.3 169.3 410 182.2 409.4 188C408.2 200.2 412.6 215 417.4 215C419.6 215 419.8 214.6 420.2 207.1C420.9 194.3 424 189.5 447 165L452.5 159.1L452.6 174.1C452.7 182.9 453.2 189.5 453.8 190.3C454.5 191.1 454.5 192.1 454 193C453.4 193.8 453 196.2 453 198.3C453 203.5 449.7 212.3 446.1 216.9C444.4 219 443 221.8 443 223C443 224.9 443.4 225.1 445.8 224.6C450.8 223.4 460 217.9 463.8 213.9C465.8 211.7 468.2 209.1 469.1 208.2C471.1 206.1 475.4 197 477.1 191.2C477.7 188.9 478.6 187 479 187C481.6 187 483.4 154.5 481.1 150.1C479 146.4 476.6 147.5 474.1 153.4C472.9 156.4 471.2 159.4 470.4 160.1C467.9 162.2 468.7 155.8 472.5 144.3C477.1 130.4 478.4 122.4 477.7 113.1C477.2 105.2 474.9 97.9999 473 97.9999C472.4 97.9999 471 100.1 470 102.6Z"/><path fill="#000" d="M117 162.9C117 170.6 126.6 185 137.5 193.5C139.6 195.1 142.1 197.2 142.9 198C143.8 198.8 145.9 200.4 147.7 201.5C150.7 203.4 157.4 210.9 156.7 211.6C156.1 212.2 144 205.8 144 204.9C144 204.4 143.3 204 142.5 204C141.6 204 141 205 141 206.6C141 209.6 144.9 219 146.1 219C146.6 219 147.6 220.3 148.5 221.9C150.6 226 164.6 240.1 169.5 243C171.7 244.3 173.7 245.7 174 246.1C175 247.4 187.6 252.9 192 253.9C197 255.1 208.2 255.2 212 254.1C213.5 253.7 214.6 252.6 214.8 251.3C215.1 249.5 214.4 249.1 211 248.5C208.8 248.1 206.4 247.3 205.7 246.6C205.1 246 203.4 245 202 244.4C195.3 241.4 187.3 231.3 179.5 216.2C177.5 212.3 175.4 209 175 209C174.6 209 173.3 207.4 172.1 205.5C171 203.6 170.3 202 170.6 202C172.2 202 180.6 204.4 181 205C181.3 205.4 185.9 206.7 191.3 207.9C196.6 209.1 201 210.5 201 211C201 211.4 202.7 212.1 204.7 212.5C208.3 213.1 214 215.6 215 216.9C215.3 217.3 216.8 218.4 218.4 219.4C221.6 221.4 225.9 226.1 227.5 229.4C228.1 230.6 229.4 231.6 230.4 231.8C232.1 232.2 232.2 231.6 231.8 225.8C231.3 217.2 227.3 209.3 220 201.9C216.7 198.6 213.7 196 213.2 196C212.8 196 211.5 195.2 210.4 194.2C209.4 193.3 206.5 191.6 204 190.5C201.5 189.4 199.3 188.2 199 187.9C198.3 186.8 187.3 184.2 180.8 183.4C177.6 183 175 182.3 175 181.9C175 181.4 173.5 181 171.8 181C167.6 181 150.8 177.3 150.1 176.2C149.8 175.8 146.8 174.5 143.6 173.5C140.3 172.4 137.2 171 136.6 170.5C136 169.9 133.8 168.7 131.8 167.8C129.7 166.8 126.2 164.7 123.9 163C118.6 159.2 117 159.2 117 162.9Z"/><path fill="#000" d="M620.5 162.2C619.4 162.8 617.7 164.2 616.6 165.2C615.5 166.1 613.2 167.4 611.3 168.1C609.5 168.7 608 169.5 608 169.9C608 170.4 605.9 171.5 603.3 172.5C600.6 173.5 596.7 175.1 594.5 176C592.3 177 586.9 178.5 582.5 179.5C578.1 180.4 573.6 181.5 572.5 182C571.4 182.5 568 183.2 565 183.5C557.9 184.4 545.6 187.1 545 187.9C544.7 188.3 542.9 189.2 541 190C534.7 192.4 526.6 198.2 520.8 204.3C517.7 207.7 515.4 210.8 515.6 211.2C515.9 211.6 515.7 212 515.2 212C513.8 212 510.2 221.6 509.4 227.2C508.9 231.2 509.1 232.1 510.6 232.7C511.8 233.1 512.7 232.7 513.4 231.4C514 230.4 517 227 520.1 223.9C526.1 218 534.1 213.3 540.3 212.3C542.3 212 544 211.4 544 210.9C544 210.5 548.4 209.1 553.8 207.9C559.1 206.7 563.7 205.4 564 205C564.3 204.6 565.9 204 567.5 203.6C569.2 203.2 571.3 202.7 572.2 202.4C573.8 201.9 573.7 202.1 572 204.2C566 211.4 562.7 216.3 559.2 223.5C554.9 232.2 546.6 242.1 541.9 244.1C540.3 244.7 539 245.6 539 246C539 246.8 535.2 248.2 529.8 249.4C527.9 249.8 527 250.7 527 251.9C527 256 543.1 257 554.5 253.7C556.7 253.1 558.7 252.3 559 251.9C559.3 251.6 561.9 250.2 564.8 249C567.6 247.8 570 246.5 570 246.1C570 245.7 571.4 244.6 573.2 243.6C576.8 241.4 589.2 229.3 593.2 224C599.8 215.1 603.1 206 599.6 206C598 206 590.9 209.9 589.9 211.3C589.5 211.8 588.3 212 587 211.8C584.8 211.5 584.9 211.4 588.1 208C590 206 593.1 203.4 595 202C596.9 200.7 599 199.1 599.7 198.5C600.4 198 603.3 195.5 606.3 193C616.2 184.7 623.5 173.8 624.6 165.7C625.3 160.6 624.5 159.9 620.5 162.2Z"/><path fill="#000" d="M262.4 243.1C260.8 245.3 259 247.7 258.3 248.4C257.6 249.2 256.1 252.6 254.9 256.1C253.2 261.1 252.5 266 252 279C251.5 288.1 250.9 296.5 250.5 297.7C249.6 300.5 248 300.7 248 298C248 296.9 247.7 296 247.3 296C246.8 296 246.5 293.6 246.5 290.8C246.5 286.2 246.2 285.5 244.4 285.2C241.9 284.8 239.2 288.9 236.5 297.1C235.5 300.1 234.4 302.9 234 303.5C232.5 305.4 230.8 317.5 230.8 326.5C230.7 334.9 232.4 346.9 233.9 348C234.2 348.3 235.8 351.1 237.3 354.2C240.1 359.9 245.1 365.2 249.7 367.3C253.6 369 254.2 367.1 252 360.7C249.6 354 249.5 346.5 251.5 338.6C253.2 332.3 257.6 322.3 259.7 320.2C260.4 319.5 261 318.4 261 317.8C261 317.2 262 313.5 263.1 309.6L265.3 302.5L267.1 307.9C268.2 310.9 269.5 313.7 270.1 314.1C270.7 314.4 271.2 315 271.1 315.3C271.1 315.7 272.2 318.4 273.5 321.4C280.8 338 282.8 350.6 279.5 360C276.9 367.3 278 368.7 283.7 365.4C286.9 363.5 290.5 358.3 294.7 349.5C297.3 344 297.5 342.6 297.5 332C297.4 320.9 297.3 320.2 293.5 311.5C291.4 306.5 288.5 300.7 287.1 298.5C285.7 296.3 284.1 293.8 283.5 292.9C280.1 287.4 276.8 280.2 274.4 272.9C272.9 268.3 271.3 264 270.8 263.3C270.3 262.7 269.4 258 268.8 252.8C267.1 236.8 267 236.7 262.4 243.1Z"/><path fill="#000" d="M364.7 254.7C364.3 264.1 363.5 270.7 362.1 275.5C359.7 284 357.6 289.7 356.6 290.7C355.4 291.9 350.2 303.6 347.9 310.3C345.2 317.9 344.2 336.6 346 343.7C348 351.9 351.9 358.7 357.2 363.5C362.1 367.9 366 369.3 366 366.7C366 366 365.1 362.7 363.9 359.5C360.4 349.4 362.5 332.6 369 318.5C370 316.3 371.3 312.7 371.9 310.5C373.6 304.2 374.7 303.2 375.5 307.1C376.4 311.2 379.1 317.2 380.5 318.2C381.2 318.7 381.2 319 380.5 319C379.9 319 379.9 319.3 380.6 319.8C382.6 321.1 389 333 390.6 338.3C391.4 341.2 392.6 344.3 393.1 345.2C394.3 347.5 394.3 358.7 393.1 359.2C392.6 359.3 391.9 361.2 391.5 363.2C390.9 366.4 391.1 367 392.5 367C395.7 367 399.8 363.7 402.6 358.9C404.2 356.2 405.8 354 406.2 354C407.7 354 410.1 343.2 410.7 334.5C411.4 322.1 408.7 309.6 402.6 296.8C397.6 286.3 395.9 284 392.9 284C391.2 284 391 284.8 391 291.4C391 295.5 390.6 299.1 390 299.5C388.6 300.4 386.3 290.7 385.5 281C384.9 272.3 382.5 260 381.2 259C380.8 258.7 379.2 255.8 377.5 252.5C374.3 246.1 369.6 241 366.9 241C365.5 241 365.2 242.9 364.7 254.7Z"/><path fill="#000" d="M474 245.699C474 254.499 468.9 276.999 466.9 276.999C466.4 276.999 466.1 277.299 466.2 277.699C466.5 279.399 456 299.399 453.9 300.999C450.6 303.499 446 318.799 445.3 329.499C444.4 344.299 448 355.699 456.1 363.799C462.8 370.299 465.2 369.199 462.5 360.899C460.1 353.799 460.9 340.499 464.1 332.999C465.4 329.999 466.8 327.299 467.2 327.199C467.7 326.999 467.8 326.399 467.4 325.899C467.1 325.399 467.4 324.999 467.9 324.999C468.5 324.999 469 324.499 469 323.799C469 323.099 470.6 318.599 472.6 313.799C476 305.799 478 303.499 478 307.899C478 308.799 478.4 309.999 478.8 310.599C479.3 311.099 480.5 313.699 481.4 316.499C482.4 319.199 484.5 324.299 486.1 327.699C487.6 331.099 489.2 335.099 489.6 336.699C490 338.199 490.8 340.099 491.4 340.899C492.8 342.699 492.9 358.799 491.4 359.799C490.9 360.199 489.8 361.999 489 363.799C487.9 366.599 487.9 367.299 489.1 368.599C490.8 370.299 492.9 368.999 499.3 362.499C505.3 356.399 507.7 352.199 509.5 344.299C511.9 334.399 511.1 313.799 508.1 302.999C505.9 295.299 499.6 284.599 497.6 285.299C497 285.499 496.2 288.599 495.9 292.099C495.3 299.999 494.4 301.899 492.5 299.299C491.8 298.299 491.4 297.199 491.7 296.699C491.9 296.299 491.7 295.399 491.2 294.699C490.6 293.999 490 286.699 489.8 278.499C489.4 265.599 488.9 262.499 486.7 256.099C483.8 247.899 479.4 241.699 476.1 241.199C474.2 240.899 474 241.299 474 245.699Z"/><path fill="#000" d="M85 289.2C85 295.4 95.6 312.9 102.4 317.9C103.5 318.7 105.1 320.1 106 320.9C106.8 321.8 108.9 323.4 110.5 324.4C114.5 327 118.7 330.9 121.2 334.4L123.4 337.3L120.1 336.7C118.3 336.3 115.5 334.9 113.8 333.5C109.9 330.2 107 330.2 107 333.5C107 336.2 108.9 341.1 110.5 342.2C111.1 342.7 111.1 343 110.5 343C109.9 343 109.9 343.3 110.6 343.8C111.2 344.2 113.1 346.7 115 349.4C119.6 356.2 132.2 368.6 137 371C139.2 372.1 141 373.4 141 373.9C141 374.8 153 379 155.5 379C156.3 379 157 379.4 157 380C157 380.6 160.3 381 165 381C169.4 381 173 380.6 173 380.1C173 379.6 174.2 379 175.7 378.8C177.3 378.6 178.6 377.8 178.8 376.9C179.1 375.3 177.3 374.2 169.7 371.5C163.8 369.4 155.1 361 151.8 354.2C150.5 351.6 149.1 349.2 148.5 348.8C147.8 348.3 147.8 348 148.5 348C149.2 348 149.2 347.7 148.5 347.2C148 346.8 146.6 344.7 145.5 342.5C143.1 337.5 140.3 333.3 137.1 329.7C135 327.5 134.9 327 136.3 327C137.2 327 138 327.4 138 327.8C138 328.3 142 329.4 147 330.4C151.9 331.4 157 332.8 158.3 333.5C159.6 334.1 163.9 335.5 167.8 336.5C171.8 337.4 175 338.5 175 338.9C175 339.3 176.5 340.1 178.3 340.8C182.2 342.2 188.3 347.9 192.3 354C194.6 357.4 195.4 358 196.5 357C198.2 355.6 198.5 348 197.1 345.2C196.6 344.3 194.8 340.6 193.2 337C191.6 333.4 189.2 329.4 187.8 328C182.8 323 179.4 320.3 176 318.5C174.1 317.5 172.3 316.4 172 316C171.4 315 159.7 311 157.5 311C156.7 311 156 310.6 156 310.1C156 309.6 153.2 308.9 149.8 308.5C139.6 307.5 124.5 304.8 124 304.1C123.7 303.7 121.3 302.8 118.5 302.1C113.7 300.9 99 294.4 98 293C97.7 292.7 95.6 291.3 93.3 290C90.9 288.7 89 287.3 89 286.8C89 286.4 88.1 286 87 286C85.4 286 85 286.7 85 289.2Z"/><path fill="#000" d="M654 286.999C654 287.599 652 288.999 649.5 290.199C647 291.399 645 292.699 645 293.199C645 294.099 632 300.299 626.5 301.999C624.3 302.599 621.2 303.799 619.5 304.499C616.5 305.799 597.6 308.999 592.6 308.999C591.2 308.999 590 309.399 590 309.999C590 310.499 589.1 310.999 588.1 310.999C585.7 310.999 572.7 314.999 572 315.899C571.7 316.299 569.5 317.599 567 318.899C561.3 321.799 550.9 332.699 547.9 338.799C546.5 341.799 545.5 346.199 545.2 350.699C544.8 357.599 544.8 357.999 546.9 357.999C548 357.999 549 357.499 549 356.999C549 355.599 553 349.899 555 348.399C555.8 347.699 557.7 346.099 559.1 344.799C560.5 343.499 563.2 341.699 565.1 340.999C567 340.199 568.7 339.299 569 338.999C569.3 338.599 572.9 337.499 577 336.499C581.1 335.499 585 334.299 585.6 333.899C586.2 333.399 590.9 332.099 596.1 330.899C601.3 329.699 606.2 328.299 607 327.699C607.8 327.099 607.3 327.899 605.9 329.499C602.3 333.699 596.7 342.699 594.5 347.999C589.8 358.999 580.1 369.999 573.2 371.999C570.9 372.699 569 373.599 569 373.999C569 374.399 567.7 374.999 566 375.299C563 375.999 561.7 378.999 564.4 378.999C565.2 378.999 566 379.599 566.2 380.199C566.8 381.799 586.7 381.999 587.8 380.499C588.2 379.899 591.1 378.699 594.2 377.699C597.4 376.699 600.5 375.299 601.3 374.599C602 373.899 604.1 372.499 606 371.499C607.8 370.599 613.5 365.499 618.6 360.399C625.4 353.499 628.8 348.999 631.4 343.799C636.6 333.499 636 328.299 630.1 333.299C626.9 335.999 621.2 338.599 620.4 337.699C619.4 336.699 623.6 331.699 628.5 327.999C638.4 320.499 648 311.599 648 309.899C648 309.599 649.3 307.599 651 305.499C654.6 300.899 657.5 292.199 656.6 288.599C656 286.099 654 284.899 654 286.999Z"/><path fill="#000" d="M231.3 384.2C228.9 384.7 227 385.5 227 385.9C227 386.3 225.3 387.5 223.2 388.4C216.4 391.5 211 400.8 211 409.4C211 416.9 218 442.8 221.1 446.6C221.6 447.2 223.8 451.2 226.1 455.6C228.3 459.9 231.8 465.5 233.9 468C235.9 470.5 238.3 473.6 239.1 475C240.6 477.3 251.8 488.6 260 496C261.9 497.8 264.7 499.8 266.3 500.6C267.8 501.4 269 502.4 269 502.9C269 503.4 270.3 504.3 271.9 505C273.5 505.6 275.6 506.9 276.6 507.8C277.7 508.8 280.4 510.4 282.8 511.4C285.1 512.5 287 513.7 287 514.1C287 514.5 288.7 515.4 290.8 516C292.8 516.7 295.9 518 297.6 519C299.3 519.9 303 521.5 305.8 522.4L311 524.2V690.8C311 849.9 311.1 857.7 312.9 861.5C319.6 876.3 344.1 879.8 356.5 867.7C359.1 865.1 361.2 861.9 361.9 859.5C362.7 856.6 363 795.6 363 643.4C363 458 362.8 430.8 361.5 427.7C359.7 423.2 356.7 420.1 351 416.4C346.8 413.7 345.8 413.5 337 413.5C328 413.5 327.2 413.7 321.7 417C317 419.8 315.5 421.4 313.5 425.7C311.1 430.6 311 431.7 311 450.4C311 461.8 310.6 470 310.1 470C309.6 470 308.5 469.4 307.8 468.7C307.1 468 305.2 466.6 303.5 465.6C295 460.2 276 440.8 276 437.3C276 437 274.7 434.9 273.1 432.5C269 426.4 265.5 417.1 262.7 404.8C260.5 394.8 260 393.7 255.9 389.6C249.6 383.4 242.2 381.7 231.3 384.2Z"/><path fill="#000" d="M494.3 384.6C493 384.9 492 385.5 492 385.8C492 386.2 490.5 387.3 488.7 388.3C485.2 390.2 481.8 396.5 480.5 403.4C480.2 405.5 479.5 408 479 408.9C478.5 409.8 477.3 413.2 476.4 416.5C474.1 424.5 470.4 432.4 466 438.5C464.1 441.2 461.4 445.1 460 447.2C458.6 449.2 454.8 453.2 451.6 456C448.3 458.9 445 461.8 444.2 462.6C443.5 463.4 441.4 464.8 439.7 465.7C437.9 466.6 436.3 467.6 436 468C435.7 468.4 434.6 469.2 433.5 469.8C431.5 470.8 431.5 470.5 431.8 451.7C432.1 434 431.9 432.2 430 428.5C426.8 422.3 424 419.4 418.1 416.6C410.4 412.9 400.6 412.9 392.9 416.6C387.7 419.1 382.1 424.3 382 426.7C382 427.3 381.4 428 380.8 428.2C378.9 428.9 378.9 861.1 380.8 861.7C381.4 862 382 862.7 382 863.3C382.1 865.5 388.1 871.2 392.3 873C398.5 875.7 404.9 876.4 411.6 875C421.5 873 426.2 869.4 430.2 861.1C431.8 857.7 431.9 846.2 432 690.9V524.3L438.5 522.5C442.1 521.6 445 520.5 445 520.1C445 519.7 447.6 518.3 450.8 517C453.9 515.7 456.7 514.3 457 514C457.3 513.6 458.9 512.5 460.7 511.6C464.1 509.9 473.2 504 474 503C474.3 502.7 476.1 501.3 478 500C483.9 495.9 492.5 487.8 500.6 478.5C506.9 471.3 516.7 457.1 516.2 455.7C516.1 455.3 516.4 455 516.9 455C517.9 455 523.1 443.1 525.6 435.2C526.5 432.3 527.6 429.8 528 429.5C528.4 429.2 529.6 424.8 530.6 419.6C532.1 411.5 532.2 409.3 531.1 404.6C530.4 401.5 529.6 399 529.2 399C528.8 399 527.2 397.1 525.5 394.9C523.9 392.7 520.1 389.5 517 387.8C512.5 385.3 510.2 384.7 504 384.5C499.9 384.3 495.5 384.4 494.3 384.6Z"/><path fill="#000" d="M142.5 428.6C134.6 429.6 123 432.3 123 433.1C123 433.6 122.4 434 121.8 434C121.1 434 116.5 436.1 111.6 438.5C106.6 441 102 443 101.3 443C100.6 443 100 443.4 100 443.9C100 444.3 96.5 445.7 92.3 446.9C88 448.1 83.6 449.6 82.5 450.1C79.3 451.6 70.5 453 59.8 453.7C51.2 454.2 50 454.5 50 456.1C50 457.1 50.9 458.4 51.9 459C53 459.5 54.5 460.6 55.2 461.3C55.9 462.1 59.7 463.7 63.5 465C67.4 466.2 71.1 467.7 71.7 468.2C72.4 468.8 81.2 469.6 91.3 470C101.3 470.5 110.8 471.2 112.3 471.5C117.9 472.9 114.2 475 105.8 475C96.4 475 95.3 477.8 103.3 481.5C106.1 482.9 109 484 109.7 484C110.3 484 111 484.4 111.2 485C111.4 485.5 117.1 486.9 124 488.1C133.9 489.8 139 490.1 148.5 489.7C159.7 489.2 171.8 486.9 173 485.1C173.3 484.6 175.1 483.5 177 482.5C180.9 480.5 187.9 473.2 188 471.1C188 470.1 187.1 469.9 184.3 470.5C182.2 470.8 176.2 471.4 170.8 471.7C160.4 472.2 152.4 471 146.9 468.1C145 467.1 141 465.5 138 464.5C135 463.5 132.3 462.4 132 461.9C131.7 461.5 128.3 460.5 124.5 459.7C118 458.3 117.7 458.1 120.8 457.5C122.5 457.1 124 456.4 124 456C124 455.6 127.5 454.3 131.8 453C136 451.7 139.7 450.4 140 450C140.7 449.1 156 445 158.8 445C160 445 161 444.5 161 444C161 443.4 163.7 443 167 443C170.3 443 173 443.4 173 443.9C173 444.3 174.7 445 176.8 445.4C178.8 445.7 182 446.3 183.7 446.6C188.2 447.5 189.2 444.8 185.6 441.9C184.2 440.8 182.4 439.3 181.7 438.6C181 437.8 178.8 436.5 177 435.5C175.1 434.5 173.3 433.4 173 433C171.5 430.6 150.2 427.6 142.5 428.6Z"/><path fill="#000" d="M578.5 430.7C574.7 431.5 571.3 432.5 571 433C570.7 433.4 568.8 434.5 566.8 435.3C564.7 436.2 561.2 438.7 559 440.9C552.7 447.1 553.8 448.8 562.6 446.5C570.7 444.4 581.1 444.6 591.1 447.1C595.7 448.3 599.7 449.6 600 450C600.3 450.4 603.2 451.5 606.5 452.5C609.8 453.4 614.4 455 616.7 456.1C619 457.1 621.7 458 622.7 458C626.1 458 621.9 459.8 616.8 460.5C614.2 460.9 612 461.5 612 461.9C612 462.3 609.5 463.4 606.4 464.4C603.3 465.4 598.8 467.2 596.3 468.6C593.8 469.9 589.6 471.3 586.9 471.6C584.2 472 581.7 472.7 581.4 473.1C580.8 474.2 567.6 474.3 566.6 473.3C565.6 472.3 556.7 470.1 555.8 470.7C553.1 472.3 558.2 479.5 564.3 482.6C566 483.5 568 484.8 568.7 485.5C570.1 486.9 582.3 490 586.4 490C587.8 490 589.2 490.4 589.5 491C589.8 491.5 593.4 492 597.5 492C601.6 492 605.2 491.5 605.5 491C605.8 490.4 607.5 490 609.2 490C620.9 490 644 482.1 644 478.1C644 476.5 643 476.2 636.5 475.8C632.3 475.5 628.7 475 628.3 474.6C626.3 472.6 631.3 471.7 648.2 470.9C666.3 470.1 669.6 469.7 673.5 467.9C674.6 467.4 677.5 466.3 679.9 465.5C686 463.4 692.9 458.8 693 456.9C693 454.6 690.9 454 682.5 454C674.8 454 657.9 451.4 657 450.1C656.7 449.7 654.3 448.8 651.5 448.1C648.8 447.5 641.1 444.3 634.5 441C627.9 437.8 621.3 434.8 619.8 434.5C618.2 434.1 617 433.4 617 433C617 431.7 600 429 592.5 429.1C588.7 429.1 582.4 429.8 578.5 430.7Z"/><path fill="#000" d="M187.5 522.5C187 522.6 183.9 523.3 180.8 524C177.6 524.7 175 525.6 175 526C175 526.4 172.5 527.8 169.5 529C166.5 530.2 164 531.6 164 532.1C164 532.6 162.7 533.6 161.1 534.5C159.5 535.3 155.3 539 151.8 542.7C136 559.7 126.7 568.2 121.7 570.6C119.7 571.6 118 572.8 118 573.2C118 573.7 116.1 575 113.7 576C111.4 577.1 109.1 578.3 108.6 578.7C108.2 579.1 105.3 580.4 102.2 581.5C95.6999 583.8 94.1999 586.5 98.6999 587.7C104.3 589.3 128.1 588.5 135.5 586.6C139.4 585.6 142.7 584.4 143 583.9C143.3 583.4 146.7 582.3 150.5 581.3C154.4 580.3 157.7 579.2 157.8 578.7C158.3 577.6 162.8 577.8 163.5 579C163.8 579.5 162.4 580.8 160.3 581.7C158.2 582.7 156.3 583.7 156 584C155.7 584.3 154.3 585.1 152.8 585.7C149.8 587 149.5 587.7 151 590C151.7 591.1 154.4 591.4 164.6 591.3C171.5 591.3 177.5 590.8 177.9 590.3C178.2 589.9 182.5 588.7 187.4 587.7C205.4 584.1 221.7 573.6 227.6 562C232.1 553 230.5 548.2 224.7 553.5C221.7 556.4 214.5 559.9 211.8 560C210.8 560 210 560.4 210 560.9C210 562.4 203.1 563 181.3 563.2L161.1 563.5L164.4 560.5C166.2 558.8 169.5 555.9 171.8 554C174.1 552.1 178.6 548.1 181.7 545.2C184.9 542.4 187.7 540 188.1 540C188.4 540 189.7 539.1 190.9 538C192.2 537 195.3 535.4 197.9 534.5C200.4 533.6 203.3 532.4 204.2 531.9C205.1 531.5 208.8 530.8 212.4 530.4C218.7 529.7 219.9 528.9 218.2 526.4C216.8 524.1 206.7 522 197.6 522.1C192.6 522.1 188.1 522.3 187.5 522.5Z"/><path fill="#000" d="M539 522.6C531 523.9 526 525.3 526 526.1C526 526.6 525.3 527 524.5 527C523.7 527 523 527.9 523 529C523 530.8 523.7 531 528.5 531C531.5 531 534 531.4 534 532C534 532.5 535.1 533 536.5 533C539.6 533 550 536.9 550 538C550 538.5 550.8 539.1 551.8 539.4C552.8 539.8 555.2 541.4 557.1 543.1C559 544.8 562.5 547.8 564.8 549.8C567.2 551.8 570.2 554.4 571.4 555.5C572.6 556.6 575.6 559.3 578 561.4C580.5 563.5 581.6 565 580.5 564.6C579.4 564.2 570.1 563.9 559.8 563.9C541.3 564 530.8 562.9 530.2 561C530 560.4 529.2 560 528.4 560C526.2 560 519.7 556.5 517.6 554.1C515.5 551.7 511 551.2 511 553.4C511 556 514.1 563.5 515.5 564.3C516.3 564.7 517 565.6 517 566.3C517.1 569.4 532.1 581.2 537.7 582.6C539 583 540 583.6 540 584C540 584.9 554.6 589 557.7 589C558.9 589 560 589.5 560.2 590.1C560.4 590.8 565.4 591.4 574 591.7C593 592.4 597.7 590.1 587.2 585.3C584.6 584.1 581.6 582.4 580.5 581.6C578.6 580.1 578.6 580.1 581.9 580C585.8 580 597.2 582.9 598.1 584.2C598.7 585.2 613.5 589 616.7 589C617.9 589 619 589.4 619 590C619 590.6 622.8 591 628.5 591C633.7 591 638 590.6 638 590.1C638 589.6 639.8 589 642 588.6C646 588 647.2 586.2 644.8 584.3C644.1 583.7 641.1 582.5 638.2 581.5C635.3 580.6 632.4 579.3 631.7 578.6C631.1 578 629 576.8 627.2 576.1C625.4 575.3 623.6 574.2 623.2 573.6C622.8 572.9 620.9 571.5 619 570.4C613 566.9 606.5 560.7 592.5 545.6C588.1 540.8 582.8 536 580.8 534.8C578.7 533.6 577 532.3 577 531.9C577 531.5 574.4 530.2 571.3 528.9C568.1 527.7 565.3 526.3 565 526C563.5 524.1 544.7 521.6 539 522.6Z"/></svg>