<svg width="47" height="48" viewBox="0 0 47 48" fill="none" xmlns="http://www.w3.org/2000/svg">
<path d="M24.2119 42.0397L5.37244 41.9381L3.50049 37.0814L10.1197 36.5498L8.96607 31.2249L22.0582 29.3479L9.52144 24.5271L10.6289 24.2361L30.7877 27.8739L29.6775 36.1839L28.0907 40.7508L24.2119 42.0397Z" fill="#6C63FF"/>
<path d="M5.66211 39.9039C5.66211 39.9039 6.81797 39.6993 7.51149 40.6029C7.51149 40.6029 7.00291 41.0461 5.90869 40.4324L5.66211 39.9039Z" fill="#6C63FF"/>
<path d="M5.54078 39.8838C5.54078 39.8838 4.80323 40.8878 5.1665 42.0056C5.1665 42.0056 5.76755 41.7395 5.83305 40.3843L5.54078 39.8838Z" fill="#6C63FF"/>
<path d="M4.87842 38.2334C4.87842 38.2334 5.34076 37.2952 7.19014 38.6084C7.19014 38.6084 6.94356 39.2392 6.12675 39.188C5.30994 39.1369 5.09418 38.7278 4.87842 38.2334Z" fill="#6C63FF"/>
<path d="M4.75844 38.1658C4.75844 38.1658 3.79907 38.044 3.70605 40.4733C3.70605 40.4733 4.31426 40.6127 4.74633 39.8444C5.1784 39.076 5.00117 38.645 4.75844 38.1658Z" fill="#6C63FF"/>
<path d="M4.19971 36.2279C4.19971 36.2279 4.73911 34.5743 6.69637 35.7505C6.69637 35.7505 6.24944 37.2678 4.40006 36.7904L4.19971 36.2279Z" fill="#6C63FF"/>
<path d="M3.59863 33.756C3.59863 33.756 4.61579 32.0854 6.41894 33.6343C6.41894 33.6343 5.78707 35.2026 3.75275 34.3502L3.59863 33.756Z" fill="#6C63FF"/>
<path d="M3.3833 31.4034C3.3833 31.4034 4.56999 29.8685 6.35552 31.4034C6.35552 31.4034 5.23048 32.7501 3.3833 31.7955V31.4034Z" fill="#6C63FF"/>
<path d="M3.19824 29.1185C3.19824 29.1185 4.40034 27.5161 6.11102 29.0333C6.11102 29.0333 4.7548 30.4482 3.19824 29.4936V29.1185Z" fill="#6C63FF"/>
<path d="M3.30615 27.0897C3.30615 27.0897 4.5721 25.027 6.17269 26.4249C6.17269 26.4249 4.81648 28.1978 3.30615 27.4818V27.0897Z" fill="#6C63FF"/>
<path d="M3.59863 24.7201C3.59863 24.7201 4.93943 22.6745 6.496 24.2428C6.496 24.2428 4.90861 26.0157 3.59863 25.0952V24.7201Z" fill="#6C63FF"/>
<path d="M4.04591 22.6019C4.04591 22.6019 5.6333 20.6792 7.01813 21.4452C7.01813 21.4452 5.36415 23.4872 3.97656 23.1122L4.04591 22.6019Z" fill="#6C63FF"/>
<path d="M4.6006 20.5942C4.6006 20.5942 6.43237 18.2392 7.49796 19.0258C7.49796 19.0258 6.14836 20.8523 4.4707 21.035L4.6006 20.5942Z" fill="#6C63FF"/>
<path d="M5.40173 18.2654C5.40173 18.2654 7.00508 16.3427 8.17636 16.82C8.17636 16.82 6.80473 18.8146 5.18652 18.8657L5.40173 18.2654Z" fill="#6C63FF"/>
<path d="M6.12637 16.0869C6.12637 16.0869 7.8987 14.2458 8.66927 14.5697C8.66927 14.5697 7.39012 16.6154 6.04932 16.4961L6.12637 16.0869Z" fill="#6C63FF"/>
<path d="M6.83545 14.0753C6.83545 14.0753 8.36119 11.8756 9.19396 12.046C9.19396 12.046 8.26872 14.0071 6.83545 14.2987V14.0753Z" fill="#6C63FF"/>
<path d="M7.60491 11.3629C7.60491 11.3629 8.95342 9.67702 9.68216 9.68067C9.68216 9.68067 8.61766 11.9334 7.54932 11.9127L7.60491 11.3629Z" fill="#6C63FF"/>
<path d="M8.0602 9.55719L9.36303 6.04541C9.36303 6.04541 9.42798 9.21989 7.89453 10.2086L8.0602 9.55719Z" fill="#6C63FF"/>
<path d="M8.58937 5.68437C8.58937 5.68437 8.80513 2.7516 8.66643 2.51294C8.66643 2.51294 9.59773 4.95133 8.58057 6.97998L8.58937 5.68437Z" fill="#6C63FF"/>
<path d="M4.14963 36.1888C4.14963 36.1888 2.79892 35.2628 1.92432 37.5283C1.92432 37.5283 3.12641 38.4111 4.3087 36.7666L4.14963 36.1888Z" fill="#6C63FF"/>
<path d="M3.55555 33.6617C3.55555 33.6617 1.89882 32.8257 1.09521 35.1911C1.09521 35.1911 2.37492 36.1652 3.70637 34.2595L3.55555 33.6617Z" fill="#6C63FF"/>
<path d="M3.30572 31.544C3.30572 31.544 2.11903 30.0091 0.333496 31.544C0.333496 31.544 1.45854 32.8907 3.30572 31.9361V31.544Z" fill="#6C63FF"/>
<path d="M3.1574 29.1185C3.1574 29.1185 1.95531 27.5161 0.244629 29.0333C0.244629 29.0333 1.60084 30.4482 3.1574 29.4936V29.1185Z" fill="#6C63FF"/>
<path d="M3.30647 27.1484C3.30647 27.1484 2.46324 24.8378 0.630371 25.8315C0.630371 25.8315 1.62111 27.8802 3.23161 27.5319L3.30647 27.1484Z" fill="#6C63FF"/>
<path d="M3.70483 24.7087C3.70483 24.7087 2.86655 22.3579 1.00781 23.4478C1.00781 23.4478 2.14606 25.6024 3.62227 25.0715L3.70483 24.7087Z" fill="#6C63FF"/>
<path d="M4.22491 22.6136C4.22491 22.6136 3.89467 20.0364 2.35352 19.8057C2.35352 19.8057 2.68046 22.5235 4.01741 23.0782L4.22491 22.6136Z" fill="#6C63FF"/>
<path d="M4.63981 20.5989C4.63981 20.5989 4.51102 17.4939 3.23682 17.3855C3.23682 17.3855 3.27975 19.7423 4.49616 21.0385L4.63981 20.5989Z" fill="#6C63FF"/>
<path d="M5.53369 18.1785C5.53369 18.1785 5.15391 15.5964 3.9375 15.281C3.9375 15.281 4.08831 17.7815 5.41315 18.8123L5.53369 18.1785Z" fill="#6C63FF"/>
<path d="M6.2707 16.1082C6.2707 16.1082 6.25805 13.4183 5.51499 13.0232C5.51499 13.0232 5.05429 15.4585 6.05549 16.4516L6.2707 16.1082Z" fill="#6C63FF"/>
<path d="M6.89219 14.0449C6.89219 14.0449 6.78816 11.2753 6.01869 10.885C6.01869 10.885 5.75559 13.0768 6.77716 14.2263L6.89219 14.0449Z" fill="#6C63FF"/>
<path d="M7.71263 11.5839C7.71263 11.5839 7.70823 9.33121 7.15892 8.80273C7.15892 8.80273 6.61291 11.2704 7.42586 12.0369L7.71263 11.5839Z" fill="#6C63FF"/>
<path d="M7.99647 9.44624L7.46202 5.69702C7.46202 5.69702 6.73603 8.76922 8.02179 10.1233L7.99647 9.44624Z" fill="#6C63FF"/>
<path d="M8.10033 5.7196C8.10033 5.7196 6.7287 3.19901 6.75677 2.91895C6.75677 2.91895 6.90263 5.56069 8.62817 6.87639L8.10033 5.7196Z" fill="#6C63FF"/>
<path d="M8.26106 4.975C8.26106 4.975 6.9665 1.39503 6.38086 1.10522C6.38086 1.10522 8.23024 2.14512 8.36894 4.87271L8.26106 4.975Z" fill="#6C63FF"/>
<path d="M7.54223 11.934L7.45361 11.9042C8.54618 7.96319 8.81863 5.45052 8.22144 4.82037L8.28473 4.74609C8.91826 5.41094 8.66122 7.89622 7.54223 11.934Z" fill="#444053"/>
<path d="M4.53432 21.1615L4.40332 21.1098C4.51946 20.7487 4.6444 20.3822 4.7754 20.0212C5.91585 16.8771 6.88677 13.9523 7.50929 11.7069L7.62322 11.646C6.99961 13.8957 6.04575 16.9325 4.90419 20.0808C4.77375 20.4352 4.64935 20.7999 4.53432 21.1615Z" fill="#444053"/>
<path d="M7.29049 42.8532C7.27287 42.8319 5.5022 40.6261 4.26763 36.8604C3.54424 34.6557 3.14166 32.3381 3.07489 29.9939C2.99013 27.0636 3.54604 23.7917 4.49825 20.8193L4.60173 20.9533C2.46393 27.6243 3.31322 33.3407 4.43991 36.7831C5.66127 40.5146 7.41213 42.6961 7.42919 42.718L7.29049 42.8532Z" fill="#444053"/>
<path d="M34.9606 38.1702C34.9606 38.1702 33.7128 39.8548 34.7036 42.4016L24.7411 47.181L23.7851 47.4026L23.3447 45.2717L23.6392 42.5824V41.1127L34.9606 38.1702Z" fill="#D5D6DB"/>
<path d="M3.50049 37.0813L17.2894 34.3008L35.5603 37.5203L24.2119 42.0397L3.50049 37.0813Z" fill="#6C63FF"/>
<path d="M3.50049 37.0813L17.2894 34.3008L35.5603 37.5203L24.2119 42.0397L3.50049 37.0813Z" fill="#6C63FF"/>
<path d="M3.50103 37.0808C3.50103 37.0808 2.21141 39.7834 3.69752 42.2797L24.1453 47.1808C24.1453 47.1808 22.876 45.028 24.2108 42.0398L3.50103 37.0808Z" fill="#6C63FF"/>
<path opacity="0.1" d="M3.50103 37.0808C3.50103 37.0808 2.21141 39.7834 3.69752 42.2797L24.1453 47.1808C24.1453 47.1808 22.876 45.028 24.2108 42.0398L3.50103 37.0808Z" fill="black"/>
<path opacity="0.1" d="M4.11027 38.0178C4.11027 38.0178 3.37327 39.9953 4.11027 41.2751V38.0178Z" fill="black"/>
<path d="M24.1455 47.1809L35.5611 41.7927C35.5611 41.7927 36.1995 41.9449 35.7867 42.4624C35.3739 42.98 24.3657 47.6985 24.3657 47.6985L3.69775 42.2798L24.1455 47.1809Z" fill="#6C63FF"/>
<path opacity="0.1" d="M24.1455 47.1809L35.5611 41.7927C35.5611 41.7927 36.1995 41.9449 35.7867 42.4624C35.3739 42.98 24.3657 47.6985 24.3657 47.6985L3.69775 42.2798L24.1455 47.1809Z" fill="black"/>
<path opacity="0.1" d="M23.2095 42.5842C23.2095 42.5842 22.1086 44.0454 23.2095 46.2373V42.5842Z" fill="black"/>
<path opacity="0.1" d="M28.5392 42.5594L23.6016 44.3816L23.619 44.4393L28.5567 42.6171L28.5392 42.5594Z" fill="black"/>
<path opacity="0.1" d="M29.5279 42.3782L23.5996 44.8718L23.6192 44.9287L29.5474 42.4351L29.5279 42.3782Z" fill="black"/>
<path opacity="0.1" d="M30.4362 42.3694L23.6328 45.4497L23.6537 45.5061L30.4571 42.4257L30.4362 42.3694Z" fill="black"/>
<path opacity="0.1" d="M31.4241 42.1056L23.7124 45.959L23.7351 46.0145L31.4468 42.1611L31.4241 42.1056Z" fill="black"/>
<path opacity="0.1" d="M32.2534 42.1068L23.7729 46.207L23.795 46.2628L32.2754 42.1626L32.2534 42.1068Z" fill="black"/>
<path opacity="0.1" d="M34.0689 41.7659L23.9014 46.6235L23.9232 46.6794L34.0907 41.8218L34.0689 41.7659Z" fill="black"/>
<path opacity="0.3" d="M8.62354 37.3784L18.3108 35.1257L24.2123 36.3738L16.2743 39.2049L8.62354 37.3784Z" fill="white"/>
<path d="M35.561 37.5205C35.561 37.5205 36.0618 37.744 35.7679 38.0892C35.474 38.4344 24.2109 42.0399 24.2109 42.0399L35.561 37.5205Z" fill="#6C63FF"/>
<path d="M40.4259 32.3145C40.4259 32.3145 39.1786 33.9985 40.1694 36.5459L30.2069 41.3253L29.2509 41.5481L28.8105 39.4172L29.1094 36.7285V35.257L40.4259 32.3145Z" fill="#D5D6DB"/>
<path d="M8.9668 31.225L22.7551 28.4451L41.0266 31.6646L29.6782 36.184L8.9668 31.225Z" fill="#3A3768"/>
<path d="M8.9643 31.2251C8.9643 31.2251 7.67414 33.9277 9.16025 36.424L29.608 41.3251C29.608 41.3251 28.3393 39.1704 29.6757 36.1835L8.9643 31.2251Z" fill="#3A3768"/>
<path opacity="0.1" d="M8.9643 31.2251C8.9643 31.2251 7.67414 33.9277 9.16025 36.424L29.608 41.3251C29.608 41.3251 28.3393 39.1704 29.6757 36.1835L23.2095 34.6352L8.9643 31.2251Z" fill="black"/>
<path opacity="0.1" d="M9.57536 32.1621C9.57536 32.1621 8.83891 34.139 9.57536 35.4194V32.1621Z" fill="black"/>
<path d="M29.6104 41.325L41.0264 35.9368C41.0264 35.9368 41.6644 36.089 41.2516 36.6065C40.8388 37.124 29.8305 41.8425 29.8305 41.8425L9.1626 36.4238L29.6104 41.325Z" fill="#3A3768"/>
<path opacity="0.1" d="M29.6104 41.325L41.0264 35.9368C41.0264 35.9368 41.6644 36.089 41.2516 36.6065C40.8388 37.124 29.8305 41.8425 29.8305 41.8425L9.1626 36.4238L29.6104 41.325Z" fill="black"/>
<path opacity="0.1" d="M28.6748 36.7283C28.6748 36.7283 27.574 38.1895 28.6748 40.3813V36.7283Z" fill="black"/>
<path opacity="0.1" d="M34.0041 36.7042L29.0664 38.5264L29.0838 38.5841L34.0215 36.7619L34.0041 36.7042Z" fill="black"/>
<path opacity="0.1" d="M34.9937 36.5228L29.0654 39.0164L29.085 39.0733L35.0132 36.5797L34.9937 36.5228Z" fill="black"/>
<path opacity="0.1" d="M35.9016 36.5129L29.0981 39.5933L29.119 39.6496L35.9224 36.5693L35.9016 36.5129Z" fill="black"/>
<path opacity="0.1" d="M36.8899 36.2494L29.1782 40.1028L29.2009 40.1583L36.9126 36.3049L36.8899 36.2494Z" fill="black"/>
<path opacity="0.1" d="M37.7187 36.2499L29.2383 40.3501L29.2603 40.4059L37.7408 36.3056L37.7187 36.2499Z" fill="black"/>
<path opacity="0.1" d="M39.5342 35.909L29.3667 40.7666L29.3885 40.8225L39.5561 35.9649L39.5342 35.909Z" fill="black"/>
<path opacity="0.45" d="M14.0894 31.5227L23.7766 29.27L29.6781 30.5181L21.7401 33.3492L14.0894 31.5227Z" fill="white"/>
<path d="M41.0261 31.6648C41.0261 31.6648 41.5264 31.8882 41.2331 32.2328C40.9397 32.5774 29.6777 36.1836 29.6777 36.1836L41.0261 31.6648Z" fill="#3A3768"/>
<path d="M40.9433 25.6152C40.9433 25.6152 39.6955 28.6393 40.6862 31.1861L30.7238 34.626L29.7699 34.8495L29.3296 32.7185L29.6241 30.0293V28.5577L40.9433 25.6152Z" fill="#D5D6DB"/>
<path d="M9.43701 24.5157L23.2259 21.7351L41.4974 24.9546L30.1484 29.474L9.43701 24.5157Z" fill="#000066"/>
<path d="M9.48547 24.5259C9.48547 24.5259 8.19366 27.2285 9.67977 29.7247L30.1275 34.6259C30.1275 34.6259 28.8583 32.4712 30.1947 29.4849L9.48547 24.5259Z" fill="#000066"/>
<path opacity="0.1" d="M29.5138 29.836C29.0223 31.1963 29.0219 32.3783 29.1666 33.2565C29.207 33.5016 29.2586 33.7225 29.3136 33.9166L10.0078 29.2892C9.438 28.2246 9.40003 27.1258 9.52057 26.258C9.58407 25.8009 9.69069 25.4156 9.78098 25.1459C9.78467 25.1349 9.78834 25.124 9.79197 25.1134L29.5138 29.836Z" fill="#7C7CFF" stroke="black"/>
<path opacity="0.1" d="M10.0951 25.4629C10.0951 25.4629 9.35813 27.4404 10.0951 28.7202V25.4629Z" fill="black"/>
<path d="M30.1299 34.626L41.5454 30.5772C41.5454 30.5772 42.1839 30.7294 41.7711 31.2469C41.3583 31.7645 30.3501 35.1435 30.3501 35.1435L9.68213 29.7249L30.1299 34.626Z" fill="#000066"/>
<path opacity="0.1" d="M30.1299 34.626L41.5454 30.5772C41.5454 30.5772 42.1839 30.7294 41.7711 31.2469C41.3583 31.7645 30.3501 35.1435 30.3501 35.1435L9.68213 29.7249L30.1299 34.626Z" fill="#000066"/>
<path opacity="0.1" d="M29.1938 30.0293C29.1938 30.0293 28.093 31.4905 29.1938 33.6823V30.0293Z" fill="black"/>
<path opacity="0.1" d="M34.5241 30.0052L29.5864 31.8274L29.6038 31.8851L34.5415 30.0629L34.5241 30.0052Z" fill="black"/>
<path opacity="0.1" d="M35.5132 29.8238L29.585 32.3174L29.6045 32.3743L35.5328 29.8807L35.5132 29.8238Z" fill="black"/>
<path opacity="0.1" d="M36.4201 29.8144L29.6167 32.8948L29.6375 32.9511L36.441 29.8708L36.4201 29.8144Z" fill="black"/>
<path opacity="0.1" d="M37.4095 29.5504L29.6978 33.4038L29.7204 33.4593L37.4321 29.6059L37.4095 29.5504Z" fill="black"/>
<path opacity="0.1" d="M38.2387 29.5514L29.7583 33.6516L29.7803 33.7074L38.2608 29.6072L38.2387 29.5514Z" fill="black"/>
<path opacity="0.1" d="M40.0538 29.2107L29.8862 34.0684L29.9081 34.1243L40.0756 29.2666L40.0538 29.2107Z" fill="black"/>
<path opacity="0.3" d="M14.6084 24.8237L24.2956 22.571L30.1971 23.8192L22.2591 26.6503L14.6084 24.8237Z" fill="white"/>
<path d="M41.5452 24.9656C41.5452 24.9656 42.046 25.189 41.7521 25.5342C41.4582 25.8794 30.1968 29.485 30.1968 29.485L41.5452 24.9656Z" fill="#000066"/>
<path d="M17.3304 6.48371C17.3304 6.48371 15.2389 6.34429 15.4832 7.96745C15.4832 7.96745 15.4343 8.25421 15.6693 8.3845C15.6693 8.3845 15.6731 8.26273 15.8839 8.30474C15.9592 8.31904 16.0357 8.32313 16.1118 8.31692C16.2144 8.30915 16.312 8.2647 16.3898 8.19028C16.3898 8.19028 16.9782 7.92118 17.2071 6.85693C17.2071 6.85693 17.3767 6.62496 17.3723 6.56529L17.0178 6.73212C17.0178 6.73212 17.1383 7.01401 17.0437 7.24841C17.0437 7.24841 17.0321 6.74247 16.9638 6.75403C16.9501 6.75403 16.7806 6.85206 16.7806 6.85206C16.7806 6.85206 16.9881 7.34339 16.8312 7.70017C16.8312 7.70017 16.8906 7.09498 16.7156 6.88737L16.4668 7.0481C16.4668 7.0481 16.7096 7.55526 16.545 7.96927C16.545 7.96927 16.5874 7.33426 16.4145 7.08707L16.1889 7.2819C16.1889 7.2819 16.4173 7.78175 16.278 8.12514C16.278 8.12514 16.2599 7.38601 16.1404 7.32999C16.1404 7.32999 15.9428 7.52239 15.9131 7.60154C15.9131 7.60154 16.0694 7.96684 15.972 8.15619C15.972 8.15619 15.9131 7.66364 15.8619 7.6612C15.8619 7.6612 15.6654 7.98754 15.6451 8.20916C15.6546 8.00255 15.7128 7.8023 15.814 7.62832C15.7008 7.65203 15.5963 7.71193 15.5135 7.80063C15.5135 7.80063 15.5438 7.56988 15.863 7.54978C15.863 7.54978 16.0254 7.30199 16.0689 7.28738C16.0689 7.28738 15.7513 7.25754 15.5592 7.35191C15.5592 7.35191 15.7287 7.13456 16.1267 7.23014L16.3468 7.02923C16.3468 7.02923 15.9296 6.96834 15.7524 7.03593C15.7524 7.03593 15.9566 6.84353 16.4068 6.98357L16.6496 6.82344C16.6496 6.82344 16.2934 6.73881 16.0815 6.76925C16.0815 6.76925 16.305 6.63592 16.7206 6.78021L16.8934 6.69437C16.8934 6.69437 16.6331 6.63775 16.5565 6.62861C16.48 6.61948 16.4762 6.59634 16.4762 6.59634C16.6414 6.56633 16.811 6.5874 16.966 6.65723C16.966 6.65723 17.3376 6.50928 17.3304 6.48371Z" fill="#F9BF64"/>
<path opacity="0.5" d="M46.7557 13.1553C46.7557 13.1553 44.6642 13.0159 44.9085 14.6391C44.9085 14.6391 44.8595 14.9258 45.0946 15.0561C45.0946 15.0561 45.0984 14.9344 45.3092 14.9764C45.3845 14.9903 45.461 14.9944 45.5371 14.9885C45.6388 14.9803 45.7353 14.9358 45.8123 14.8619C45.8123 14.8619 46.4012 14.5928 46.6297 13.5286C46.6297 13.5286 46.7992 13.2966 46.7948 13.2369L46.4414 13.4037C46.4414 13.4037 46.562 13.6856 46.4673 13.92C46.4673 13.92 46.4557 13.4141 46.388 13.4257C46.3743 13.4257 46.2042 13.5237 46.2042 13.5237C46.2042 13.5237 46.4117 14.015 46.2554 14.3718C46.2554 14.3718 46.3148 13.7666 46.1393 13.559L45.8905 13.7197C45.8905 13.7197 46.1332 14.2269 45.9686 14.6409C45.9686 14.6409 46.011 14.0059 45.8382 13.7587L45.6131 13.9535C45.6131 13.9535 45.8409 14.4534 45.7017 14.7968C45.7017 14.7968 45.6835 14.0576 45.5641 14.0016C45.5641 14.0016 45.367 14.194 45.3368 14.2732C45.3368 14.2732 45.4931 14.6385 45.3962 14.8278C45.3962 14.8278 45.3368 14.3353 45.2861 14.3328C45.2861 14.3328 45.0896 14.6592 45.0693 14.8808C45.0788 14.6741 45.1372 14.4738 45.2388 14.3C45.1254 14.3237 45.0207 14.3836 44.9377 14.4723C44.9377 14.4723 44.9685 14.2415 45.2872 14.2214C45.2872 14.2214 45.4496 13.9736 45.4931 13.9584C45.4931 13.9584 45.176 13.9292 44.9834 14.0235C44.9834 14.0235 45.1529 13.8062 45.5509 13.9018L45.771 13.7009C45.771 13.7009 45.3533 13.64 45.1766 13.7076C45.1766 13.7076 45.3802 13.5152 45.831 13.6552L46.0732 13.4951C46.0732 13.4951 45.7171 13.4104 45.5052 13.4409C45.5052 13.4409 45.7286 13.3075 46.1442 13.4518L46.3176 13.366C46.3176 13.366 46.0567 13.3094 45.9802 13.3002C45.9037 13.2911 45.8998 13.268 45.8998 13.268C46.0651 13.2376 46.2347 13.2587 46.3897 13.3289C46.3897 13.3289 46.7623 13.1809 46.7557 13.1553Z" fill="#F9BF64"/>
<path opacity="0.5" d="M20.853 16.5114C20.853 16.5114 19.9415 14.4212 18.7812 15.4514C18.7812 15.4514 18.5308 15.5439 18.5429 15.8344C18.5429 15.8344 18.6392 15.7789 18.708 16.003C18.7337 16.0822 18.7677 16.1578 18.8093 16.2283C18.8656 16.3238 18.9485 16.3964 19.0454 16.4353C19.0454 16.4353 19.5447 16.8724 20.4963 16.5741C20.4963 16.5741 20.7622 16.6246 20.8056 16.5893L20.5018 16.3293C20.5018 16.3293 20.3367 16.5832 20.1066 16.6058C20.1066 16.6058 20.5007 16.3482 20.4583 16.2885C20.4495 16.2764 20.2932 16.1589 20.2932 16.1589C20.2932 16.1589 20.0064 16.5991 19.6487 16.6216C19.6487 16.6216 20.1551 16.3841 20.2332 16.1132L19.9855 15.9512C19.9855 15.9512 19.7032 16.4334 19.2964 16.4761C19.2964 16.4761 19.8182 16.2076 19.9288 15.9202L19.6657 15.7984C19.6657 15.7984 19.3823 16.2624 19.0432 16.2958C19.0432 16.2958 19.6179 15.9178 19.6035 15.7747C19.6035 15.7747 19.3553 15.6785 19.2783 15.6876C19.2783 15.6876 19.068 16.0158 18.8699 16.0158C18.8699 16.0158 19.2293 15.7181 19.2073 15.67C19.2073 15.67 18.8539 15.6395 18.6678 15.7308C18.8355 15.6387 19.022 15.5967 19.2089 15.6091C19.1348 15.5113 19.0364 15.4396 18.926 15.4027C18.926 15.4027 19.123 15.3199 19.2942 15.6176C19.2942 15.6176 19.5694 15.6535 19.6019 15.6882C19.6019 15.6882 19.4703 15.368 19.3025 15.2286C19.3025 15.2286 19.5568 15.2852 19.6729 15.7156L19.9398 15.8325C19.9398 15.8325 19.7863 15.399 19.6448 15.262C19.6448 15.262 19.8958 15.3649 20.0053 15.8709L20.2497 16.0267C20.2497 16.0267 20.1435 15.6413 20.0158 15.452C20.0158 15.452 20.2299 15.603 20.3185 16.0742L20.471 16.1997C20.471 16.1997 20.3884 15.9202 20.3609 15.8423C20.3334 15.7643 20.3472 15.7485 20.3472 15.7485C20.4519 15.8931 20.5182 16.067 20.5387 16.2508C20.5387 16.2508 20.8332 16.5296 20.853 16.5114Z" fill="#F9BF64"/>
<path opacity="0.5" d="M41.977 10.2025C41.977 10.2025 41.066 8.1124 39.9052 9.14255C39.9052 9.14255 39.6553 9.2351 39.6669 9.52551C39.6669 9.52551 39.7638 9.47072 39.832 9.69416C39.8577 9.77369 39.8919 9.84952 39.9338 9.92004C39.99 10.0154 40.0727 10.0878 40.1694 10.1264C40.1694 10.1264 40.6692 10.5636 41.6203 10.2659C41.6203 10.2659 41.8861 10.3158 41.9302 10.2805L41.628 10.0199C41.628 10.0199 41.4629 10.2744 41.2334 10.2969C41.2334 10.2969 41.6269 10.0388 41.5845 9.9791C41.5757 9.96692 41.4194 9.84941 41.4194 9.84941C41.4194 9.84941 41.1332 10.2896 40.7749 10.3121C40.7749 10.3121 41.2818 10.0747 41.36 9.80436L41.1084 9.64363C41.1084 9.64363 40.8266 10.1252 40.4193 10.1684C40.4193 10.1684 40.9411 9.89934 41.0523 9.61197L40.7886 9.4902C40.7886 9.4902 40.5052 9.95474 40.1667 9.98762C40.1667 9.98762 40.7407 9.60953 40.7264 9.46706C40.7264 9.46706 40.4787 9.37026 40.4017 9.38C40.4017 9.38 40.1914 9.70755 39.9927 9.70755C39.9927 9.70755 40.3527 9.40983 40.3307 9.36173C40.3307 9.36173 39.9773 9.33129 39.7907 9.42262C39.9584 9.33042 40.1449 9.28844 40.3318 9.30085C40.2579 9.203 40.1598 9.13124 40.0494 9.09445C40.0494 9.09445 40.2465 9.01165 40.4177 9.30937C40.4177 9.30937 40.6929 9.3459 40.7253 9.38061C40.7253 9.38061 40.5938 9.05975 40.4254 8.92033C40.4254 8.92033 40.6796 8.97756 40.7958 9.41044L41.0633 9.52734C41.0633 9.52734 40.9097 9.09324 40.7683 8.95625C40.7683 8.95625 41.0192 9.05914 41.1282 9.56509L41.3732 9.72095C41.3732 9.72095 41.2664 9.33616 41.1387 9.1462C41.1387 9.1462 41.3533 9.2972 41.4414 9.76844L41.5939 9.89386C41.5939 9.89386 41.5119 9.6144 41.4838 9.53647C41.4557 9.45854 41.47 9.44332 41.47 9.44332C41.5744 9.588 41.6406 9.76187 41.661 9.94561C41.661 9.94561 41.9599 10.222 41.977 10.2025Z" fill="#F9BF64"/>
<path opacity="0.5" d="M44.8878 20.5412C44.8878 20.5412 43.9769 18.4505 42.8144 19.4806C42.8144 19.4806 42.5645 19.5732 42.5761 19.8636C42.5761 19.8636 42.6729 19.8088 42.7412 20.0322C42.7667 20.1117 42.8007 20.1876 42.8425 20.2581C42.8986 20.3535 42.9813 20.4259 43.078 20.4645C43.078 20.4645 43.5778 20.9023 44.5295 20.6039C44.5295 20.6039 44.7948 20.6545 44.8388 20.6185L44.535 20.3586C44.535 20.3586 44.3699 20.6131 44.1398 20.6356C44.1398 20.6356 44.5333 20.3774 44.491 20.3178C44.4822 20.3056 44.3258 20.1881 44.3258 20.1881C44.3258 20.1881 44.0396 20.6283 43.6813 20.6514C43.6813 20.6514 44.1882 20.4134 44.2664 20.143L44.0182 19.9811C44.0182 19.9811 43.7363 20.4633 43.329 20.5059C43.329 20.5059 43.8508 20.2368 43.962 19.9494L43.6984 19.8277C43.6984 19.8277 43.4149 20.2916 43.0764 20.3251C43.0764 20.3251 43.651 19.947 43.6367 19.8039C43.6367 19.8039 43.3885 19.7071 43.3114 19.7169C43.3114 19.7169 43.1012 20.0444 42.9025 20.0444C42.9025 20.0444 43.2624 19.7467 43.2404 19.6986C43.2404 19.6986 42.8871 19.6681 42.7005 19.7595C42.8683 19.6673 43.055 19.6254 43.2421 19.6377C43.1681 19.5397 43.0697 19.4679 42.9592 19.4313C42.9592 19.4313 43.1562 19.3479 43.3274 19.6462C43.3274 19.6462 43.6026 19.6821 43.6351 19.7169C43.6351 19.7169 43.5035 19.3966 43.3356 19.2566C43.3356 19.2566 43.5899 19.3138 43.7061 19.7467L43.973 19.8636C43.973 19.8636 43.8195 19.4295 43.678 19.2931C43.678 19.2931 43.929 19.3954 44.038 19.9019L44.2829 20.0572C44.2829 20.0572 44.1761 19.6724 44.0484 19.4825C44.0484 19.4825 44.2631 19.6334 44.3517 20.1053L44.5042 20.2271C44.5042 20.2271 44.4216 19.9476 44.3941 19.8697C44.3666 19.7917 44.3803 19.7765 44.3803 19.7765C44.485 19.921 44.5511 20.095 44.5713 20.2788C44.5713 20.2788 44.8707 20.5595 44.8878 20.5412Z" fill="#F9BF64"/>
<path d="M39.5971 22.9704C39.2372 21.8885 37.2557 21.7868 36.3959 22.0626C35.785 22.2593 34.497 22.4809 33.809 22.5923L33.7644 22.5454C33.8536 22.5162 33.8558 22.4444 33.8448 22.3378C33.8384 22.1974 33.8402 22.0566 33.8503 21.9165C34.2719 22.0614 34.6473 21.7186 34.6473 21.7186C35.1427 21.4751 35.0095 20.4328 35.1041 20.1478C35.1751 19.9347 35.2516 18.6793 35.2858 18.0534H35.2929L35.2968 17.8434C35.3017 17.7526 35.3039 17.6997 35.3039 17.6997C35.3039 17.6997 35.3524 16.1691 35.447 15.8592C35.5351 15.5742 35.6067 14.1386 35.6177 13.9109C35.6177 13.8914 35.6177 13.881 35.6177 13.881L35.6105 13.7483C35.6155 13.6515 35.6177 13.5437 35.6171 13.4305C35.6171 12.9099 35.5681 12.2542 35.5621 12.1483C35.5621 12.1331 35.5621 12.1148 35.5621 12.0929C35.5659 11.8707 35.5406 10.7577 34.6847 10.337C34.3693 10.1811 33.9901 9.99544 33.623 9.81462C33.5283 8.91049 33.312 8.01124 33.3307 7.10042C33.3307 6.96343 33.3417 6.82644 33.3538 6.69006C33.3538 6.72964 33.35 6.76982 33.3494 6.81183C33.3494 6.90011 33.3494 6.989 33.3494 7.07728C33.3819 5.93815 33.771 4.79292 33.7347 3.67814C33.7314 3.78712 33.7242 3.89671 33.7149 4.0063C33.7339 3.62924 33.6982 3.25124 33.6092 2.88665C33.5762 2.75819 33.5316 2.62546 33.4364 2.53961C33.3464 2.47047 33.2432 2.42526 33.1348 2.4075C32.8743 2.33375 32.6097 2.27924 32.3427 2.24433C32.3021 2.10696 32.2419 1.97767 32.1644 1.86137C31.6063 1.01387 30.7795 0.217505 29.802 0.0348538C29.3116 -0.0564719 28.7474 0.0196328 28.4139 0.407463C28.379 0.441532 28.3463 0.478145 28.3159 0.517053C28.1365 0.753891 28.0594 1.06501 27.8756 1.30124C27.8635 1.31707 27.8497 1.33168 27.8365 1.3469C27.4765 1.70307 26.9157 1.77735 26.5155 2.09699C26.445 2.15437 26.3789 2.21811 26.3179 2.28755C26.1567 2.46429 26.0121 2.6587 25.8864 2.86778C25.7064 3.14784 25.5215 3.43948 25.4642 3.77373C25.3492 4.44345 25.7614 5.07847 25.838 5.75245C26.0086 7.26054 24.4999 8.59877 24.7856 10.0868C24.8618 10.4523 25.0301 10.7865 25.271 11.0506C24.6826 11.6399 24.1818 12.2116 24.1818 12.2116V12.2457H24.0887L24.0981 12.3675H24.0887L24.1399 13.0281L24.0887 13.99C24.0887 13.99 24.0887 14.0004 24.0887 14.0199V14.0247V14.0509C24.0887 14.0509 24.0887 14.0613 24.0887 14.0807H24.0921C24.1091 14.4333 24.1768 15.7009 24.2572 15.9681C24.3518 16.278 24.3997 17.8087 24.3997 17.8087C24.3997 17.8087 24.5043 19.9719 24.6001 20.258C24.6959 20.5442 24.5599 21.5835 25.0569 21.8288C25.2023 21.9522 25.3745 22.0311 25.5561 22.0577C25.5308 22.2854 25.5468 22.4504 25.6288 22.5022C25.6639 22.525 25.7037 22.5376 25.7444 22.5387C25.7107 22.594 25.6807 22.652 25.6547 22.7122C25.4574 22.6895 25.2635 22.6389 25.0778 22.5619C24.5439 22.3183 22.7722 21.7704 22.2575 22.1558C21.7429 22.5412 20.5045 22.8906 21.0763 24.4419C21.6482 25.9933 21.9146 26.0322 21.9146 26.0322C22.0907 26.1736 22.2451 26.3452 22.372 26.5406C22.5437 26.8262 24.1438 27.4794 24.5439 27.4794C24.714 27.4765 24.8841 27.4859 25.0531 27.5074C25.0531 27.5074 24.6188 27.9288 24.6766 28.1735C24.7344 28.4183 24.5445 30.3775 24.5445 30.3775C24.5445 30.3775 24.9848 30.8682 25.1731 30.2247L25.1797 30.2344C25.2149 30.2874 25.4053 30.5267 25.7636 30.2247C25.9103 30.1016 26.0661 29.9925 26.2293 29.8984L27.9642 29.6268C28.1451 29.6143 28.3264 29.6129 28.5074 29.6225C28.7827 29.6475 29.0529 29.4673 29.223 29.3279C29.5824 29.4789 29.9864 29.6439 30.1785 29.7041C30.5682 29.8259 32.3592 30.3574 32.7781 30.1912C32.8652 30.1529 32.9426 30.0919 33.0038 30.0134L33.4034 30.0274L33.2162 30.0688C33.2162 30.0688 33.5806 30.0755 34.076 30.0828L34.055 30.0962L34.6765 30.0901C35.5857 30.0993 36.6073 30.1023 36.7416 30.0688C36.9519 30.0171 38.0444 30.0536 38.3664 30.0688H38.4561C38.4561 30.0688 39.6566 29.804 39.1612 28.4566C38.7803 27.4216 37.6096 27.1208 37.09 27.038C37.2364 27.0058 37.3625 26.9808 37.4461 26.9662C37.8088 26.9053 38.5134 26.54 38.5706 26.4152C38.6279 26.2904 39.2185 25.9281 39.3709 25.7217C39.5234 25.5153 39.9588 24.0523 39.5971 22.9704ZM29.654 25.9981L29.5951 26.0194L29.5554 26.0341L29.4795 26.1169C29.4189 26.0718 29.354 26.0243 29.2863 25.9756C29.4057 25.9835 29.5285 25.9914 29.654 25.9981Z" fill="url(#paint0_linear)"/>
<path d="M33.1631 19.5786C33.1631 19.5786 34.0052 22.014 34.4841 21.7704C34.9629 21.5269 34.833 20.4919 34.9244 20.2082C35.0158 19.9244 35.117 17.7728 35.117 17.7728C35.117 17.7728 35.1633 16.2507 35.2546 15.9426C35.3394 15.6595 35.4082 14.2318 35.4198 14.0071C35.4198 13.9877 35.4198 13.9773 35.4198 13.9773L35.3289 12.2117L34.8149 12.0698L33.6227 12.5569L33.4576 13.5998L33.3932 14.0071L33.3656 14.1807L33.1631 19.5786Z" fill="#BE6F72"/>
<path opacity="0.1" d="M33.4404 19.1707C33.4404 19.1707 34.244 19.8982 34.4862 19.9621C34.7284 20.0261 34.877 20.5935 34.877 20.5935" fill="black"/>
<path d="M26.5775 19.6851C26.5775 19.6851 25.7354 22.1204 25.2565 21.8769C24.7776 21.6333 24.9075 20.5983 24.8162 20.3146C24.7248 20.0309 24.6235 17.8793 24.6235 17.8793C24.6235 17.8793 24.5773 16.3572 24.4859 16.0491C24.4012 15.766 24.3324 14.3383 24.3208 14.1136C24.3208 14.0941 24.3208 14.0838 24.3208 14.0838L24.4122 12.3181L24.9263 12.1763L26.1184 12.6633L26.2836 13.7063L26.348 14.1136L26.3755 14.2871L26.5775 19.6851Z" fill="#BE6F72"/>
<path d="M32.0608 6.65234H30.1812V9.89319H32.0608V6.65234Z" fill="#3E373A"/>
<path opacity="0.1" d="M32.0608 6.65234H30.1812V9.89319H32.0608V6.65234Z" fill="black"/>
<path d="M26.2471 22.1107C26.2471 22.1107 25.6047 22.8919 25.8431 23.0337C26.0814 23.1756 27.6231 25.8344 27.6231 25.8344C27.6231 25.8344 32.6869 26.5242 33.6418 25.4892C34.5968 24.4542 34.5775 22.6051 34.5775 22.6051C34.5775 22.6051 33.8103 22.7878 33.7266 22.6885C33.6429 22.5893 33.1833 22.1107 33.1833 22.1107C33.1833 22.1107 26.6874 21.6748 26.2471 22.1107Z" fill="#4B4B5B"/>
<path opacity="0.02" d="M26.2471 22.1107C26.2471 22.1107 25.6047 22.8919 25.8431 23.0337C26.0814 23.1756 27.6231 25.8344 27.6231 25.8344C27.6231 25.8344 32.6869 26.5242 33.6418 25.4892C34.5968 24.4542 34.5775 22.6051 34.5775 22.6051C34.5775 22.6051 33.8103 22.7878 33.7266 22.6885C33.6429 22.5893 33.1833 22.1107 33.1833 22.1107C33.1833 22.1107 26.6874 21.6748 26.2471 22.1107Z" fill="black"/>
<path d="M35.3631 12.2372L33.7119 13.6984L33.2126 13.7386L33.0294 13.7532L29.9509 14.0028L26.7585 13.7447L26.2835 13.7063L25.6781 13.6576L24.4121 12.3182C24.4121 12.3182 25.3082 11.2563 26.0931 10.5397C26.4024 10.2566 26.6947 10.0277 26.9077 9.9376L26.944 9.9236C27.078 9.86581 27.1976 9.77356 27.293 9.65449C27.9127 8.94763 28.4857 7.20331 28.4857 7.20331C28.4857 7.20331 31.2196 5.64103 30.8894 7.69038C30.5591 9.73973 32.1184 9.23318 32.1184 9.23318L32.6325 9.49254L32.8356 9.59544L33.3535 9.85785L34.5221 10.4509C35.4391 10.9178 35.3631 12.2372 35.3631 12.2372Z" fill="#BE6F72"/>
<path opacity="0.1" d="M29.8225 8.87222C31.1804 8.87222 32.2811 7.65458 32.2811 6.15254C32.2811 4.6505 31.1804 3.43286 29.8225 3.43286C28.4646 3.43286 27.3638 4.6505 27.3638 6.15254C27.3638 7.65458 28.4646 8.87222 29.8225 8.87222Z" fill="black"/>
<path opacity="0.1" d="M35.367 14.1745H24.3208C24.3208 14.155 24.3208 14.1446 24.3208 14.1446L24.4122 12.379C24.4122 12.379 25.3082 11.3172 26.0931 10.6006L33.0283 10.2962L33.3508 9.91992L34.5194 10.5129C35.4369 10.9793 35.3631 12.2986 35.3631 12.2986C35.3631 12.2986 35.4886 13.8274 35.367 14.1745Z" fill="black"/>
<path d="M35.367 14.1137H24.3208C24.3208 14.0942 24.3208 14.0839 24.3208 14.0839L24.4122 12.3182C24.4122 12.3182 25.3082 11.2564 26.0931 10.5398L33.0283 10.2354L33.3508 9.85913L34.5194 10.4521C35.4369 10.9185 35.3631 12.2379 35.3631 12.2379C35.3631 12.2379 35.4886 13.7667 35.367 14.1137Z" fill="#E7C7CA"/>
<path opacity="0.1" d="M28.0518 9.16257C28.0518 9.16257 29.7944 11.6186 32.1155 9.11204C34.4365 6.60545 32.3725 14.703 32.3725 14.703L27.3638 15.3605L28.0518 9.16257Z" fill="black"/>
<path d="M28.0518 9.2844C28.0518 9.2844 29.7944 11.7404 32.1155 9.23386C34.4365 6.72728 32.3725 14.8248 32.3725 14.8248L27.3638 15.4824L28.0518 9.2844Z" fill="#E7C7CA"/>
<path opacity="0.1" d="M32.8326 9.71545L33.0169 12.826L33.2145 13.861L33.3653 14.6525C33.3653 14.6525 33.7506 20.7409 33.6406 21.0453C33.5305 21.3497 33.6956 21.5933 33.7187 21.7552C33.7418 21.9172 33.6956 22.3239 33.7138 22.5065C33.7319 22.6892 33.7138 22.7702 33.2921 22.705C32.8705 22.6399 32.2827 22.5266 32.2827 22.5266C32.2827 22.5266 30.7966 22.6484 30.283 22.4456C29.7695 22.2429 28.7969 22.2423 28.7969 22.2423C28.7969 22.2423 27.329 22.2831 26.8523 22.2222C26.3757 22.1613 26.1181 22.8718 25.8066 22.6685C25.495 22.4651 26.1731 20.4974 26.3933 19.9287C26.6135 19.3601 26.0999 17.9195 26.0999 17.9195L26.7604 13.8665L26.9074 12.9478V10.0594L26.9437 10.0454C27.0777 9.98764 27.1973 9.8954 27.2927 9.77633L27.4578 12.6829L32.6317 12.8863V9.61499" fill="black"/>
<path d="M32.8326 9.59362L33.0169 12.7042L33.2145 13.7392L33.3653 14.5307C33.3653 14.5307 33.7506 20.6191 33.6406 20.9235C33.5305 21.2279 33.6956 21.4714 33.7187 21.6334C33.7418 21.7953 33.6956 22.202 33.7138 22.3847C33.7319 22.5674 33.7138 22.6483 33.2921 22.5832C32.8705 22.518 32.2827 22.4048 32.2827 22.4048C32.2827 22.4048 30.7966 22.5266 30.283 22.3238C29.7695 22.1211 28.7969 22.1205 28.7969 22.1205C28.7969 22.1205 27.329 22.1613 26.8523 22.1004C26.3757 22.0395 26.1181 22.75 25.8066 22.5466C25.495 22.3433 26.1731 20.3755 26.3933 19.8069C26.6135 19.2382 26.0999 17.7977 26.0999 17.7977L26.7604 13.7447L26.9074 12.8259V9.93762L26.9437 9.92361C27.0777 9.86582 27.1973 9.77357 27.2927 9.65451L27.4578 12.5611L32.6317 12.7645V9.49316" fill="#E7C7CA"/>
<path opacity="0.1" d="M33.4279 3.10228C33.3965 2.97503 33.3531 2.84291 33.2628 2.75767C33.1766 2.68921 33.077 2.64416 32.9722 2.62617C32.7211 2.55314 32.4659 2.49903 32.2082 2.46422C32.1714 2.32902 32.1157 2.20104 32.0431 2.08491C31.5037 1.24228 30.7056 0.447744 29.7666 0.268137C29.2751 0.173767 28.7054 0.258395 28.3905 0.687017C28.2177 0.922637 28.1434 1.23497 27.9689 1.46633C27.6326 1.91565 27.0255 1.97106 26.6017 2.3187C26.3755 2.50135 26.2115 2.7662 26.0513 3.02313C25.8779 3.30137 25.6996 3.59117 25.6445 3.9236C25.5345 4.58784 25.9313 5.22103 26.0045 5.89136C26.1696 7.39093 24.7165 8.72124 24.9912 10.2007C25.1514 11.0634 25.8719 11.6711 26.6171 11.9791C26.8797 12.0881 27.1796 12.1965 27.3024 12.4753C27.3574 12.5971 27.3668 12.7377 27.4185 12.8607C27.5924 13.2711 28.1643 13.2869 28.4715 12.988C28.7786 12.689 28.8755 12.2056 28.9118 11.7545C29.0593 9.78427 28.346 7.83782 28.4291 5.86275C28.4538 5.26548 28.6058 4.58784 29.0896 4.31752C29.7407 3.95221 30.5239 4.56105 31.2406 4.44476C31.5797 5.3575 31.6517 6.36484 31.4464 7.32518C31.3325 7.8506 31.1354 8.3602 31.1211 8.90207C31.0997 9.72704 31.502 10.4808 31.8499 11.2102C31.9245 11.3466 31.9744 11.4977 31.9968 11.6552C32.0023 11.815 31.9754 11.9742 31.9181 12.121C31.7216 12.7061 31.3826 13.2492 31.344 13.872C31.3328 13.9447 31.3476 14.0194 31.3853 14.0802C31.4241 14.1208 31.4742 14.1457 31.5273 14.1509C32.1218 14.2635 32.6359 13.6808 32.9259 13.0957C33.2493 12.4495 33.4378 11.7314 33.4774 10.994C33.5374 9.75444 33.1356 8.53494 33.1604 7.29413C33.189 5.88345 33.7653 4.46303 33.4279 3.10228Z" fill="black"/>
<path d="M33.4826 3.04149C33.4512 2.91424 33.4077 2.78212 33.3175 2.69688C33.2313 2.62842 33.1317 2.58337 33.0268 2.56538C32.7758 2.49235 32.5206 2.43824 32.2629 2.40342C32.2261 2.26823 32.1704 2.14025 32.0978 2.02412C31.5584 1.18149 30.7603 0.386953 29.8213 0.207346C29.3297 0.112976 28.7601 0.197604 28.4452 0.626226C28.2724 0.861846 28.1981 1.17418 28.0236 1.40554C27.6873 1.85486 27.0802 1.91027 26.6564 2.25791C26.4302 2.44056 26.2661 2.70541 26.106 2.96234C25.9326 3.24058 25.7543 3.53038 25.6992 3.86281C25.5891 4.52705 25.986 5.16024 26.0592 5.83057C26.2243 7.33014 24.7712 8.66045 25.0459 10.1399C25.2061 11.0027 25.9265 11.6103 26.6718 11.9183C26.9343 12.0273 27.2343 12.1357 27.3571 12.4145C27.4121 12.5363 27.4215 12.677 27.4732 12.7999C27.6471 13.2103 28.219 13.2261 28.5261 12.9272C28.8333 12.6283 28.9301 12.1448 28.9665 11.6937C29.114 9.72348 28.4006 7.77703 28.4838 5.80196C28.5085 5.20469 28.6604 4.52705 29.1443 4.25673C29.7954 3.89142 30.5786 4.50026 31.2953 4.38397C31.6344 5.29671 31.7064 6.30405 31.5011 7.26439C31.3872 7.78981 31.1901 8.29941 31.1758 8.84128C31.1544 9.66625 31.5567 10.42 31.9046 11.1494C31.9792 11.2858 32.0291 11.4369 32.0515 11.5944C32.057 11.7542 32.0301 11.9134 31.9728 12.0602C31.7763 12.6453 31.4373 13.1884 31.3987 13.8112C31.3874 13.8839 31.4023 13.9586 31.44 14.0194C31.4788 14.06 31.5288 14.0849 31.582 14.0901C32.1765 14.2027 32.6906 13.62 32.9806 13.035C33.304 12.3887 33.4925 11.6706 33.5321 10.9332C33.5921 9.69365 33.1903 8.47415 33.2151 7.23334C33.2437 5.82266 33.82 4.40224 33.4826 3.04149Z" fill="#3E373A"/>
<path d="M32.2671 29.9988L34.4506 30.0761L34.1374 28.2849L32.4647 28.4609L32.2671 29.9988Z" fill="#C3C7D9"/>
<path d="M39.0329 25.7534C38.886 25.9562 38.3174 26.3215 38.2624 26.4432C38.2073 26.565 37.5287 26.9303 37.1797 26.9912C36.8307 27.0521 35.7305 27.3163 35.5285 27.4582C35.3837 27.5605 34.2218 27.8844 33.4584 28.064C33.2516 28.1181 33.0423 28.1597 32.8315 28.1888C32.5012 28.2089 28.8872 26.8493 28.8872 26.8493L29.584 26.0578L29.6226 26.0432C29.8196 25.9696 30.73 25.6292 31.2353 25.4673C31.8044 25.2846 32.4649 24.5339 32.4649 24.5339C32.4649 24.5339 33.4369 24.1686 33.5657 24.1278C33.6945 24.087 33.2355 22.7074 33.2355 22.7074C33.2355 22.7074 35.3452 22.3835 36.1708 22.1089C36.9964 21.8343 38.9047 21.936 39.2531 23.0118C39.6015 24.0876 39.1821 25.5507 39.0329 25.7534Z" fill="#4B4B5B"/>
<path d="M29.4186 29.183C29.4186 29.183 28.997 29.6701 28.5748 29.6299C28.1526 29.5897 26.6764 29.7517 26.6764 29.7517C26.4089 29.8697 26.1584 30.0303 25.9328 30.2284C25.5877 30.5292 25.4044 30.2893 25.3703 30.2381L25.3642 30.2284C25.1804 30.8683 24.7588 30.3806 24.7588 30.3806C24.7588 30.3806 24.9421 28.4323 24.8859 28.1888C24.8298 27.9452 25.2487 27.527 25.2487 27.527L25.744 27.3875L26.999 27.032L28.7972 27.7218L29.4186 29.183Z" fill="#E7C7CA"/>
<path opacity="0.1" d="M25.7418 27.3875L25.3703 30.238L25.3642 30.2283C25.1804 30.8682 24.7588 30.3805 24.7588 30.3805C24.7588 30.3805 24.9421 28.4322 24.8859 28.1887C24.8298 27.9451 25.2487 27.5269 25.2487 27.5269L25.7418 27.3875Z" fill="black"/>
<path opacity="0.1" d="M28.3389 19.2791C28.3389 19.2791 29.3109 19.6444 30.1552 19.2791H28.3389Z" fill="black"/>
<path opacity="0.1" d="M31.6572 19.9695C31.6572 19.9695 32.0607 20.1923 32.3728 19.9695H31.6572Z" fill="black"/>
<path opacity="0.1" d="M31.6572 20.498C31.6572 20.498 32.3359 20.5985 32.4647 20.3958L31.6572 20.498Z" fill="black"/>
<path opacity="0.1" d="M31.437 21.6335C31.437 21.6335 32.7118 21.4508 33.0283 21.2073L31.437 21.6335Z" fill="black"/>
<path opacity="0.1" d="M27.5474 21.2073C27.5474 21.2073 28.2629 21.6536 28.7951 21.6335L27.5474 21.2073Z" fill="black"/>
<path opacity="0.1" d="M33.4574 28.0639C33.2506 28.1181 33.0413 28.1597 32.8305 28.1888C32.5002 28.2088 28.8862 26.8493 28.8862 26.8493L29.5831 26.0578L29.6216 26.0432C29.7317 26.1291 29.8219 26.2027 29.8863 26.2587C30.1896 26.523 30.4824 26.1778 30.5925 26.1778C30.7026 26.1778 31.6565 27.0502 31.6565 27.0502C31.6565 27.0502 32.5371 27.2737 32.6841 27.4764C32.831 27.6792 33.3446 27.639 33.4359 27.7808C33.4635 27.8247 33.4668 27.9324 33.4574 28.0639Z" fill="black"/>
<path d="M26.6763 22.7903C26.6763 22.7903 25.7858 22.847 25.2722 22.6077C24.7587 22.3684 23.0524 21.8162 22.5571 22.204C22.0617 22.5919 20.869 22.9346 21.4194 24.4774C21.9698 26.0202 22.2268 26.0604 22.2268 26.0604C22.3971 26.2017 22.5458 26.3723 22.6671 26.5657C22.8323 26.8501 24.3734 27.4991 24.7587 27.4991C25.144 27.4991 25.8227 27.4991 26.7765 28.2297C27.7304 28.9603 28.5929 29.0419 28.5929 29.0419C28.5929 29.0419 29.8038 29.5898 30.1808 29.7116C30.5578 29.8334 32.2806 30.3606 32.6846 30.1987C33.0886 30.0367 33.3451 29.0212 33.3451 29.0212C33.3451 29.0212 33.5284 28.1079 33.4365 27.9661C33.3446 27.8242 32.831 27.8644 32.6846 27.6617C32.5382 27.4589 31.657 27.2355 31.657 27.2355C31.657 27.2355 30.7054 26.3624 30.5953 26.3624C30.4852 26.3624 30.1924 26.707 29.8891 26.4434C29.285 25.9484 28.6503 25.5008 27.9896 25.1039C27.2928 24.6978 26.6763 22.7903 26.6763 22.7903Z" fill="#4B4B5B"/>
<path opacity="0.1" d="M24.8862 23.379C25.0448 23.3432 25.2087 23.3483 25.3652 23.394C25.5217 23.4398 25.6665 23.5248 25.7884 23.6426C26.2287 24.0487 27.7104 24.864 27.7104 24.864" fill="black"/>
<path opacity="0.1" d="M35.8953 23.3533C35.8953 23.3533 33.932 23.682 33.5654 24.1283L35.8953 23.3533Z" fill="black"/>
<path d="M38.1521 30.0762H38.0656C37.7552 30.064 36.7034 30.0275 36.5008 30.0762C36.2625 30.1371 33.1064 30.0762 33.1064 30.0762L33.7235 29.9343C33.7235 29.9343 33.4945 29.0466 33.6398 28.973C33.6398 28.973 32.8142 28.3714 33.4367 27.9653C34.0592 27.5592 34.7302 27.7303 34.7302 27.7303L36.2928 27.1446L36.5928 27.032C36.5928 27.032 38.3541 27.1337 38.8307 28.4731C39.3074 29.8125 38.1521 30.0762 38.1521 30.0762Z" fill="#E7C7CA"/>
<path opacity="0.1" d="M38.1518 30.0763H38.0654C38.5778 29.6087 39.737 28.1853 36.2925 27.1478L36.5925 27.0352C36.5925 27.0352 38.3538 27.1368 38.8304 28.4763C39.3071 29.8157 38.1518 30.0763 38.1518 30.0763Z" fill="black"/>
<path d="M34.9137 28.498C34.9669 28.498 35.01 28.4503 35.01 28.3915C35.01 28.3326 34.9669 28.2849 34.9137 28.2849C34.8605 28.2849 34.8174 28.3326 34.8174 28.3915C34.8174 28.4503 34.8605 28.498 34.9137 28.498Z" fill="#4B4B5B"/>
<path d="M34.3541 28.674C34.4073 28.674 34.4505 28.6263 34.4505 28.5675C34.4505 28.5086 34.4073 28.4609 34.3541 28.4609C34.3009 28.4609 34.2578 28.5086 34.2578 28.5675C34.2578 28.6263 34.3009 28.674 34.3541 28.674Z" fill="#4B4B5B"/>
<g opacity="0.1">
<path opacity="0.1" d="M31.627 6.05212C31.6483 5.38245 31.5406 4.71541 31.311 4.09531C30.5955 4.21343 29.8117 3.60276 29.16 3.96807C28.6779 4.23839 28.5265 4.91603 28.4995 5.5133C28.4929 5.67099 28.4918 5.82868 28.4946 5.98636C28.4946 5.93035 28.4946 5.87373 28.4995 5.81772C28.5248 5.22045 28.6762 4.54281 29.16 4.27249C29.8117 3.90718 30.5944 4.51602 31.311 4.39973C31.5055 4.92498 31.6125 5.48477 31.627 6.05212Z" fill="black"/>
<path opacity="0.1" d="M26.0819 5.94054C26.0914 5.80788 26.089 5.67451 26.0748 5.54236C26.0164 5.00658 25.7517 4.49455 25.7038 3.97217C25.6422 4.60232 26.0049 5.2075 26.0748 5.84678C26.0819 5.87966 26.0819 5.90888 26.0819 5.94054Z" fill="black"/>
<path opacity="0.1" d="M28.982 11.4044C28.9479 11.8561 28.8516 12.3389 28.5417 12.6385C28.2318 12.938 27.661 12.9216 27.4887 12.5112C27.4337 12.3895 27.4254 12.2476 27.3721 12.1258C27.2499 11.847 26.9493 11.7386 26.6868 11.6296C25.941 11.321 25.2216 10.7164 25.0614 9.85122C25.0471 9.77284 25.0374 9.69353 25.0323 9.61377C25.0187 9.79501 25.0285 9.97745 25.0614 10.1556C25.2216 11.0184 25.9421 11.6254 26.6868 11.9341C26.9493 12.043 27.2499 12.1514 27.3721 12.4303C27.4271 12.552 27.4365 12.6927 27.4887 12.8157C27.6621 13.226 28.234 13.2418 28.5417 12.9429C28.8494 12.644 28.9451 12.1605 28.982 11.7088C28.9988 11.471 29.0045 11.2324 28.9991 10.994C28.9991 11.1322 28.9919 11.2686 28.982 11.4044Z" fill="black"/>
<path opacity="0.1" d="M33.2334 6.94465C33.2334 7.03293 33.2334 7.1206 33.2334 7.20827C33.2642 6.07583 33.6396 4.93731 33.6027 3.82861C33.5741 4.8539 33.2543 5.90232 33.2334 6.94465Z" fill="black"/>
<path opacity="0.1" d="M32.0523 11.5255C32.0659 11.4532 32.0701 11.3792 32.065 11.3057C32.0428 11.1481 31.9929 10.9969 31.918 10.8606C31.5999 10.1909 31.2372 9.50535 31.1942 8.76196C31.1942 8.79362 31.1904 8.82285 31.1898 8.85694C31.1678 9.68131 31.5702 10.4357 31.918 11.165C31.9772 11.278 32.0223 11.3992 32.0523 11.5255Z" fill="black"/>
<path opacity="0.1" d="M33.5502 10.6445C33.5091 11.3821 33.3194 12.1002 32.9949 12.7462C32.7042 13.3313 32.1907 13.9139 31.5957 13.8013C31.5424 13.7962 31.4923 13.7711 31.4537 13.7301C31.4425 13.7161 31.4338 13.7 31.4278 13.6826C31.4212 13.7301 31.4157 13.7782 31.4124 13.8269C31.4011 13.8994 31.4159 13.9739 31.4537 14.0345C31.4923 14.0755 31.5424 14.1006 31.5957 14.1057C32.1907 14.2184 32.7042 13.6357 32.9949 13.0506C33.3194 12.4046 33.5091 11.6865 33.5502 10.9489C33.5568 10.8064 33.5574 10.6646 33.5535 10.5227C33.5524 10.5635 33.5524 10.6037 33.5502 10.6445Z" fill="black"/>
</g>
<path opacity="0.1" d="M33.6401 28.9729C33.6401 28.9729 35.0332 29.6195 35.9519 28.1887" stroke="black" stroke-miterlimit="10"/>
<path opacity="0.1" d="M33.9141 30.1029C33.9141 30.1029 35.0518 29.2847 36.501 30.0762" stroke="black" stroke-miterlimit="10"/>
<path opacity="0.1" d="M26.2983 29.9173C26.2983 29.9173 26.7761 28.7252 28.0519 29.6342" stroke="black" stroke-miterlimit="10"/>
<path opacity="0.1" d="M24.7495 12.2879L25.7237 11.3137C25.7237 11.3137 29.5012 11.0397 29.6575 12.4602C29.6575 12.4602 30.9967 10.7761 33.8131 11.1512L35.0048 12.2008L31.7111 13.7996L28.5105 15.0276L26.1531 13.8605L24.7495 12.2879Z" fill="black"/>
<path d="M24.7495 12.3487L25.7237 11.3745C25.7237 11.3745 29.5012 11.1005 29.6575 12.521C29.6575 12.521 30.9967 10.8369 33.8131 11.212L35.0048 12.2616L31.7111 13.8604L28.5105 15.0884L26.1531 13.9213L24.7495 12.3487Z" fill="#D5D6DB"/>
<path opacity="0.1" d="M24.3184 12.4702L24.7493 18.1732L29.3177 18.4271L29.1196 12.7485L29.1157 12.6529L24.3184 12.4702Z" fill="black"/>
<path d="M24.3184 12.3486L24.7493 18.0516L29.3177 18.3055L29.1196 12.6269L29.1157 12.5313L24.3184 12.3486Z" fill="#6C63FF"/>
<path opacity="0.1" d="M35.2141 12.3486L30.5015 13.1304V18.8589L35.1068 18.1229L35.2141 12.3486Z" fill="black"/>
<path d="M35.2141 12.2268L30.5015 13.0086V18.7371L35.1068 18.001L35.2141 12.2268Z" fill="#6C63FF"/>
<path opacity="0.3" d="M34.1023 13.6248L31.5566 13.9377L31.6122 14.8972L34.1006 14.5965L34.1023 13.6248Z" fill="white"/>
<path d="M24.9973 21.1056L25.2566 21.877C25.2566 21.877 25.6419 22.2423 26.0635 22.0596C26.4851 21.877 26.8528 21.7863 27.0361 21.6085C27.2193 21.4307 27.4764 20.5375 27.4764 20.5375C27.4764 20.5375 27.7334 19.5634 27.9899 19.3199C28.2464 19.0763 28.9256 15.721 27.9899 16.0492C27.0542 16.3773 26.3387 19.4215 26.3387 19.4215C26.3387 19.4215 26.1736 19.6444 25.9352 19.6651C25.6969 19.6858 25.2197 19.6243 25.1278 19.8477C25.0359 20.0712 24.7221 20.6593 24.9973 21.1056Z" fill="#BE6F72"/>
<path opacity="0.1" d="M30.5012 13.1297C30.2599 13.1898 30.0093 13.1867 29.7693 13.1205C29.5293 13.0543 29.3067 12.9269 29.1191 12.7485L29.3178 18.4266C29.3178 18.4266 29.7857 18.9867 30.5012 18.8588V13.1297Z" fill="black"/>
<path d="M30.5012 13.0081C30.2599 13.0682 30.0093 13.0651 29.7693 12.9989C29.5293 12.9327 29.3067 12.8053 29.1191 12.627L29.3178 18.305C29.3178 18.305 29.7857 18.8651 30.5012 18.7372V13.0081Z" fill="#6C63FF"/>
<path opacity="0.1" d="M30.5012 13.0081C30.2599 13.0682 30.0093 13.0651 29.7693 12.9989C29.5293 12.9327 29.3067 12.8053 29.1191 12.627L29.3178 18.305C29.3178 18.305 29.7857 18.8651 30.5012 18.7372V13.0081Z" fill="black"/>
<path opacity="0.1" d="M30.6113 12.3681C30.6113 12.3681 32.5284 11.7197 33.0282 11.8111L30.6113 12.3681Z" fill="black"/>
<path opacity="0.1" d="M28.467 12.085C28.467 12.085 26.6088 11.5979 26.2983 11.7361L28.467 12.085Z" fill="black"/>
<path opacity="0.1" d="M31.8203 12.449C31.8203 12.449 33.1022 11.9291 33.5657 12.1763L31.8203 12.449Z" fill="black"/>
<path opacity="0.1" d="M31.1743 25.4922C31.373 25.3272 31.5844 25.1819 31.8062 25.0581C32.1364 24.8822 32.7419 24.4255 32.7419 24.4255" fill="black"/>
<path opacity="0.1" d="M26.2989 19.2791C26.2989 19.2791 25.4947 20.0066 25.2531 20.0705C25.0115 20.1345 24.8623 20.7019 24.8623 20.7019" fill="black"/>
<path d="M34.7414 20.9971L34.485 21.7703C34.485 21.7703 34.0997 22.1356 33.6775 21.9529C33.2553 21.7703 32.8888 21.6796 32.7049 21.5018C32.5211 21.324 32.2646 20.4308 32.2646 20.4308C32.2646 20.4308 32.0081 19.4567 31.7511 19.2132C31.494 18.9696 30.8154 15.6143 31.7511 15.9425C32.6868 16.2707 33.4023 19.3148 33.4023 19.3148C33.4023 19.3148 33.5674 19.5377 33.8057 19.5584C34.0441 19.5791 34.5213 19.5176 34.6132 19.741C34.7051 19.9645 35.0167 20.5526 34.7414 20.9971Z" fill="#BE6F72"/>
<path opacity="0.1" d="M34.2915 19.575C34.2915 19.575 34.8171 19.9488 34.8149 20.3957L34.2915 19.575Z" fill="black"/>
<path d="M29.8312 8.73892C31.1891 8.73892 32.2899 7.52128 32.2899 6.01924C32.2899 4.5172 31.1891 3.29956 29.8312 3.29956C28.4733 3.29956 27.3726 4.5172 27.3726 6.01924C27.3726 7.52128 28.4733 8.73892 29.8312 8.73892Z" fill="#BE6F72"/>
<path d="M28.2878 5.28919C28.5861 5.23744 28.8475 5.04565 29.1326 4.93545C29.7706 4.68766 30.4762 4.85752 31.1218 5.08097C31.3695 5.16681 31.6211 5.26362 31.8808 5.26362C32.1406 5.26362 32.4164 5.14611 32.549 4.89831C32.6712 4.67061 32.6476 4.37471 32.5446 4.13544C32.4417 3.89617 32.2694 3.70377 32.0955 3.52234C31.5231 2.92446 30.8131 2.36555 30.0276 2.42643C29.7117 2.45139 29.4095 2.57621 29.1189 2.71441C28.753 2.88884 28.3968 3.08727 28.0522 3.30864C27.7874 3.4785 27.297 3.7056 27.1446 4.01611C26.7978 4.71566 27.7484 5.38295 28.2878 5.28919Z" fill="#3E373A"/>
<path opacity="0.1" d="M32.5488 4.6426C32.4161 4.8904 32.1404 5.0079 31.8806 5.0079C31.6208 5.0079 31.3693 4.91475 31.121 4.8289C30.4754 4.60546 29.7703 4.43499 29.1318 4.68339C28.8473 4.79359 28.5853 4.98781 28.287 5.03652C27.8521 5.11201 27.152 4.69313 27.076 4.1604C26.9907 4.77594 27.8026 5.30319 28.287 5.21917C28.5853 5.16742 28.8473 4.97563 29.1318 4.86604C29.7703 4.61764 30.4754 4.78811 31.121 5.01156C31.3693 5.0974 31.6202 5.19421 31.8806 5.19055C32.1409 5.1869 32.4161 5.07366 32.5488 4.82525C32.6175 4.69012 32.6446 4.53387 32.6258 4.38019C32.6173 4.47271 32.591 4.56216 32.5488 4.6426Z" fill="black"/>
<path d="M7.83945 45.4364C7.72666 45.1552 7.61975 44.8319 7.73254 44.5508C7.80616 44.3852 7.93263 44.255 8.08801 44.1847C8.24177 44.116 8.40383 44.0722 8.56911 44.0547C9.08786 43.9801 9.61278 43.9723 10.1332 44.0312C10.1712 44.3604 10.091 44.6943 10.022 45.0123C9.95947 45.3052 9.92366 45.3485 9.64783 45.3637C9.46929 45.3743 7.88168 45.54 7.83945 45.4364Z" fill="#FBBEBE"/>
<path d="M12.5996 43.5399C16.8213 43.5399 20.2437 42.491 20.2437 41.1971C20.2437 39.9032 16.8213 38.8542 12.5996 38.8542C8.37793 38.8542 4.95557 39.9032 4.95557 41.1971C4.95557 42.491 8.37793 43.5399 12.5996 43.5399Z" fill="#464353"/>
<path opacity="0.1" d="M12.5996 43.5399C16.8213 43.5399 20.2437 42.491 20.2437 41.1971C20.2437 39.9032 16.8213 38.8542 12.5996 38.8542C8.37793 38.8542 4.95557 39.9032 4.95557 41.1971C4.95557 42.491 8.37793 43.5399 12.5996 43.5399Z" fill="black"/>
<path d="M13.9703 28.8292C13.7083 29.384 13.2731 29.8171 12.7441 30.0498C12.4317 30.1745 12.103 30.243 11.7707 30.2525C11.4077 30.2706 11.0373 30.2449 10.6962 30.109C10.2386 29.9274 9.85857 29.5561 9.57366 29.1232C9.28874 28.6904 9.09256 28.196 8.92204 27.6976C8.83224 27.4381 8.74671 27.1617 8.78894 26.8876C9.06423 26.819 9.36572 26.7183 9.50791 26.4506C9.62925 26.221 9.59557 25.9458 9.52555 25.6834C9.50577 25.609 9.48278 25.5352 9.4598 25.4643C9.40634 25.2944 9.22192 24.9717 9.35289 24.8265C9.43467 24.7345 9.77732 24.6876 9.89546 24.6279C10.2595 24.444 10.5952 24.1781 10.995 24.0908C11.3409 24.0153 11.698 24.0861 12.0433 24.1646C12.0891 24.1719 12.1331 24.1892 12.1726 24.2156C12.2177 24.2572 12.2511 24.3121 12.2689 24.3737C12.3672 24.6361 12.4249 24.926 12.5041 25.1996C12.5864 25.486 12.6922 25.7548 12.8905 25.958C13.045 26.1168 13.2417 26.2163 13.4342 26.313L13.9078 26.5508C13.992 26.5854 14.0684 26.6395 14.1318 26.7095C14.1937 26.8028 14.2307 26.9131 14.2387 27.0281C14.3235 27.6445 14.2297 28.2744 13.9703 28.8292Z" fill="#FBBEBE"/>
<path opacity="0.1" d="M12.5017 25.1996C12.1245 25.6298 11.6277 25.9107 11.0892 25.9983C10.5506 26.0858 10.0008 25.9751 9.52586 25.6834C9.50608 25.609 9.48309 25.5352 9.46011 25.4643C9.40665 25.2944 9.22223 24.9717 9.3532 24.8265C9.43498 24.7345 9.77763 24.6876 9.89577 24.6279C10.2598 24.444 10.5955 24.1781 10.9953 24.0908C11.3412 24.0153 11.6983 24.0861 12.0436 24.1646C12.0894 24.1719 12.1334 24.1892 12.1729 24.2156C12.2181 24.2572 12.2514 24.3121 12.2692 24.3737C12.3649 24.6361 12.4226 24.926 12.5017 25.1996Z" fill="black"/>
<path d="M10.7285 25.91C12.0865 25.91 13.1874 24.7038 13.1874 23.2157C13.1874 21.7277 12.0865 20.5215 10.7285 20.5215C9.37043 20.5215 8.26953 21.7277 8.26953 23.2157C8.26953 24.7038 9.37043 25.91 10.7285 25.91Z" fill="#FBBEBE"/>
<path d="M18.2199 31.9598L18.0179 30.6185C17.9158 29.9455 17.8105 29.2597 17.525 28.6535C17.3374 28.2564 17.0396 27.878 16.6382 27.7995C16.5591 27.7918 16.4814 27.7721 16.4073 27.7409C16.2897 27.6788 16.2255 27.5394 16.1352 27.4364C15.9021 27.1716 15.5226 27.1675 15.2104 27.0328C14.9346 26.9157 14.709 26.6902 14.4578 26.518C14.2065 26.3458 13.8938 26.2251 13.6158 26.3352C13.5709 26.8594 13.5234 27.3954 13.3202 27.8727C13.188 28.1835 12.9941 28.4579 12.7526 28.676C12.5112 28.8941 12.2283 29.0503 11.9246 29.1331C11.621 29.216 11.3043 29.2234 10.9977 29.155C10.6911 29.0865 10.4023 28.9437 10.1525 28.7372C9.67622 28.3442 9.37099 27.738 9.2288 27.1037C9.19405 26.9491 9.15449 26.7716 9.0246 26.7007C8.88401 26.6234 8.71509 26.7171 8.59696 26.8307C8.38314 27.041 8.20834 27.3421 7.92717 27.4129C7.8256 27.4387 7.71335 27.4334 7.62889 27.5008C7.57276 27.5576 7.52577 27.6243 7.48991 27.6982C7.42838 27.7934 7.34617 27.8704 7.2507 27.9222C7.15523 27.9739 7.0495 27.9988 6.94306 27.9945C6.84524 27.9893 6.72924 27.9647 6.66242 28.0426C6.61271 28.1011 6.60897 28.1925 6.55551 28.247C6.48335 28.3237 6.36628 28.2862 6.26579 28.2821C6.07549 28.2733 5.89855 28.4069 5.7895 28.575C5.68046 28.7431 5.62914 28.951 5.57568 29.1525C6.15995 30.5781 6.6945 32.0055 7.27876 33.4311C7.30613 33.4848 7.32066 33.5453 7.32099 33.6068C7.30927 33.6707 7.28441 33.7308 7.24829 33.7825C6.96177 34.2868 6.97086 34.9211 7.0024 35.5139C7.03393 36.1066 7.07242 36.7327 6.83081 37.264C6.76506 37.4098 6.67953 37.5434 6.61699 37.6892C6.47052 38.0196 6.4176 39.0762 6.50313 39.4311H18.5882C18.3578 38.737 18.4455 37.3442 18.4936 36.6074C18.5273 36.092 18.4402 35.5771 18.4027 35.0617C18.321 34.0092 18.3787 33.0106 18.2199 31.9598Z" fill="#6C63FF"/>
<path d="M4.65015 33.4943C4.62877 33.6638 4.62661 33.8356 4.64374 34.0057L4.79715 36.4229C4.81159 36.6507 4.82602 36.878 4.84526 37.1052C4.88215 37.5463 4.9372 37.9838 5.00563 38.4207C5.00717 38.4828 5.03111 38.5416 5.0722 38.5843C5.11329 38.627 5.16817 38.6501 5.22479 38.6486C5.901 38.8055 6.59966 38.7991 7.28976 38.7563C8.34282 38.6919 9.39428 38.5449 10.4489 38.5701C10.7205 38.5765 11.037 38.5701 11.2016 38.3358C11.3662 38.1015 11.2706 37.7226 11.0557 37.5334C10.8408 37.3442 10.5489 37.2991 10.2731 37.2991C9.90798 37.295 9.54289 37.3518 9.17886 37.3284C8.84476 37.3067 8.51815 37.2183 8.19422 37.1298L7.28548 36.8821C7.32023 36.5804 7.425 36.2964 7.52443 36.01C7.70297 35.5021 7.86975 34.9773 7.87295 34.4332C7.87616 33.8891 7.68907 33.3169 7.28228 33.0053C6.94765 32.7493 6.5168 32.7019 6.10894 32.7124C5.81226 32.7218 5.29963 32.6439 5.02861 32.771C4.81426 32.8741 4.69024 33.2641 4.65015 33.4943Z" fill="#FBBEBE"/>
<path d="M18.8388 39.0211C19.0168 38.9467 19.213 38.9736 19.4039 39.0017C20.0181 39.0937 20.6413 39.188 21.2106 39.4568C21.4779 39.5822 21.7324 39.7497 21.913 39.9963C22.0734 40.2182 22.1669 40.49 22.2557 40.7577L22.461 41.3739C22.539 41.6081 22.6181 41.8471 22.64 42.096C22.7042 42.8334 22.2439 43.5287 21.665 43.9117C21.0861 44.2948 20.4045 44.4313 19.7406 44.5742C19.0767 44.7171 18.4101 44.8752 17.7489 45.0427C17.4405 45.1304 17.1276 45.1979 16.8118 45.2448C16.1041 45.3327 15.3643 45.2032 14.6918 45.4598C14.4245 45.5623 14.1621 45.7145 13.8846 45.7854C13.7004 45.8279 13.514 45.859 13.3266 45.8785L12.0538 46.0379C11.795 46.0758 11.5344 46.0977 11.2734 46.1035C10.7174 46.1035 10.1706 45.9594 9.63069 45.8153C9.57328 45.8043 9.51865 45.7801 9.47032 45.7444C9.38479 45.6706 9.36608 45.54 9.35379 45.4217C9.29927 44.8981 9.25151 44.3739 9.21053 43.8491C9.1977 43.6786 9.18808 43.4941 9.27307 43.3506C9.37998 43.1749 9.58846 43.1199 9.77876 43.0859C10.5857 42.9412 11.4031 42.8791 12.2206 42.9002C12.5312 42.5599 13.0433 42.5582 13.45 42.3731C13.5997 42.2978 13.7445 42.2115 13.8836 42.1148C14.6112 41.6496 15.4244 41.3681 16.2639 41.2907C16.4283 41.2852 16.5916 41.2596 16.7509 41.2145C17.0657 41.1074 17.3528 40.8157 17.6762 40.8871C17.7163 40.7659 17.7441 40.6036 17.8366 40.5205C17.8825 40.4777 17.9392 40.449 17.9814 40.4033C18.0707 40.3043 18.0787 40.1485 18.0653 40.0103C18.052 39.8721 18.022 39.7303 18.0547 39.5956C18.0682 39.5446 18.0882 39.4959 18.114 39.451C18.2744 39.1476 18.5165 38.9918 18.8388 39.0211Z" fill="#464353"/>
<path opacity="0.05" d="M18.8388 39.0211C19.0168 38.9467 19.213 38.9736 19.4039 39.0017C20.0181 39.0937 20.6413 39.188 21.2106 39.4568C21.4779 39.5822 21.7324 39.7497 21.913 39.9963C22.0734 40.2182 22.1669 40.49 22.2557 40.7577L22.461 41.3739C22.539 41.6081 22.6181 41.8471 22.64 42.096C22.7042 42.8334 22.2439 43.5287 21.665 43.9117C21.0861 44.2948 20.4045 44.4313 19.7406 44.5742C19.0767 44.7171 18.4101 44.8752 17.7489 45.0427C17.4405 45.1304 17.1276 45.1979 16.8118 45.2448C16.1041 45.3327 15.3643 45.2032 14.6918 45.4598C14.4245 45.5623 14.1621 45.7145 13.8846 45.7854C13.7004 45.8279 13.514 45.859 13.3266 45.8785L12.0538 46.0379C11.795 46.0758 11.5344 46.0977 11.2734 46.1035C10.7174 46.1035 10.1706 45.9594 9.63069 45.8153C9.57328 45.8043 9.51865 45.7801 9.47032 45.7444C9.38479 45.6706 9.36608 45.54 9.35379 45.4217C9.29927 44.8981 9.25151 44.3739 9.21053 43.8491C9.1977 43.6786 9.18808 43.4941 9.27307 43.3506C9.37998 43.1749 9.58846 43.1199 9.77876 43.0859C10.5857 42.9412 11.4031 42.8791 12.2206 42.9002C12.5312 42.5599 13.0433 42.5582 13.45 42.3731C13.5997 42.2978 13.7445 42.2115 13.8836 42.1148C14.6112 41.6496 15.4244 41.3681 16.2639 41.2907C16.4283 41.2852 16.5916 41.2596 16.7509 41.2145C17.0657 41.1074 17.3528 40.8157 17.6762 40.8871C17.7163 40.7659 17.7441 40.6036 17.8366 40.5205C17.8825 40.4777 17.9392 40.449 17.9814 40.4033C18.0707 40.3043 18.0787 40.1485 18.0653 40.0103C18.052 39.8721 18.022 39.7303 18.0547 39.5956C18.0682 39.5446 18.0882 39.4959 18.114 39.451C18.2744 39.1476 18.5165 38.9918 18.8388 39.0211Z" fill="black"/>
<path d="M8.3309 45.7985C8.00001 46.2184 7.70868 46.3684 7.19071 46.3549C6.87211 46.3467 6.55388 46.3285 6.236 46.3004C6.01873 46.2747 5.80022 46.2635 5.58171 46.267C4.92208 46.2951 4.28543 46.6261 3.6274 46.5681C3.5301 46.5597 3.43388 46.5401 3.34034 46.5095C3.19106 46.4644 3.05615 46.3748 2.95066 46.2506C2.8245 46.0942 2.7641 45.8869 2.72935 45.6819C2.55349 44.6311 3.03565 43.4867 3.8797 42.9519C3.98983 42.874 4.11502 42.8252 4.24533 42.8096C4.37312 42.809 4.49944 42.8394 4.61524 42.8986L4.62326 42.9021C4.96618 43.0567 5.27763 43.2845 5.53948 43.5722C5.57921 43.622 5.62661 43.6639 5.67953 43.6958C5.73235 43.7176 5.78826 43.7291 5.84471 43.7297L6.54711 43.7783C6.66611 43.7822 6.78439 43.8001 6.89991 43.8316C7.02727 43.8804 7.15125 43.9391 7.27089 44.0074C7.64881 44.1924 8.0679 44.2416 8.4763 44.3131C8.51565 44.3155 8.55321 44.3319 8.58321 44.36C8.59951 44.3822 8.61085 44.4082 8.61635 44.4361C8.67375 44.6715 8.67774 44.9187 8.62799 45.1561C8.57824 45.3936 8.47624 45.6141 8.3309 45.7985Z" fill="#3F3D56"/>
<path opacity="0.1" d="M4.62326 42.9026C4.35075 43.1877 4.11433 43.5116 3.92033 43.8655C3.60901 44.4496 3.4134 45.099 3.34622 45.7714C3.32075 46.0167 3.31878 46.2643 3.34034 46.51C3.19106 46.4649 3.05615 46.3753 2.95066 46.2511C2.8245 46.0947 2.7641 45.8874 2.72935 45.6824C2.55349 44.6316 3.03565 43.4871 3.8797 42.9524C3.98983 42.8745 4.11502 42.8257 4.24533 42.8101C4.37312 42.8095 4.49944 42.8399 4.61524 42.8991L4.62326 42.9026Z" fill="black"/>
<path d="M18.2275 44.3599C18.6204 44.3482 19.0614 44.3265 19.35 44.6164C19.6253 44.8906 19.6617 45.3427 19.6799 45.7498L19.7007 46.2225C19.7071 46.3665 19.7125 46.5153 19.6596 46.6489C19.5655 46.8831 19.3073 46.9962 19.0715 46.9827C18.8358 46.9692 18.6193 46.8562 18.4039 46.7543C17.819 46.4782 17.2101 46.268 16.5864 46.127C16.6067 45.8002 16.6406 45.4749 16.688 45.1512C16.7206 44.9269 16.7259 44.5514 16.8628 44.3652C17.0077 44.1684 17.1963 44.275 17.3931 44.3113C17.6691 44.3574 17.9486 44.3737 18.2275 44.3599Z" fill="#FBBEBE"/>
<path d="M7.8445 39.6103C7.8445 39.6689 7.76057 39.6103 7.75309 39.5477C7.69429 39.0738 7.35111 38.6832 6.95127 38.4934C6.55142 38.3036 6.09599 38.2937 5.663 38.3388C5.00818 38.4067 4.27317 38.6814 4.03369 39.352C3.97703 39.509 3.95137 39.6789 3.88188 39.8294C3.80491 39.9946 3.67929 40.1264 3.5959 40.2868C3.4521 40.5645 3.44622 40.9048 3.49807 41.2187C3.63759 42.0563 4.16038 42.7726 4.79382 43.2687C5.42726 43.7648 6.16762 44.0612 6.90583 44.3282C8.85783 45.0336 10.8605 45.5577 12.8928 45.895C13.2221 45.9495 13.5546 45.9999 13.8699 46.1158C14.1522 46.2195 14.4163 46.3747 14.6921 46.4965C15.3335 46.7788 16.0236 46.8796 16.7073 46.9786C16.8239 46.995 16.9575 47.0067 17.0436 46.92C17.1548 46.807 17.1179 46.6102 17.0863 46.4479C16.9703 45.831 17.0676 45.1889 17.3595 44.6463C17.4739 44.4354 17.6225 44.2193 17.6011 43.9751C17.5754 43.6904 17.3167 43.4889 17.0591 43.4432C16.8014 43.3975 16.5395 43.4649 16.2808 43.5018C16.1915 43.5147 16.0942 43.5229 16.0162 43.4731C15.9777 43.4447 15.9428 43.4108 15.9125 43.3724C15.7342 43.184 15.5061 43.0623 15.2609 43.0247C15.0156 42.9871 14.7658 43.0356 14.5472 43.1633C14.4515 43.2218 14.3067 43.0912 14.2072 43.042L13.0831 42.4844C11.7916 41.8442 10.4937 41.2011 9.12742 40.7958C9.0184 40.7723 8.9148 40.7251 8.82273 40.657C8.75484 40.5984 8.70619 40.5188 8.64365 40.4538C8.50734 40.3126 8.31758 40.2564 8.154 40.1562C7.99043 40.0561 7.80708 39.8112 7.8445 39.6103Z" fill="#464353"/>
<path d="M25.1747 47.265C24.9951 47.6299 24.6465 47.8572 24.2724 47.9509C24.1785 47.9741 24.083 47.989 23.9869 47.9954C23.5138 48.0276 23.0466 47.8841 22.5907 47.7424L21.9717 47.5514C21.8652 47.5147 21.7561 47.4881 21.6456 47.4718C21.4951 47.4607 21.3439 47.4664 21.1944 47.4887C20.4628 47.5633 19.7253 47.5271 19.0028 47.381C18.9423 47.3738 18.8843 47.3511 18.8333 47.3148C18.7887 47.2668 18.7491 47.2136 18.7152 47.1561C18.5468 46.9341 18.3656 46.8046 18.565 46.5118C18.6799 46.3419 18.8932 46.257 18.9825 46.062C19.0717 45.8669 19.0145 45.5899 18.9616 45.3884C18.8894 45.1102 18.6521 44.9901 18.5671 44.7347C18.5035 44.542 18.6104 44.3183 18.7713 44.2135C18.9322 44.1086 19.1311 44.1004 19.3165 44.1274C19.502 44.1543 19.6838 44.2117 19.8703 44.2275C20.4188 44.2755 20.9795 43.9657 21.5061 44.1402C21.6221 44.1789 21.7316 44.2404 21.8492 44.2744C22.0785 44.3306 22.318 44.3079 22.5351 44.2094C22.612 44.1777 22.6874 44.1397 22.7623 44.1022C22.9066 44.0198 23.0603 43.959 23.2193 43.9212C23.733 43.8245 24.2093 44.214 24.5968 44.5942C24.7299 44.7151 24.8476 44.855 24.947 45.01C25.0539 45.1928 25.1105 45.4054 25.1608 45.6151C25.3024 46.1568 25.4195 46.7671 25.1747 47.265Z" fill="#3F3D56"/>
<path opacity="0.1" d="M25.1744 47.2651C24.9948 47.63 24.6463 47.8573 24.2721 47.951C24.4177 47.6411 24.4833 47.2936 24.4619 46.9459C24.4298 46.3889 24.2064 45.8641 23.9215 45.4014C23.7462 45.1165 23.5468 44.8504 23.326 44.6066C23.156 44.4191 22.947 44.2704 22.7642 44.0988C22.9085 44.0164 23.0622 43.9556 23.2212 43.9178C23.7349 43.8211 24.2112 44.2106 24.5987 44.5907C24.7318 44.7117 24.8495 44.8516 24.9489 45.0066C25.0558 45.1893 25.1124 45.402 25.1627 45.6116C25.3022 46.1569 25.4193 46.7672 25.1744 47.2651Z" fill="black"/>
<path d="M5.54549 29.1959C5.49341 29.2556 5.45303 29.3264 5.42682 29.4038C4.99472 30.4708 4.7395 31.6136 4.6731 32.7787C4.67426 32.8355 4.66231 32.8917 4.63836 32.9421C4.61473 32.9756 4.58843 33.0068 4.55978 33.0352C4.53375 33.069 4.51433 33.1083 4.50272 33.1506C4.4911 33.193 4.48754 33.2375 4.49225 33.2814C4.49696 33.3253 4.50984 33.3677 4.5301 33.406C4.55036 33.4442 4.57756 33.4775 4.61002 33.5038C4.69822 33.3216 4.90937 33.2625 5.097 33.2467C5.99558 33.1688 6.87331 33.6268 7.77456 33.5922C7.71095 33.3515 7.61954 33.1201 7.56769 32.8765C7.33837 31.7947 7.91034 30.6168 7.55967 29.5748C7.48964 29.3663 7.37258 29.1613 7.18816 29.07C7.1118 29.0362 7.03189 29.0129 6.95028 29.0008C6.72257 28.9557 6.26927 28.763 6.04903 28.8404C5.96778 28.8691 5.93571 28.9528 5.86835 29.0032C5.76626 29.0752 5.63048 29.1016 5.54549 29.1959Z" fill="#6C63FF"/>
<path d="M18.9353 31.3279H7.86695C7.63166 31.3279 7.44092 31.5369 7.44092 31.7947V39.1781C7.44092 39.436 7.63166 39.645 7.86695 39.645H18.9353C19.1706 39.645 19.3614 39.436 19.3614 39.1781V31.7947C19.3614 31.5369 19.1706 31.3279 18.9353 31.3279Z" fill="#3F3D56"/>
<path d="M13.3744 35.8379C13.5516 35.8379 13.6952 35.6805 13.6952 35.4864C13.6952 35.2923 13.5516 35.135 13.3744 35.135C13.1973 35.135 13.0537 35.2923 13.0537 35.4864C13.0537 35.6805 13.1973 35.8379 13.3744 35.8379Z" fill="white"/>
<path d="M9.02907 18.8428C8.84946 18.9851 8.72652 19.1895 8.60143 19.3858C8.37104 19.7483 8.11018 20.1103 7.74188 20.3123C7.60236 20.3891 7.44306 20.4471 7.35058 20.5806C7.2957 20.6709 7.26007 20.7736 7.24635 20.8811C7.17579 21.2589 7.13891 21.6434 7.13623 22.0291C7.13623 22.2212 7.14371 22.4191 7.22122 22.5937C7.29446 22.7577 7.42649 22.8965 7.45375 23.0751C7.4746 23.2145 7.42756 23.3533 7.41099 23.4933C7.39442 23.6333 7.42328 23.7991 7.54142 23.8658C7.60507 23.8921 7.67155 23.9092 7.7392 23.9168C8.09468 24.0035 8.21388 24.4603 8.26787 24.8381C8.38868 24.8305 8.4432 24.6788 8.46833 24.5552L8.83877 22.7507C8.87886 22.555 8.94568 22.3284 9.12369 22.2598C9.24289 22.2147 9.37332 22.2569 9.49787 22.2686C9.98698 22.3125 10.4007 21.8984 10.8791 21.7842C11.0323 21.7504 11.1889 21.7389 11.3447 21.7503C11.7221 21.7708 12.161 21.9406 12.2412 22.3266C12.2545 22.3893 12.2626 22.4642 12.316 22.4953C12.3695 22.5263 12.4256 22.5 12.4817 22.4953C12.7212 22.4689 12.8623 22.7641 12.9313 23.0054L13.1825 23.884C13.2199 24.017 13.283 24.1733 13.4145 24.1903C13.5359 24.2067 13.639 24.0808 13.6572 23.956C13.6754 23.8313 13.6358 23.7018 13.6096 23.5765C13.4915 22.9996 13.6722 22.4092 13.7823 21.8311C13.8924 21.253 13.9122 20.5888 13.5428 20.1437C13.4086 19.9826 13.2322 19.8625 13.1072 19.6927C12.9906 19.5333 12.9249 19.3377 12.8041 19.1813C12.47 18.7497 11.6131 18.4164 11.0876 18.3613C10.4873 18.2899 9.51444 18.4568 9.02907 18.8428Z" fill="#3F3D56"/>
<g opacity="0.1">
<path opacity="0.1" d="M13.4173 23.7805C13.2858 23.7629 13.2227 23.6047 13.1853 23.4741C13.1016 23.1809 13.0178 22.888 12.9341 22.5956C12.8651 22.3537 12.724 22.0585 12.4845 22.0854C12.4284 22.0919 12.368 22.1159 12.3188 22.0854C12.2696 22.055 12.2573 21.9794 12.244 21.9167C12.1638 21.5302 11.7249 21.3609 11.3475 21.3404C11.1917 21.3292 11.0351 21.3404 10.8819 21.3738C10.4035 21.4909 9.98977 21.9009 9.50066 21.8582C9.37451 21.847 9.24408 21.8049 9.12648 21.85C8.94633 21.9179 8.88165 22.1428 8.84156 22.3408L8.47112 24.1448C8.44599 24.2689 8.39147 24.4206 8.27066 24.4277C8.21721 24.0505 8.09747 23.5936 7.74199 23.5069C7.67443 23.4988 7.60801 23.4817 7.54421 23.456C7.4977 23.4281 7.4613 23.3837 7.44104 23.33C7.43142 23.3845 7.42019 23.439 7.41378 23.4935C7.39774 23.6329 7.42607 23.7992 7.54421 23.866C7.60786 23.8922 7.67434 23.9093 7.74199 23.9169C8.09747 24.0036 8.21667 24.4605 8.27066 24.8382C8.39147 24.8306 8.44599 24.6789 8.47112 24.5554L8.84156 22.7508C8.88165 22.5552 8.94847 22.3285 9.12648 22.26C9.24568 22.2149 9.37611 22.257 9.50066 22.2687C9.98977 22.3127 10.4035 21.8986 10.8819 21.7844C11.0351 21.7505 11.1916 21.7391 11.3475 21.7504C11.7249 21.7709 12.1638 21.9407 12.244 22.3267C12.2573 22.3894 12.2654 22.4644 12.3188 22.4954C12.3723 22.5265 12.4284 22.5001 12.4845 22.4954C12.724 22.4691 12.8651 22.7643 12.9341 23.0056C13.0175 23.2988 13.1012 23.5917 13.1853 23.8841C13.2227 24.0171 13.2858 24.1735 13.4173 24.1905C13.5387 24.2069 13.6418 24.0809 13.66 23.9562C13.6682 23.8512 13.6573 23.7455 13.6279 23.6452C13.6089 23.6879 13.5787 23.7235 13.5412 23.7476C13.5038 23.7717 13.4607 23.7831 13.4173 23.7805Z" fill="black"/>
<path opacity="0.1" d="M7.45473 22.6652C7.42747 22.4865 7.29436 22.3477 7.2222 22.1837C7.1758 22.0731 7.14896 21.9538 7.14309 21.8323C7.14309 21.8979 7.13774 21.9635 7.13721 22.0297C7.13721 22.2218 7.14469 22.4197 7.2222 22.5943C7.28154 22.7272 7.37936 22.8444 7.42854 22.9797C7.45447 22.8774 7.46334 22.7709 7.45473 22.6652Z" fill="black"/>
<path opacity="0.1" d="M13.7851 21.4188C13.6878 21.9296 13.536 22.4497 13.583 22.9616C13.6135 22.5838 13.714 22.2037 13.7851 21.8288C13.8444 21.5442 13.8653 21.2515 13.8471 20.9602C13.8355 21.1144 13.8148 21.2676 13.7851 21.4188Z" fill="black"/>
</g>
<g opacity="0.1">
<path opacity="0.1" d="M5.77194 24.9262C5.77194 24.9262 1.77511 23.0847 1.25125 26.4074C1.25125 26.4074 0.978093 26.9252 1.35816 27.3528C1.35816 27.3528 1.43994 27.1232 1.82589 27.3604C1.96374 27.4439 2.11016 27.5092 2.26208 27.5548C2.46725 27.6168 2.68525 27.6041 2.88323 27.5185C2.88323 27.5185 4.19769 27.4406 5.30314 25.5564C5.30314 25.5564 5.77728 25.2354 5.8008 25.1148L5.0086 25.1733C5.0086 25.1733 5.06954 25.8088 4.74132 26.1901C4.74132 26.1901 5.03212 25.2038 4.8926 25.1763C4.86427 25.1704 4.47405 25.2266 4.47405 25.2266C4.47405 25.2266 4.57508 26.3319 4.04641 26.9035C4.04641 26.9035 4.53713 25.7795 4.32384 25.2465L3.73904 25.3701C3.73904 25.3701 3.89941 26.5328 3.32103 27.2087C3.32103 27.2087 3.79677 26.0138 3.61289 25.407L3.05322 25.6132C3.05322 25.6132 3.18792 26.7501 2.70415 27.3118C2.70415 27.3118 3.12645 25.8703 2.9276 25.6718C2.9276 25.6718 2.42405 25.8955 2.31661 26.0232C2.31661 26.0232 2.39625 26.8432 2.08889 27.139C2.08889 27.139 2.27758 26.1433 2.18404 26.1023C2.18404 26.1023 1.59924 26.5849 1.4207 27.0013C1.4207 27.0013 1.64307 26.3653 2.1108 26.0056C2.1108 26.0056 1.71791 25.933 1.41589 26.1128C1.41589 26.1128 1.61795 25.6905 2.25246 25.8908C2.25246 25.8908 2.72233 25.5341 2.81641 25.5394C2.81641 25.5394 2.21611 25.2465 1.78259 25.2829C1.78259 25.2829 2.24765 24.99 2.96288 25.4791L3.52148 25.2583C3.52148 25.2583 2.74638 24.8231 2.3583 24.8248C2.3583 24.8248 2.87468 24.6058 3.66634 25.2149L4.23831 25.0872C4.23831 25.0872 3.59685 24.6567 3.1644 24.5566C3.1644 24.5566 3.68292 24.4664 4.40349 25.0574L4.79424 25.0216C4.79424 25.0216 4.32117 24.7159 4.17791 24.6415C4.03465 24.5671 4.04106 24.5191 4.04106 24.5191C4.38103 24.5829 4.69818 24.7487 4.95728 24.9982C4.95728 24.9982 5.76873 24.9806 5.77194 24.9262Z" fill="#6C63FF"/>
</g>
<g opacity="0.1">
<path opacity="0.1" d="M5.62513 21.6249C5.62513 21.6249 4.20964 18.0363 2.17033 19.6821C2.17033 19.6821 1.73949 19.8192 1.74269 20.3088C1.74269 20.3088 1.91054 20.2233 2.01692 20.6058C2.05592 20.7415 2.10977 20.8715 2.17728 20.9929C2.26651 21.1581 2.40263 21.2866 2.56483 21.359C2.56483 21.359 3.38643 22.1333 5.02376 21.704C5.02376 21.704 5.47278 21.8088 5.54922 21.7526L5.04888 21.2917C5.04888 21.2917 4.75435 21.7075 4.35985 21.7274C4.35985 21.7274 5.04568 21.3233 4.97725 21.2196C4.96336 21.1985 4.70196 20.9888 4.70196 20.9888C4.70196 20.9888 4.18772 21.7081 3.57941 21.7192C3.57941 21.7192 4.45553 21.3573 4.60574 20.908L4.19414 20.6152C4.19414 20.6152 3.67509 21.4065 2.98018 21.4475C2.98018 21.4475 3.8841 21.0345 4.09044 20.5589L3.6505 20.3323C3.6505 20.3323 3.13947 21.0937 2.56162 21.1224C2.56162 21.1224 3.5623 20.5296 3.5468 20.2878C3.5468 20.2878 3.13145 20.1062 2.99942 20.1167C2.99942 20.1167 2.62149 20.6526 2.28419 20.6374C2.28419 20.6374 2.91443 20.1636 2.88022 20.081C2.88022 20.081 2.28152 20.0025 1.95919 20.1396C1.95919 20.1396 2.42211 19.9006 2.88663 19.9791C2.88663 19.9791 2.69099 19.6903 2.4189 19.6101C2.4189 19.6101 2.75887 19.4853 3.03149 19.9996C3.03149 19.9996 3.49548 20.0816 3.55001 20.1425C3.55001 20.1425 3.34634 19.5925 3.06891 19.3448C3.06891 19.3448 3.49655 19.4619 3.66761 20.1981L4.11449 20.4154C4.11449 20.4154 3.88036 19.6728 3.64836 19.432C3.64836 19.432 4.06905 19.6241 4.22301 20.4804L4.62926 20.761C4.62926 20.761 4.47211 20.105 4.26737 19.7753C4.26737 19.7753 4.62231 20.0459 4.74259 20.8465L4.99383 21.0691C4.99383 21.0691 4.87141 20.5923 4.82491 20.4588C4.7784 20.3252 4.80727 20.3006 4.80727 20.3006C4.97613 20.5518 5.07775 20.8495 5.10074 21.1605C5.10074 21.1605 5.59466 21.6548 5.62513 21.6249Z" fill="#6C63FF"/>
</g>
<defs>
<linearGradient id="paint0_linear" x1="30.3326" y1="30.5583" x2="30.3326" y2="-0.000459004" gradientUnits="userSpaceOnUse">
<stop stop-color="#808080" stop-opacity="0.25"/>
<stop offset="0.54" stop-color="#808080" stop-opacity="0.12"/>
<stop offset="1" stop-color="#808080" stop-opacity="0.1"/>
</linearGradient>
</defs>
</svg>
