<svg width="504" height="312" viewBox="0 0 504 312" fill="none" xmlns="http://www.w3.org/2000/svg">
<g clip-path="url(#clip0)">
<path d="M123.287 196.17H81.9524C79.5871 196.17 77.6697 198.073 77.6697 200.419V211.627C77.6697 213.974 79.5871 215.876 81.9524 215.876H123.287C125.652 215.876 127.57 213.974 127.57 211.627V200.419C127.57 198.073 125.652 196.17 123.287 196.17Z" fill="#C4C4C4"/>
<path d="M173.187 196.17H131.852C129.487 196.17 127.57 198.073 127.57 200.419V211.627C127.57 213.974 129.487 215.876 131.852 215.876H173.187C175.552 215.876 177.47 213.974 177.47 211.627V200.419C177.47 198.073 175.552 196.17 173.187 196.17Z" fill="#6C63FF"/>
<path d="M223.087 196.17H181.752C179.387 196.17 177.47 198.073 177.47 200.419V211.627C177.47 213.974 179.387 215.876 181.752 215.876H223.087C225.452 215.876 227.37 213.974 227.37 211.627V200.419C227.37 198.073 225.452 196.17 223.087 196.17Z" fill="#F9BF64"/>
<path d="M272.987 196.17H231.653C229.287 196.17 227.37 198.073 227.37 200.419V211.627C227.37 213.974 229.287 215.876 231.653 215.876H272.987C275.352 215.876 277.27 213.974 277.27 211.627V200.419C277.27 198.073 275.352 196.17 272.987 196.17Z" fill="#6C63FF"/>
<path opacity="0.1" d="M272.987 196.17H231.653C229.287 196.17 227.37 198.073 227.37 200.419V211.627C227.37 213.974 229.287 215.876 231.653 215.876H272.987C275.352 215.876 277.27 213.974 277.27 211.627V200.419C277.27 198.073 275.352 196.17 272.987 196.17Z" fill="black"/>
<path d="M322.887 196.17H281.552C279.187 196.17 277.27 198.073 277.27 200.419V211.627C277.27 213.974 279.187 215.876 281.552 215.876H322.887C325.252 215.876 327.17 213.974 327.17 211.627V200.419C327.17 198.073 325.252 196.17 322.887 196.17Z" fill="#F9BF64"/>
<path d="M372.787 196.17H331.453C329.087 196.17 327.17 198.073 327.17 200.419V211.627C327.17 213.974 329.087 215.876 331.453 215.876H372.787C375.153 215.876 377.07 213.974 377.07 211.627V200.419C377.07 198.073 375.153 196.17 372.787 196.17Z" fill="#6C63FF"/>
<path opacity="0.1" d="M372.787 196.17H331.453C329.087 196.17 327.17 198.073 327.17 200.419V211.627C327.17 213.974 329.087 215.876 331.453 215.876H372.787C375.153 215.876 377.07 213.974 377.07 211.627V200.419C377.07 198.073 375.153 196.17 372.787 196.17Z" fill="black"/>
<path d="M331.452 196.17H372.787C375.152 196.17 377.07 194.268 377.07 191.922V180.714C377.07 178.367 375.152 176.465 372.787 176.465H331.452C329.087 176.465 327.17 178.367 327.17 180.714V191.922C327.17 194.268 329.087 196.17 331.452 196.17Z" fill="#F9BF64"/>
<path d="M281.553 196.17H322.887C325.252 196.17 327.17 194.268 327.17 191.922V180.714C327.17 178.367 325.252 176.465 322.887 176.465H281.553C279.187 176.465 277.27 178.367 277.27 180.714V191.922C277.27 194.268 279.187 196.17 281.553 196.17Z" fill="#6C63FF"/>
<path d="M231.652 196.17H272.987C275.352 196.17 277.27 194.268 277.27 191.922V180.714C277.27 178.367 275.352 176.465 272.987 176.465H231.652C229.287 176.465 227.37 178.367 227.37 180.714V191.922C227.37 194.268 229.287 196.17 231.652 196.17Z" fill="#F9BF64"/>
<path d="M181.753 196.17H223.087C225.452 196.17 227.37 194.268 227.37 191.922V180.714C227.37 178.367 225.452 176.465 223.087 176.465H181.753C179.387 176.465 177.47 178.367 177.47 180.714V191.922C177.47 194.268 179.387 196.17 181.753 196.17Z" fill="#6C63FF"/>
<path d="M131.852 196.17H173.187C175.552 196.17 177.47 194.268 177.47 191.922V180.714C177.47 178.367 175.552 176.465 173.187 176.465H131.852C129.487 176.465 127.57 178.367 127.57 180.714V191.922C127.57 194.268 129.487 196.17 131.852 196.17Z" fill="#F9BF64"/>
<path d="M81.9522 196.17H123.287C125.652 196.17 127.57 194.268 127.57 191.922V180.714C127.57 178.367 125.652 176.465 123.287 176.465H81.9522C79.587 176.465 77.6695 178.367 77.6695 180.714V191.922C77.6695 194.268 79.587 196.17 81.9522 196.17Z" fill="#6C63FF"/>
<path d="M123.287 156.76H81.9524C79.5871 156.76 77.6697 158.662 77.6697 161.008V172.216C77.6697 174.563 79.5871 176.465 81.9524 176.465H123.287C125.652 176.465 127.57 174.563 127.57 172.216V161.008C127.57 158.662 125.652 156.76 123.287 156.76Z" fill="#F9BF64"/>
<path d="M173.187 156.76H131.852C129.487 156.76 127.57 158.662 127.57 161.008V172.216C127.57 174.563 129.487 176.465 131.852 176.465H173.187C175.552 176.465 177.47 174.563 177.47 172.216V161.008C177.47 158.662 175.552 156.76 173.187 156.76Z" fill="#6C63FF"/>
<path d="M223.087 156.76H181.752C179.387 156.76 177.47 158.662 177.47 161.008V172.216C177.47 174.563 179.387 176.465 181.752 176.465H223.087C225.452 176.465 227.37 174.563 227.37 172.216V161.008C227.37 158.662 225.452 156.76 223.087 156.76Z" fill="#F9BF64"/>
<path d="M272.987 156.76H231.653C229.287 156.76 227.37 158.662 227.37 161.008V172.216C227.37 174.563 229.287 176.465 231.653 176.465H272.987C275.352 176.465 277.27 174.563 277.27 172.216V161.008C277.27 158.662 275.352 156.76 272.987 156.76Z" fill="#6C63FF"/>
<path d="M322.887 156.76H281.552C279.187 156.76 277.27 158.662 277.27 161.008V172.216C277.27 174.563 279.187 176.465 281.552 176.465H322.887C325.252 176.465 327.17 174.563 327.17 172.216V161.008C327.17 158.662 325.252 156.76 322.887 156.76Z" fill="#F9BF64"/>
<path d="M372.787 156.76H331.453C329.087 156.76 327.17 158.662 327.17 161.008V172.216C327.17 174.563 329.087 176.465 331.453 176.465H372.787C375.153 176.465 377.07 174.563 377.07 172.216V161.008C377.07 158.662 375.153 156.76 372.787 156.76Z" fill="#6C63FF"/>
<path opacity="0.1" d="M372.787 156.76H331.453C329.087 156.76 327.17 158.662 327.17 161.008V172.216C327.17 174.563 329.087 176.465 331.453 176.465H372.787C375.153 176.465 377.07 174.563 377.07 172.216V161.008C377.07 158.662 375.153 156.76 372.787 156.76Z" fill="black"/>
<path d="M331.452 156.76H372.787C375.152 156.76 377.07 154.857 377.07 152.511V141.303C377.07 138.956 375.152 137.054 372.787 137.054H331.452C329.087 137.054 327.17 138.956 327.17 141.303V152.511C327.17 154.857 329.087 156.76 331.452 156.76Z" fill="#C4C4C4"/>
<path d="M281.553 156.76H322.887C325.252 156.76 327.17 154.857 327.17 152.511V141.303C327.17 138.956 325.252 137.054 322.887 137.054H281.553C279.187 137.054 277.27 138.956 277.27 141.303V152.511C277.27 154.857 279.187 156.76 281.553 156.76Z" fill="#6C63FF"/>
<path d="M231.652 156.76H272.987C275.352 156.76 277.27 154.857 277.27 152.511V141.303C277.27 138.956 275.352 137.054 272.987 137.054H231.652C229.287 137.054 227.37 138.956 227.37 141.303V152.511C227.37 154.857 229.287 156.76 231.652 156.76Z" fill="#C4C4C4"/>
<path d="M181.753 156.76H223.087C225.452 156.76 227.37 154.857 227.37 152.511V141.303C227.37 138.956 225.452 137.054 223.087 137.054H181.753C179.387 137.054 177.47 138.956 177.47 141.303V152.511C177.47 154.857 179.387 156.76 181.753 156.76Z" fill="#6C63FF"/>
<path opacity="0.1" d="M181.753 156.76H223.087C225.452 156.76 227.37 154.857 227.37 152.511V141.303C227.37 138.956 225.452 137.054 223.087 137.054H181.753C179.387 137.054 177.47 138.956 177.47 141.303V152.511C177.47 154.857 179.387 156.76 181.753 156.76Z" fill="black"/>
<path d="M131.852 156.76H173.187C175.552 156.76 177.47 154.857 177.47 152.511V141.303C177.47 138.956 175.552 137.054 173.187 137.054H131.852C129.487 137.054 127.57 138.956 127.57 141.303V152.511C127.57 154.857 129.487 156.76 131.852 156.76Z" fill="#F9BF64"/>
<path d="M81.9522 156.76H123.287C125.652 156.76 127.57 154.857 127.57 152.511V141.303C127.57 138.956 125.652 137.054 123.287 137.054H81.9522C79.587 137.054 77.6695 138.956 77.6695 141.303V152.511C77.6695 154.857 79.587 156.76 81.9522 156.76Z" fill="#6C63FF"/>
<path d="M123.287 118.31H81.9524C79.5871 118.31 77.6697 120.212 77.6697 122.559V133.767C77.6697 136.113 79.5871 138.015 81.9524 138.015H123.287C125.652 138.015 127.57 136.113 127.57 133.767V122.559C127.57 120.212 125.652 118.31 123.287 118.31Z" fill="#F9BF64"/>
<path d="M173.187 118.31H131.852C129.487 118.31 127.57 120.212 127.57 122.559V133.767C127.57 136.113 129.487 138.015 131.852 138.015H173.187C175.552 138.015 177.47 136.113 177.47 133.767V122.559C177.47 120.212 175.552 118.31 173.187 118.31Z" fill="#6C63FF"/>
<path d="M223.087 118.31H181.752C179.387 118.31 177.47 120.212 177.47 122.559V133.767C177.47 136.113 179.387 138.015 181.752 138.015H223.087C225.452 138.015 227.37 136.113 227.37 133.767V122.559C227.37 120.212 225.452 118.31 223.087 118.31Z" fill="#F9BF64"/>
<path d="M272.987 118.31H231.653C229.287 118.31 227.37 120.212 227.37 122.559V133.767C227.37 136.113 229.287 138.015 231.653 138.015H272.987C275.352 138.015 277.27 136.113 277.27 133.767V122.559C277.27 120.212 275.352 118.31 272.987 118.31Z" fill="#6C63FF"/>
<path d="M322.887 118.31H281.552C279.187 118.31 277.27 120.212 277.27 122.559V133.767C277.27 136.113 279.187 138.015 281.552 138.015H322.887C325.252 138.015 327.17 136.113 327.17 133.767V122.559C327.17 120.212 325.252 118.31 322.887 118.31Z" fill="#F9BF64"/>
<path d="M372.787 118.31H331.453C329.087 118.31 327.17 120.212 327.17 122.559V133.767C327.17 136.113 329.087 138.015 331.453 138.015H372.787C375.153 138.015 377.07 136.113 377.07 133.767V122.559C377.07 120.212 375.153 118.31 372.787 118.31Z" fill="#6C63FF"/>
<path d="M331.452 118.31H372.787C375.152 118.31 377.07 116.408 377.07 114.061V102.853C377.07 100.507 375.152 98.6043 372.787 98.6043H331.452C329.087 98.6043 327.17 100.507 327.17 102.853V114.061C327.17 116.408 329.087 118.31 331.452 118.31Z" fill="#F9BF64"/>
<path d="M281.553 118.31H322.887C325.252 118.31 327.17 116.408 327.17 114.061V102.853C327.17 100.507 325.252 98.6043 322.887 98.6043H281.553C279.187 98.6043 277.27 100.507 277.27 102.853V114.061C277.27 116.408 279.187 118.31 281.553 118.31Z" fill="#6C63FF"/>
<path opacity="0.1" d="M281.553 118.31H322.887C325.252 118.31 327.17 116.408 327.17 114.061V102.853C327.17 100.507 325.252 98.6043 322.887 98.6043H281.553C279.187 98.6043 277.27 100.507 277.27 102.853V114.061C277.27 116.408 279.187 118.31 281.553 118.31Z" fill="black"/>
<path d="M231.652 118.31H272.987C275.352 118.31 277.27 116.408 277.27 114.061V102.853C277.27 100.507 275.352 98.6043 272.987 98.6043H231.652C229.287 98.6043 227.37 100.507 227.37 102.853V114.061C227.37 116.408 229.287 118.31 231.652 118.31Z" fill="#F9BF64"/>
<path d="M181.753 118.31H223.087C225.452 118.31 227.37 116.408 227.37 114.061V102.853C227.37 100.507 225.452 98.6043 223.087 98.6043H181.753C179.387 98.6043 177.47 100.507 177.47 102.853V114.061C177.47 116.408 179.387 118.31 181.753 118.31Z" fill="#C4C4C4"/>
<path d="M131.852 118.31H173.187C175.552 118.31 177.47 116.408 177.47 114.061V102.853C177.47 100.507 175.552 98.6043 173.187 98.6043H131.852C129.487 98.6043 127.57 100.507 127.57 102.853V114.061C127.57 116.408 129.487 118.31 131.852 118.31Z" fill="#F9BF64"/>
<path d="M81.9522 118.31H123.287C125.652 118.31 127.57 116.408 127.57 114.061V102.853C127.57 100.507 125.652 98.6043 123.287 98.6043H81.9522C79.587 98.6043 77.6695 100.507 77.6695 102.853V114.061C77.6695 116.408 79.587 118.31 81.9522 118.31Z" fill="#6C63FF"/>
<path d="M123.287 78.8989H81.9524C79.5871 78.8989 77.6697 80.8011 77.6697 83.1476V94.3557C77.6697 96.7022 79.5871 98.6044 81.9524 98.6044H123.287C125.652 98.6044 127.57 96.7022 127.57 94.3557V83.1476C127.57 80.8011 125.652 78.8989 123.287 78.8989Z" fill="#F9BF64"/>
<path d="M93.2279 85.5728H86.6006L86.6007 92.4984H93.228L93.2279 85.5728Z" fill="#000066"/>
<path d="M115.363 86.3301H95.9629L95.9629 87.7119H115.363L115.363 86.3301Z" fill="#000066"/>
<path d="M122 90.8738H95.9629L95.9628 92.2238H122L122 90.8738Z" fill="#000066"/>
<path d="M173.187 78.8989H131.852C129.487 78.8989 127.57 80.8011 127.57 83.1476V94.3557C127.57 96.7022 129.487 98.6044 131.852 98.6044H173.187C175.552 98.6044 177.47 96.7022 177.47 94.3557V83.1476C177.47 80.8011 175.552 78.8989 173.187 78.8989Z" fill="#6C63FF"/>
<path d="M223.087 78.8989H181.752C179.387 78.8989 177.47 80.8011 177.47 83.1476V94.3557C177.47 96.7022 179.387 98.6044 181.752 98.6044H223.087C225.452 98.6044 227.37 96.7022 227.37 94.3557V83.1476C227.37 80.8011 225.452 78.8989 223.087 78.8989Z" fill="#F9BF64"/>
<path d="M272.987 78.8989H231.653C229.287 78.8989 227.37 80.8011 227.37 83.1476V94.3557C227.37 96.7022 229.287 98.6044 231.653 98.6044H272.987C275.352 98.6044 277.27 96.7022 277.27 94.3557V83.1476C277.27 80.8011 275.352 78.8989 272.987 78.8989Z" fill="#6C63FF"/>
<path opacity="0.1" d="M272.987 78.8989H231.653C229.287 78.8989 227.37 80.8011 227.37 83.1476V94.3557C227.37 96.7022 229.287 98.6044 231.653 98.6044H272.987C275.352 98.6044 277.27 96.7022 277.27 94.3557V83.1476C277.27 80.8011 275.352 78.8989 272.987 78.8989Z" fill="black"/>
<path d="M322.887 78.8989H281.552C279.187 78.8989 277.27 80.8011 277.27 83.1476V94.3557C277.27 96.7022 279.187 98.6044 281.552 98.6044H322.887C325.252 98.6044 327.17 96.7022 327.17 94.3557V83.1476C327.17 80.8011 325.252 78.8989 322.887 78.8989Z" fill="#F9BF64"/>
<path d="M372.787 78.8989H331.453C329.087 78.8989 327.17 80.8011 327.17 83.1476V94.3557C327.17 96.7022 329.087 98.6044 331.453 98.6044H372.787C375.153 98.6044 377.07 96.7022 377.07 94.3557V83.1476C377.07 80.8011 375.153 78.8989 372.787 78.8989Z" fill="#C4C4C4"/>
<path d="M372.787 13.2507H327.577C325.211 13.2507 323.294 15.1529 323.294 17.4994V30.2359C323.294 32.5824 325.211 34.4846 327.577 34.4846H372.787C375.152 34.4846 377.07 32.5824 377.07 30.2359V17.4994C377.07 15.1529 375.152 13.2507 372.787 13.2507Z" fill="url(#paint0_linear)"/>
<path d="M329.514 33.7205L370.849 33.7205C373.214 33.7205 375.132 31.8183 375.132 29.4718V18.2637C375.132 15.9172 373.214 14.015 370.849 14.015L329.514 14.015C327.149 14.015 325.232 15.9172 325.232 18.2637V29.4718C325.232 31.8183 327.149 33.7205 329.514 33.7205Z" fill="#6C63FF"/>
<path d="M281.553 78.8989H322.887C325.252 78.8989 327.17 76.9967 327.17 74.6502V63.4422C327.17 61.0957 325.252 59.1935 322.887 59.1935L281.553 59.1935C279.187 59.1935 277.27 61.0957 277.27 63.4422V74.6502C277.27 76.9967 279.187 78.8989 281.553 78.8989Z" fill="#6C63FF"/>
<path d="M231.652 78.8989H272.987C275.352 78.8989 277.27 76.9967 277.27 74.6502V63.4422C277.27 61.0957 275.352 59.1935 272.987 59.1935L231.652 59.1935C229.287 59.1935 227.37 61.0957 227.37 63.4422V74.6502C227.37 76.9967 229.287 78.8989 231.652 78.8989Z" fill="#F9BF64"/>
<path d="M181.753 78.8989H223.087C225.452 78.8989 227.37 76.9967 227.37 74.6502V63.4422C227.37 61.0957 225.452 59.1935 223.087 59.1935L181.753 59.1935C179.387 59.1935 177.47 61.0957 177.47 63.4422V74.6502C177.47 76.9967 179.387 78.8989 181.753 78.8989Z" fill="#6C63FF"/>
<path d="M131.852 78.8989H173.187C175.552 78.8989 177.47 76.9967 177.47 74.6502V63.4422C177.47 61.0957 175.552 59.1935 173.187 59.1935L131.852 59.1935C129.487 59.1935 127.57 61.0957 127.57 63.4422V74.6502C127.57 76.9967 129.487 78.8989 131.852 78.8989Z" fill="#C4C4C4"/>
<path d="M81.9522 78.8989H123.287C125.652 78.8989 127.57 76.9967 127.57 74.6502V63.4422C127.57 61.0957 125.652 59.1935 123.287 59.1935L81.9522 59.1935C79.587 59.1935 77.6695 61.0957 77.6695 63.4422V74.6502C77.6695 76.9967 79.587 78.8989 81.9522 78.8989Z" fill="#6C63FF"/>
<path d="M241.749 312C375.263 312 483.497 287.577 483.497 257.45C483.497 227.322 375.263 202.899 241.749 202.899C108.235 202.899 0 227.322 0 257.45C0 287.577 108.235 312 241.749 312Z" fill="#F5F5F5"/>
<path d="M399.167 251.273C399.167 251.273 372.182 245.919 364.983 238.777C357.783 231.635 325.402 219.144 321.802 228.069C318.203 236.994 273.23 267.341 303.838 272.695C334.447 278.049 375.801 279.832 384.797 276.266C393.794 272.699 399.167 251.273 399.167 251.273Z" fill="#A8A8A8"/>
<path opacity="0.2" d="M303.838 269.378C334.422 274.733 375.801 276.516 384.797 272.949C391.647 270.229 396.424 257.171 398.29 251.091L399.191 251.278C399.191 251.278 393.794 272.695 384.797 276.271C375.801 279.846 334.413 278.054 303.838 272.7C295.011 271.152 292.487 267.523 293.437 262.929C294.149 265.923 297.244 268.225 303.838 269.378Z" fill="black"/>
<path d="M453.766 13.5398C453.284 12.3508 452.518 11.2965 451.532 10.4686C444.289 3.92256 432.58 5.90753 423.588 1.90396C421.515 0.981166 419.393 -0.297289 417.145 0.0535641C414.005 0.534185 411.084 4.09078 408.347 2.51434L408.541 3.10551L408.347 3.00458L410.362 9.08924C411.137 11.4251 411.951 13.8282 413.453 15.7747C411.229 17.6984 409.528 20.1445 408.503 22.8894C407.479 25.6342 407.164 28.5901 407.589 31.4867C408.013 34.3832 409.163 37.1278 410.933 39.4695C412.704 41.8112 415.037 43.6751 417.721 44.8907C417.818 45.0926 417.91 45.2992 418.002 45.5059L418.259 45.6116C418.855 46.9727 419.3 48.3941 419.587 49.8507C417.256 50.1727 413.192 52.7344 409.2 56.5025L401.216 56.2382C396.051 56.0671 391.054 54.3812 386.856 51.3935L362.943 34.3555C361.239 34.5219 359.635 35.2261 358.364 36.3645C355.4 33.2981 352.88 30.1164 353.093 28.1939C353.093 28.1939 341.98 7.56087 337.939 17.875C333.899 28.1891 345.516 39.0223 345.516 39.0223L352.885 48.4954C352.594 50.1563 352.41 51.8338 352.333 53.5179C361.426 63.8368 393.246 73.1705 393.246 73.1705L398.207 73.4108L398.236 73.6511C397.931 74.9426 397.781 76.2656 397.79 77.5922C397.79 77.7844 397.79 77.9815 397.79 78.1833C397.79 78.3852 397.79 78.4477 397.79 78.5775C398.042 95.0339 400.314 145.384 400.314 145.384C400.755 145.187 401.216 145.009 401.681 144.841L401.327 149.315C401.327 149.315 380.112 152.261 364.454 158.159C348.796 164.056 348.292 170.934 348.292 170.934V231.617C343.821 233.895 336.762 236.904 333.138 235.284C329.204 233.544 327.049 235.005 326.656 236.529C326.581 236.83 326.581 237.145 326.656 237.447C326.689 237.582 326.74 237.713 326.806 237.836V237.865C326.878 237.992 326.968 238.109 327.073 238.211C328.589 239.686 361.421 252.457 368.999 250.491C369.233 250.43 369.463 250.353 369.686 250.26C369.759 250.231 369.822 250.193 369.895 250.159C369.967 250.126 370.176 250.029 370.307 249.953C370.437 249.876 370.457 249.852 370.529 249.804C370.602 249.755 370.757 249.655 370.864 249.573C370.97 249.491 371.004 249.448 371.072 249.385C371.14 249.323 371.271 249.217 371.358 249.121C371.445 249.025 371.484 248.977 371.547 248.905C371.61 248.833 371.721 248.713 371.799 248.607C371.876 248.501 371.905 248.448 371.963 248.371C372.022 248.294 372.118 248.15 372.186 248.035C372.254 247.919 372.278 247.871 372.322 247.785C372.366 247.698 372.458 247.54 372.521 247.41C372.584 247.28 372.598 247.242 372.632 247.155C372.666 247.069 372.753 246.881 372.806 246.742C372.86 246.603 372.865 246.574 372.898 246.487C372.932 246.401 373.005 246.184 373.049 246.007C373.049 245.925 373.092 245.843 373.116 245.762C373.16 245.593 373.209 245.43 373.247 245.281C373.247 245.204 373.281 245.127 373.296 245.05C373.334 244.868 373.373 244.685 373.402 244.502C373.402 244.435 373.402 244.363 373.436 244.296C373.47 244.099 373.499 243.897 373.523 243.7V243.527C373.548 243.31 373.572 243.094 373.591 242.878V242.743C373.611 242.509 373.625 242.275 373.635 242.042V241.945C373.635 241.695 373.635 241.446 373.635 241.196V241.148C373.626 238.217 373.301 235.296 372.666 232.434L374.57 180.753C384.491 180.906 394.414 180.543 404.297 179.666L405.382 204.332C405.382 204.332 405.382 220.543 410.939 227.911C415.696 234.217 421.19 262.107 422.673 270.023C420.633 273.868 416.728 278.674 409.926 278.511C409.926 278.511 397.131 277.415 397.853 280.914C397.874 281.006 397.901 281.096 397.936 281.183C397.976 281.284 398.023 281.382 398.076 281.476C398.13 281.568 398.188 281.659 398.255 281.755L398.294 281.813C398.367 281.914 398.449 282.02 398.541 282.13V282.154C398.628 282.255 398.721 282.356 398.822 282.457L398.909 282.543C399.026 282.659 399.142 282.774 399.278 282.894C405.842 288.792 444.231 289.772 444.231 289.772V289.637C444.231 289.599 444.231 289.551 444.231 289.498C444.231 287.792 443.979 278.843 441.683 272.104H442.216C442.216 272.104 436.659 222.485 432.115 216.593C432.115 216.593 430.908 190.428 433.631 174.034L434.116 173.851C446.847 169.131 447.753 157.51 446.44 148.974C448.863 149.743 450.277 150.267 450.277 150.267C450.277 150.267 450.234 149.897 450.152 149.238L450.277 149.286C450.277 149.286 450.035 147.724 449.633 145.292C448.722 138.597 446.959 126.899 445.079 121.377C444.774 120.161 444.483 119.123 444.217 118.339C443.132 115.021 442.387 111.602 441.993 108.136C441.478 103.642 441.218 99.1237 441.213 94.6014C441.254 88.5591 441.721 82.5271 442.608 76.5492C443.379 71.3297 444.062 65.3892 444.013 61.2414C444.067 59.7929 443.964 58.3429 443.708 56.9159C443.035 53.8543 440.055 51.8645 436.959 50.5957C436.761 50.514 436.557 50.4467 436.354 50.3698C436.431 49.2115 436.528 47.8946 436.654 46.5248C437.025 46.7799 437.445 46.9574 437.887 47.0466C438.329 47.1358 438.785 47.1349 439.227 47.0439C440.559 46.7555 441.513 45.6549 442.361 44.6408C446.838 39.1857 451.435 33.5 453.155 26.7232C453.85 23.6969 454.175 20.5987 454.124 17.4953C454.124 17.3255 454.124 17.1557 454.124 16.9858C454.207 15.8252 454.086 14.6592 453.766 13.5398Z" fill="url(#paint1_linear)"/>
<path d="M413.008 40.1317C413.008 40.1317 419.79 50.2248 418.337 55.031C416.884 59.8372 434.324 56.9535 434.324 56.9535C434.324 56.9535 434.809 38.2093 438.2 33.8837C441.591 29.5581 413.008 40.1317 413.008 40.1317Z" fill="#F7C4A7"/>
<path d="M368.195 46.6202C368.195 46.6202 354.145 35.0853 354.63 30.7597C354.63 30.7597 343.971 10.5736 340.096 20.6666C336.22 30.7597 347.363 41.3333 347.363 41.3333L360.928 59.1163L368.195 46.6202Z" fill="#F7C4A7"/>
<path d="M353.903 227.574C353.903 227.574 340.822 235.745 335.493 233.342C330.164 230.939 328.226 234.784 329.68 236.225C331.133 237.667 362.623 250.163 369.89 248.241C377.157 246.318 373.461 230.573 373.461 230.573L353.903 227.574Z" fill="#535461"/>
<path d="M423.181 262.66C423.181 262.66 420.032 275.877 409.132 275.636C409.132 275.636 392.66 274.194 398.958 279.962C405.256 285.729 442.076 286.691 442.076 286.691C442.076 286.691 442.076 266.985 435.293 262.66C428.51 258.334 423.181 262.66 423.181 262.66Z" fill="#535461"/>
<path d="M403.318 169.419L404.772 203.063C404.772 203.063 404.772 218.923 410.101 226.132C415.43 233.342 421.728 269.388 421.728 269.388H440.138C440.138 269.388 434.809 220.846 430.448 215.078C430.448 215.078 428.511 172.303 435.293 162.69L403.318 169.419Z" fill="#575988"/>
<path opacity="0.1" d="M403.318 169.419L404.772 203.063C404.772 203.063 404.772 218.923 410.101 226.132C415.43 233.342 421.728 269.388 421.728 269.388H440.138C440.138 269.388 434.809 220.846 430.448 215.078C430.448 215.078 428.511 172.303 435.293 162.69L403.318 169.419Z" fill="black"/>
<path d="M441.591 139.14C441.591 139.14 452.734 165.574 432.386 173.264C412.039 180.954 375.219 179.993 375.219 179.993L373.281 235.745C373.281 235.745 350.511 238.628 350.027 231.419V170.38C350.027 170.38 350.511 163.652 365.53 157.884C380.548 152.117 400.896 149.233 400.896 149.233L401.865 136.737L441.591 139.14Z" fill="#575988"/>
<path opacity="0.1" d="M423.738 52.0562C427.608 51.6311 431.524 52.1799 435.123 53.6518C438.093 54.8918 440.937 56.8384 441.596 59.8326C442.361 63.3796 441.514 71.3339 440.54 78.0674C438.98 88.6195 438.781 99.3258 439.949 109.928C440.433 114.345 441.136 118.194 442.08 119.91C444.987 125.197 447.894 150.189 447.894 150.189C447.894 150.189 415.919 138.174 399.932 145.383C399.932 145.383 397.752 96.1195 397.509 80.0187C397.321 67.5514 413.255 53.3442 418.584 52.8636C421.704 52.5849 420.633 52.3782 423.738 52.0562Z" fill="black"/>
<path d="M423.738 51.095C427.608 50.6699 431.524 51.2187 435.123 52.6907C438.093 53.9307 440.937 55.8772 441.596 58.8714C442.361 62.4184 441.514 70.3727 440.54 77.1062C438.98 87.6584 438.781 98.3647 439.949 108.967C440.326 112.356 441.04 115.699 442.08 118.949C444.26 125.437 447.894 149.228 447.894 149.228C447.894 149.228 415.919 137.213 399.932 144.422C399.932 144.422 397.752 95.1583 397.509 79.0575C397.321 66.5902 413.255 52.3831 418.584 51.9024C421.704 51.6237 420.633 51.417 423.738 51.095Z" fill="#E14B5A"/>
<path opacity="0.1" d="M432.386 77.6204L397.989 75.6979C397.989 75.6979 395.799 58.9675 400.765 59.1405L434.809 60.318C434.809 60.318 442.076 68.9692 432.386 77.6204Z" fill="black"/>
<path d="M432.386 76.6591L393.145 74.7367C393.145 74.7367 362.623 65.6048 353.903 55.5118C353.903 55.5118 354.387 37.7288 364.077 36.7676L386.997 53.4403C391.003 56.3552 395.8 58.0065 400.765 58.1793L434.809 59.3568C434.809 59.3568 442.076 68.008 432.386 76.6591Z" fill="#E14B5A"/>
<path opacity="0.1" d="M434.082 42.2946C434.659 37.7383 436.742 36.2244 438.2 34.3644C441.591 30.0388 413.008 40.6125 413.008 40.6125C414.485 42.8641 415.781 45.2281 416.884 47.6824C419.162 48.724 421.642 49.2635 424.151 49.2636C428.346 49.2636 431.069 44.7602 434.082 42.2946Z" fill="black"/>
<path d="M424.15 48.7829C433.783 48.7829 441.591 41.0364 441.591 31.4806C441.591 21.9248 433.783 14.1782 424.15 14.1782C414.518 14.1782 406.709 21.9248 406.709 31.4806C406.709 41.0364 414.518 48.7829 424.15 48.7829Z" fill="#F7C4A7"/>
<path opacity="0.1" d="M413.138 19.3547C411.283 17.3409 410.386 14.659 409.543 12.0589L407.605 6.10398C410.231 7.64197 413.031 4.1815 416.045 3.70087C418.201 3.35963 420.24 4.60925 422.227 5.50802C430.85 9.42027 442.09 7.47856 449.027 13.8852C449.976 14.6999 450.71 15.7307 451.169 16.8891C451.489 17.9807 451.62 19.1183 451.556 20.2535C451.613 23.287 451.309 26.3166 450.65 29.2795C449.003 35.9073 444.594 41.4729 440.297 46.8078C439.483 47.8219 438.568 48.8985 437.289 49.1821C434.794 49.7348 432.866 47.0625 431.901 44.7171C430.624 41.6092 429.682 38.3758 429.092 35.071C428.84 33.6724 428.641 32.2306 427.938 30.9954C426.437 28.3567 422.735 25.8575 420.487 23.8101C418.24 21.7626 415.202 21.5896 413.138 19.3547Z" fill="black"/>
<path d="M413.138 18.874C411.283 16.8602 410.386 14.1783 409.543 11.5782L407.605 5.62327C410.231 7.16126 413.031 3.70078 416.045 3.22016C418.201 2.87892 420.24 4.12854 422.227 5.0273C430.85 8.93956 442.09 6.99784 449.027 13.4045C449.976 14.2192 450.71 15.25 451.169 16.4084C451.489 17.5 451.62 18.6376 451.556 19.7728C451.613 22.8063 451.309 25.8359 450.65 28.7988C449.003 35.4266 444.594 40.9922 440.297 46.3271C439.483 47.3412 438.568 48.4178 437.289 48.7013C434.794 49.2541 432.866 46.5818 431.901 44.2364C430.624 41.1285 429.682 37.8951 429.092 34.5903C428.84 33.1917 428.641 31.7498 427.938 30.5146C426.437 27.876 422.735 25.3768 420.487 23.3294C418.24 21.2819 415.202 21.1089 413.138 18.874Z" fill="#632652"/>
<path d="M428.753 36.5274C429.555 36.5274 430.206 35.1287 430.206 33.4033C430.206 31.678 429.555 30.2793 428.753 30.2793C427.95 30.2793 427.299 31.678 427.299 33.4033C427.299 35.1287 427.95 36.5274 428.753 36.5274Z" fill="#F7C4A7"/>
<path opacity="0.1" d="M437.473 116.791C437.473 116.791 436.504 119.675 431.659 119.194C426.815 118.713 412.765 117.752 412.765 119.194" fill="black"/>
<path opacity="0.5" d="M398.958 279.481C398.086 278.683 397.65 278.039 397.548 277.477C397.422 278.102 397.81 278.919 398.958 279.962C405.256 285.729 442.075 286.691 442.075 286.691C442.075 286.691 442.075 286.522 442.075 286.21C441.838 286.205 405.237 285.229 398.958 279.481Z" fill="white"/>
<path opacity="0.5" d="M369.89 247.279C362.623 249.202 331.133 236.706 329.679 235.264C329.486 235.069 329.347 234.827 329.277 234.562C329.193 234.85 329.186 235.155 329.257 235.446C329.327 235.738 329.473 236.006 329.679 236.225C331.133 237.667 362.623 250.163 369.89 248.241C373.63 247.251 374.463 242.603 374.395 238.321C374.323 242.31 373.349 246.357 369.89 247.279Z" fill="white"/>
<path d="M243.246 242.108C243.438 242.108 243.623 242.032 243.76 241.897C243.896 241.762 243.972 241.578 243.972 241.387C243.972 241.196 243.896 241.013 243.76 240.877C243.623 240.742 243.438 240.666 243.246 240.666C243.053 240.666 242.868 240.742 242.732 240.877C242.596 241.013 242.519 241.196 242.519 241.387C242.519 241.578 242.596 241.762 242.732 241.897C242.868 242.032 243.053 242.108 243.246 242.108Z" fill="#67647E"/>
<path d="M458.383 275.473H499.717C502.083 275.473 504 273.57 504 271.224V260.016C504 257.669 502.083 255.767 499.717 255.767H458.383C456.017 255.767 454.1 257.669 454.1 260.016V271.224C454.1 273.57 456.017 275.473 458.383 275.473Z" fill="#6C63FF"/>
<path opacity="0.1" d="M458.383 275.473H499.717C502.083 275.473 504 273.57 504 271.224V260.016C504 257.669 502.083 255.767 499.717 255.767H458.383C456.017 255.767 454.1 257.669 454.1 260.016V271.224C454.1 273.57 456.017 275.473 458.383 275.473Z" fill="black"/>
<path d="M499.717 237.023H458.383C456.018 237.023 454.1 238.925 454.1 241.272V252.48C454.1 254.826 456.018 256.729 458.383 256.729H499.717C502.083 256.729 504 254.826 504 252.48V241.272C504 238.925 502.083 237.023 499.717 237.023Z" fill="#F9BF64"/>
<path d="M458.383 237.023H499.717C502.083 237.023 504 235.121 504 232.774V221.566C504 219.22 502.083 217.317 499.717 217.317H458.383C456.017 217.317 454.1 219.22 454.1 221.566V232.774C454.1 235.121 456.017 237.023 458.383 237.023Z" fill="#6C63FF"/>
<path opacity="0.1" d="M458.383 237.023H499.717C502.083 237.023 504 235.121 504 232.774V221.566C504 219.22 502.083 217.317 499.717 217.317H458.383C456.017 217.317 454.1 219.22 454.1 221.566V232.774C454.1 235.121 456.017 237.023 458.383 237.023Z" fill="black"/>
<path d="M499.717 197.612H458.383C456.018 197.612 454.1 199.515 454.1 201.861V213.069C454.1 215.416 456.018 217.318 458.383 217.318H499.717C502.083 217.318 504 215.416 504 213.069V201.861C504 199.515 502.083 197.612 499.717 197.612Z" fill="#F9BF64"/>
<g clip-path="url(#clip1)">
<path d="M100.59 267.978L40.3962 273.976L31.1686 188.391L91.3629 182.392L100.59 267.978Z" fill="url(#paint2_linear)"/>
<path d="M99.6554 266.906L41.0824 272.742L32.104 189.462L90.6768 183.625L99.6554 266.906Z" fill="#F9BF64"/>
<path d="M100.595 253.297L44.4058 276.008L13.6936 195.722L69.8827 173.011L100.595 253.297Z" fill="url(#paint3_linear)"/>
<path d="M99.4242 252.522L44.7493 274.622L14.8644 196.498L69.5394 174.399L99.4242 252.522Z" fill="#E0E0E0"/>
<path d="M79.1715 177.776L19.7454 188.88L35.5513 273.525L94.9774 262.42L79.1715 177.776Z" fill="url(#paint4_linear)"/>
<path d="M78.5849 179.065L20.7593 189.87L36.1393 272.234L93.9649 261.429L78.5849 179.065Z" fill="white"/>
<path d="M42.7833 200.452C43.877 205.952 49.0078 209.56 54.2419 208.511C59.4761 207.461 62.8355 202.153 61.7392 196.653C61.3356 194.608 60.3387 192.732 58.8836 191.28C57.4286 189.828 55.5859 188.87 53.6057 188.536L54.1155 191.101C54.2956 191.993 54.1297 192.917 53.6541 193.671C53.1785 194.425 52.4321 194.948 51.5782 195.125C50.7236 195.29 49.8357 195.095 49.1086 194.584C48.3815 194.072 47.8743 193.285 47.6979 192.395L47.1881 189.83C45.4879 190.9 44.1533 192.493 43.3654 194.394C42.5774 196.294 42.3742 198.409 42.7833 200.452Z" fill="url(#paint5_linear)"/>
<path d="M61.5869 195.846C60.5561 190.334 55.4666 186.658 50.2185 187.64C44.9703 188.622 41.5527 193.887 42.5841 199.402C42.9638 201.452 43.9391 203.34 45.3776 204.81C46.8161 206.28 48.6481 207.261 50.6249 207.62L50.1442 205.049C49.9767 204.157 50.1546 203.237 50.639 202.491C51.1234 201.745 51.875 201.234 52.7295 201.068C53.5861 200.914 54.4718 201.119 55.1931 201.639C55.9143 202.16 56.4125 202.953 56.5787 203.845L57.0596 206.417C58.7733 205.368 60.127 203.791 60.937 201.899C61.7469 200.008 61.9738 197.895 61.5869 195.846Z" fill="#000066"/>
<path d="M42.7833 200.452C43.877 205.952 49.0078 209.56 54.242 208.511C59.4761 207.461 62.8355 202.153 61.7392 196.653C61.3356 194.608 60.3387 192.732 58.8836 191.28C57.4286 189.828 55.5859 188.87 53.6057 188.536L54.1155 191.101C54.2956 191.993 54.1297 192.917 53.6541 193.671C53.1786 194.425 52.4321 194.948 51.5782 195.125C50.7236 195.29 49.8357 195.095 49.1086 194.584C48.3815 194.072 47.8743 193.285 47.6979 192.395L47.1881 189.83C45.4879 190.9 44.1533 192.493 43.3654 194.394C42.5774 196.294 42.3742 198.409 42.7833 200.452Z" fill="url(#paint6_linear)"/>
<path d="M61.5872 195.846C60.5563 190.334 55.4669 186.658 50.2187 187.64C44.9706 188.622 41.553 193.887 42.5843 199.402C42.9641 201.452 43.9394 203.34 45.3779 204.81C46.8163 206.28 48.6483 207.261 50.6252 207.62L50.1445 205.049C49.9769 204.157 50.1548 203.237 50.6392 202.491C51.1237 201.745 51.8752 201.234 52.7297 201.068C53.5864 200.914 54.4721 201.119 55.1933 201.639C55.9146 202.16 56.4127 202.953 56.5789 203.845L57.0598 206.417C58.7736 205.368 60.1273 203.791 60.9372 201.899C61.7472 200.008 61.9741 197.895 61.5872 195.846Z" fill="#000066"/>
<path d="M52.5488 200.088C54.5656 199.71 55.8794 197.687 55.4832 195.568C55.087 193.449 53.1308 192.037 51.114 192.414C49.0971 192.791 47.7834 194.815 48.1796 196.934C48.5758 199.053 50.5319 200.465 52.5488 200.088Z" fill="white" stroke="white" stroke-miterlimit="10"/>
<path d="M52.7537 201.066C51.8991 201.232 51.1475 201.744 50.6631 202.49C50.1787 203.236 50.0008 204.155 50.1683 205.047L50.6493 207.619C52.8749 208.013 55.1511 207.587 57.0838 206.415L56.6029 203.843C56.4367 202.951 55.9385 202.158 55.2173 201.638C54.496 201.117 53.6103 200.912 52.7537 201.066Z" fill="white" stroke="white" stroke-miterlimit="10"/>
<path d="M48.0953 196.729C47.6903 196.188 47.4309 195.545 47.3443 194.869C47.2604 194.19 47.4334 193.508 47.8267 192.967C48.2698 192.39 48.9597 192.087 49.646 191.899C50.3323 191.71 51.0457 191.613 51.7052 191.342C52.2506 191.114 52.7453 190.775 53.1602 190.344C53.5752 189.913 53.9022 189.4 54.1221 188.833C54.271 189.387 54.4222 189.954 54.4223 190.525C54.4223 191.095 54.2534 191.694 53.8495 192.071C54.3544 191.697 54.412 192.341 54.3627 192.741C54.7032 193.038 55.3821 192.971 55.5005 193.416C55.6188 193.861 55.7 194.329 55.6105 194.776C55.521 195.223 55.8379 195.924 55.4146 196.035" fill="white"/>
<path d="M48.0953 196.729C47.6903 196.188 47.4309 195.545 47.3443 194.869C47.2604 194.19 47.4334 193.508 47.8267 192.967C48.2698 192.39 48.9597 192.087 49.646 191.899C50.3323 191.71 51.0457 191.613 51.7052 191.342C52.2506 191.114 52.7453 190.775 53.1602 190.344C53.5752 189.913 53.9022 189.4 54.1221 188.833C54.271 189.387 54.4222 189.954 54.4223 190.525C54.4223 191.095 54.2534 191.694 53.8495 192.071C54.3544 191.697 54.412 192.341 54.3627 192.741C54.7032 193.038 55.3821 192.971 55.5005 193.416C55.6188 193.861 55.7 194.329 55.6105 194.776C55.521 195.223 55.8379 195.924 55.4146 196.035" stroke="white" stroke-miterlimit="10"/>
<path d="M54.0623 191.943C54.0623 191.943 56.6256 191.708 55.5719 196.016L54.0623 191.943Z" fill="white"/>
<path d="M46.2017 252.534L38.3347 254.006L39.8801 262.271L47.7471 260.799L46.2017 252.534Z" fill="url(#paint7_linear)"/>
<path d="M45.6553 253.374L39.1453 254.592L40.4241 261.432L46.9341 260.214L45.6553 253.374Z" fill="#000066"/>
<path d="M65.0014 213.593L45.9636 217.248L46.221 218.591L65.2588 214.937L65.0014 213.593Z" fill="#69F0AE"/>
<path d="M78.4452 213.139L46.3713 219.387L46.6043 220.585L78.6782 214.337L78.4452 213.139Z" fill="#E0E0E0"/>
<path d="M78.8249 215.133L46.751 221.381L46.984 222.579L79.0579 216.331L78.8249 215.133Z" fill="#E0E0E0"/>
<path d="M68.394 231.402L49.3562 235.056L49.6136 236.399L68.6514 232.745L68.394 231.402Z" fill="#69F0AE"/>
<path d="M81.8373 230.946L49.7634 237.194L49.9964 238.392L82.0703 232.144L81.8373 230.946Z" fill="#E0E0E0"/>
<path d="M82.2172 232.941L50.1433 239.189L50.3763 240.387L82.4502 234.139L82.2172 232.941Z" fill="#E0E0E0"/>
<path d="M71.7863 249.209L52.7485 252.863L53.0059 254.206L72.0437 250.552L71.7863 249.209Z" fill="#000066"/>
<path d="M85.2299 248.754L53.156 255.002L53.389 256.2L85.4629 249.953L85.2299 248.754Z" fill="#E0E0E0"/>
<path d="M85.61 250.749L53.5361 256.997L53.7691 258.195L85.843 251.947L85.61 250.749Z" fill="#E0E0E0"/>
</g>
<path d="M90.1073 163.573H83.48L83.4801 170.498H90.1074L90.1073 163.573Z" fill="#000066"/>
<path d="M112.243 164.33H92.8423L92.8423 165.712H112.243L112.243 164.33Z" fill="#000066"/>
<path d="M118.88 168.874H92.8423L92.8422 170.224H118.88L118.88 168.874Z" fill="#000066"/>
<path d="M193.092 123.437H186.464L186.464 130.363H193.092L193.092 123.437Z" fill="#000066"/>
<path d="M215.227 124.194H195.827L195.827 125.576H215.227L215.227 124.194Z" fill="#000066"/>
<path d="M221.864 128.738H195.827L195.827 130.088H221.864L221.864 128.738Z" fill="#000066"/>
<path d="M243.804 183.262H237.177L237.177 190.188H243.804L243.804 183.262Z" fill="#000066"/>
<path d="M265.939 184.02H246.539L246.539 185.401H265.939L265.939 184.02Z" fill="#000066"/>
<path d="M272.576 188.563H246.539L246.539 189.913H272.576L272.576 188.563Z" fill="#000066"/>
<path d="M342.107 104.505H335.48L335.48 111.431H342.107L342.107 104.505Z" fill="#000066"/>
<path d="M364.243 105.262H344.842L344.842 106.644H364.243L364.243 105.262Z" fill="#000066"/>
<path d="M370.88 109.806H344.842L344.842 111.156H370.88L370.88 109.806Z" fill="#000066"/>
<path d="M240.683 65.1262H234.056L234.056 72.0519H240.683L240.683 65.1262Z" fill="#000066"/>
<path d="M262.818 65.8835H243.418L243.418 67.2654H262.818L262.818 65.8835Z" fill="#000066"/>
<path d="M269.455 70.4272H243.418L243.418 71.7773H269.455L269.455 70.4272Z" fill="#000066"/>
<path d="M96.1474 128.93C96.367 132.759 99.6175 135.733 103.407 135.571C107.196 135.409 110.092 132.175 109.87 128.345C109.791 126.921 109.277 125.55 108.398 124.417C107.519 123.284 106.318 122.444 104.957 122.012L105.06 123.798C105.097 124.419 104.888 125.025 104.478 125.485C104.068 125.945 103.49 126.22 102.871 126.25C102.253 126.272 101.647 126.048 101.187 125.627C100.726 125.205 100.448 124.621 100.413 124.001L100.311 122.215C99.0068 122.76 97.908 123.697 97.1632 124.898C96.4185 126.099 96.0638 127.507 96.1474 128.93Z" fill="url(#paint8_linear)"/>
<path d="M109.851 127.78C109.677 123.948 106.463 120.933 102.67 121.048C98.8779 121.163 95.9456 124.362 96.1198 128.195C96.182 129.62 96.6796 130.997 97.5451 132.14C98.4105 133.284 99.6019 134.138 100.957 134.587L100.876 132.8C100.848 132.18 101.065 131.578 101.48 131.124C101.896 130.671 102.476 130.404 103.094 130.381C103.713 130.366 104.316 130.598 104.771 131.025C105.227 131.452 105.498 132.039 105.526 132.66L105.607 134.447C106.918 133.917 108.029 132.993 108.788 131.801C109.548 130.608 109.919 129.204 109.851 127.78Z" fill="#000066"/>
<path d="M103.07 129.697C104.528 129.653 105.655 128.423 105.588 126.95C105.521 125.477 104.285 124.319 102.828 124.363C101.371 124.407 100.243 125.637 100.31 127.11C100.377 128.583 101.613 129.741 103.07 129.697Z" fill="white" stroke="white" stroke-miterlimit="10"/>
<path d="M103.076 130.402C102.458 130.425 101.878 130.692 101.462 131.145C101.047 131.598 100.83 132.201 100.858 132.821L100.939 134.609C102.467 135.107 104.111 135.058 105.589 134.468L105.508 132.68C105.48 132.06 105.209 131.472 104.753 131.046C104.298 130.619 103.695 130.387 103.076 130.402Z" fill="white" stroke="white" stroke-miterlimit="10"/>
<path d="M100.288 126.952C100.057 126.545 99.9387 126.084 99.9455 125.618C99.9544 125.151 100.144 124.709 100.475 124.384C100.845 124.042 101.361 123.909 101.863 123.854C102.365 123.798 102.877 123.807 103.368 123.693C103.775 123.596 104.157 123.419 104.492 123.171C104.827 122.924 105.109 122.611 105.32 122.252C105.37 122.642 105.419 123.04 105.362 123.425C105.305 123.81 105.126 124.197 104.804 124.409C105.197 124.21 105.173 124.65 105.098 124.915C105.308 125.151 105.793 125.177 105.832 125.49C105.87 125.802 105.881 126.127 105.773 126.419C105.665 126.711 105.818 127.218 105.509 127.249" fill="white"/>
<path d="M100.288 126.952C100.057 126.545 99.9387 126.084 99.9455 125.618C99.9544 125.151 100.144 124.709 100.475 124.384C100.845 124.042 101.361 123.909 101.863 123.854C102.365 123.798 102.877 123.807 103.368 123.693C103.775 123.596 104.157 123.419 104.492 123.171C104.827 122.924 105.109 122.611 105.32 122.252C105.37 122.642 105.419 123.04 105.362 123.425C105.305 123.81 105.126 124.197 104.804 124.409C105.197 124.21 105.173 124.65 105.098 124.915C105.308 125.151 105.793 125.177 105.832 125.49C105.87 125.802 105.881 126.127 105.773 126.419C105.665 126.711 105.818 127.218 105.509 127.249" stroke="white" stroke-miterlimit="10"/>
<path d="M195.231 88.7939C195.45 92.6232 198.701 95.5974 202.49 95.4352C206.28 95.273 209.175 92.039 208.954 88.2088C208.874 86.7852 208.36 85.4139 207.481 84.2809C206.603 83.148 205.401 82.3082 204.041 81.8756L204.143 83.6617C204.181 84.2826 203.971 84.8894 203.561 85.3491C203.151 85.8088 202.573 86.084 201.955 86.1143C201.336 86.1365 200.731 85.9124 200.27 85.4909C199.81 85.0693 199.531 84.4847 199.496 83.8647L199.394 82.0787C198.09 82.624 196.991 83.5608 196.247 84.7621C195.502 85.9634 195.147 87.3709 195.231 88.7939Z" fill="url(#paint9_linear)"/>
<path d="M208.935 87.6439C208.761 83.8123 205.546 80.7976 201.754 80.9123C197.961 81.0271 195.029 84.2261 195.203 88.0595C195.265 89.4838 195.763 90.8612 196.629 92.0046C197.494 93.1481 198.685 94.0023 200.041 94.4512L199.96 92.6646C199.931 92.0444 200.148 91.4418 200.564 90.9885C200.98 90.5352 201.56 90.268 202.178 90.2454C202.796 90.2306 203.399 90.462 203.855 90.8889C204.31 91.3158 204.582 91.9036 204.609 92.5238L204.691 94.3114C206.002 93.7817 207.113 92.8577 207.872 91.6649C208.631 90.4721 209.002 89.0682 208.935 87.6439Z" fill="#000066"/>
<path d="M202.154 89.5613C203.612 89.5172 204.739 88.2874 204.672 86.8143C204.605 85.3413 203.369 84.1829 201.912 84.227C200.454 84.2711 199.327 85.501 199.394 86.974C199.461 88.4471 200.697 89.6054 202.154 89.5613Z" fill="white" stroke="white" stroke-miterlimit="10"/>
<path d="M202.16 90.2661C201.542 90.2887 200.961 90.5559 200.546 91.0092C200.13 91.4625 199.913 92.065 199.942 92.6852L200.023 94.4728C201.55 94.9715 203.195 94.9217 204.673 94.332L204.591 92.5445C204.564 91.9243 204.292 91.3365 203.837 90.9096C203.381 90.4827 202.778 90.2513 202.16 90.2661Z" fill="white" stroke="white" stroke-miterlimit="10"/>
<path d="M199.371 86.8165C199.14 86.4085 199.022 85.9476 199.029 85.4819C199.038 85.015 199.228 84.5726 199.559 84.2484C199.929 83.9058 200.444 83.7733 200.946 83.7176C201.448 83.662 201.96 83.6711 202.452 83.5569C202.858 83.4601 203.24 83.2828 203.575 83.0354C203.911 82.788 204.192 82.4754 204.404 82.1159C204.453 82.5056 204.503 82.9041 204.446 83.2891C204.389 83.6741 204.21 84.061 203.888 84.2729C204.28 84.0738 204.257 84.514 204.182 84.7791C204.392 85.0154 204.876 85.0412 204.915 85.3538C204.954 85.6665 204.964 85.9905 204.856 86.283C204.749 86.5755 204.901 87.0816 204.592 87.1129" fill="white"/>
<path d="M199.371 86.8165C199.14 86.4085 199.022 85.9476 199.029 85.4819C199.038 85.015 199.228 84.5726 199.559 84.2484C199.929 83.9058 200.444 83.7733 200.946 83.7176C201.448 83.662 201.96 83.6711 202.452 83.5569C202.858 83.4601 203.24 83.2828 203.575 83.0354C203.911 82.788 204.192 82.4754 204.404 82.1159C204.453 82.5056 204.503 82.9041 204.446 83.2891C204.389 83.6741 204.21 84.061 203.888 84.2729C204.28 84.0738 204.257 84.514 204.182 84.7791C204.392 85.0154 204.876 85.0412 204.915 85.3538C204.954 85.6665 204.964 85.9905 204.856 86.283C204.749 86.5755 204.901 87.0816 204.592 87.1129" stroke="white" stroke-miterlimit="10"/>
<path d="M197.571 166.037C197.791 169.866 201.042 172.84 204.831 172.678C208.62 172.516 211.516 169.282 211.295 165.452C211.215 164.028 210.701 162.657 209.822 161.524C208.943 160.391 207.742 159.551 206.381 159.119L206.484 160.905C206.521 161.526 206.312 162.132 205.902 162.592C205.492 163.052 204.914 163.327 204.295 163.357C203.677 163.379 203.072 163.155 202.611 162.734C202.15 162.312 201.872 161.728 201.837 161.108L201.735 159.322C200.431 159.867 199.332 160.804 198.587 162.005C197.843 163.206 197.488 164.614 197.571 166.037Z" fill="url(#paint10_linear)"/>
<path d="M211.276 164.887C211.101 161.055 207.887 158.04 204.094 158.155C200.302 158.27 197.37 161.469 197.544 165.302C197.606 166.726 198.104 168.104 198.969 169.247C199.835 170.391 201.026 171.245 202.382 171.694L202.3 169.907C202.272 169.287 202.489 168.684 202.905 168.231C203.32 167.778 203.9 167.511 204.518 167.488C205.137 167.473 205.74 167.705 206.195 168.132C206.651 168.558 206.922 169.146 206.95 169.767L207.031 171.554C208.342 171.024 209.453 170.1 210.212 168.908C210.972 167.715 211.343 166.311 211.276 164.887Z" fill="#000066"/>
<path d="M204.495 166.804C205.952 166.76 207.079 165.53 207.012 164.057C206.946 162.584 205.71 161.426 204.252 161.47C202.795 161.514 201.668 162.744 201.735 164.217C201.802 165.69 203.037 166.848 204.495 166.804Z" fill="white" stroke="white" stroke-miterlimit="10"/>
<path d="M204.5 167.509C203.882 167.532 203.302 167.799 202.886 168.252C202.471 168.705 202.254 169.308 202.282 169.928L202.363 171.716C203.891 172.214 205.535 172.165 207.013 171.575L206.932 169.787C206.904 169.167 206.633 168.579 206.177 168.153C205.722 167.726 205.119 167.494 204.5 167.509Z" fill="white" stroke="white" stroke-miterlimit="10"/>
<path d="M201.712 164.059C201.481 163.651 201.363 163.191 201.37 162.725C201.378 162.258 201.569 161.816 201.9 161.491C202.269 161.149 202.785 161.016 203.287 160.961C203.789 160.905 204.301 160.914 204.792 160.8C205.199 160.703 205.581 160.526 205.916 160.278C206.251 160.031 206.533 159.718 206.744 159.359C206.794 159.749 206.843 160.147 206.786 160.532C206.729 160.917 206.55 161.304 206.228 161.516C206.621 161.317 206.597 161.757 206.522 162.022C206.732 162.258 207.217 162.284 207.256 162.597C207.294 162.909 207.305 163.233 207.197 163.526C207.089 163.818 207.242 164.325 206.933 164.356" fill="white"/>
<path d="M201.712 164.059C201.481 163.651 201.363 163.191 201.37 162.725C201.378 162.258 201.569 161.816 201.9 161.491C202.269 161.149 202.785 161.016 203.287 160.961C203.789 160.905 204.301 160.914 204.792 160.8C205.199 160.703 205.581 160.526 205.916 160.278C206.251 160.031 206.533 159.718 206.744 159.359C206.794 159.749 206.843 160.147 206.786 160.532C206.729 160.917 206.55 161.304 206.228 161.516C206.621 161.317 206.597 161.757 206.522 162.022C206.732 162.258 207.217 162.284 207.256 162.597C207.294 162.909 207.305 163.233 207.197 163.526C207.089 163.818 207.242 164.325 206.933 164.356" stroke="white" stroke-miterlimit="10"/>
<path d="M295.094 88.7939C295.314 92.6232 298.565 95.5974 302.354 95.4352C306.143 95.273 309.039 92.039 308.817 88.2088C308.738 86.7852 308.224 85.4139 307.345 84.2809C306.466 83.148 305.265 82.3082 303.904 81.8756L304.007 83.6617C304.044 84.2826 303.835 84.8894 303.425 85.3491C303.015 85.8088 302.437 86.084 301.818 86.1143C301.2 86.1365 300.594 85.9124 300.134 85.4909C299.673 85.0693 299.395 84.4847 299.36 83.8647L299.258 82.0787C297.954 82.624 296.855 83.5608 296.11 84.7621C295.366 85.9634 295.011 87.3709 295.094 88.7939Z" fill="url(#paint11_linear)"/>
<path d="M308.799 87.6439C308.625 83.8123 305.41 80.7976 301.618 80.9123C297.825 81.0271 294.893 84.2261 295.067 88.0595C295.13 89.4838 295.627 90.8612 296.493 92.0046C297.358 93.1481 298.549 94.0023 299.905 94.4512L299.824 92.6646C299.795 92.0444 300.012 91.4418 300.428 90.9885C300.844 90.5352 301.424 90.268 302.042 90.2454C302.66 90.2306 303.263 90.462 303.719 90.8889C304.174 91.3158 304.446 91.9036 304.473 92.5238L304.555 94.3114C305.866 93.7817 306.977 92.8577 307.736 91.6649C308.495 90.4721 308.866 89.0682 308.799 87.6439Z" fill="#000066"/>
<path d="M302.018 89.5613C303.475 89.5172 304.603 88.2874 304.536 86.8143C304.469 85.3413 303.233 84.1829 301.776 84.227C300.318 84.2711 299.191 85.501 299.258 86.974C299.325 88.4471 300.561 89.6054 302.018 89.5613Z" fill="white" stroke="white" stroke-miterlimit="10"/>
<path d="M302.024 90.2661C301.406 90.2887 300.825 90.5559 300.41 91.0092C299.994 91.4625 299.777 92.065 299.805 92.6852L299.887 94.4728C301.414 94.9715 303.059 94.9217 304.536 94.332L304.455 92.5445C304.427 91.9243 304.156 91.3365 303.701 90.9096C303.245 90.4827 302.642 90.2513 302.024 90.2661Z" fill="white" stroke="white" stroke-miterlimit="10"/>
<path d="M299.235 86.8165C299.004 86.4085 298.886 85.9476 298.893 85.4819C298.902 85.015 299.092 84.5726 299.423 84.2484C299.792 83.9058 300.308 83.7733 300.81 83.7176C301.312 83.662 301.824 83.6711 302.315 83.5569C302.722 83.4601 303.104 83.2828 303.439 83.0354C303.774 82.788 304.056 82.4754 304.268 82.1159C304.317 82.5056 304.367 82.9041 304.309 83.2891C304.252 83.6741 304.073 84.061 303.751 84.2729C304.144 84.0738 304.12 84.514 304.046 84.7791C304.255 85.0154 304.74 85.0412 304.779 85.3538C304.818 85.6665 304.828 85.9905 304.72 86.283C304.612 86.5755 304.765 87.0816 304.456 87.1129" fill="white"/>
<path d="M299.235 86.8165C299.004 86.4085 298.886 85.9476 298.893 85.4819C298.902 85.015 299.092 84.5726 299.423 84.2484C299.792 83.9058 300.308 83.7733 300.81 83.7176C301.312 83.662 301.824 83.6711 302.315 83.5569C302.722 83.4601 303.104 83.2828 303.439 83.0354C303.774 82.788 304.056 82.4754 304.268 82.1159C304.317 82.5056 304.367 82.9041 304.309 83.2891C304.252 83.6741 304.073 84.061 303.751 84.2729C304.144 84.0738 304.12 84.514 304.046 84.7791C304.255 85.0154 304.74 85.0412 304.779 85.3538C304.818 85.6665 304.828 85.9905 304.72 86.283C304.612 86.5755 304.765 87.0816 304.456 87.1129" stroke="white" stroke-miterlimit="10"/>
<path d="M295.094 166.037C295.314 169.866 298.565 172.84 302.354 172.678C306.143 172.516 309.039 169.282 308.817 165.452C308.738 164.028 308.224 162.657 307.345 161.524C306.466 160.391 305.265 159.551 303.904 159.118L304.007 160.904C304.044 161.525 303.835 162.132 303.425 162.592C303.015 163.052 302.437 163.327 301.818 163.357C301.2 163.379 300.594 163.155 300.134 162.734C299.673 162.312 299.395 161.727 299.36 161.107L299.258 159.321C297.954 159.867 296.855 160.804 296.11 162.005C295.366 163.206 295.011 164.614 295.094 166.037Z" fill="url(#paint12_linear)"/>
<path d="M308.799 164.887C308.625 161.055 305.41 158.04 301.618 158.155C297.825 158.27 294.893 161.469 295.067 165.302C295.13 166.726 295.627 168.104 296.493 169.247C297.358 170.391 298.549 171.245 299.905 171.694L299.824 169.907C299.795 169.287 300.012 168.684 300.428 168.231C300.844 167.778 301.424 167.511 302.042 167.488C302.66 167.473 303.263 167.705 303.719 168.132C304.174 168.558 304.446 169.146 304.473 169.767L304.555 171.554C305.866 171.024 306.977 170.1 307.736 168.908C308.495 167.715 308.866 166.311 308.799 164.887Z" fill="#000066"/>
<path d="M302.018 166.804C303.475 166.76 304.603 165.53 304.536 164.057C304.469 162.584 303.233 161.426 301.776 161.47C300.318 161.514 299.191 162.744 299.258 164.217C299.325 165.69 300.561 166.848 302.018 166.804Z" fill="white" stroke="white" stroke-miterlimit="10"/>
<path d="M302.024 167.509C301.406 167.531 300.825 167.799 300.41 168.252C299.994 168.705 299.777 169.308 299.805 169.928L299.887 171.715C301.414 172.214 303.059 172.164 304.536 171.575L304.455 169.787C304.427 169.167 304.156 168.579 303.701 168.152C303.245 167.725 302.642 167.494 302.024 167.509Z" fill="white" stroke="white" stroke-miterlimit="10"/>
<path d="M299.235 164.059C299.004 163.651 298.886 163.19 298.893 162.725C298.902 162.258 299.092 161.815 299.423 161.491C299.792 161.148 300.308 161.016 300.81 160.96C301.312 160.905 301.824 160.914 302.315 160.8C302.722 160.703 303.104 160.526 303.439 160.278C303.774 160.031 304.056 159.718 304.268 159.359C304.317 159.748 304.367 160.147 304.309 160.532C304.252 160.917 304.073 161.304 303.751 161.516C304.144 161.316 304.12 161.757 304.046 162.022C304.255 162.258 304.74 162.284 304.779 162.596C304.818 162.909 304.828 163.233 304.72 163.526C304.612 163.818 304.765 164.324 304.456 164.356" fill="white"/>
<path d="M299.235 164.059C299.004 163.651 298.886 163.19 298.893 162.725C298.902 162.258 299.092 161.815 299.423 161.491C299.792 161.148 300.308 161.016 300.81 160.96C301.312 160.905 301.824 160.914 302.315 160.8C302.722 160.703 303.104 160.526 303.439 160.278C303.774 160.031 304.056 159.718 304.268 159.359C304.317 159.748 304.367 160.147 304.309 160.532C304.252 160.917 304.073 161.304 303.751 161.516C304.144 161.316 304.12 161.757 304.046 162.022C304.255 162.258 304.74 162.284 304.779 162.596C304.818 162.909 304.828 163.233 304.72 163.526C304.612 163.818 304.765 164.324 304.456 164.356" stroke="white" stroke-miterlimit="10"/>
<path d="M196.14 67.5365C194.647 66.1537 192.164 65.6963 190.369 66.714C188.974 67.5005 188.205 68.9654 187.502 70.3481C186.475 72.4042 184.97 74.3266 184.509 76.5472C183.241 82.6692 178.034 87.4238 175.948 93.3402C175.201 95.4528 174.849 97.7196 173.669 99.6472C173.111 100.491 172.487 101.295 171.801 102.053C169.099 105.243 166.71 108.654 164.662 112.246C163.476 112.462 162.422 113.402 161.411 114.137C160.117 115.079 158.617 115.744 157.018 116.086C156.374 116.157 155.757 116.368 155.217 116.702C154.459 117.293 154.355 118.357 153.74 119.072C153.293 119.54 152.726 119.894 152.092 120.1C152.092 119.92 152.065 119.74 152.059 119.555C152.032 118.604 152.015 117.648 152.015 116.692C153.786 114.74 154.756 112.261 154.749 109.701C154.743 107.14 153.762 104.665 151.982 102.721C152.025 101.232 152.237 99.7524 152.614 98.3056C152.806 97.6014 152.779 96.7378 152.169 96.2804C151.867 96.0593 151.477 95.9771 151.153 95.7663C150.696 95.405 150.323 94.9609 150.055 94.4608C149.241 93.3819 148.044 92.6096 146.677 92.2827C145.31 91.9558 143.864 92.0957 142.597 92.6771C140.615 93.6537 139.412 95.607 137.655 96.9332C136.754 97.6117 135.716 98.1206 134.815 98.8042C133.013 100.276 131.732 102.227 131.142 104.397C130.564 106.558 130.229 108.77 130.142 110.997C130.048 111.665 130.076 112.342 130.224 113.001C130.402 113.553 130.675 114.074 131.032 114.543C132.705 117.093 135.057 119.192 137.858 120.635C137.869 120.766 137.869 120.899 137.858 121.03C137.858 121.236 137.786 121.436 137.737 121.642L137.418 121.56C136.243 121.313 134.975 121.344 133.92 120.794C132.119 119.848 131.575 117.54 129.851 116.481C129.704 116.392 129.55 116.315 129.39 116.25C129.268 113.326 128.672 110.437 127.621 107.681C127.116 106.365 126.496 105.024 126.573 103.621C126.638 102.32 127.303 101.122 127.896 99.9453C129.966 95.8846 131.416 91.5771 132.838 87.285C133.75 84.5882 134.665 81.8896 135.584 79.1892C136.479 78.5679 137.288 77.8463 137.995 77.0407C139.461 75.4438 140.428 73.5 140.79 71.4224C140.964 70.3857 140.918 69.3269 140.653 68.3071C140.388 67.2873 139.91 66.3266 139.247 65.4804C138.954 65.0759 138.572 64.7347 138.127 64.4794C137.682 64.2241 137.184 64.0607 136.666 64C136.211 64.0092 135.762 64.1051 135.348 64.2819C134.933 64.4586 134.562 64.7125 134.255 65.028C133.345 66.0001 132.644 67.1276 132.19 68.3486C131.29 70.3378 130.378 72.4042 130.466 74.5631C130.537 76.3519 131.251 78.3514 130.137 79.8061C126.485 84.571 123.728 90.0505 120.834 95.2626C120.102 96.5074 119.474 97.8032 118.956 99.1383C118.256 101.304 117.924 103.559 117.973 105.821C117.945 110.061 118.566 114.281 119.181 118.486C119.461 120.383 119.818 122.398 120.779 124.037C120.149 126.069 119.819 128.172 119.796 130.288C119.77 130.776 119.853 131.265 120.037 131.722C120.361 132.254 120.77 132.736 121.251 133.151C121.895 133.835 122.375 134.641 122.659 135.513C122.943 136.386 123.025 137.305 122.899 138.209C122.738 139.912 122.903 141.628 123.387 143.277C124.486 147.842 125.584 152.401 126.463 157.001C126.671 157.857 126.742 158.737 126.671 159.613C126.501 160.857 125.765 162.039 125.925 163.288C126.082 163.866 126.199 164.453 126.276 165.046C126.24 165.498 126.129 165.942 125.946 166.362C124.694 169.77 121.328 177.583 121.366 181.191L122.245 180.996C121.361 185.679 119.291 190.156 118.203 194.823C117.449 198.223 117.106 201.693 117.182 205.165C117.254 206.724 117.225 208.286 117.094 209.843C116.924 211.225 116.545 212.577 116.336 213.955C116.1 215.802 116.012 217.662 116.073 219.521C116.015 222.443 116.199 225.365 116.622 228.26C117.462 233.194 115.99 238.098 115.589 243.079C115.386 246.564 114.964 250.034 114.326 253.472C114.024 254.922 113.645 256.361 113.437 257.826C112.821 262.175 113.717 266.657 112.75 270.949C112.294 272.959 111.482 275.215 112.679 276.932C113.058 277.472 113.601 277.893 114.013 278.413C114.239 278.658 114.393 278.955 114.46 279.273C114.527 279.59 114.506 279.919 114.398 280.227C114.161 280.7 113.612 281.008 113.475 281.512C113.255 282.304 114.139 282.951 114.93 283.291L115.155 283.373C115.104 283.644 115.115 283.922 115.189 284.188C115.263 284.454 115.398 284.702 115.584 284.915C116.054 285.33 116.637 285.614 117.27 285.737L127.638 288.678C129.95 289.336 132.465 289.983 134.777 289.449C134.829 289.757 134.972 290.045 135.189 290.281C135.659 290.696 136.242 290.981 136.875 291.104L147.166 294.023C149.813 294.774 152.718 295.514 155.261 294.496C155.989 294.215 156.628 293.764 157.117 293.186C157.521 292.63 157.789 291.998 157.903 291.334C158.017 290.671 157.973 289.992 157.776 289.346C157.647 288.688 157.297 288.087 156.776 287.629C156.072 287.17 155.24 286.915 154.382 286.894C153.65 286.873 152.933 286.698 152.284 286.38C152.089 286.261 151.925 286.101 151.807 285.912C152.4 285.364 152.974 284.795 153.531 284.206C153.081 284.062 152.921 283.455 152.877 283.013C152.224 276.464 154.86 270.065 155.859 263.557C156.364 260.293 156.453 256.983 156.123 253.699C156.002 252.46 155.821 251.226 155.766 249.982C155.508 243.506 158.814 237.276 158.698 230.794C158.644 227.761 160.346 224.77 161.175 221.835C161.9 219.234 161.922 216.509 161.939 213.816L162.07 192.607C162.07 189.739 162.07 186.804 161.093 184.095C160.599 182.589 160.464 180.999 160.697 179.438C163.493 178.282 166.14 176.57 169.127 176.868C169.923 174.889 168.979 168.294 168.232 166.295C165.296 158.428 164.726 149.957 166.584 141.807C167.26 138.882 166.332 135.772 167.084 132.858C167.222 132.174 167.5 131.521 167.902 130.936C168.106 130.644 168.386 130.405 168.716 130.242C169.045 130.08 169.414 129.998 169.786 130.005C169.786 128.221 169.748 126.407 169.621 124.598C170.834 123.671 171.869 122.556 172.68 121.303C174.328 118.733 175.267 115.839 176.403 113.043C178.419 108.108 181.17 103.477 183.482 98.65C185.794 93.8234 186.019 88.5444 187.875 83.5481C188.898 80.7964 191.011 78.5179 193.779 77.1846C194.877 76.6706 196.047 76.3005 196.843 75.4575C197.446 74.7548 197.816 73.9026 197.909 73.0056C198.08 72.0281 198.01 71.0269 197.703 70.0788C197.397 69.1307 196.862 68.261 196.14 67.5365ZM131.888 279.893C132.114 279.662 132.333 279.43 132.542 279.179C131.85 279.076 131.004 278.603 130.988 277.945C131.037 277.285 131.189 276.636 131.438 276.017C131.763 274.901 131.816 273.731 131.592 272.594C131.438 271.797 131.153 271.052 130.977 270.24C130.809 269.359 130.699 268.47 130.647 267.577C130.351 264.372 129.681 261.208 128.648 258.14C127.654 255.164 129.016 252.151 129.368 249.052C129.538 247.582 129.461 246.065 130.01 244.683C130.334 243.86 130.867 243.141 131.191 242.308C131.943 240.401 131.499 238.278 131.037 236.289C134.288 230.773 135.365 224.194 136.589 217.985C137.278 214.5 137.966 211.016 138.654 207.535C138.956 205.993 139.291 204.368 140.302 203.124C141.371 207.738 141.792 212.462 141.554 217.178C141.427 218.547 141.446 219.924 141.609 221.29C141.861 222.785 142.526 224.199 142.91 225.669C143.767 228.913 143.267 232.321 143.459 235.657C143.531 237.003 143.717 238.35 143.778 239.697C144.047 245.654 141.916 251.447 139.813 257.076C138.522 260.525 138.237 264.447 137.616 268.06C137.034 271.52 136.457 274.984 136.161 278.474C136.073 279.538 136.002 280.633 135.864 281.713C135.511 281.64 135.154 281.586 134.793 281.553C134.062 281.533 133.344 281.357 132.696 281.039C132.308 280.744 132.026 280.343 131.888 279.893Z" fill="url(#paint13_linear)"/>
<path d="M137.83 122.151C137.556 124.084 136.452 125.806 135.376 127.471C134.722 128.499 133.898 129.594 132.63 129.707C135.928 131.331 139.395 132.636 142.976 133.603C144.196 133.986 145.474 134.179 146.76 134.174C147.848 134.098 148.913 133.842 149.907 133.418C152.079 132.527 154.006 131.184 155.542 129.492C157.078 127.8 158.182 125.803 158.77 123.652C157.353 123.687 155.936 123.586 154.541 123.349C153.762 123.215 152.921 122.999 152.466 122.398C152.149 121.874 152 121.276 152.037 120.676C151.982 118.897 151.982 117.119 152.037 115.34C149.238 115.171 146.429 115.494 143.756 116.291C142.658 116.625 141.559 117.031 140.433 117.293C139.742 117.453 137.836 117.293 137.325 117.669C136.551 118.239 138.034 120.84 137.83 122.151Z" fill="#F7C4A7"/>
<path d="M143.811 176.287C137.703 175.713 131.558 175.551 125.425 175.804C125.02 175.799 124.617 175.859 124.233 175.979C122.882 176.493 122.674 178.148 122.542 179.505C122.026 184.99 119.439 190.104 118.149 195.486C117.394 198.866 117.051 202.314 117.127 205.766C117.199 207.309 117.17 208.854 117.039 210.393C116.869 211.77 116.49 213.112 116.281 214.505C116.045 216.34 115.957 218.188 116.018 220.036C115.961 222.935 116.145 225.834 116.567 228.707C117.407 233.611 115.935 238.473 115.535 243.429C115.331 246.891 114.909 250.339 114.272 253.755C113.969 255.194 113.591 256.623 113.382 258.078C112.767 262.401 113.662 266.858 112.695 271.119C112.24 273.113 111.427 275.354 112.624 277.061C113.003 277.601 113.547 278.017 113.958 278.531C114.184 278.775 114.337 279.069 114.405 279.386C114.472 279.702 114.451 280.029 114.343 280.335C114.107 280.803 113.558 281.111 113.42 281.61C113.201 282.396 114.085 283.044 114.876 283.378C120.834 285.892 128.517 284.118 132.537 279.292C131.845 279.189 130.999 278.721 130.983 278.068C131.032 277.412 131.184 276.766 131.433 276.151C131.758 275.042 131.811 273.879 131.587 272.748C131.433 271.962 131.147 271.206 130.972 270.409C130.804 269.536 130.694 268.654 130.642 267.767C130.346 264.583 129.675 261.439 128.643 258.392C127.649 255.436 129.011 252.444 129.362 249.36C129.533 247.906 129.456 246.394 130.005 245.022C130.329 244.205 130.862 243.48 131.186 242.663C131.938 240.766 131.493 238.664 131.032 236.685C134.283 231.2 135.359 224.667 136.584 218.499C137.272 215.038 137.961 211.577 138.649 208.115C138.951 206.573 139.286 204.975 140.296 203.736C141.366 208.32 141.787 213.015 141.548 217.702C141.424 219.052 141.442 220.411 141.603 221.758C141.856 223.243 142.52 224.646 142.905 226.111C143.762 229.329 143.262 232.716 143.454 236.032C143.525 237.368 143.712 238.705 143.772 240.046C144.042 245.963 141.911 251.72 139.808 257.307C138.517 260.736 138.231 264.632 137.611 268.22C137.029 271.658 136.452 275.097 136.156 278.567C135.887 281.754 135.771 285.203 133.651 287.706C135.584 288.883 137.589 290.081 139.851 290.487C142.496 290.873 145.201 290.384 147.501 289.104C149.784 287.823 151.825 286.197 153.542 284.293C153.092 284.149 152.933 283.543 152.889 283.106C152.235 276.603 154.871 270.255 155.871 263.779C156.375 260.534 156.464 257.245 156.134 253.981C156.013 252.753 155.832 251.53 155.777 250.296C155.519 243.86 158.825 237.666 158.71 231.231C158.655 228.219 160.357 225.243 161.186 222.328C161.911 219.758 161.933 217.039 161.95 214.366L162.082 193.291C162.082 190.438 162.082 187.524 161.104 184.83C159.896 181.597 161.274 177.876 161.483 174.458C155.777 176.144 149.773 176.766 143.811 176.287Z" fill="#575988"/>
<path d="M163.394 115.741C165.702 111.323 168.521 107.155 171.801 103.312C172.485 102.561 173.109 101.764 173.669 100.927C174.849 99.015 175.201 96.7584 175.948 94.6612C178.034 88.7808 183.241 84.057 184.509 77.9762C184.97 75.771 186.475 73.864 187.502 71.8079C188.205 70.4304 188.974 68.9808 190.369 68.2098C192.164 67.1818 194.647 67.6598 196.14 69.0322C196.859 69.7489 197.392 70.6108 197.698 71.5512C198.003 72.4916 198.074 73.4852 197.903 74.4551C197.814 75.3481 197.443 76.1961 196.838 76.8916C196.042 77.7294 194.85 78.1098 193.773 78.6135C191.009 79.9283 188.894 82.1915 187.87 84.9308C186.036 89.8963 185.805 95.1495 183.477 99.935C181.148 104.721 178.413 109.321 176.398 114.22C175.261 117 174.344 119.874 172.675 122.444C171.005 125.014 168.38 127.168 165.228 127.553C165.232 125.696 164.921 123.85 164.305 122.084C163.641 120.043 162.394 117.633 163.394 115.741Z" fill="#F7C4A7"/>
<path d="M129.39 119.576C129.53 115.942 128.926 112.316 127.611 108.894C127.105 107.584 126.485 106.252 126.562 104.859C126.628 103.569 127.292 102.377 127.885 101.21C129.956 97.1748 131.405 92.893 132.828 88.6267L135.573 80.5874C136.466 79.9702 137.276 79.2539 137.984 78.4543C139.447 76.8697 140.414 74.938 140.779 72.872C140.953 71.841 140.906 70.7879 140.641 69.7739C140.377 68.76 139.899 67.8055 139.236 66.9659C138.943 66.5634 138.561 66.2244 138.115 65.9717C137.67 65.7191 137.172 65.5585 136.655 65.501C136.2 65.5084 135.75 65.6035 135.336 65.7804C134.921 65.9572 134.549 66.212 134.244 66.529C133.334 67.4936 132.633 68.6143 132.18 69.829C131.279 71.8029 130.367 73.8589 130.455 75.9972C130.527 77.7758 131.241 79.7599 130.126 81.2043C126.474 85.9384 123.717 91.3818 120.823 96.558C120.092 97.794 119.464 99.0812 118.945 100.408C118.244 102.563 117.912 104.808 117.962 107.059C117.934 111.274 118.555 115.464 119.17 119.643C119.554 122.254 120.071 125.101 122.185 126.839C124.387 124.222 126.595 121.642 129.39 119.576Z" fill="#F7C4A7"/>
<path d="M143.366 121.585C149.659 121.585 154.761 116.81 154.761 110.92C154.761 105.029 149.659 100.254 143.366 100.254C137.073 100.254 131.971 105.029 131.971 110.92C131.971 116.81 137.073 121.585 143.366 121.585Z" fill="#F7C4A7"/>
<path d="M142.855 128.633C142.729 127.231 142.134 125.902 141.157 124.834C140.179 123.766 138.868 123.013 137.408 122.68C136.232 122.439 134.964 122.464 133.909 121.92C132.108 120.979 131.564 118.686 129.84 117.633C128.116 116.579 125.655 117.165 124.151 118.501C122.646 119.838 121.883 121.729 121.268 123.58C120.347 126.088 119.848 128.715 119.79 131.367C119.765 131.854 119.847 132.341 120.032 132.796C120.357 133.326 120.766 133.806 121.246 134.22C121.889 134.897 122.369 135.695 122.653 136.561C122.937 137.426 123.019 138.339 122.893 139.237C122.732 140.932 122.898 142.639 123.382 144.279C124.48 148.808 125.579 153.341 126.457 157.911C126.663 158.753 126.733 159.62 126.666 160.481C126.496 161.715 125.76 162.892 125.919 164.126C126.076 164.702 126.194 165.288 126.271 165.878C126.235 166.325 126.123 166.764 125.941 167.179C124.689 170.571 121.323 178.333 121.361 181.916C127.21 180.513 135.831 180.199 141.867 180.178C143.53 180.157 145.193 180.226 146.848 180.384C150.818 180.78 154.882 181.864 158.731 180.862C162.301 179.932 165.47 177.264 169.166 177.603C169.962 175.634 169.017 169.081 168.27 167.097C165.335 159.285 164.764 150.865 166.623 142.768C167.298 139.859 166.37 136.775 167.123 133.881C167.26 133.2 167.538 132.55 167.941 131.969C168.145 131.678 168.426 131.44 168.755 131.278C169.085 131.117 169.453 131.036 169.825 131.043C169.893 126.397 169.433 121.756 168.452 117.201C168.084 115.582 167.32 113.67 165.58 113.392C164.009 113.145 162.685 114.384 161.428 115.299C160.13 116.232 158.631 116.892 157.035 117.232C156.391 117.301 155.774 117.51 155.233 117.843C154.475 118.429 154.371 119.488 153.756 120.203C152.658 121.483 150.203 121.37 149.423 122.845C149.248 123.285 149.108 123.737 149.006 124.197C148.638 125.071 148.011 125.828 147.199 126.381C145.972 127.455 144.479 128.229 142.855 128.633Z" fill="#252A62"/>
<path d="M152.625 99.5804C152.817 98.8762 152.789 98.0384 152.18 97.5655C151.878 97.3445 151.488 97.2622 151.164 97.0515C150.707 96.6923 150.334 96.2498 150.066 95.751C149.244 94.6769 148.042 93.9103 146.674 93.5875C145.305 93.2647 143.859 93.4065 142.591 93.9879C140.609 94.9594 139.406 96.9024 137.649 98.2183C136.748 98.8968 135.71 99.4005 134.81 100.074C133.01 101.535 131.728 103.475 131.136 105.636C130.56 107.785 130.227 109.985 130.142 112.2C130.048 112.864 130.076 113.538 130.224 114.194C130.404 114.737 130.676 115.249 131.032 115.71C132.838 118.28 135.233 120.619 138.226 121.94C141.219 123.261 144.86 123.482 147.814 122.1C148.11 121.983 148.365 121.791 148.55 121.544C148.719 121.169 148.758 120.754 148.66 120.357C148.504 118.787 148.837 117.209 149.621 115.813C150.17 114.785 150.988 113.901 151.433 112.832C151.837 111.64 152.011 110.39 151.949 109.141C151.993 105.918 151.757 102.695 152.625 99.5804Z" fill="#2D293D"/>
<path d="M154.393 286.945C155.25 286.968 156.081 287.222 156.787 287.675C157.306 288.13 157.657 288.728 157.787 289.382C157.984 290.025 158.027 290.7 157.913 291.36C157.799 292.021 157.531 292.649 157.128 293.201C156.639 293.775 155.999 294.221 155.272 294.496C152.729 295.524 149.824 294.779 147.177 294.034L136.809 291.109C136.177 290.988 135.593 290.705 135.123 290.292C134.838 289.933 134.681 289.499 134.673 289.052C134.665 288.605 134.807 288.166 135.079 287.799C135.637 287.074 136.397 286.507 137.276 286.159C140.505 284.689 144.14 284.35 147.71 284.288C149.028 284.262 150.324 283.995 151.219 284.946C151.691 285.46 151.609 286.005 152.317 286.442C152.959 286.755 153.669 286.928 154.393 286.945Z" fill="#535461"/>
<path d="M134.805 281.605C135.661 281.623 136.494 281.874 137.199 282.329C137.715 282.786 138.065 283.383 138.199 284.036C138.396 284.679 138.439 285.354 138.326 286.015C138.212 286.675 137.943 287.303 137.54 287.855C137.051 288.431 136.411 288.879 135.683 289.156C133.141 290.184 130.236 289.433 127.589 288.688L117.221 285.763C116.588 285.644 116.003 285.361 115.535 284.946C115.25 284.587 115.092 284.153 115.084 283.706C115.076 283.259 115.219 282.82 115.491 282.453C116.047 281.727 116.807 281.159 117.687 280.813C120.916 279.343 124.546 279.004 128.094 278.942C129.406 278.942 130.708 278.649 131.603 279.6C132.075 280.114 131.993 280.664 132.701 281.096C133.352 281.412 134.071 281.586 134.805 281.605Z" fill="#535461"/>
</g>
<defs>
<linearGradient id="paint0_linear" x1="350.182" y1="34.4846" x2="350.182" y2="13.2507" gradientUnits="userSpaceOnUse">
<stop stop-color="#808080" stop-opacity="0.25"/>
<stop offset="0.54" stop-color="#808080" stop-opacity="0.12"/>
<stop offset="1" stop-color="#808080" stop-opacity="0.1"/>
</linearGradient>
<linearGradient id="paint1_linear" x1="113292" y1="211080" x2="113292" y2="36343.9" gradientUnits="userSpaceOnUse">
<stop stop-color="#808080" stop-opacity="0.25"/>
<stop offset="0.54" stop-color="#808080" stop-opacity="0.12"/>
<stop offset="1" stop-color="#808080" stop-opacity="0.1"/>
</linearGradient>
<linearGradient id="paint2_linear" x1="70.4792" y1="270.989" x2="61.8803" y2="185.303" gradientUnits="userSpaceOnUse">
<stop stop-color="#808080" stop-opacity="0.25"/>
<stop offset="0.54" stop-color="#808080" stop-opacity="0.12"/>
<stop offset="1" stop-color="#808080" stop-opacity="0.1"/>
</linearGradient>
<linearGradient id="paint3_linear" x1="75241.1" y1="52745.9" x2="51114" y2="-7197.78" gradientUnits="userSpaceOnUse">
<stop stop-color="#808080" stop-opacity="0.25"/>
<stop offset="0.54" stop-color="#808080" stop-opacity="0.12"/>
<stop offset="1" stop-color="#808080" stop-opacity="0.1"/>
</linearGradient>
<linearGradient id="paint4_linear" x1="42170.1" y1="55336.3" x2="31576.5" y2="-1355.94" gradientUnits="userSpaceOnUse">
<stop stop-color="#808080" stop-opacity="0.25"/>
<stop offset="0.54" stop-color="#808080" stop-opacity="0.12"/>
<stop offset="1" stop-color="#808080" stop-opacity="0.1"/>
</linearGradient>
<linearGradient id="paint5_linear" x1="54.7028" y1="208.258" x2="50.0058" y2="188.978" gradientUnits="userSpaceOnUse">
<stop stop-opacity="0.12"/>
<stop offset="0.55" stop-opacity="0.09"/>
<stop offset="1" stop-opacity="0.02"/>
</linearGradient>
<linearGradient id="paint6_linear" x1="54.7028" y1="208.258" x2="50.0058" y2="188.978" gradientUnits="userSpaceOnUse">
<stop stop-opacity="0.12"/>
<stop offset="0.55" stop-opacity="0.09"/>
<stop offset="1" stop-opacity="0.02"/>
</linearGradient>
<linearGradient id="paint7_linear" x1="3828.45" y1="5014.51" x2="3727.34" y2="4473.98" gradientUnits="userSpaceOnUse">
<stop stop-color="#808080" stop-opacity="0.25"/>
<stop offset="0.54" stop-color="#808080" stop-opacity="0.12"/>
<stop offset="1" stop-color="#808080" stop-opacity="0.1"/>
</linearGradient>
<linearGradient id="paint8_linear" x1="103.757" y1="135.448" x2="102.64" y2="121.912" gradientUnits="userSpaceOnUse">
<stop stop-opacity="0.12"/>
<stop offset="0.55" stop-opacity="0.09"/>
<stop offset="1" stop-opacity="0.02"/>
</linearGradient>
<linearGradient id="paint9_linear" x1="202.84" y1="95.3124" x2="201.724" y2="81.7761" gradientUnits="userSpaceOnUse">
<stop stop-opacity="0.12"/>
<stop offset="0.55" stop-opacity="0.09"/>
<stop offset="1" stop-opacity="0.02"/>
</linearGradient>
<linearGradient id="paint10_linear" x1="205.181" y1="172.555" x2="204.064" y2="159.019" gradientUnits="userSpaceOnUse">
<stop stop-opacity="0.12"/>
<stop offset="0.55" stop-opacity="0.09"/>
<stop offset="1" stop-opacity="0.02"/>
</linearGradient>
<linearGradient id="paint11_linear" x1="302.704" y1="95.3124" x2="301.587" y2="81.7761" gradientUnits="userSpaceOnUse">
<stop stop-opacity="0.12"/>
<stop offset="0.55" stop-opacity="0.09"/>
<stop offset="1" stop-opacity="0.02"/>
</linearGradient>
<linearGradient id="paint12_linear" x1="302.704" y1="172.555" x2="301.587" y2="159.019" gradientUnits="userSpaceOnUse">
<stop stop-opacity="0.12"/>
<stop offset="0.55" stop-opacity="0.09"/>
<stop offset="1" stop-opacity="0.02"/>
</linearGradient>
<linearGradient id="paint13_linear" x1="35949.5" y1="140818" x2="49404.3" y2="140818" gradientUnits="userSpaceOnUse">
<stop stop-color="#808080" stop-opacity="0.25"/>
<stop offset="0.54" stop-color="#808080" stop-opacity="0.12"/>
<stop offset="1" stop-color="#808080" stop-opacity="0.1"/>
</linearGradient>
<clipPath id="clip0">
<rect width="504" height="312" fill="white"/>
</clipPath>
<clipPath id="clip1">
<rect width="105.585" height="99.0354" transform="matrix(0.982874 -0.184281 0.187139 0.982334 -14.8674 188.868)" fill="white"/>
</clipPath>
</defs>
</svg>
