<svg width="494" height="290" viewBox="0 0 494 290" fill="none" xmlns="http://www.w3.org/2000/svg">
<path d="M27.8038 33.2304C16.2663 42.6673 30.3083 63.016 43.4853 56.7126C46.7935 55.1283 48.9006 50.361 46.5145 47.1513C42.9817 42.4095 37.2978 47.8241 34.8872 50.7995C33.5426 52.4523 36.2707 54.3354 37.6076 52.6934C38.4402 51.66 42.6899 46.5534 44.0393 49.4768C45.1492 51.8625 42.3184 53.8518 40.4276 54.2936C30.9548 56.506 21.7877 42.406 29.9016 35.7635C31.562 34.4112 29.4294 31.87 27.782 33.2153L27.8038 33.2304Z" fill="#F0B849"/>
<path d="M125.564 190.253C128.257 190.687 132.551 188.993 131.842 185.587C131.349 183.209 126.937 181.793 125.839 184.389C124.875 186.659 127.646 190.241 129.093 191.722C132.151 194.891 138.077 194.371 141.612 192.483C142.498 192.012 141.709 190.684 140.826 191.155C139.275 191.991 137.534 192.423 135.767 192.409C134 192.396 132.266 191.938 130.728 191.078C129.374 190.33 128.398 188.328 127.777 187.004C127.465 186.36 127.153 185.501 127.343 184.789C127.533 184.078 129.502 184.906 129.808 185.097C130.744 185.658 130.248 186.917 129.724 187.561C128.828 188.658 127.333 188.993 125.979 188.775C124.996 188.615 124.575 190.099 125.564 190.259V190.253Z" fill="#F0B849"/>
<path d="M349.796 59.7709C342.504 64.1858 344.347 72.8633 350.267 77.6423C352.581 79.5221 355.889 80.9915 358.845 79.7868C362.929 78.1122 363.347 72.9229 363.228 69.1302C363.219 68.694 363.042 68.278 362.733 67.9695C362.424 67.661 362.007 67.4839 361.57 67.4755C354.762 67.1247 351.109 73.5981 351.99 79.7537C353.084 87.4186 359.9 90.642 366.987 88.5968C369.035 88.0077 368.16 84.8173 366.105 85.4064C360.801 86.9354 356.3 84.9894 355.252 79.3566C354.457 75.0873 356.89 70.5401 361.57 70.785L359.913 69.1302C359.979 71.288 360.198 75.6764 357.639 76.7222C355.809 77.4768 353.615 76.1199 352.249 75.0145C348.178 71.705 346.282 65.7479 351.473 62.6171C353.296 61.5183 351.632 58.6457 349.796 59.7643V59.7709Z" fill="white"/>
<path d="M34.0152 194.876C34.1334 199.147 37.9018 203.78 42.7119 202.962C45.5898 202.473 45.6268 198.176 43.5542 196.771C42.0764 195.756 40.5396 196.706 39.3352 197.698C37.488 199.212 36.0102 201.154 36.1691 203.61C36.4757 208.602 42.9853 210.667 47.1119 210.996C48.3016 211.091 48.2905 209.279 47.1119 209.185C43.8904 208.921 40.1627 207.798 38.4338 204.889C37.6949 203.654 37.9572 202.266 38.6369 201.078C39.1616 200.161 41.0716 197.879 42.3018 198.155C43.7353 198.473 43.3399 201.15 41.8843 201.248C40.4879 201.346 38.8956 200.39 37.8611 199.553C36.4129 198.383 35.8957 196.655 35.8477 194.876C35.8144 193.71 33.9672 193.706 34.0004 194.876H34.0152Z" fill="#F0B849"/>
<path d="M401.345 83.7135C405.801 95.9436 395.872 102.951 385.523 106.541C382.849 107.438 383.981 111.817 386.709 110.866C399.25 106.541 411.025 97.1999 405.677 82.5291C404.696 79.8372 400.382 80.9947 401.372 83.7135H401.345Z" fill="#F9BF64"/>
<path d="M100.35 57.0892C94.4011 58.3355 91.4251 63.1673 93.4481 68.9872C95.4711 74.8071 102.184 77.0122 107.436 74.144C107.694 74.0152 107.915 73.8224 108.077 73.584C108.239 73.3456 108.338 73.0695 108.363 72.7821C108.388 72.4946 108.339 72.2055 108.22 71.9421C108.102 71.6788 107.918 71.4501 107.686 71.2778C94.665 59.987 76.6142 88.8749 92.2612 95.953C94.2053 96.8386 95.2936 93.7089 93.3603 92.8308C82.697 88.0044 96.095 65.5796 105.795 73.994L106.047 71.137C97.8432 75.6117 91.5066 62.3773 100.974 60.3466C103.06 59.9033 102.478 56.6432 100.388 57.0919L100.35 57.0892Z" fill="#000066"/>
<path d="M272.21 56.9749C267.833 56.6881 263.455 53.7772 259.998 51.2618C256.746 48.8937 252.039 44.9312 252.037 40.494C252.034 35.6987 260.851 33.3257 262.425 38.5513C262.931 40.2321 262.747 43.1992 260.816 43.8932C258.422 44.7533 256.12 41.8822 255.63 39.884C255.096 37.7242 256.357 35.1637 258.112 34.0043C259.752 32.9175 258.214 30.2168 256.562 31.3097C252.504 34.016 251.161 39.7214 254.106 43.8218C256.411 47.0427 261.594 48.4724 264.238 45.0665C266.279 42.4591 266.067 38.494 264.492 35.6564C262.529 32.0453 258.154 31.8 254.807 33.2939C237.805 40.8749 262.296 59.434 272.192 60.0831C274.18 60.2163 274.169 57.1181 272.194 56.9841L272.21 56.9749Z" fill="#000066"/>
<path d="M171.583 35.3166C176.292 38.2017 179.539 43.8192 178.335 49.4564C178.003 51.0099 180.353 51.6659 180.685 50.1123C182.123 43.3753 178.496 36.6679 172.811 33.186C171.466 32.3623 170.237 34.4929 171.583 35.3166Z" fill="#F0B849"/>
<path d="M261.575 12.3919C263.743 7.3614 268.204 4.2306 273.508 3.22451C275.603 2.82737 274.715 -0.362998 272.626 0.0341438C266.573 1.17923 261.17 4.99841 258.704 10.7239C257.869 12.6632 260.726 14.3511 261.568 12.3919H261.575Z" fill="white"/>
<path d="M306.607 23.2941C320.03 27.3373 332.633 36.0729 337.555 49.4863C339.196 53.9131 346.399 52.0096 344.759 47.5237C338.882 31.5723 324.639 20.9627 308.591 16.1817C303.982 14.7798 302.028 21.9071 306.607 23.2941Z" fill="#F0B849"/>
<path d="M226.589 273.447C230.187 279.533 236.798 282.361 243.676 281.044C248.035 280.224 256.006 275.458 255.169 270.012C254.558 266.086 250.026 265.052 246.67 265.708C241.864 266.613 239.74 271.021 240.432 275.551C240.751 277.669 244.005 277.079 243.693 274.975C243.267 272.105 244.302 269.689 247.256 268.963C248.46 268.672 251.809 268.665 251.864 270.558C252 274.169 245.784 277.157 243.064 277.827C240.494 278.433 237.796 278.203 235.364 277.171C232.931 276.139 230.89 274.358 229.538 272.089C228.461 270.259 225.438 271.654 226.537 273.475L226.589 273.447Z" fill="#000066"/>
<path d="M15.2867 251.072C27.4725 262.379 17.9906 280 2.88277 281.968C-0.936635 282.46 -0.985136 288.474 2.88277 287.97C22.8043 285.365 36.0085 262.079 19.579 246.835C16.7296 244.194 12.4373 248.431 15.2867 251.072Z" fill="#000066"/>
<path d="M426.019 35.2514C425.498 44.6437 435.912 54.7274 445.175 49.6284C447.888 48.1366 447.138 43.3911 445.738 41.312C442.916 37.1537 439.604 42.5282 438.578 45.0336C437.943 46.5929 440.463 47.2582 441.088 45.7249C441.192 45.4806 442.52 42.1176 443.264 42.4555C443.905 42.7413 444.113 43.8745 444.254 44.467C444.988 47.5857 442.332 48.4641 439.661 48.4433C433.309 48.3965 428.294 41.104 428.622 35.2514C428.726 33.5777 426.118 33.5881 426.019 35.2514Z" fill="#F0B849"/>
<path d="M465.602 221.838C470.347 224.755 477.095 225.441 479.386 219.281C481.48 213.656 476.345 209.007 471.138 208.272C470.948 208.223 470.749 208.218 470.556 208.256C470.363 208.295 470.182 208.377 470.026 208.495C469.87 208.613 469.744 208.765 469.656 208.939C469.569 209.112 469.522 209.303 469.521 209.498C469.065 219.731 484.522 222.413 491.026 216.899C495.3 213.281 494.575 207.461 491.331 203.563C489.409 201.271 481.283 195.491 480.928 201.991C480.836 203.603 483.376 203.598 483.462 201.991C483.539 200.59 486.083 202.357 486.672 202.742C488.522 203.977 490.033 205.646 491.067 207.601C492.872 211.009 490.291 214.942 487.184 216.413C482.002 218.865 471.747 216.413 472.056 209.498L470.449 210.704C474.393 211.249 478.134 213.931 477.039 218.29C475.787 223.224 469.972 221.577 466.875 219.676C465.486 218.82 464.213 220.987 465.597 221.838H465.602Z" fill="#000066"/>
<path d="M337.928 279.444C339.005 277.464 340.876 276.204 343.174 276.858C345.266 277.447 346.511 279.499 346.508 281.599C346.504 283.459 344.872 287.076 342.485 286.253C341.53 285.924 340.244 284.379 341.268 283.565C342.081 282.91 343.529 282.997 344.269 283.68C344.971 284.315 345.798 283.106 345.106 282.478C343.033 280.603 338.15 282.251 339.663 285.424C340.395 286.94 341.984 287.999 343.651 287.807C345.242 287.623 346.521 286.058 347.172 284.727C348.703 281.603 347.92 277.753 344.789 275.966C341.745 274.222 338.314 275.684 336.724 278.606C336.275 279.425 337.475 280.274 337.928 279.444Z" fill="#F0B849"/>
</svg>
