<svg width="453" height="243" viewBox="0 0 453 243" fill="none" xmlns="http://www.w3.org/2000/svg">
<g clip-path="url(#clip0)">
<path opacity="0.3" d="M453 155.971C453.005 162.572 452.092 169.142 450.287 175.495C448.543 181.619 445.976 187.482 442.657 192.925C442.657 212.647 429.265 229.691 409.826 237.8C401.703 241.154 392.99 242.867 384.194 242.839H85.9945C70.0563 242.839 55.2863 238.564 43.1733 231.281C39.7066 229.207 36.4181 226.851 33.3411 224.239C19.8778 212.737 11.5306 196.842 11.5306 179.286C3.97459 167.719 -0.0319589 154.217 -0.000302126 140.426C-0.000302126 111.549 17.1812 86.7181 41.7953 75.7553C45.0638 74.3003 48.4411 73.1 51.8967 72.1654C53.119 71.8347 54.3544 71.5382 55.6031 71.2757C58.9317 70.5711 62.3079 70.1106 65.7045 69.898C66.932 69.8219 68.1662 69.7786 69.4069 69.7681H70.088C71.4581 69.7681 72.8163 69.8153 74.1666 69.8941L74.6101 69.1462C75.1539 68.2434 75.7109 67.3499 76.2811 66.4655C77.3106 64.8542 78.3904 63.2665 79.5202 61.7025C80.7029 60.0518 81.937 58.4274 83.2226 56.8293L83.5513 56.4356C84.2799 55.5329 85.0243 54.6406 85.7846 53.7589C88.1605 51.0061 90.6683 48.3359 93.3082 45.7484C121.862 17.9261 166.596 0.015625 216.885 0.015625C256.016 0.015625 291.785 10.8603 319.183 28.7787C329.562 22.9397 341.287 19.8759 353.213 19.8864C391.916 19.8864 423.301 51.523 423.301 90.5482C423.296 93.0174 423.163 95.4848 422.905 97.9407C432.235 104.506 439.839 113.205 445.077 123.305C450.314 133.404 453.032 144.608 453 155.971Z" fill="#F9BF64"/>
<path opacity="0.2" d="M93.3166 45.7329V53.7434H85.793C88.1504 50.9932 90.6582 48.323 93.3166 45.7329Z" fill="#000066"/>
<path opacity="0.2" d="M107.124 43.7017H97.0227V53.7433H107.124V43.7017Z" fill="#000066"/>
<path opacity="0.2" d="M120.928 43.7017H110.827V53.7433H120.928V43.7017Z" fill="#000066"/>
<path opacity="0.2" d="M134.736 43.7017H124.634V53.7433H134.736V43.7017Z" fill="#000066"/>
<path opacity="0.2" d="M148.54 43.7017H138.438V53.7433H148.54V43.7017Z" fill="#000066"/>
<path opacity="0.2" d="M162.348 43.7017H152.246V53.7433H162.348V43.7017Z" fill="#000066"/>
<path d="M176.155 43.7017H166.054V53.7433H176.155V43.7017Z" fill="#000066"/>
<path opacity="0.2" d="M189.959 43.7017H179.857V53.7433H189.959V43.7017Z" fill="#000066"/>
<path opacity="0.2" d="M203.767 43.7017H193.666V53.7433H203.767V43.7017Z" fill="#000066"/>
<path opacity="0.2" d="M217.571 43.7017H207.469V53.7433H217.571V43.7017Z" fill="#000066"/>
<path d="M231.378 43.7017H221.277V53.7433H231.378V43.7017Z" fill="#000066"/>
<path opacity="0.2" d="M245.186 43.7017H235.084V53.7433H245.186V43.7017Z" fill="#000066"/>
<path opacity="0.2" d="M258.99 43.7017H248.889V53.7433H258.99V43.7017Z" fill="#000066"/>
<path opacity="0.2" d="M272.798 43.7017H262.696V53.7433H272.798V43.7017Z" fill="#000066"/>
<path opacity="0.2" d="M286.605 43.7017H276.504V53.7433H286.605V43.7017Z" fill="#000066"/>
<path opacity="0.2" d="M300.41 43.7017H290.308V53.7433H300.41V43.7017Z" fill="#000066"/>
<path opacity="0.2" d="M314.218 43.7017H304.116V53.7433H314.218V43.7017Z" fill="#000066"/>
<path d="M328.021 43.7017H317.919V53.7433H328.021V43.7017Z" fill="#000066"/>
<path d="M341.829 43.7017H331.728V53.7433H341.829V43.7017Z" fill="#000066"/>
<path opacity="0.2" d="M355.637 43.7017H345.535V53.7433H355.637V43.7017Z" fill="#000066"/>
<path opacity="0.2" d="M369.441 43.7017H359.339V53.7433H369.441V43.7017Z" fill="#000066"/>
<path d="M383.248 43.7017H373.147V53.7433H383.248V43.7017Z" fill="#000066"/>
<path d="M397.052 43.7017H386.951V53.7433H397.052V43.7017Z" fill="#000066"/>
<path d="M79.5126 61.6987V66.4617H76.2734C77.303 64.84 78.3827 63.2523 79.5126 61.6987Z" fill="#000066"/>
<path opacity="0.2" d="M93.3165 56.4199H83.2151V66.4616H93.3165V56.4199Z" fill="#000066"/>
<path d="M107.124 56.4199H97.0227V66.4616H107.124V56.4199Z" fill="#000066"/>
<path opacity="0.2" d="M120.928 56.4199H110.827V66.4616H120.928V56.4199Z" fill="#000066"/>
<path opacity="0.7" d="M134.736 56.4199H124.634V66.4616H134.736V56.4199Z" fill="#000066"/>
<path opacity="0.2" d="M148.54 56.4199H138.438V66.4616H148.54V56.4199Z" fill="#000066"/>
<path opacity="0.4" d="M162.348 56.4199H152.246V66.4616H162.348V56.4199Z" fill="#000066"/>
<path d="M176.155 56.4199H166.054V66.4616H176.155V56.4199Z" fill="#000066"/>
<path opacity="0.4" d="M189.959 56.4199H179.857V66.4616H189.959V56.4199Z" fill="#000066"/>
<path opacity="0.2" d="M203.767 56.4199H193.666V66.4616H203.767V56.4199Z" fill="#000066"/>
<path opacity="0.4" d="M217.571 56.4199H207.469V66.4616H217.571V56.4199Z" fill="#000066"/>
<path d="M231.378 56.4199H221.277V66.4616H231.378V56.4199Z" fill="#000066"/>
<path opacity="0.4" d="M245.186 56.4199H235.084V66.4616H245.186V56.4199Z" fill="#000066"/>
<path opacity="0.4" d="M258.99 56.4199H248.889V66.4616H258.99V56.4199Z" fill="#000066"/>
<path opacity="0.2" d="M272.798 56.4199H262.696V66.4616H272.798V56.4199Z" fill="#000066"/>
<path opacity="0.4" d="M286.605 56.4199H276.504V66.4616H286.605V56.4199Z" fill="#000066"/>
<path opacity="0.4" d="M300.41 56.4199H290.308V66.4616H300.41V56.4199Z" fill="#000066"/>
<path opacity="0.2" d="M314.218 56.4199H304.116V66.4616H314.218V56.4199Z" fill="#000066"/>
<path opacity="0.2" d="M328.021 56.4199H317.919V66.4616H328.021V56.4199Z" fill="#000066"/>
<path opacity="0.4" d="M341.829 56.4199H331.728V66.4616H341.829V56.4199Z" fill="#000066"/>
<path opacity="0.2" d="M355.637 56.4199H345.535V66.4616H355.637V56.4199Z" fill="#000066"/>
<path d="M369.441 56.4199H359.339V66.4616H369.441V56.4199Z" fill="#000066"/>
<path d="M383.248 56.4199H373.147V66.4616H383.248V56.4199Z" fill="#000066"/>
<path d="M397.052 56.4199H386.951V66.4616H397.052V56.4199Z" fill="#000066"/>
<path opacity="0.2" d="M51.8971 72.1655V79.1841H41.7957V75.7555C45.0641 74.3005 48.4414 73.1002 51.8971 72.1655Z" fill="#000066"/>
<path opacity="0.2" d="M65.705 69.8982V79.1841H55.6035V71.2759L65.705 69.8982Z" fill="#000066"/>
<path d="M79.5087 69.1423H69.4072V79.184H79.5087V69.1423Z" fill="#000066"/>
<path opacity="0.7" d="M93.3165 69.1423H83.2151V79.184H93.3165V69.1423Z" fill="#000066"/>
<path d="M107.124 69.1423H97.0227V79.184H107.124V69.1423Z" fill="#000066"/>
<path opacity="0.7" d="M120.928 69.1423H110.827V79.184H120.928V69.1423Z" fill="#000066"/>
<path opacity="0.7" d="M134.736 69.1423H124.634V79.184H134.736V69.1423Z" fill="#000066"/>
<path opacity="0.2" d="M148.54 69.1423H138.438V79.184H148.54V69.1423Z" fill="#000066"/>
<path opacity="0.4" d="M162.348 69.1423H152.246V79.184H162.348V69.1423Z" fill="#000066"/>
<path opacity="0.4" d="M176.155 69.1423H166.054V79.184H176.155V69.1423Z" fill="#000066"/>
<path d="M189.959 69.1423H179.857V79.184H189.959V69.1423Z" fill="#000066"/>
<path opacity="0.2" d="M203.767 69.1423H193.666V79.184H203.767V69.1423Z" fill="#000066"/>
<path opacity="0.4" d="M217.571 69.1423H207.469V79.184H217.571V69.1423Z" fill="#000066"/>
<path d="M231.378 69.1423H221.277V79.184H231.378V69.1423Z" fill="#000066"/>
<path opacity="0.2" d="M245.186 69.1423H235.084V79.184H245.186V69.1423Z" fill="#000066"/>
<path opacity="0.4" d="M258.99 69.1423H248.889V79.184H258.99V69.1423Z" fill="#000066"/>
<path opacity="0.2" d="M272.798 69.1423H262.696V79.184H272.798V69.1423Z" fill="#000066"/>
<path d="M286.605 69.1423H276.504V79.184H286.605V69.1423Z" fill="#000066"/>
<path opacity="0.2" d="M300.41 69.1423H290.308V79.184H300.41V69.1423Z" fill="#000066"/>
<path opacity="0.7" d="M314.218 69.1423H304.116V79.184H314.218V69.1423Z" fill="#000066"/>
<path opacity="0.7" d="M328.021 69.1423H317.919V79.184H328.021V69.1423Z" fill="#000066"/>
<path opacity="0.4" d="M341.829 69.1423H331.728V79.184H341.829V69.1423Z" fill="#000066"/>
<path opacity="0.2" d="M355.637 69.1423H345.535V79.184H355.637V69.1423Z" fill="#000066"/>
<path d="M369.441 69.1423H359.339V79.184H369.441V69.1423Z" fill="#000066"/>
<path d="M383.248 69.1423H373.147V79.184H383.248V69.1423Z" fill="#000066"/>
<path d="M397.052 69.1423H386.951V79.184H397.052V69.1423Z" fill="#000066"/>
<path opacity="0.2" d="M51.8971 81.8608H41.7957V91.9025H51.8971V81.8608Z" fill="#000066"/>
<path opacity="0.2" d="M65.705 81.8608H55.6035V91.9025H65.705V81.8608Z" fill="#000066"/>
<path opacity="0.2" d="M79.5087 81.8608H69.4072V91.9025H79.5087V81.8608Z" fill="#000066"/>
<path opacity="0.2" d="M93.3165 81.8608H83.2151V91.9025H93.3165V81.8608Z" fill="#000066"/>
<path d="M107.124 81.8608H97.0227V91.9025H107.124V81.8608Z" fill="#000066"/>
<path opacity="0.7" d="M120.928 81.8608H110.827V91.9025H120.928V81.8608Z" fill="#000066"/>
<path opacity="0.7" d="M134.736 81.8608H124.634V91.9025H134.736V81.8608Z" fill="#000066"/>
<path opacity="0.2" d="M148.54 81.8608H138.438V91.9025H148.54V81.8608Z" fill="#000066"/>
<path opacity="0.2" d="M162.348 81.8608H152.246V91.9025H162.348V81.8608Z" fill="#000066"/>
<path opacity="0.4" d="M176.155 81.8608H166.054V91.9025H176.155V81.8608Z" fill="#000066"/>
<path opacity="0.4" d="M189.959 81.8608H179.857V91.9025H189.959V81.8608Z" fill="#000066"/>
<path d="M203.767 81.8608H193.666V91.9025H203.767V81.8608Z" fill="#000066"/>
<path opacity="0.2" d="M217.571 81.8608H207.469V91.9025H217.571V81.8608Z" fill="#000066"/>
<path opacity="0.4" d="M231.378 81.8608H221.277V91.9025H231.378V81.8608Z" fill="#000066"/>
<path opacity="0.4" d="M245.186 81.8608H235.084V91.9025H245.186V81.8608Z" fill="#000066"/>
<path opacity="0.4" d="M258.99 81.8608H248.889V91.9025H258.99V81.8608Z" fill="#000066"/>
<path opacity="0.4" d="M272.798 81.8608H262.696V91.9025H272.798V81.8608Z" fill="#000066"/>
<path opacity="0.2" d="M286.605 81.8608H276.504V91.9025H286.605V81.8608Z" fill="#000066"/>
<path opacity="0.2" d="M300.41 81.8608H290.308V91.9025H300.41V81.8608Z" fill="#000066"/>
<path opacity="0.2" d="M314.218 81.8608H304.116V91.9025H314.218V81.8608Z" fill="#000066"/>
<path opacity="0.2" d="M328.021 81.8608H317.919V91.9025H328.021V81.8608Z" fill="#000066"/>
<path opacity="0.7" d="M341.829 81.8608H331.728V91.9025H341.829V81.8608Z" fill="#000066"/>
<path opacity="0.7" d="M355.637 81.8608H345.535V91.9025H355.637V81.8608Z" fill="#000066"/>
<path opacity="0.4" d="M369.441 81.8608H359.339V91.9025H369.441V81.8608Z" fill="#000066"/>
<path opacity="0.2" d="M383.248 81.8608H373.147V91.9025H383.248V81.8608Z" fill="#000066"/>
<path d="M397.052 81.8608H386.951V91.9025H397.052V81.8608Z" fill="#000066"/>
<path opacity="0.2" d="M51.8971 94.583H41.7957V104.625H51.8971V94.583Z" fill="#000066"/>
<path opacity="0.2" d="M65.705 94.583H55.6035V104.625H65.705V94.583Z" fill="#000066"/>
<path opacity="0.4" d="M79.5087 94.583H69.4072V104.625H79.5087V94.583Z" fill="#000066"/>
<path opacity="0.2" d="M93.3165 94.583H83.2151V104.625H93.3165V94.583Z" fill="#000066"/>
<path opacity="0.2" d="M107.124 94.583H97.0227V104.625H107.124V94.583Z" fill="#000066"/>
<path opacity="0.7" d="M120.928 94.583H110.827V104.625H120.928V94.583Z" fill="#000066"/>
<path opacity="0.7" d="M134.736 94.583H124.634V104.625H134.736V94.583Z" fill="#000066"/>
<path opacity="0.2" d="M148.54 94.583H138.438V104.625H148.54V94.583Z" fill="#000066"/>
<path opacity="0.2" d="M162.348 94.583H152.246V104.625H162.348V94.583Z" fill="#000066"/>
<path opacity="0.4" d="M176.155 94.583H166.054V104.625H176.155V94.583Z" fill="#000066"/>
<path d="M189.959 94.583H179.857V104.625H189.959V94.583Z" fill="#000066"/>
<path opacity="0.2" d="M203.767 94.583H193.666V104.625H203.767V94.583Z" fill="#000066"/>
<path d="M217.571 94.583H207.469V104.625H217.571V94.583Z" fill="#000066"/>
<path d="M231.378 94.583H221.277V104.625H231.378V94.583Z" fill="#000066"/>
<path d="M245.186 94.583H235.084V104.625H245.186V94.583Z" fill="#000066"/>
<path opacity="0.2" d="M258.99 94.583H248.889V104.625H258.99V94.583Z" fill="#000066"/>
<path d="M272.798 94.583H262.696V104.625H272.798V94.583Z" fill="#000066"/>
<path opacity="0.2" d="M286.605 94.583H276.504V104.625H286.605V94.583Z" fill="#000066"/>
<path opacity="0.2" d="M300.41 94.583H290.308V104.625H300.41V94.583Z" fill="#000066"/>
<path opacity="0.2" d="M314.218 94.583H304.116V104.625H314.218V94.583Z" fill="#000066"/>
<path opacity="0.2" d="M328.021 94.583H317.919V104.625H328.021V94.583Z" fill="#000066"/>
<path opacity="0.2" d="M341.829 94.583H331.728V104.625H341.829V94.583Z" fill="#000066"/>
<path opacity="0.7" d="M355.637 94.583H345.535V104.625H355.637V94.583Z" fill="#000066"/>
<path opacity="0.2" d="M369.441 94.583H359.339V104.625H369.441V94.583Z" fill="#000066"/>
<path opacity="0.2" d="M383.248 94.583H373.147V104.625H383.248V94.583Z" fill="#000066"/>
<path d="M397.052 94.583H386.951V104.625H397.052V94.583Z" fill="#000066"/>
<path opacity="0.2" d="M51.8971 107.302H41.7957V117.343H51.8971V107.302Z" fill="#000066"/>
<path opacity="0.2" d="M65.705 107.302H55.6035V117.343H65.705V107.302Z" fill="#000066"/>
<path opacity="0.2" d="M79.5087 107.302H69.4072V117.343H79.5087V107.302Z" fill="#000066"/>
<path opacity="0.4" d="M93.3165 107.302H83.2151V117.343H93.3165V107.302Z" fill="#000066"/>
<path opacity="0.2" d="M107.124 107.302H97.0227V117.343H107.124V107.302Z" fill="#000066"/>
<path opacity="0.2" d="M120.928 107.302H110.827V117.343H120.928V107.302Z" fill="#000066"/>
<path opacity="0.7" d="M134.736 107.302H124.634V117.343H134.736V107.302Z" fill="#000066"/>
<path opacity="0.2" d="M148.54 107.302H138.438V117.343H148.54V107.302Z" fill="#000066"/>
<path opacity="0.2" d="M162.348 107.302H152.246V117.343H162.348V107.302Z" fill="#000066"/>
<path opacity="0.2" d="M176.155 107.302H166.054V117.343H176.155V107.302Z" fill="#000066"/>
<path d="M189.959 107.302H179.857V117.343H189.959V107.302Z" fill="#000066"/>
<path opacity="0.2" d="M203.767 107.302H193.666V117.343H203.767V107.302Z" fill="#000066"/>
<path d="M217.571 107.302H207.469V117.343H217.571V107.302Z" fill="#000066"/>
<path d="M231.378 107.302H221.277V117.343H231.378V107.302Z" fill="#000066"/>
<path opacity="0.2" d="M245.186 107.302H235.084V117.343H245.186V107.302Z" fill="#000066"/>
<path opacity="0.2" d="M258.99 107.302H248.889V117.343H258.99V107.302Z" fill="#000066"/>
<path opacity="0.2" d="M272.798 107.302H262.696V117.343H272.798V107.302Z" fill="#000066"/>
<path opacity="0.2" d="M286.605 107.302H276.504V117.343H286.605V107.302Z" fill="#000066"/>
<path opacity="0.2" d="M300.41 107.302H290.308V117.343H300.41V107.302Z" fill="#000066"/>
<path opacity="0.2" d="M314.218 107.302H304.116V117.343H314.218V107.302Z" fill="#000066"/>
<path opacity="0.2" d="M328.021 107.302H317.919V117.343H328.021V107.302Z" fill="#000066"/>
<path opacity="0.2" d="M341.829 107.302H331.728V117.343H341.829V107.302Z" fill="#000066"/>
<path opacity="0.2" d="M355.637 107.302H345.535V117.343H355.637V107.302Z" fill="#000066"/>
<path opacity="0.2" d="M369.441 107.302H359.339V117.343H369.441V107.302Z" fill="#000066"/>
<path opacity="0.4" d="M383.248 107.302H373.147V117.343H383.248V107.302Z" fill="#000066"/>
<path d="M397.052 107.302H386.951V117.343H397.052V107.302Z" fill="#000066"/>
<path opacity="0.7" d="M51.8971 120.024H41.7957V130.066H51.8971V120.024Z" fill="#000066"/>
<path opacity="0.7" d="M65.705 120.024H55.6035V130.066H65.705V120.024Z" fill="#000066"/>
<path opacity="0.7" d="M79.5087 120.024H69.4072V130.066H79.5087V120.024Z" fill="#000066"/>
<path opacity="0.7" d="M93.3165 120.024H83.2151V130.066H93.3165V120.024Z" fill="#000066"/>
<path opacity="0.7" d="M107.124 120.024H97.0227V130.066H107.124V120.024Z" fill="#000066"/>
<path opacity="0.2" d="M120.928 120.024H110.827V130.066H120.928V120.024Z" fill="#000066"/>
<path opacity="0.2" d="M134.736 120.024H124.634V130.066H134.736V120.024Z" fill="#000066"/>
<path opacity="0.2" d="M148.54 120.024H138.438V130.066H148.54V120.024Z" fill="#000066"/>
<path opacity="0.2" d="M162.348 120.024H152.246V130.066H162.348V120.024Z" fill="#000066"/>
<path opacity="0.2" d="M176.155 120.024H166.054V130.066H176.155V120.024Z" fill="#000066"/>
<path opacity="0.2" d="M189.959 120.024H179.857V130.066H189.959V120.024Z" fill="#000066"/>
<path d="M203.767 120.024H193.666V130.066H203.767V120.024Z" fill="#000066"/>
<path opacity="0.2" d="M217.571 120.024H207.469V130.066H217.571V120.024Z" fill="#000066"/>
<path opacity="0.2" d="M231.378 120.024H221.277V130.066H231.378V120.024Z" fill="#000066"/>
<path opacity="0.2" d="M245.186 120.024H235.084V130.066H245.186V120.024Z" fill="#000066"/>
<path d="M258.99 120.024H248.889V130.066H258.99V120.024Z" fill="#000066"/>
<path opacity="0.2" d="M272.798 120.024H262.696V130.066H272.798V120.024Z" fill="#000066"/>
<path opacity="0.2" d="M286.605 120.024H276.504V130.066H286.605V120.024Z" fill="#000066"/>
<path opacity="0.2" d="M300.41 120.024H290.308V130.066H300.41V120.024Z" fill="#000066"/>
<path opacity="0.2" d="M314.218 120.024H304.116V130.066H314.218V120.024Z" fill="#000066"/>
<path opacity="0.2" d="M328.021 120.024H317.919V130.066H328.021V120.024Z" fill="#000066"/>
<path opacity="0.2" d="M341.829 120.024H331.728V130.066H341.829V120.024Z" fill="#000066"/>
<path opacity="0.2" d="M355.637 120.024H345.535V130.066H355.637V120.024Z" fill="#000066"/>
<path opacity="0.2" d="M369.441 120.024H359.339V130.066H369.441V120.024Z" fill="#000066"/>
<path opacity="0.2" d="M383.248 120.024H373.147V130.066H383.248V120.024Z" fill="#000066"/>
<path d="M397.052 120.024H386.951V130.066H397.052V120.024Z" fill="#000066"/>
<path d="M290.855 156.967C298.481 156.967 304.662 150.821 304.662 143.241C304.662 135.66 298.481 129.514 290.855 129.514C283.229 129.514 277.047 135.66 277.047 143.241C277.047 150.821 283.229 156.967 290.855 156.967Z" fill="#767D9F"/>
<path d="M290.138 125.779C291.516 131.757 292.685 137.78 293.646 143.847C293.935 145.65 294.193 147.551 293.535 149.255C292.985 150.676 291.864 151.786 290.985 153.03C290.106 154.274 289.441 155.869 289.976 157.293C290.51 158.718 292.07 159.498 293.559 159.899C297.82 161.041 302.362 160.21 306.603 158.974C308.523 158.483 310.364 157.725 312.071 156.723C313.869 155.589 315.342 154.014 316.696 152.393C322.877 144.941 326.924 135.998 330.734 127.109C328.286 127.331 325.82 126.97 323.541 126.057C321.261 125.144 319.232 123.705 317.623 121.858C316.063 120.036 314.918 117.497 315.797 115.269C313.22 116.674 310.159 116.769 307.383 117.729C305.661 118.383 304.004 119.193 302.433 120.15C300.538 121.239 298.653 122.349 296.778 123.48C294.636 124.763 292.629 125.905 290.138 125.779Z" fill="#FDA57D"/>
<path d="M319.017 136.084C316.597 140.765 313.449 145.264 308.955 148.051C304.46 150.838 298.41 151.594 293.908 148.838C291.69 147.492 290.011 145.445 288.075 143.721C286.138 141.997 283.719 140.521 281.117 140.745C278.251 140.993 276.005 143.217 274.085 145.347C271.17 148.582 268.355 151.956 266.292 155.786C262.332 163.147 261.394 171.752 261.568 180.097C261.742 188.442 262.958 196.744 262.986 205.089C263.025 215.355 261.275 225.538 259.505 235.651C275.78 233.659 292.074 238.013 308.385 239.662C318.823 240.729 329.34 240.705 339.833 240.678C341.678 240.678 343.643 240.63 345.179 239.615C346.118 238.934 346.877 238.037 347.392 237.001C348.842 234.344 349.424 231.313 349.828 228.317C350.853 220.752 350.885 213.092 350.913 205.455C350.984 186.954 351.051 168.386 348.687 150.031C348.105 145.516 347.361 140.977 345.618 136.754C343.876 132.53 341.033 128.645 337.057 126.381C334.503 124.925 328.583 122.39 325.574 123.858C322.196 125.496 320.636 132.951 319.017 136.084Z" fill="#767D9F"/>
<path d="M320.22 188.328C319.607 176.912 317.108 164.729 322.426 154.597C323.733 152.109 319.044 149.003 320.494 146.594C322.262 143.657 323.603 140.486 324.477 137.175C324.778 136.037 325.02 134.832 324.735 133.691C324.208 131.608 322.137 130.369 320.379 129.101C318.439 127.7 317.441 123.429 316.815 121.118C316.189 118.807 321.792 121.59 324.046 120.768C327.174 119.63 331.149 120.347 334.27 121.5C336.012 122.138 337.905 122.193 339.762 122.24C343.369 122.334 346.989 122.425 350.568 121.984C352.176 121.783 353.788 121.48 355.403 121.571C359.525 121.803 363.109 124.606 365.548 127.92C367.987 131.235 369.54 135.096 371.539 138.686C373.206 141.678 375.194 144.504 376.616 147.618C377.875 150.373 378.671 153.333 379.459 156.278L381.49 163.832C381.846 164.912 382.014 166.045 381.989 167.181C381.886 168.39 381.348 169.516 380.801 170.59C378.735 174.573 376.257 178.332 373.408 181.805C369.136 187.013 363.948 191.709 361.41 197.944C360.42 200.373 359.87 202.955 359.367 205.53C357.339 215.826 355.898 226.228 355.051 236.686C350.424 234.558 345.574 232.946 340.59 231.88C338.105 231.351 335.593 230.957 333.066 230.699C330.852 230.47 327.997 230.903 325.891 230.305C322.367 229.309 321.979 223.385 321.444 220.283C320.589 215.343 320.418 210.316 320.387 205.325C320.347 199.649 320.525 193.984 320.22 188.328Z" fill="#7272F4"/>
<path d="M242.826 166.981C244.493 176.428 246.331 185.903 249.954 194.78C249.863 194.866 249.772 194.945 249.68 195.024C249.36 195.295 249.027 195.551 248.679 195.811C247.867 196.378 246.976 196.858 246.303 197.598C246.048 197.881 245.847 198.208 245.709 198.562C245.584 198.839 245.52 199.139 245.52 199.442C245.52 199.745 245.584 200.045 245.709 200.322C243.82 201.153 241.626 200.897 239.508 200.818C237.682 200.751 235.912 200.818 234.447 201.814C232.412 203.207 231.798 205.884 231.469 208.317C231.348 209.204 231.244 210.092 231.157 210.982C231.072 211.808 231.003 212.638 230.951 213.469C230.771 216.221 230.746 218.981 230.875 221.736C230.897 222.24 230.924 222.744 230.959 223.247C224.488 223.094 218.592 219.74 213.013 216.481C211.738 215.737 210.423 214.953 209.596 213.725C208.833 212.519 208.51 211.089 208.681 209.675C208.681 209.474 208.716 209.281 208.744 209.076C208.921 207.908 209.226 206.763 209.651 205.66C211.397 200.961 213.97 196.609 217.25 192.807C218.667 191.162 220.263 189.552 220.924 187.485C221.214 186.584 221.32 185.627 221.613 184.73C222.928 180.841 227.672 179.003 229.295 175.228C229.691 174.326 229.874 173.338 230.365 172.472C230.807 171.752 231.377 171.119 232.048 170.602C232.337 170.362 232.638 170.13 232.935 169.898C235.717 167.73 238.398 165.44 240.977 163.029C241.457 162.58 241.932 162.126 242.402 161.667C242.34 163.448 242.482 165.231 242.826 166.981Z" fill="#7272F4"/>
<path d="M282.729 139.04C282.159 139.639 281.541 140.202 280.935 140.761L280.773 140.906L280.131 141.497C278.967 142.496 277.959 143.662 277.142 144.957L277.074 145.067C275.055 148.661 275.803 153.085 276.366 157.167C277.063 162.254 277.377 167.386 277.304 172.519C277.201 179.605 276.362 186.643 276.346 193.72C276.346 195.327 276.381 196.929 276.453 198.535C276.568 201.145 276.766 203.75 277.003 206.356C277.261 209.214 277.569 212.068 277.858 214.922C278.088 217.13 278.306 219.334 278.488 221.539C278.579 222.68 278.666 223.818 278.738 224.96C278.821 226.298 278.888 227.64 278.928 228.979C278.955 229.829 278.971 230.675 278.971 231.525C278.971 232.01 278.971 232.49 278.971 232.97C278.971 233.891 278.946 234.81 278.896 235.726C278.843 236.904 278.763 238.085 278.654 239.268C278.532 240.555 278.314 241.961 277.403 242.866C277.348 242.921 277.288 242.972 277.229 243.024L275.946 242.866C267.102 241.814 258.173 241.655 249.297 242.394C249.491 241.063 249.669 239.737 249.843 238.402C249.922 237.772 250.001 237.139 250.077 236.505C250.164 235.781 250.247 235.056 250.326 234.332C250.417 233.545 250.5 232.758 250.58 231.97C250.785 229.942 250.966 227.912 251.122 225.881C251.352 222.918 251.526 219.95 251.645 216.977C251.703 215.557 251.748 214.136 251.779 212.713C251.824 210.95 251.845 209.185 251.843 207.419C251.843 205.703 251.828 203.984 251.799 202.262C251.799 201.696 251.775 201.129 251.728 200.566C251.694 200.059 251.624 199.555 251.518 199.058C251.224 197.912 250.826 196.795 250.33 195.72C250.243 195.515 250.16 195.327 250.077 195.11C250.029 195.004 249.986 194.894 249.942 194.787C252.223 192.768 253.846 190.064 255.406 187.403C257.937 183.116 260.526 178.64 260.95 173.688C261.374 168.736 258.899 163.174 254.139 161.663C252.845 161.269 251.474 161.159 250.14 160.927C248.881 160.706 246.255 160.206 244.798 159.309C244.006 160.117 243.214 160.911 242.422 161.69C242.47 160.501 242.763 159.334 243.282 158.262L243.844 158.289C243.798 158.163 243.777 158.03 243.781 157.896C243.781 157.474 244.074 156.998 244.699 156.471C246.564 154.896 249.498 154.546 250.675 152.416C251.166 151.53 251.249 150.476 251.645 149.547C252.781 146.897 256.044 145.921 258.008 143.803C259.972 141.686 260.463 138.686 262.051 136.324C263.237 134.6 264.882 133.237 266.803 132.388C266.961 132.313 267.123 132.238 267.286 132.171C270.572 130.774 274.477 130.455 277.882 130.463C279.205 130.463 282.634 130.502 284.313 131.168C284.585 131.264 284.835 131.416 285.045 131.612C286.835 133.549 284.052 137.639 282.729 139.04Z" fill="#7272F4"/>
<path d="M243.416 157.986C246.475 157.071 249.687 156.769 252.864 157.098C256.041 157.427 259.121 158.381 261.924 159.903C264.775 161.478 267.333 163.674 268.902 166.509C271.258 170.76 271.155 175.885 270.988 180.738C270.905 183.167 270.798 185.683 269.721 187.863C268.474 190.387 266.122 192.119 263.722 193.536C262.219 194.489 260.572 195.197 258.844 195.634C256.183 196.208 253.419 195.72 250.738 195.24C247.824 194.705 244.695 194.059 242.672 191.902C241.484 190.65 240.835 189.025 240.193 187.434C239.272 185.138 238.348 182.844 237.421 180.553C235.817 176.574 235.275 173.263 237.393 169.386C238.356 167.619 239.532 165.965 240.482 164.186C240.957 163.281 242.66 158.219 243.416 157.986Z" fill="#7272F4"/>
<path d="M409.838 226.034V237.804C401.716 241.158 393.002 242.871 384.207 242.843H277.415C277.36 242.898 277.3 242.949 277.241 243L275.958 242.843H85.9948C70.0566 242.843 55.2866 238.568 43.1736 231.285V213.316L134.534 202.833H134.605L187.809 207.313L201.577 208.494L208.728 209.096L223.53 210.344L231.145 210.985L242.232 211.922L243.792 212.052L251.783 212.725L262.625 213.611L277.87 214.894L303.284 217.04L321.163 218.547L350.521 221.023L356.104 221.492L356.706 221.543L357.228 221.586L364.602 222.208L372.695 222.893L373.634 222.972L409.838 226.034Z" fill="#E0E0E0"/>
<path d="M302.528 225.601L188.035 206.175L183.596 228.491L236.079 234.738L252.239 236.749L296.691 228.046L302.528 225.601Z" fill="#9C9CA1"/>
<path d="M243.262 235.631L300.623 224.912C300.91 224.858 301.206 224.867 301.489 224.939C301.772 225.012 302.035 225.145 302.26 225.331C302.485 225.516 302.665 225.749 302.789 226.012C302.913 226.275 302.976 226.562 302.975 226.853C302.977 227.314 302.815 227.76 302.519 228.115C302.223 228.47 301.811 228.71 301.356 228.794L245.337 239.221L243.262 235.631Z" fill="#535461"/>
<path d="M268.145 201.924C269.931 201.759 271.741 201.479 273.348 200.692C275.328 199.712 276.869 198.023 278.702 196.779C282.733 194.024 288.126 193.654 292.747 195.236C297.368 196.819 301.225 200.208 303.926 204.254C305.72 206.951 307.066 210.391 305.799 213.367C305.364 214.277 304.816 215.128 304.167 215.902L300.865 220.193C300.237 221.095 299.483 221.902 298.624 222.59C297.388 223.484 295.852 223.85 294.339 224.07C290.32 224.653 286.229 224.322 282.179 224.59C275.221 225.05 268.426 227.278 261.453 227.203C257.446 227.16 253.49 226.357 249.574 225.554L232.242 222.011C229.224 221.397 225.815 220.5 224.393 217.78C223.756 216.556 223.637 215.138 223.562 213.761C223.356 209.966 223.562 205.746 226.207 203.01C228.694 200.444 232.626 199.633 235.596 197.736C239.231 195.409 240.431 196.161 244.264 197.909C251.742 201.275 259.969 202.659 268.145 201.924Z" fill="#FDA57D"/>
<path opacity="0.05" d="M268.145 201.924C269.931 201.759 271.741 201.479 273.348 200.692C275.328 199.712 276.869 198.023 278.702 196.779C282.733 194.024 288.126 193.654 292.747 195.236C297.368 196.819 301.225 200.208 303.926 204.254C305.72 206.951 307.066 210.391 305.799 213.367C305.364 214.277 304.816 215.128 304.167 215.902L300.865 220.193C300.237 221.095 299.483 221.902 298.624 222.59C297.388 223.484 295.852 223.85 294.339 224.07C290.32 224.653 286.229 224.322 282.179 224.59C275.221 225.05 268.426 227.278 261.453 227.203C257.446 227.16 253.49 226.357 249.574 225.554L232.242 222.011C229.224 221.397 225.815 220.5 224.393 217.78C223.756 216.556 223.637 215.138 223.562 213.761C223.356 209.966 223.562 205.746 226.207 203.01C228.694 200.444 232.626 199.633 235.596 197.736C239.231 195.409 240.431 196.161 244.264 197.909C251.742 201.275 259.969 202.659 268.145 201.924Z" fill="#FDA57D"/>
<path d="M337.746 196.527C332.884 198.397 327.993 200.275 322.901 201.389C314.364 203.258 305.431 202.963 296.961 205.101C292.486 206.234 288.039 208.061 283.442 207.691C281.387 207.525 279.403 206.903 277.403 206.431C266.169 203.676 253.399 204.569 244.276 211.655C241.155 214.076 238.601 217.095 236.285 220.315C235.789 221.01 235.454 221.806 235.304 222.645C235.153 223.484 235.191 224.346 235.415 225.169C235.638 225.992 236.042 226.755 236.597 227.405C237.152 228.055 237.844 228.575 238.625 228.927C242.173 230.549 245.974 231.557 249.863 231.907C255.062 232.364 260.285 231.632 265.456 230.9C273.131 229.817 280.809 228.731 288.463 227.514C291.211 227.077 293.959 226.625 296.723 226.278C316.613 223.779 336.863 226.818 356.805 224.731C358.82 224.519 360.872 224.243 362.705 223.389C367.346 221.224 369.643 215.516 368.684 210.501C367.726 205.486 364.028 201.318 359.577 198.759C355.847 196.606 351.823 195.736 347.67 194.823C343.813 193.929 341.461 195.11 337.746 196.527Z" fill="#FDA57D"/>
<path opacity="0.1" d="M380.405 166.548C382.599 169.406 383.066 173.24 382.828 176.818C382.591 180.396 381.736 183.935 381.609 187.529C381.435 192.457 382.63 197.37 382.429 202.282C382.286 205.719 381.466 209.088 380.496 212.387C379.352 216.28 377.697 220.464 374.081 222.334C369.282 224.818 359.216 223.42 354.167 225.365C354.627 222.519 359.03 218.398 359.489 215.552C359.806 213.583 360.127 211.56 359.786 209.588C359.351 207.073 357.866 204.841 356.104 202.983C353.3 200.027 349.641 197.803 345.622 197.078C341.603 196.354 331.763 196.948 328.548 199.472C328.152 196.866 335.517 194.354 338.107 193.791C339.397 193.504 340.878 193.665 341.912 192.851C343.892 191.308 342.454 188.233 342.549 185.765C342.625 183.797 343.781 181.994 344.015 180.026C344.411 176.877 342.343 173.669 343.155 170.579C343.456 169.437 344.125 168.433 344.589 167.347C345.998 164.021 345.381 160.226 344.628 156.691C344.161 154.471 343.706 151.967 344.949 150.074C346.101 148.307 349.372 154.601 351.467 154.31C358.385 153.345 364.645 148.248 370.232 152.42C373.079 154.546 373.452 156.75 374.588 159.785C375.693 162.674 378.556 164.154 380.405 166.548Z" fill="black"/>
<path d="M381.593 166.548C383.787 169.406 384.254 173.24 384.016 176.818C383.779 180.396 382.924 183.935 382.797 187.529C382.623 192.457 383.818 197.37 383.617 202.282C383.474 205.719 382.654 209.088 381.684 212.387C380.54 216.28 378.885 220.464 375.269 222.334C370.47 224.818 360.404 223.421 355.355 225.365C355.815 222.519 360.218 218.398 360.677 215.552C360.994 213.584 361.315 211.56 360.974 209.588C360.539 207.073 359.054 204.841 357.292 202.983C354.488 200.027 350.829 197.803 346.81 197.078C342.791 196.354 332.951 196.948 329.736 199.472C329.34 196.866 336.705 194.354 339.295 193.791C340.585 193.504 342.066 193.665 343.1 192.851C345.08 191.308 343.642 188.233 343.737 185.765C343.813 183.797 344.969 181.994 345.203 180.026C345.599 176.877 343.531 173.669 344.343 170.579C344.644 169.437 345.313 168.433 345.777 167.347C347.186 164.021 346.569 160.226 345.816 156.691C345.349 154.471 344.894 151.968 346.137 150.074C347.289 148.307 349.542 147.637 351.637 147.342C358.651 146.399 365.757 148.222 371.436 152.42C374.283 154.546 374.655 156.75 375.792 159.785C376.881 162.674 379.744 164.155 381.593 166.548Z" fill="#7272F4"/>
<path d="M119.586 147.897L141.115 226.995C141.379 227.964 141.934 228.83 142.706 229.478C143.478 230.125 144.43 230.524 145.435 230.62L242.339 239.874C243.129 239.95 243.926 239.837 244.662 239.543C245.399 239.25 246.054 238.786 246.573 238.189C247.091 237.592 247.459 236.881 247.644 236.114C247.829 235.347 247.827 234.547 247.637 233.781L224.061 138.371C223.78 137.237 223.104 136.239 222.153 135.553C221.202 134.868 220.037 134.54 218.866 134.628L123.993 141.682C123.265 141.738 122.558 141.953 121.923 142.312C121.288 142.672 120.74 143.166 120.319 143.759C119.898 144.353 119.614 145.031 119.487 145.747C119.361 146.462 119.394 147.196 119.586 147.897Z" fill="#535461"/>
<path d="M311.679 163.332C317.562 163.332 322.331 158.529 322.331 152.605C322.331 146.681 317.562 141.879 311.679 141.879C305.796 141.879 301.027 146.681 301.027 152.605C301.027 158.529 305.796 163.332 311.679 163.332Z" fill="white"/>
<path d="M320.426 133.038C320.426 133.038 322.671 139.674 316.047 142.465L315.199 143.937L319.349 148.008C319.349 148.008 324.465 138.73 323.911 135.435C323.911 135.435 323.119 132.089 320.426 133.038Z" fill="white"/>
<path d="M312.903 163.332C318.575 163.332 323.174 158.76 323.174 153.121C323.174 147.482 318.575 142.91 312.903 142.91C307.23 142.91 302.631 147.482 302.631 153.121C302.631 158.76 307.23 163.332 312.903 163.332Z" fill="#000066"/>
<path d="M323.962 136.942L322.331 134.266L319.955 133.931C320.462 125.118 318.161 122.492 318.161 122.492L317.627 122.441L315.298 122.217L310.919 117.698V116.414C317.072 117.143 320.474 120.048 322.311 123.453C325.558 129.428 323.962 136.942 323.962 136.942Z" fill="#000066"/>
<path opacity="0.1" d="M317.646 120.819V122.441L315.318 122.216L310.938 117.698C310.938 117.698 317.714 119.205 317.646 120.819Z" fill="black" stroke="#4C4981" stroke-miterlimit="10"/>
<path opacity="0.1" d="M323.962 136.942L322.331 134.266V123.468C325.558 129.428 323.962 136.942 323.962 136.942Z" fill="black" stroke="#4C4981" stroke-miterlimit="10"/>
<path d="M293.922 157.318C296.655 155.75 296.537 150.461 293.659 145.506C290.781 140.55 286.233 137.805 283.5 139.373C280.767 140.942 280.884 146.23 283.762 151.186C286.64 156.141 291.189 158.887 293.922 157.318Z" fill="white"/>
<path d="M290.252 147.48C293.131 152.436 296.663 155.746 293.931 157.321C291.199 158.895 283.24 158.108 280.361 153.148C277.482 148.188 280.096 141.339 282.828 139.765C285.56 138.19 287.37 142.512 290.252 147.48Z" fill="#000066"/>
<path opacity="0.1" d="M315.884 111.777C315.884 127.613 304.983 142.874 289.053 142.874C281.402 142.874 274.065 139.853 268.655 134.475C263.245 129.097 260.206 121.803 260.206 114.198C260.206 106.592 263.245 99.2985 268.655 93.9206C274.065 88.5427 281.402 85.5215 289.053 85.5215C304.983 85.5372 315.884 95.9371 315.884 111.777Z" fill="black"/>
<path d="M289.053 142.103C304.984 142.103 317.9 129.264 317.9 113.426C317.9 97.5889 304.984 84.75 289.053 84.75C273.121 84.75 260.206 97.5889 260.206 113.426C260.206 129.264 273.121 142.103 289.053 142.103Z" fill="#FDA57D"/>
<path d="M286.518 100.72C289.952 101.975 291.983 105.502 295.064 107.467C299.419 110.222 305.09 109.51 310.063 108.148C312.835 107.396 315.734 106.479 318.462 107.313C318.863 107.49 319.306 107.553 319.741 107.494C320.335 107.325 320.628 106.672 320.822 106.089C324.196 96.0906 322.679 84.7657 317.587 75.5152C316.272 73.1298 314.696 70.8231 312.526 69.1659C310.816 67.8629 308.804 67.0087 306.777 66.2805C303.072 64.9577 299.239 64.0172 295.341 63.4739C294.652 63.3495 293.949 63.327 293.254 63.407C292.3 63.5605 291.444 64.0722 290.593 64.5288C286.947 66.4719 282.903 67.5636 278.769 67.7212C273.225 67.9298 266.89 66.6308 262.617 70.1657C257.469 74.4052 258.752 82.6755 255.414 88.4304C253.205 92.2369 248.944 95.0002 248.243 99.3342C248.061 100.659 248.145 102.006 248.493 103.298C250.124 109.966 256.618 115.131 263.54 115.253C264.603 115.333 265.667 115.117 266.613 114.627C267.232 114.207 267.779 113.69 268.232 113.096C272.766 107.758 277.953 97.5864 286.518 100.72Z" fill="#444053"/>
<path opacity="0.1" d="M320.822 103.188C320.628 103.77 320.335 104.424 319.741 104.593C319.306 104.651 318.864 104.589 318.462 104.412C315.734 103.578 312.82 104.495 310.067 105.247C305.09 106.609 299.408 107.337 295.068 104.566C291.983 102.597 289.956 99.0547 286.519 97.8187C277.954 94.6696 272.766 104.857 268.22 110.195C267.767 110.789 267.22 111.306 266.601 111.726C265.655 112.216 264.591 112.432 263.528 112.352C256.63 112.23 250.132 107.065 248.481 100.397C248.39 100.003 248.311 99.6097 248.251 99.2161C248.251 99.2515 248.251 99.283 248.231 99.3184C248.049 100.643 248.134 101.991 248.481 103.282C250.112 109.951 256.61 115.115 263.528 115.237C264.591 115.318 265.655 115.101 266.601 114.611C267.22 114.191 267.767 113.674 268.22 113.08C272.766 107.742 277.954 97.5707 286.519 100.704C289.956 101.96 291.983 105.487 295.068 107.451C299.424 110.206 305.09 109.494 310.067 108.132C312.839 107.38 315.734 106.463 318.462 107.297C318.864 107.474 319.306 107.537 319.741 107.479C320.335 107.309 320.628 106.656 320.822 106.073C322.183 101.982 322.784 97.6793 322.596 93.3745C322.48 96.7131 321.882 100.018 320.822 103.188Z" fill="black"/>
</g>
<defs>
<clipPath id="clip0">
<rect width="453" height="243" fill="white"/>
</clipPath>
</defs>
</svg>
