<svg width="414" height="243" viewBox="0 0 414 243" fill="none" xmlns="http://www.w3.org/2000/svg">
<g clip-path="url(#clip0)">
<g opacity="0.7">
<path opacity="0.7" d="M78.7223 178.069C79.2123 176.372 79.0939 174.587 78.3826 172.948C77.6713 171.31 76.4005 169.896 74.7376 168.892C73.8597 168.382 72.8795 167.993 72.0698 167.406C70.7188 166.426 69.9389 164.983 69.3934 163.541C68.0553 160.083 67.6334 156.199 65.2894 153.075C63.1586 150.231 58.9991 149.405 55.3127 149.115C53.9703 149.012 52.5597 148.957 51.3323 149.438C49.2782 150.238 48.298 152.327 48.2042 154.268C48.1104 156.21 48.6986 158.123 48.8435 160.061C48.9884 161.999 48.5878 164.131 46.9299 165.446C45.2721 166.76 42.8941 166.914 40.6908 167.178C37.8062 167.523 34.972 168.13 32.2356 168.988C29.9385 169.722 27.3772 171.01 27.2707 173.11C27.1812 174.828 28.7921 176.201 30.0024 177.57C32.2654 180.139 33.4118 183.502 32.6276 186.648C31.8435 189.793 29.2183 192.598 28.7623 195.843C28.5897 196.667 28.7224 197.517 29.1416 198.273C29.5086 198.786 29.9929 199.229 30.565 199.576C31.9841 200.519 33.5482 201.279 34.9119 202.303C37.7119 204.439 39.229 207.541 40.3967 210.602C40.5075 210.896 40.6098 211.197 40.7164 211.491H37.9633C35.272 211.503 32.6949 212.429 30.7907 214.067C28.8864 215.705 27.8085 217.924 27.7906 220.242C27.8029 222.564 28.8795 224.789 30.7862 226.431C32.6929 228.073 35.2754 229 37.9718 229.011H65.4599C68.1563 229 70.7388 228.073 72.6455 226.431C74.5522 224.789 75.6288 222.564 75.6411 220.242C75.6288 217.919 74.5522 215.695 72.6455 214.053C70.7388 212.41 68.1563 211.483 65.4599 211.472H57.9252C59.7066 209.417 61.5689 207.486 64.3177 206.701C67.0666 205.915 70.3949 206.374 72.5514 204.722C73.5655 203.865 74.2231 202.744 74.4223 201.532C74.8783 199.373 74.4521 197.145 73.2162 195.226C72.3639 193.893 71.0853 192.686 70.8083 191.188C70.5739 189.9 71.1152 188.593 71.8482 187.448C73.9279 184.192 77.6058 181.663 78.7223 178.069Z" fill="url(#paint0_linear)"/>
</g>
<path d="M55.2146 151.02C53.9361 150.921 52.5937 150.869 51.426 151.328C49.4698 152.091 48.5365 154.081 48.4428 155.927C48.349 157.774 48.9158 159.598 49.0522 161.433C49.1886 163.269 48.8093 165.31 47.2282 166.572C45.6471 167.835 43.3926 167.971 41.2873 168.221C38.5405 168.552 35.842 169.133 33.237 169.953C31.0507 170.639 28.613 171.877 28.5107 173.881C28.4255 175.518 29.9597 176.817 31.1146 178.128C33.2711 180.565 34.345 183.777 33.612 186.772C32.879 189.767 30.3816 192.44 29.9299 195.53C29.7663 196.315 29.893 197.124 30.2921 197.843C30.6428 198.332 31.1054 198.754 31.6516 199.084C33.0026 199.983 34.5112 200.706 35.7897 201.683C38.4576 203.716 39.898 206.671 41.0146 209.586C42.1055 212.451 42.96 215.379 43.5716 218.348C45.8687 217.074 48.8391 217.092 51.2896 216.057C56.5102 213.855 58.266 207.468 63.7764 205.878C66.3846 205.144 69.5638 205.566 71.618 203.995C72.5833 203.18 73.2095 202.113 73.3994 200.959C73.8328 198.903 73.4262 196.781 72.2487 194.954C71.4262 193.684 70.2159 192.535 69.9559 191.096C69.73 189.867 70.25 188.626 70.9446 187.536C72.9263 184.434 76.4294 182.03 77.4991 178.605C77.9659 176.989 77.8533 175.288 77.1763 173.728C76.4992 172.168 75.2894 170.821 73.7062 169.865C72.825 169.433 71.9714 168.96 71.1492 168.448C69.8707 167.516 69.1334 166.139 68.5922 164.777C67.3136 161.474 66.9173 157.803 64.6842 154.811C62.6812 152.08 58.7263 151.291 55.2146 151.02Z" fill="#4DB6AC"/>
<path opacity="0.6" d="M55.1762 151.134C55.1762 151.134 60.0218 207.079 47.4199 216.681" stroke="#535461" stroke-miterlimit="10"/>
<path d="M68.0894 210.419H35.4788C31.9012 210.419 29.001 212.917 29.001 215.998V221.541C29.001 224.623 31.9012 227.121 35.4788 227.121H68.0894C71.667 227.121 74.5672 224.623 74.5672 221.541V215.998C74.5672 212.917 71.667 210.419 68.0894 210.419Z" fill="#7272F4"/>
<path opacity="0.6" d="M28.5195 172.842C28.5195 172.842 40.9126 171.598 56.0459 179.526" stroke="#535461" stroke-miterlimit="10"/>
<path opacity="0.6" d="M55.8027 186.203C55.8027 186.203 62.6897 176.392 77.4778 174.516" stroke="#535461" stroke-miterlimit="10"/>
<path opacity="0.6" d="M29.7129 195.597C29.7129 195.597 46.8919 193.09 54.7846 197.267" stroke="#535461" stroke-miterlimit="10"/>
<path opacity="0.6" d="M53.8213 202.99C53.8213 202.99 62.8135 199.477 72.9308 202.329" stroke="#535461" stroke-miterlimit="10"/>
<g opacity="0.7">
<path opacity="0.7" d="M381.632 199.752V193.732H346.686V221.563C346.686 223.121 347.404 224.615 348.683 225.716C349.962 226.817 351.696 227.436 353.505 227.436H374.813C376.622 227.436 378.356 226.817 379.635 225.716C380.914 224.615 381.632 223.121 381.632 221.563V215.396C384.041 215.396 386.351 214.572 388.054 213.105C389.757 211.638 390.714 209.649 390.714 207.574C390.714 205.5 389.757 203.51 388.054 202.043C386.351 200.576 384.041 199.752 381.632 199.752ZM381.632 212.39V202.762C382.379 202.744 383.123 202.855 383.819 203.089C384.515 203.323 385.15 203.675 385.685 204.124C386.221 204.573 386.647 205.109 386.937 205.702C387.228 206.295 387.378 206.932 387.378 207.576C387.378 208.22 387.228 208.857 386.937 209.45C386.647 210.043 386.221 210.579 385.685 211.028C385.15 211.477 384.515 211.829 383.819 212.063C383.123 212.296 382.379 212.408 381.632 212.39Z" fill="url(#paint1_linear)"/>
</g>
<path d="M380.512 200.692C378.871 200.692 377.268 201.111 375.904 201.895C374.54 202.68 373.477 203.796 372.85 205.101C372.222 206.407 372.058 207.843 372.378 209.228C372.698 210.614 373.487 211.887 374.647 212.886C375.807 213.885 377.285 214.565 378.894 214.841C380.502 215.116 382.17 214.975 383.685 214.434C385.201 213.894 386.496 212.978 387.407 211.803C388.318 210.629 388.805 209.248 388.805 207.835C388.805 206.897 388.59 205.968 388.174 205.101C387.757 204.235 387.146 203.447 386.376 202.784C385.606 202.121 384.691 201.594 383.685 201.235C382.679 200.876 381.601 200.692 380.512 200.692ZM380.512 212.229C379.5 212.229 378.511 211.97 377.67 211.486C376.829 211.002 376.174 210.314 375.787 209.51C375.4 208.705 375.298 207.819 375.496 206.964C375.693 206.11 376.18 205.325 376.895 204.709C377.611 204.093 378.522 203.674 379.514 203.504C380.506 203.334 381.534 203.421 382.469 203.754C383.403 204.088 384.202 204.652 384.764 205.377C385.326 206.101 385.626 206.953 385.626 207.824C385.626 208.403 385.494 208.976 385.238 209.511C384.981 210.045 384.604 210.531 384.129 210.941C383.654 211.35 383.09 211.675 382.47 211.897C381.849 212.118 381.184 212.232 380.512 212.232V212.229Z" fill="#6C63FF"/>
<path opacity="0.1" d="M380.512 200.692C378.871 200.692 377.268 201.111 375.904 201.895C374.54 202.68 373.477 203.796 372.85 205.101C372.222 206.407 372.058 207.843 372.378 209.228C372.698 210.614 373.487 211.887 374.647 212.886C375.807 213.885 377.285 214.565 378.894 214.841C380.502 215.116 382.17 214.975 383.685 214.434C385.201 213.894 386.496 212.978 387.407 211.803C388.318 210.629 388.805 209.248 388.805 207.835C388.805 206.897 388.59 205.968 388.174 205.101C387.757 204.235 387.146 203.447 386.376 202.784C385.606 202.121 384.691 201.594 383.685 201.235C382.679 200.876 381.601 200.692 380.512 200.692ZM380.512 212.229C379.5 212.229 378.511 211.97 377.67 211.486C376.829 211.002 376.174 210.314 375.787 209.51C375.4 208.705 375.298 207.819 375.496 206.964C375.693 206.11 376.18 205.325 376.895 204.709C377.611 204.093 378.522 203.674 379.514 203.504C380.506 203.334 381.534 203.421 382.469 203.754C383.403 204.088 384.202 204.652 384.764 205.377C385.326 206.101 385.626 206.953 385.626 207.824C385.626 208.403 385.494 208.976 385.238 209.511C384.981 210.045 384.604 210.531 384.129 210.941C383.654 211.35 383.09 211.675 382.47 211.897C381.849 212.118 381.184 212.232 380.512 212.232V212.229Z" fill="black"/>
<path d="M348.608 195.2H380.503V222.389C380.503 223.338 380.065 224.249 379.286 224.92C378.507 225.591 377.45 225.968 376.348 225.968H352.772C351.67 225.968 350.613 225.591 349.834 224.92C349.055 224.249 348.617 223.338 348.617 222.389V195.2H348.608Z" fill="#7272F4"/>
<path d="M414 225.968H0V238.056H414V225.968Z" fill="#E0E0E0"/>
<g opacity="0.7">
<path opacity="0.7" d="M272.311 145.087C267.874 131.216 242.718 121.085 223.791 118.838C223.791 118.735 223.791 118.632 223.791 118.53V106.659H223.851V106.192C230.567 104.04 236.628 100.601 241.575 96.1352C246.521 91.6692 250.224 86.2931 252.404 80.4132C253.574 78.5909 254.593 76.6994 255.452 74.753C257.472 74.118 258.997 71.2511 258.997 67.8007C259.005 66.6206 258.812 65.4458 258.426 64.3135C258.674 62.5572 258.801 60.7897 258.806 59.0204C258.813 52.8357 257.311 46.7188 254.396 41.0667C251.481 35.4145 247.219 30.3533 241.887 26.2117C242.046 25.501 242.1 24.7758 242.048 24.0533C241.622 18.3528 234.552 14.4802 227.929 14.2232C229.679 12.5133 230.83 10.4106 231.247 8.15973C231.664 5.90882 231.331 3.60215 230.286 1.50793C226.063 6.80842 217.39 7.38104 209.928 7.41408C213.15 6.33857 214.616 2.49535 212.724 -0.00439453C204.925 8.99982 189.71 10.67 180.437 18.5657C178.415 20.2936 176.721 22.2841 175.417 24.4645C169.387 28.6016 164.519 33.857 161.175 39.8394C157.831 45.8219 156.097 52.377 156.102 59.0167C156.106 60.7699 156.23 62.5215 156.473 64.2621C156.076 65.4089 155.877 66.6002 155.885 67.797C155.885 71.2622 157.424 74.14 159.461 74.7713C160.323 76.7244 161.345 78.622 162.521 80.4499C164.692 86.2971 168.371 91.6456 173.282 96.0952C178.193 100.545 184.208 103.98 190.878 106.145V118.552C190.878 118.647 190.878 118.743 190.878 118.838C171.879 121.04 146.522 131.256 142.124 145.238C138.327 157.314 134.274 170.565 132.254 178.362C149.544 188.827 185.819 194.968 208.539 194.968C230.141 194.968 265.445 189.422 282.228 179.896C280.455 171.322 276.274 157.472 272.311 145.087Z" fill="url(#paint2_linear)"/>
</g>
<path d="M208.539 191.507C229.378 191.507 263.434 186.159 279.624 176.968C277.872 168.716 273.837 155.358 270.014 143.407C265.147 128.184 234.416 117.631 216.086 117.631H198.421C180.032 117.631 149.262 128.243 144.455 143.532C140.79 155.182 136.882 167.975 134.935 175.485C151.598 185.583 186.608 191.507 208.539 191.507Z" fill="#7272F4"/>
<path d="M207.464 103.051C234.824 103.051 257.003 83.948 257.003 60.383C257.003 36.818 234.824 17.7148 207.464 17.7148C180.105 17.7148 157.926 36.818 157.926 60.383C157.926 83.948 180.105 103.051 207.464 103.051Z" fill="#72351C"/>
<path opacity="0.1" d="M191.475 95.9189H223.216V117.789C223.216 121.414 221.544 124.891 218.567 127.455C215.591 130.018 211.554 131.459 207.345 131.459C203.136 131.459 199.099 130.018 196.123 127.455C193.147 124.891 191.475 121.414 191.475 117.789V95.9189Z" fill="black"/>
<path d="M196.039 94.9058H218.673C219.88 94.9058 221.037 95.3188 221.891 96.054C222.745 96.7892 223.224 97.7863 223.224 98.8261V116.776C223.224 120.401 221.552 123.878 218.576 126.442C215.599 129.005 211.563 130.445 207.354 130.445C205.269 130.445 203.206 130.092 201.28 129.405C199.355 128.718 197.605 127.711 196.131 126.442C194.658 125.172 193.489 123.665 192.691 122.007C191.893 120.348 191.483 118.571 191.483 116.776V98.8261C191.483 98.3109 191.601 97.8009 191.83 97.325C192.059 96.8491 192.394 96.4168 192.818 96.0527C193.241 95.6886 193.743 95.3999 194.296 95.2031C194.848 95.0063 195.441 94.9053 196.039 94.9058Z" fill="#FDA57D"/>
<path opacity="0.1" d="M191.534 106.241C201.764 109.534 213.024 109.561 223.275 106.318V102.959H191.534V106.241Z" fill="black"/>
<path d="M207.465 108.073C232.59 108.073 252.958 90.5291 252.958 68.888C252.958 47.2469 232.59 29.7034 207.465 29.7034C182.339 29.7034 161.971 47.2469 161.971 68.888C161.971 90.5291 182.339 108.073 207.465 108.073Z" fill="#FDA57D"/>
<path opacity="0.1" d="M175.037 33.2418C175.037 33.2418 194.215 66.7626 248.296 47.2895L235.724 30.2869L213.393 23.386L175.037 33.2418Z" fill="black"/>
<path d="M175.037 32.7499C175.037 32.7499 194.215 66.2707 248.296 46.7976L235.724 29.7913L213.393 22.8904L175.037 32.7499Z" fill="#72351C"/>
<path d="M174.888 30.4851C176.181 27.0381 178.416 23.9087 181.404 21.3598C190.354 13.7394 205.023 12.1317 212.549 3.44312C214.356 5.85476 212.975 9.56216 209.851 10.5973C217.049 10.5569 225.415 10.0137 229.489 4.90038C230.496 6.92049 230.817 9.14534 230.414 11.3163C230.011 13.4872 228.901 15.5151 227.213 17.1642C233.606 17.4138 240.425 21.1505 240.851 26.6456C241.128 30.3163 238.46 33.7777 234.965 35.8774C231.471 37.977 227.243 38.9424 223.08 39.7316C210.917 42.0441 166.94 51.7128 174.888 30.4851Z" fill="#72351C"/>
<path d="M252.958 69.2293H251.748L228.283 87.2157C205.696 78.094 189.075 87.2157 189.075 87.2157L164.464 69.9634L161.983 70.2314C162.31 80.5219 167.325 90.2884 175.945 97.4197C184.564 104.551 196.095 108.475 208.046 108.342C219.997 108.209 231.407 104.031 239.811 96.7111C248.214 89.3908 252.935 79.5163 252.954 69.2219L252.958 69.2293ZM207.392 94.1239C198.54 94.1239 191.368 92.5785 191.368 90.6735C191.368 88.7684 198.545 87.223 207.392 87.223C216.239 87.223 223.416 88.7684 223.416 90.6735C223.416 92.5785 216.244 94.1239 207.392 94.1239Z" fill="#72351C"/>
<path d="M161.95 75.686C164.287 75.686 166.182 72.626 166.182 68.8512C166.182 65.0764 164.287 62.0164 161.95 62.0164C159.612 62.0164 157.718 65.0764 157.718 68.8512C157.718 72.626 159.612 75.686 161.95 75.686Z" fill="#FDA57D"/>
<path d="M252.954 75.686C255.291 75.686 257.186 72.626 257.186 68.8512C257.186 65.0764 255.291 62.0164 252.954 62.0164C250.617 62.0164 248.722 65.0764 248.722 68.8512C248.722 72.626 250.617 75.686 252.954 75.686Z" fill="#FDA57D"/>
<g opacity="0.7">
<path opacity="0.7" d="M288.85 138.642H125.149C121.736 138.642 118.97 141.025 118.97 143.965V220.642C118.97 223.581 121.736 225.964 125.149 225.964H288.85C292.263 225.964 295.03 223.581 295.03 220.642V143.965C295.03 141.025 292.263 138.642 288.85 138.642Z" fill="url(#paint3_linear)"/>
</g>
<path d="M280.404 140.253H133.596C127.279 140.253 122.158 144.664 122.158 150.106V216.112C122.158 221.553 127.279 225.964 133.596 225.964H280.404C286.721 225.964 291.842 221.553 291.842 216.112V150.106C291.842 144.664 286.721 140.253 280.404 140.253Z" fill="#535461"/>
<path d="M207 188.057C210.17 188.057 212.74 185.843 212.74 183.113C212.74 180.382 210.17 178.168 207 178.168C203.829 178.168 201.259 180.382 201.259 183.113C201.259 185.843 203.829 188.057 207 188.057Z" fill="white"/>
<path d="M396.454 238.056H17.541V243H396.454V238.056Z" fill="#E0E0E0"/>
<path opacity="0.1" d="M396.454 238.056H17.541V239.704H396.454V238.056Z" fill="black"/>
<path opacity="0.1" d="M374.771 195.2V220.609C374.771 222.029 374.116 223.391 372.95 224.396C371.784 225.4 370.202 225.964 368.553 225.964H371.741C373.39 225.964 374.972 225.4 376.138 224.396C377.304 223.391 377.959 222.029 377.959 220.609V195.2H374.771Z" fill="black"/>
<path d="M354.907 174.725C354.37 174.806 353.761 174.931 353.497 175.342C353.071 175.995 353.838 176.733 354.528 177.177C355.807 178.007 357.153 178.822 358.023 179.978C358.892 181.134 359.165 182.749 358.214 183.861C356.974 185.311 354.017 185.62 353.731 187.404C353.548 188.549 354.694 189.525 355.862 190.098C358.734 191.515 362.438 191.893 364.522 194.11C365.374 192.587 367.309 191.706 369.21 191.328C371.11 190.95 373.122 190.979 375.07 190.726C375.696 190.645 376.403 190.48 376.685 189.991C377.23 189.041 375.679 187.899 376.212 186.945C376.638 186.211 377.814 186.273 378.688 185.983C380.111 185.51 380.695 183.931 380.294 182.679C379.894 181.428 378.752 180.422 377.55 179.611C374.319 177.408 370.433 176.138 366.499 175.206C364.671 174.776 362.523 174.105 360.627 174.035C358.815 173.958 356.723 174.45 354.907 174.725Z" fill="#EEEEEE"/>
</g>
<defs>
<linearGradient id="paint0_linear" x1="27.2749" y1="189.037" x2="79.0377" y2="189.037" gradientUnits="userSpaceOnUse">
<stop stop-color="#808080" stop-opacity="0.25"/>
<stop offset="0.54" stop-color="#808080" stop-opacity="0.12"/>
<stop offset="1" stop-color="#808080" stop-opacity="0.1"/>
</linearGradient>
<linearGradient id="paint1_linear" x1="43469.7" y1="25087.4" x2="43469.7" y2="21993" gradientUnits="userSpaceOnUse">
<stop stop-color="#808080" stop-opacity="0.25"/>
<stop offset="0.54" stop-color="#808080" stop-opacity="0.12"/>
<stop offset="1" stop-color="#808080" stop-opacity="0.1"/>
</linearGradient>
<linearGradient id="paint2_linear" x1="90214.1" y1="126754" x2="90214.1" y2="23201.7" gradientUnits="userSpaceOnUse">
<stop stop-color="#808080" stop-opacity="0.25"/>
<stop offset="0.54" stop-color="#808080" stop-opacity="0.12"/>
<stop offset="1" stop-color="#808080" stop-opacity="0.1"/>
</linearGradient>
<linearGradient id="paint3_linear" x1="85634.8" y1="53894.2" x2="85634.8" y2="33120.2" gradientUnits="userSpaceOnUse">
<stop stop-color="#808080" stop-opacity="0.25"/>
<stop offset="0.54" stop-color="#808080" stop-opacity="0.12"/>
<stop offset="1" stop-color="#808080" stop-opacity="0.1"/>
</linearGradient>
<clipPath id="clip0">
<rect width="414" height="243" fill="white"/>
</clipPath>
</defs>
</svg>
