<svg width="351" height="243" viewBox="0 0 351 243" fill="none" xmlns="http://www.w3.org/2000/svg">
<g clip-path="url(#clip0)">
<path d="M38.0089 46.2596L39.0515 47.7737L41.5077 46.124L43.0772 49.0569L40.9289 50.5014L46.142 58.0756L42.7656 60.3413L37.5488 52.7634L36.0164 53.7936L34.1353 51.0733L35.6676 50.0431L34.6324 48.5436C34.6324 48.5436 32.3728 45.849 34.792 43.5613L38.1684 41.2957L39.8381 43.7227L38.3057 44.7528C38.0672 44.9162 37.9027 45.1651 37.8472 45.4466C37.7918 45.7281 37.8498 46.0198 38.0089 46.2596Z" fill="url(#paint0_linear)"/>
<path d="M38.7511 45.1598L39.7937 46.6739L42.2499 45.0241L43.8194 47.957L41.6711 49.4015L46.8842 56.9758L43.5077 59.2415L38.291 51.6635L36.7586 52.6937L34.8774 49.9734L36.4098 48.9432L35.3746 47.4438C35.3746 47.4438 33.115 44.7492 35.5342 42.4615L38.9106 40.1958L40.5803 42.6228L39.0479 43.653C38.8094 43.8163 38.6449 44.0653 38.5894 44.3467C38.534 44.6282 38.592 44.9199 38.7511 45.1598Z" fill="#3B5998"/>
<path d="M116.505 11.7316L118.36 11.365C118.36 11.365 116.802 13.0881 116.505 13.1981C116.478 13.5642 116.478 13.9318 116.505 14.2979C112.943 29.4024 99.8086 22.7301 99.8086 22.7301C104.595 22.84 105.003 20.897 105.003 20.897C102.22 20.4937 101.664 18.6973 101.664 18.6973C101.913 18.8274 102.203 18.862 102.477 18.7943C102.751 18.7267 102.99 18.5616 103.148 18.3307C100.143 17.5608 100.551 14.6645 100.551 14.6645C101.086 15.0467 101.712 15.2865 102.369 15.3611C102.035 14.9578 99.2149 11.6216 100.922 9.89851C100.922 9.89851 102.999 13.5647 108.454 13.8946L108.825 13.8213C108.762 13.5572 108.737 13.2857 108.751 13.0147C108.751 11.9938 109.161 11.0147 109.892 10.2928C110.622 9.57085 111.613 9.16528 112.646 9.16528C115.244 9.16528 115.8 10.6317 115.8 10.6317L117.655 9.5319C117.618 9.5319 117.433 11.365 116.505 11.7316Z" fill="url(#paint1_linear)"/>
<path d="M117.247 10.6317L119.103 10.2651C119.103 10.2651 117.544 11.9882 117.247 12.0982C117.22 12.4643 117.22 12.8319 117.247 13.198C113.685 28.3026 100.551 21.6302 100.551 21.6302C105.337 21.7402 105.745 19.7971 105.745 19.7971C102.963 19.3938 102.406 17.5974 102.406 17.5974C102.656 17.7276 102.945 17.7621 103.219 17.6945C103.493 17.6268 103.732 17.4617 103.89 17.2308C100.885 16.4609 101.293 13.5647 101.293 13.5647C101.829 13.9468 102.455 14.1867 103.111 14.2612C102.777 13.858 99.9571 10.5218 101.664 8.79866C101.664 8.79866 103.742 12.4648 109.196 12.7948L109.567 12.7214C109.504 12.4574 109.479 12.1859 109.493 11.9149C109.493 10.894 109.903 9.91483 110.634 9.19291C111.364 8.471 112.355 8.06543 113.389 8.06543C115.986 8.06543 116.542 9.53189 116.542 9.53189L118.398 8.43205C118.361 8.43205 118.175 10.2651 117.247 10.6317Z" fill="#00ACED"/>
<path d="M246.305 26.4917L248.338 19.581C248.338 19.581 248.371 18.0265 246.962 17.6966C245.552 17.3666 245.025 17.4436 244.168 18.0009L242.031 25.2525L238.469 24.226L241.685 13.3155L245.247 14.342L244.769 15.9625C244.769 15.9625 246.624 14.0487 248.943 14.9103C251.11 15.6875 252.353 17.4949 251.87 20.4499L251.941 20.4718L249.863 27.5109L246.305 26.4917ZM237.834 10.6869C237.411 10.5651 237.035 10.3221 236.752 9.98881C236.469 9.65549 236.292 9.24675 236.244 8.81427C236.197 8.38178 236.28 7.94499 236.483 7.55913C236.686 7.17326 237.001 6.85565 237.387 6.64646C237.773 6.43727 238.213 6.3459 238.652 6.38389C239.09 6.42189 239.508 6.58755 239.851 6.85992C240.195 7.13229 240.448 7.49915 240.581 7.91409C240.713 8.32904 240.718 8.77344 240.595 9.1911C240.513 9.46841 240.376 9.72707 240.193 9.95232C240.01 10.1776 239.784 10.365 239.528 10.5039C239.272 10.6428 238.99 10.7304 238.699 10.7618C238.409 10.7932 238.115 10.7678 237.834 10.6869ZM235.979 23.5184L232.417 22.4919L235.634 11.5814L239.196 12.6079L235.979 23.5184Z" fill="url(#paint2_linear)"/>
<path d="M247.047 25.3918L249.08 18.4811C249.08 18.4811 249.114 16.9267 247.704 16.5967C246.294 16.2668 245.767 16.3438 244.91 16.901L242.773 24.1527L239.211 23.1261L242.428 12.2157L245.99 13.2422L245.511 14.8626C245.511 14.8626 247.366 12.9489 249.685 13.8104C251.852 14.5877 253.095 16.3951 252.613 19.35L252.683 19.372L250.605 26.411L247.047 25.3918ZM238.576 9.58703C238.154 9.46522 237.777 9.22229 237.494 8.88896C237.211 8.55564 237.034 8.14689 236.987 7.71441C236.939 7.28193 237.022 6.84514 237.225 6.45927C237.429 6.07341 237.743 5.7558 238.129 5.54661C238.515 5.33742 238.955 5.24605 239.394 5.28404C239.833 5.32204 240.25 5.48769 240.593 5.76007C240.937 6.03244 241.191 6.3993 241.323 6.81424C241.455 7.22919 241.46 7.67359 241.337 8.09124C241.255 8.36856 241.119 8.62722 240.936 8.85247C240.753 9.07772 240.526 9.26515 240.27 9.40405C240.014 9.54294 239.732 9.63059 239.442 9.66199C239.151 9.69339 238.857 9.66792 238.576 9.58703ZM236.721 22.4186L233.159 21.392L236.376 10.4816L239.938 11.5081L236.721 22.4186Z" fill="#0077B5"/>
<path d="M314.267 40.1443C313.859 42.0874 313.562 44.727 309.444 45.6435C309.444 45.6435 307.032 46.2668 306.253 44.5437C305.771 46.4134 305.288 48.1365 304.991 48.5765C304.434 49.473 303.814 50.3305 303.136 51.1428C303.136 51.1428 303.47 47.8432 303.507 47.11C303.544 45.9735 304.62 40.8775 304.62 40.8775C304.62 40.8775 303.619 37.2847 306.105 36.8448C306.105 36.8448 308.145 36.3682 307.589 39.0445C307.589 39.0445 307.181 40.8042 306.661 42.8206L306.847 43.0772C306.991 43.3613 307.201 43.6084 307.458 43.7992C307.716 43.99 308.014 44.1194 308.331 44.1771C309.333 44.2871 311.967 42.5273 312.041 39.4111C312.115 36.2949 311.448 35.415 308.702 34.6451C305.956 33.8752 303.619 35.195 302.765 37.578C301.801 40.291 302.58 40.9509 303.136 41.6108L302.765 43.4439C302.765 43.4439 300.094 42.564 300.168 39.7777C300.242 36.9914 301.838 32.812 307.589 32.812C313.34 32.812 314.676 38.1646 314.267 40.1443Z" fill="url(#paint3_linear)"/>
<path d="M315.01 39.0445C314.601 40.9875 314.305 43.6272 310.186 44.5437C310.186 44.5437 307.774 45.1669 306.995 43.4439C306.513 45.3136 306.031 47.0367 305.734 47.4766C305.176 48.3732 304.556 49.2307 303.878 50.0429C303.878 50.0429 304.212 46.7434 304.25 46.0102C304.287 44.8737 305.363 39.7777 305.363 39.7777C305.363 39.7777 304.361 36.1849 306.847 35.7449C306.847 35.7449 308.887 35.2683 308.331 37.9446C308.331 37.9446 307.923 39.7044 307.403 41.7208L307.589 41.9774C307.734 42.2615 307.943 42.5086 308.2 42.6994C308.458 42.8902 308.756 43.0195 309.073 43.0772C310.075 43.1872 312.709 41.4275 312.783 38.3112C312.858 35.195 312.19 34.3151 309.444 33.5452C306.698 32.7753 304.361 34.0952 303.507 36.4782C302.543 39.1911 303.322 39.851 303.878 40.5109L303.507 42.344C303.507 42.344 300.836 41.4641 300.91 38.6779C300.984 35.8916 302.58 31.7122 308.331 31.7122C314.082 31.7122 315.418 37.0647 315.01 39.0445Z" fill="#BD081C"/>
<path d="M180.138 9.53205H177.726V11.9151C177.722 12.0597 177.663 12.1975 177.559 12.2998C177.455 12.4021 177.316 12.4613 177.17 12.465H176.799C176.652 12.4613 176.513 12.4021 176.409 12.2998C176.306 12.1975 176.246 12.0597 176.242 11.9151V9.53205H173.83C173.684 9.52834 173.545 9.46921 173.441 9.36687C173.337 9.26454 173.278 9.12681 173.274 8.98213V8.61551C173.278 8.47083 173.337 8.3331 173.441 8.23077C173.545 8.12843 173.684 8.0693 173.83 8.06559H176.242V5.68259C176.246 5.53791 176.306 5.40018 176.409 5.29784C176.513 5.19551 176.652 5.13638 176.799 5.13267H177.17C177.316 5.13638 177.455 5.19551 177.559 5.29784C177.663 5.40018 177.722 5.53791 177.726 5.68259V8.06559H180.138C180.284 8.0693 180.424 8.12843 180.527 8.23077C180.631 8.3331 180.691 8.47083 180.694 8.61551V8.98213C180.691 9.12681 180.631 9.26454 180.527 9.36687C180.424 9.46921 180.284 9.52834 180.138 9.53205ZM171.753 3.08329C172.255 3.72321 172.529 4.50961 172.532 5.31964C172.511 6.08728 172.261 6.83165 171.812 7.45828C171.362 8.0849 170.735 8.56552 170.009 8.83915C170.12 9.20576 170.491 9.60904 171.419 10.269C173.2 11.5521 173.274 13.9351 173.274 13.9351V14.1184C173.274 16.0248 170.936 17.6013 168.079 17.6013C165.222 17.6013 162.885 16.0248 162.885 14.1184C162.885 12.2853 165 10.7822 167.708 10.6356V9.13244C165.63 8.87581 163.998 7.2627 163.998 5.31964C163.998 3.19327 165.89 1.47018 168.265 1.47018H168.45C168.45 1.47018 172.717 1.14023 173.274 1.10356C173.83 1.0669 173.645 1.83679 173.645 1.83679L171.753 3.08329ZM165.482 13.9314C165.482 15.1413 166.744 16.1311 168.265 16.1311C169.786 16.1311 171.048 15.1413 171.048 13.9314C171.048 12.7216 169.786 11.7317 168.265 11.7317C166.744 11.7317 165.482 12.7216 165.482 13.9314ZM170.009 4.94936C169.712 3.55622 168.673 2.56636 167.708 2.74967C166.744 2.93297 166.224 4.25279 166.521 5.64593C166.818 7.03907 167.857 8.02893 168.821 7.84562C169.786 7.66232 170.305 6.38282 170.009 4.94936Z" fill="url(#paint4_linear)"/>
<path d="M180.88 8.43244H178.468V10.8154C178.465 10.9601 178.405 11.0978 178.301 11.2002C178.198 11.3025 178.058 11.3617 177.912 11.3654H177.541C177.394 11.3617 177.255 11.3025 177.151 11.2002C177.048 11.0978 176.988 10.9601 176.984 10.8154V8.43244H174.573C174.426 8.42873 174.287 8.3696 174.183 8.26726C174.08 8.16493 174.02 8.0272 174.016 7.88252V7.5159C174.02 7.37122 174.08 7.23349 174.183 7.13116C174.287 7.02882 174.426 6.96969 174.573 6.96598H176.984V4.58298C176.988 4.4383 177.048 4.30057 177.151 4.19823C177.255 4.0959 177.394 4.03677 177.541 4.03306H177.912C178.058 4.03677 178.198 4.0959 178.301 4.19823C178.405 4.30057 178.465 4.4383 178.468 4.58298V6.96598H180.88C181.027 6.96969 181.166 7.02882 181.27 7.13116C181.373 7.23349 181.433 7.37122 181.437 7.5159V7.88252C181.433 8.0272 181.373 8.16493 181.27 8.26726C181.166 8.3696 181.027 8.42873 180.88 8.43244ZM172.495 1.98368C172.997 2.6236 173.271 3.41 173.274 4.22003C173.254 4.98767 173.003 5.73204 172.554 6.35867C172.104 6.98529 171.477 7.46591 170.751 7.73954C170.862 8.10615 171.233 8.50943 172.161 9.16934C173.942 10.4525 174.016 12.8355 174.016 12.8355V13.0188C174.016 14.9252 171.678 16.5016 168.821 16.5016C165.964 16.5016 163.627 14.9252 163.627 13.0188C163.627 11.1857 165.742 9.6826 168.45 9.53596V8.03283C166.373 7.7762 164.74 6.16309 164.74 4.22003C164.74 2.09366 166.632 0.37057 169.007 0.37057H169.192C169.192 0.37057 173.459 0.0406161 174.016 0.00395452C174.573 -0.032707 174.387 0.737185 174.387 0.737185L172.495 1.98368ZM166.224 12.8318C166.224 14.0417 167.486 15.0315 169.007 15.0315C170.528 15.0315 171.79 14.0417 171.79 12.8318C171.79 11.622 170.528 10.6321 169.007 10.6321C167.486 10.6321 166.224 11.622 166.224 12.8318ZM170.751 3.84975C170.454 2.45661 169.415 1.46675 168.45 1.65006C167.486 1.83336 166.966 3.15318 167.263 4.54632C167.56 5.93946 168.599 6.92932 169.564 6.74601C170.528 6.56271 171.048 5.28321 170.751 3.84975Z" fill="#D34836"/>
<path d="M351 228.467H0V243H351V228.467Z" fill="url(#paint5_linear)"/>
<path d="M349.408 228.467H1.19092V240.643H349.408V228.467Z" fill="#F5F5F5"/>
<path d="M203.973 177.864C203.973 177.864 209.023 211.53 238.806 222.756H118.156C147.939 211.533 152.989 177.864 152.989 177.864H203.973Z" fill="#E0E0E0"/>
<path d="M239.337 222.755H117.552V229.868H239.337V222.755Z" fill="url(#paint6_linear)"/>
<path d="M238.802 222.755H118.156V228.244H238.802V222.755Z" fill="#F5F5F5"/>
<path d="M276.585 56.8254H80.3774C79.8545 56.8298 79.3375 56.9359 78.8561 57.1379C78.3747 57.3399 77.9383 57.6336 77.572 58.0024C77.2057 58.3712 76.9165 58.8078 76.7211 59.2871C76.5257 59.7665 76.4279 60.2792 76.4333 60.7959V174.923C76.4333 183.315 83.1713 190.116 91.4825 190.116H265.469C273.78 190.116 280.518 183.315 280.518 174.923V60.7959C280.529 59.7542 280.121 58.7508 279.383 58.0063C278.646 57.2618 277.639 56.837 276.585 56.8254Z" fill="url(#paint7_linear)"/>
<path d="M82.9005 60.0259H274.062C275.12 60.0259 276.134 60.4411 276.882 61.1802C277.63 61.9193 278.051 62.9217 278.051 63.967V168.885H78.9082V63.967C78.9082 63.4491 79.0115 62.9363 79.2122 62.458C79.4129 61.9796 79.707 61.5449 80.0778 61.1789C80.4485 60.8129 80.8887 60.5227 81.373 60.3248C81.8574 60.127 82.3764 60.0254 82.9005 60.0259Z" fill="white"/>
<path d="M262.786 186.842H94.1763C90.127 186.842 86.2435 185.252 83.3801 182.423C80.5168 179.594 78.9082 175.757 78.9082 171.756V168.885H278.054V171.756C278.054 175.757 276.446 179.594 273.582 182.423C270.719 185.252 266.836 186.842 262.786 186.842Z" fill="#F5F5F5"/>
<path d="M268.964 68.843H88.752V156.721H268.964V68.843Z" fill="#000066"/>
<path d="M69.0868 229.252H41.4187C40.9759 229.252 40.5512 229.078 40.2381 228.769C39.9249 228.459 39.749 228.04 39.749 227.602V193.507H70.7565V227.602C70.7565 228.04 70.5806 228.459 70.2675 228.769C69.9543 229.078 69.5297 229.252 69.0868 229.252Z" fill="url(#paint8_linear)"/>
<path d="M40.2464 220.219C35.1521 220.219 31.0039 215.02 31.0039 208.634C31.0039 202.247 35.1484 197.048 40.2464 197.048C45.3444 197.048 49.4889 202.247 49.4889 208.634C49.4889 215.02 45.3444 220.219 40.2464 220.219ZM40.2464 199.153C36.2837 199.153 33.0594 203.406 33.0594 208.634C33.0594 213.861 36.2837 218.114 40.2464 218.114C44.2091 218.114 47.4334 213.861 47.4334 208.634C47.4334 203.406 44.2128 199.153 40.2464 199.153Z" fill="url(#paint9_linear)"/>
<path d="M40.5467 219.236C35.6157 219.236 31.6011 214.389 31.6011 208.435C31.6011 202.482 35.612 197.635 40.5467 197.635C45.4815 197.635 49.4924 202.482 49.4924 208.435C49.4924 214.389 45.4778 219.236 40.5467 219.236ZM40.5467 199.596C36.7102 199.596 33.5898 203.56 33.5898 208.435C33.5898 213.311 36.7102 217.275 40.5467 217.275C44.3833 217.275 47.4925 213.308 47.4925 208.435C47.4925 203.563 44.3833 199.589 40.5467 199.589V199.596Z" fill="#000066"/>
<path d="M40.4427 193.903H70.0699V226.425C70.0699 226.863 69.894 227.282 69.5809 227.592C69.2677 227.901 68.8431 228.075 68.4002 228.075H42.1086C41.6658 228.075 41.2411 227.901 40.928 227.592C40.6149 227.282 40.439 226.863 40.439 226.425V193.903H40.4427Z" fill="#000066"/>
</g>
<defs>
<linearGradient id="paint0_linear" x1="39.9086" y1="60.3486" x2="39.9086" y2="41.2737" gradientUnits="userSpaceOnUse">
<stop stop-color="#808080" stop-opacity="0.25"/>
<stop offset="0.54" stop-color="#808080" stop-opacity="0.12"/>
<stop offset="1" stop-color="#808080" stop-opacity="0.1"/>
</linearGradient>
<linearGradient id="paint1_linear" x1="7910.11" y1="2784.24" x2="7910.11" y2="2167.74" gradientUnits="userSpaceOnUse">
<stop stop-color="#808080" stop-opacity="0.25"/>
<stop offset="0.54" stop-color="#808080" stop-opacity="0.12"/>
<stop offset="1" stop-color="#808080" stop-opacity="0.1"/>
</linearGradient>
<linearGradient id="paint2_linear" x1="15481.9" y1="4099.24" x2="15481.9" y2="2880.36" gradientUnits="userSpaceOnUse">
<stop stop-color="#808080" stop-opacity="0.25"/>
<stop offset="0.54" stop-color="#808080" stop-opacity="0.12"/>
<stop offset="1" stop-color="#808080" stop-opacity="0.1"/>
</linearGradient>
<linearGradient id="paint3_linear" x1="13832.6" y1="4763.8" x2="13832.6" y2="3847.26" gradientUnits="userSpaceOnUse">
<stop stop-color="#808080" stop-opacity="0.25"/>
<stop offset="0.54" stop-color="#808080" stop-opacity="0.12"/>
<stop offset="1" stop-color="#808080" stop-opacity="0.1"/>
</linearGradient>
<linearGradient id="paint4_linear" x1="10243.2" y1="2378.44" x2="11098.1" y2="2378.44" gradientUnits="userSpaceOnUse">
<stop stop-color="#808080" stop-opacity="0.25"/>
<stop offset="0.54" stop-color="#808080" stop-opacity="0.12"/>
<stop offset="1" stop-color="#808080" stop-opacity="0.1"/>
</linearGradient>
<linearGradient id="paint5_linear" x1="166023" y1="9861" x2="166023" y2="9284.93" gradientUnits="userSpaceOnUse">
<stop stop-color="#808080" stop-opacity="0.25"/>
<stop offset="0.54" stop-color="#808080" stop-opacity="0.12"/>
<stop offset="1" stop-color="#808080" stop-opacity="0.1"/>
</linearGradient>
<linearGradient id="paint6_linear" x1="58688.9" y1="4682.21" x2="58688.9" y2="4544.23" gradientUnits="userSpaceOnUse">
<stop stop-color="#808080" stop-opacity="0.25"/>
<stop offset="0.54" stop-color="#808080" stop-opacity="0.12"/>
<stop offset="1" stop-color="#808080" stop-opacity="0.1"/>
</linearGradient>
<linearGradient id="paint7_linear" x1="124168" y1="84984.1" x2="124168" y2="36523.7" gradientUnits="userSpaceOnUse">
<stop stop-color="#808080" stop-opacity="0.25"/>
<stop offset="0.54" stop-color="#808080" stop-opacity="0.12"/>
<stop offset="1" stop-color="#808080" stop-opacity="0.1"/>
</linearGradient>
<linearGradient id="paint8_linear" x1="8595.33" y1="26784.6" x2="8595.33" y2="23299.8" gradientUnits="userSpaceOnUse">
<stop stop-color="#808080" stop-opacity="0.25"/>
<stop offset="0.54" stop-color="#808080" stop-opacity="0.12"/>
<stop offset="1" stop-color="#808080" stop-opacity="0.1"/>
</linearGradient>
<linearGradient id="paint9_linear" x1="4383.67" y1="16862.6" x2="4383.67" y2="15398" gradientUnits="userSpaceOnUse">
<stop stop-color="#808080" stop-opacity="0.25"/>
<stop offset="0.54" stop-color="#808080" stop-opacity="0.12"/>
<stop offset="1" stop-color="#808080" stop-opacity="0.1"/>
</linearGradient>
<clipPath id="clip0">
<rect width="351" height="243" fill="white"/>
</clipPath>
</defs>
</svg>
