<svg width="24" height="24" viewBox="0 0 24 24" fill="none" xmlns="http://www.w3.org/2000/svg">
<path d="M12 2C6.48 2 2 6.48 2 12C2 17.52 6.48 22 12 22C17.52 22 22 17.52 22 12C22 6.48 17.52 2 12 2ZM12 20C7.59 20 4 16.41 4 12C4 11.71 4.02 11.42 4.05 11.14C6.41 10.09 8.28 8.16 9.26 5.77C11.07 8.33 14.05 10 17.42 10C18.2 10 18.95 9.91 19.67 9.74C19.88 10.45 20 11.21 20 12C20 16.41 16.41 20 12 20Z" fill="black"/>
<path fill-rule="evenodd" clip-rule="evenodd" d="M8.91781 14.3C9.56299 14.3 10.1356 13.7459 10.1356 13C10.1356 12.2541 9.56299 11.7 8.91781 11.7C8.27263 11.7 7.7 12.2541 7.7 13C7.7 13.7459 8.27263 14.3 8.91781 14.3ZM8.91781 15C9.97698 15 10.8356 14.1046 10.8356 13C10.8356 12.6933 10.7694 12.4027 10.6511 12.143H13.3489C13.2306 12.4027 13.1644 12.6933 13.1644 13C13.1644 14.1046 14.023 15 15.0822 15C16.1414 15 17 14.1046 17 13C17 11.8954 16.1414 11 15.0822 11C14.6263 11 14.2075 11.1659 13.8784 11.443H10.1216C9.79246 11.1659 9.37371 11 8.91781 11C7.85863 11 7 11.8954 7 13C7 14.1046 7.85863 15 8.91781 15ZM15.0822 14.3C15.7274 14.3 16.3 13.7459 16.3 13C16.3 12.2541 15.7274 11.7 15.0822 11.7C14.437 11.7 13.8644 12.2541 13.8644 13C13.8644 13.7459 14.437 14.3 15.0822 14.3Z" fill="black"/>
</svg>
