<svg width="294" height="239" viewBox="0 0 294 239" fill="none" xmlns="http://www.w3.org/2000/svg">
<path opacity="0.1" d="M177.851 239C194.447 239 207.901 236.749 207.901 233.972C207.901 231.195 194.447 228.944 177.851 228.944C161.254 228.944 147.8 231.195 147.8 233.972C147.8 236.749 161.254 239 177.851 239Z" fill="#6C63FF"/>
<path d="M176.589 29.5549C164.287 39.9759 148.326 39.3025 134.355 33.8815C120.384 28.4606 107.514 18.8055 93.8909 11.9451C82.74 6.27948 70.7286 2.49199 58.3414 0.735576C40.9784 -1.66907 21.5837 1.26028 9.48382 18.1068C-3.99018 36.867 -2.95328 70.7032 11.6194 87.9342C19.0322 96.6942 28.738 100.993 37.2046 107.834C45.6711 114.674 53.5026 126.03 52.7832 139.231C52.1173 151.454 44.3532 160.837 36.3278 166.729C30.1205 171.275 22.4773 176.241 21.7158 185.66C20.9908 194.774 27.4173 201.915 33.5572 205.978C53.5757 219.227 78.2363 219.098 98.1874 205.644C105.305 200.843 111.844 194.46 119.307 190.717C138.899 180.896 160.491 190.781 181.234 194.398C198.794 197.459 216.801 195.874 233.908 189.76C244.181 186.09 254.494 180.478 261.713 170.023C266.917 162.484 270.16 152.941 273.203 143.519C276.452 133.47 279.573 123.351 282.566 113.162C284.362 107.045 286.132 100.816 286.596 94.2671C287.439 82.4066 283.892 70.6976 279.068 60.675C267.622 36.8923 248.326 20.1832 227.439 15.9379C206.553 11.6926 184.421 19.984 168.213 38.124" fill="#000066"/>
<g opacity="0.35">
<path opacity="0.2" d="M140.778 57.2514V55.3855H111.33C109.975 55.3855 110.801 57.2626 110.801 57.2626H94.801V99.1125H165.051V57.2514H140.778Z" fill="#6C63FF"/>
</g>
<path d="M234.189 88.4668C234.189 88.4668 243.043 72.8043 256.388 68.2925C261.993 66.4352 266.844 62.8118 270.211 57.9668C271.792 55.6556 273.156 53.2042 274.288 50.6434" stroke="#535461" stroke-width="2" stroke-miterlimit="10"/>
<path d="M282.661 47.7477C281.144 49.2208 274.068 50.7444 274.068 50.7444C274.068 50.7444 275.802 43.7297 277.322 42.2538C278.052 41.5469 279.033 41.1583 280.05 41.1735C281.066 41.1888 282.035 41.6067 282.743 42.3352C283.451 43.0637 283.84 44.0433 283.825 45.0583C283.809 46.0734 283.391 47.0408 282.661 47.7477Z" fill="#6C63FF"/>
<path d="M278.66 60.436C276.584 60.8485 269.814 58.2867 269.814 58.2867C269.814 58.2867 275.092 53.3399 277.168 52.9274C277.662 52.8296 278.17 52.8298 278.664 52.9281C279.157 53.0264 279.627 53.2208 280.045 53.5003C280.464 53.7797 280.823 54.1387 281.102 54.5568C281.382 54.9748 281.576 55.4437 281.674 55.9368C281.772 56.4298 281.772 56.9372 281.673 57.4302C281.575 57.9231 281.38 58.3918 281.1 58.8096C280.821 59.2274 280.461 59.5861 280.042 59.8651C279.624 60.1442 279.154 60.3382 278.66 60.436Z" fill="#6C63FF"/>
<path d="M264.085 74.1849C262.084 73.4946 257.538 67.8716 257.538 67.8716C257.538 67.8716 264.594 66.2582 266.594 66.9513C267.07 67.1158 267.508 67.3723 267.885 67.706C268.261 68.0398 268.568 68.4443 268.788 68.8965C269.008 69.3487 269.136 69.8397 269.166 70.3415C269.196 70.8432 269.126 71.3459 268.962 71.8209C268.797 72.2959 268.54 72.7338 268.206 73.1096C267.872 73.4855 267.466 73.7919 267.014 74.0114C266.561 74.2309 266.069 74.3592 265.567 74.389C265.064 74.4188 264.561 74.3494 264.085 74.1849Z" fill="#6C63FF"/>
<path d="M250.711 82.1004C248.624 81.7609 243.189 76.9909 243.189 76.9909C243.189 76.9909 249.871 74.213 251.962 74.5553C252.459 74.6373 252.934 74.8162 253.362 75.0817C253.789 75.3473 254.16 75.6943 254.453 76.103C254.746 76.5117 254.956 76.974 255.07 77.4636C255.184 77.9532 255.201 78.4604 255.119 78.9564C255.037 79.4524 254.858 79.9273 254.592 80.3542C254.326 80.781 253.978 81.1514 253.569 81.4441C253.16 81.7368 252.697 81.9462 252.206 82.0602C251.716 82.1743 251.208 82.1908 250.711 82.1088V82.1004Z" fill="#6C63FF"/>
<path d="M263.913 52.8125C263.913 54.9281 267.743 61.059 267.743 61.059C267.743 61.059 271.582 54.9309 271.582 52.8153C271.595 52.3038 271.507 51.7947 271.32 51.3181C271.134 50.8415 270.853 50.407 270.496 50.0403C270.139 49.6736 269.711 49.3821 269.239 49.1831C268.767 48.9841 268.26 48.8816 267.747 48.8816C267.235 48.8816 266.728 48.9841 266.255 49.1831C265.783 49.3821 265.356 49.6736 264.999 50.0403C264.641 50.407 264.361 50.8415 264.175 51.3181C263.988 51.7947 263.899 52.3038 263.913 52.8153V52.8125Z" fill="#6C63FF"/>
<path d="M248.394 62.2682C249.026 64.2856 254.519 69.0023 254.519 69.0023C254.519 69.0023 256.343 62.0072 255.711 59.9898C255.58 59.4882 255.348 59.0184 255.03 58.6088C254.712 58.1993 254.314 57.8586 253.86 57.6073C253.406 57.356 252.905 57.1995 252.389 57.1471C251.872 57.0948 251.351 57.1477 250.855 57.3028C250.36 57.4578 249.901 57.7117 249.507 58.0491C249.113 58.3864 248.792 58.8002 248.563 59.2653C248.333 59.7304 248.201 60.2371 248.174 60.7548C248.147 61.2724 248.226 61.7902 248.405 62.2766L248.394 62.2682Z" fill="#6C63FF"/>
<path d="M234.568 73.5254C234.849 75.6214 239.469 81.1883 239.469 81.1883C239.469 81.1883 242.451 74.6029 242.17 72.5069C242.133 71.9843 241.99 71.4747 241.749 71.0096C241.508 70.5444 241.174 70.1336 240.767 69.8026C240.36 69.4715 239.89 69.2273 239.385 69.0849C238.881 68.9426 238.352 68.9052 237.832 68.9749C237.312 69.0447 236.812 69.2203 236.363 69.4907C235.913 69.7612 235.524 70.1208 235.22 70.5473C234.915 70.9738 234.702 71.4581 234.592 71.9704C234.482 72.4826 234.479 73.0119 234.583 73.5254H234.568Z" fill="#6C63FF"/>
<path opacity="0.25" d="M282.661 47.7477C281.144 49.2208 274.068 50.7444 274.068 50.7444C274.068 50.7444 275.802 43.7297 277.322 42.2538C278.052 41.5469 279.033 41.1583 280.05 41.1735C281.066 41.1888 282.035 41.6067 282.743 42.3352C283.451 43.0637 283.84 44.0433 283.825 45.0583C283.809 46.0734 283.391 47.0408 282.661 47.7477Z" fill="black"/>
<path opacity="0.25" d="M278.66 60.436C276.584 60.8485 269.814 58.2867 269.814 58.2867C269.814 58.2867 275.092 53.3399 277.168 52.9274C277.662 52.8296 278.17 52.8298 278.664 52.9281C279.157 53.0264 279.627 53.2208 280.045 53.5003C280.464 53.7797 280.823 54.1387 281.102 54.5568C281.382 54.9748 281.576 55.4437 281.674 55.9368C281.772 56.4298 281.772 56.9372 281.673 57.4302C281.575 57.9231 281.38 58.3918 281.1 58.8096C280.821 59.2274 280.461 59.5861 280.042 59.8651C279.624 60.1442 279.154 60.3382 278.66 60.436Z" fill="black"/>
<path opacity="0.25" d="M264.085 74.1849C262.084 73.4946 257.538 67.8716 257.538 67.8716C257.538 67.8716 264.594 66.2582 266.594 66.9513C267.07 67.1158 267.508 67.3723 267.885 67.706C268.261 68.0398 268.568 68.4443 268.788 68.8965C269.008 69.3487 269.136 69.8397 269.166 70.3415C269.196 70.8432 269.126 71.3459 268.962 71.8209C268.797 72.2959 268.54 72.7338 268.206 73.1096C267.872 73.4855 267.466 73.7919 267.014 74.0114C266.561 74.2309 266.069 74.3592 265.567 74.389C265.064 74.4188 264.561 74.3494 264.085 74.1849Z" fill="black"/>
<path opacity="0.25" d="M250.711 82.1004C248.624 81.7609 243.189 76.9909 243.189 76.9909C243.189 76.9909 249.871 74.213 251.962 74.5553C252.459 74.6373 252.934 74.8162 253.362 75.0817C253.789 75.3473 254.16 75.6943 254.453 76.103C254.746 76.5117 254.956 76.974 255.07 77.4636C255.184 77.9532 255.201 78.4604 255.119 78.9564C255.037 79.4524 254.858 79.9273 254.592 80.3542C254.326 80.781 253.978 81.1514 253.569 81.4441C253.16 81.7368 252.697 81.9462 252.206 82.0602C251.716 82.1743 251.208 82.1908 250.711 82.1088V82.1004Z" fill="black"/>
<path opacity="0.25" d="M263.913 52.8125C263.913 54.9281 267.743 61.059 267.743 61.059C267.743 61.059 271.582 54.9309 271.582 52.8153C271.595 52.3038 271.507 51.7947 271.32 51.3181C271.134 50.8415 270.853 50.407 270.496 50.0403C270.139 49.6736 269.711 49.3821 269.239 49.1831C268.767 48.9841 268.26 48.8816 267.747 48.8816C267.235 48.8816 266.728 48.9841 266.255 49.1831C265.783 49.3821 265.356 49.6736 264.999 50.0403C264.641 50.407 264.361 50.8415 264.175 51.3181C263.988 51.7947 263.899 52.3038 263.913 52.8153V52.8125Z" fill="black"/>
<path opacity="0.25" d="M248.394 62.2682C249.026 64.2856 254.519 69.0023 254.519 69.0023C254.519 69.0023 256.343 62.0072 255.711 59.9898C255.58 59.4882 255.348 59.0184 255.03 58.6088C254.712 58.1993 254.314 57.8586 253.86 57.6073C253.406 57.356 252.905 57.1995 252.389 57.1471C251.872 57.0948 251.351 57.1477 250.855 57.3028C250.36 57.4578 249.901 57.7117 249.507 58.0491C249.113 58.3864 248.792 58.8002 248.563 59.2653C248.333 59.7304 248.201 60.2371 248.174 60.7548C248.147 61.2724 248.226 61.7902 248.405 62.2766L248.394 62.2682Z" fill="black"/>
<path opacity="0.25" d="M234.568 73.5254C234.849 75.6214 239.469 81.1883 239.469 81.1883C239.469 81.1883 242.451 74.6029 242.17 72.5069C242.133 71.9843 241.99 71.4747 241.749 71.0096C241.508 70.5444 241.174 70.1336 240.767 69.8026C240.36 69.4715 239.89 69.2273 239.385 69.0849C238.881 68.9426 238.352 68.9052 237.832 68.9749C237.312 69.0447 236.812 69.2203 236.363 69.4907C235.913 69.7612 235.524 70.1208 235.22 70.5473C234.915 70.9738 234.702 71.4581 234.592 71.9704C234.482 72.4826 234.479 73.0119 234.583 73.5254H234.568Z" fill="black"/>
<path d="M234.7 88.1554C234.7 88.1554 236.437 70.2538 246.783 60.7334C251.154 56.7687 254.118 51.4937 255.227 45.7023C255.735 42.9488 255.988 40.1545 255.983 37.3547" stroke="#535461" stroke-width="2" stroke-miterlimit="10"/>
<path d="M262.492 31.3165C261.699 33.2806 255.849 37.5343 255.849 37.5343C255.849 37.5343 254.587 30.413 255.38 28.4489C255.568 27.9826 255.846 27.5578 256.199 27.1989C256.551 26.84 256.971 26.554 257.434 26.3572C257.898 26.1603 258.395 26.0565 258.899 26.0517C259.402 26.0469 259.902 26.1411 260.369 26.329C260.836 26.5169 261.261 26.7949 261.621 27.1469C261.98 27.499 262.266 27.9183 262.464 28.3809C262.661 28.8435 262.765 29.3404 262.769 29.8431C262.774 30.3458 262.68 30.8446 262.492 31.3109V31.3165Z" fill="#6C63FF"/>
<path d="M263.984 44.5434C262.253 45.7612 255.025 46.1568 255.025 46.1568C255.025 46.1568 257.835 39.4985 259.572 38.2835C259.984 37.9943 260.448 37.7888 260.939 37.6789C261.431 37.5689 261.939 37.5567 262.435 37.6428C262.93 37.7289 263.405 37.9117 263.83 38.1807C264.255 38.4498 264.623 38.7998 264.912 39.2109C265.202 39.6219 265.408 40.0859 265.518 40.5763C265.628 41.0667 265.64 41.574 265.554 42.0692C265.468 42.5644 265.285 43.0378 265.015 43.4623C264.746 43.8868 264.395 44.2542 263.984 44.5434Z" fill="#6C63FF"/>
<path d="M256.233 63.0034C254.123 63.1802 247.685 59.8805 247.685 59.8805C247.685 59.8805 253.482 55.551 255.592 55.3742C256.094 55.3322 256.599 55.3893 257.079 55.5422C257.558 55.6951 258.003 55.9408 258.388 56.2653C258.772 56.5898 259.089 56.9868 259.32 57.4335C259.55 57.8803 259.691 58.368 259.733 58.869C259.775 59.3699 259.718 59.8742 259.565 60.3531C259.412 60.832 259.166 61.2761 258.841 61.66C258.516 62.0439 258.118 62.3602 257.671 62.5907C257.223 62.8212 256.735 62.9614 256.233 63.0034Z" fill="#6C63FF"/>
<path d="M247.222 75.6495C245.174 76.1827 238.267 74.0137 238.267 74.0137C238.267 74.0137 243.249 68.7695 245.292 68.2392C245.779 68.113 246.286 68.0838 246.785 68.1535C247.283 68.2231 247.763 68.39 248.197 68.6449C248.631 68.8997 249.011 69.2373 249.314 69.6386C249.617 70.0398 249.838 70.4968 249.965 70.9833C250.091 71.4699 250.12 71.9766 250.051 72.4744C249.981 72.9722 249.814 73.4515 249.558 73.8848C249.303 74.3181 248.965 74.6969 248.563 74.9997C248.161 75.3025 247.704 75.5233 247.216 75.6495H247.222Z" fill="#6C63FF"/>
<path d="M247.405 43.5334C248.262 45.4667 254.253 49.5212 254.253 49.5212C254.253 49.5212 255.273 42.3662 254.416 40.4329C254.006 39.5027 253.243 38.7732 252.294 38.4048C251.346 38.0365 250.289 38.0595 249.358 38.4688C248.426 38.8781 247.696 39.6401 247.327 40.5873C246.958 41.5345 246.981 42.5892 247.391 43.5194L247.405 43.5334Z" fill="#6C63FF"/>
<path d="M237.052 58.4719C238.457 60.0601 245.381 62.142 245.381 62.142C245.381 62.142 244.209 55.0095 242.812 53.4185C242.142 52.6558 241.195 52.1903 240.18 52.1245C239.166 52.0587 238.167 52.398 237.403 53.0678C236.639 53.7375 236.173 54.6829 236.107 55.6958C236.041 56.7088 236.381 57.7064 237.052 58.4691V58.4719Z" fill="#6C63FF"/>
<path d="M228.982 74.3421C230.106 76.1435 236.569 79.3646 236.569 79.3646C236.569 79.3646 236.639 72.1366 235.515 70.3353C234.972 69.4932 234.12 68.897 233.142 68.6745C232.165 68.452 231.138 68.6208 230.283 69.1448C229.429 69.6688 228.813 70.5063 228.57 71.4778C228.326 72.4493 228.473 73.4775 228.979 74.3421H228.982Z" fill="#6C63FF"/>
<path d="M43.1311 160.573C43.1311 160.573 32.1721 147.012 32.8605 133.403C33.1879 127.698 31.6537 122.041 28.4882 117.281C26.9671 115.033 25.243 112.929 23.3374 110.995" stroke="#535461" stroke-width="2" stroke-miterlimit="10"/>
<path d="M23.7219 102.418C24.5087 104.312 23.3594 111.223 23.3594 111.223C23.3594 111.223 17.6495 107.154 16.8627 105.26C16.4856 104.351 16.4856 103.33 16.8626 102.421C17.2397 101.512 17.9629 100.79 18.8732 100.413C19.7836 100.036 20.8064 100.036 21.7168 100.413C22.6271 100.789 23.3504 101.512 23.7275 102.421L23.7219 102.418Z" fill="#6C63FF"/>
<path d="M33.7564 110.558C33.3855 112.572 28.6562 117.744 28.6562 117.744C28.6562 117.744 26.0682 111.223 26.4504 109.214C26.5329 108.729 26.7111 108.266 26.9744 107.851C27.2377 107.436 27.5811 107.077 27.9844 106.796C28.3877 106.514 28.8431 106.316 29.3239 106.211C29.8048 106.107 30.3017 106.099 30.7856 106.188C31.2696 106.277 31.731 106.461 32.143 106.73C32.5551 106.998 32.9097 107.346 33.186 107.753C33.4624 108.159 33.6552 108.616 33.7531 109.098C33.851 109.58 33.8521 110.076 33.7564 110.558Z" fill="#6C63FF"/>
<path d="M40.9335 128.577C39.5931 130.132 32.894 132.211 32.894 132.211C32.894 132.211 33.9618 125.289 35.3022 123.734C35.9579 123.035 36.8588 122.617 37.8164 122.566C38.774 122.515 39.7142 122.836 40.4402 123.462C41.1662 124.088 41.6217 124.969 41.7116 125.923C41.8014 126.876 41.5186 127.827 40.9222 128.577H40.9335Z" fill="#6C63FF"/>
<path d="M43.2941 143.434C42.2375 145.191 35.9881 148.373 35.9881 148.373C35.9881 148.373 35.8672 141.358 36.9266 139.613C37.44 138.782 38.2608 138.186 39.2109 137.956C40.161 137.725 41.1639 137.878 42.0019 138.381C42.84 138.884 43.4457 139.697 43.6876 140.643C43.9294 141.589 43.7881 142.592 43.2941 143.434Z" fill="#6C63FF"/>
<path d="M21.5893 121.094C23.4973 121.849 30.3987 120.594 30.3987 120.594C30.3987 120.594 26.2399 114.954 24.3347 114.197C23.4252 113.864 22.4214 113.898 21.5371 114.293C20.6527 114.688 19.9576 115.412 19.5998 116.311C19.242 117.21 19.2497 118.213 19.6213 119.106C19.9929 119.999 20.699 120.713 21.5893 121.094Z" fill="#6C63FF"/>
<path d="M24.5733 138.44C26.619 138.591 32.8291 135.334 32.8291 135.334C32.8291 135.334 27.1698 131.192 25.1241 131.041C24.6375 131.004 24.1485 131.063 23.6849 131.215C23.2212 131.367 22.7921 131.608 22.422 131.926C22.0518 132.243 21.7479 132.63 21.5276 133.065C21.3074 133.5 21.175 133.974 21.1381 134.46C21.1012 134.945 21.1605 135.434 21.3126 135.897C21.4647 136.36 21.7066 136.788 22.0246 137.158C22.3425 137.527 22.7302 137.831 23.1656 138.051C23.601 138.271 24.0755 138.403 24.5621 138.44H24.5733Z" fill="#6C63FF"/>
<path d="M29.789 154.891C31.7785 155.387 38.4523 153.207 38.4523 153.207C38.4523 153.207 33.5741 148.187 31.5846 147.699C30.6284 147.461 29.6168 147.613 28.7723 148.12C27.9279 148.627 27.3197 149.448 27.0816 150.403C26.8434 151.357 26.9949 152.368 27.5027 153.211C28.0104 154.054 28.8328 154.661 29.789 154.899V154.891Z" fill="#6C63FF"/>
<path d="M225.835 52.1783H225.599C225.97 51.7574 226.161 51.3365 226.13 50.9634L223.995 48.8309L224.809 47.0071H222.064L222.573 45.5845H220.946L202.945 51.5722C202.945 51.5722 202.925 51.822 202.945 52.1783H191.354V104.326H241.698V52.1783H225.835Z" fill="url(#paint0_linear)"/>
<path d="M241.312 52.3607H191.727V103.776H241.312V52.3607Z" fill="#F6F7F9"/>
<path opacity="0.1" d="M225.697 52.3607C223.348 55.8148 207.657 60.3631 207.657 60.3631L207.755 56.7632H204.853C204.932 56.4165 204.897 56.0534 204.752 55.7285C204.607 55.4037 204.36 55.1346 204.049 54.9618C203.206 54.4988 203.124 52.9977 203.136 52.3607H225.697Z" fill="black"/>
<path d="M220.878 45.8595L203.15 51.7519C203.15 51.7519 202.948 54.0527 204.049 54.6503C204.36 54.8238 204.606 55.093 204.751 55.4177C204.896 55.7423 204.931 56.1051 204.853 56.4517H207.755L207.657 60.0517C207.657 60.0517 226.287 54.6503 225.987 51.1514L223.885 49.0498L224.686 47.2484H221.98L222.483 45.8455L220.878 45.8595Z" fill="#9D9CB5"/>
<g opacity="0.35">
<path opacity="0.2" d="M232.146 69.0276H200.893V69.903H232.146V69.0276Z" fill="#6C63FF"/>
</g>
<g opacity="0.35">
<path opacity="0.2" d="M232.146 73.6433H200.893V74.5187H232.146V73.6433Z" fill="#6C63FF"/>
</g>
<g opacity="0.35">
<path opacity="0.2" d="M232.146 78.2562H200.893V79.1317H232.146V78.2562Z" fill="#6C63FF"/>
</g>
<g opacity="0.35">
<path opacity="0.2" d="M232.146 82.8691H200.893V83.7446H232.146V82.8691Z" fill="#6C63FF"/>
</g>
<g opacity="0.35">
<path opacity="0.2" d="M232.146 87.4821H200.893V88.3575H232.146V87.4821Z" fill="#6C63FF"/>
</g>
<g opacity="0.35">
<path opacity="0.2" d="M232.146 92.0978H200.893V92.9732H232.146V92.0978Z" fill="#6C63FF"/>
</g>
<path d="M57.8301 47.9526H57.7121C58.6001 45.6798 59.4206 43.4632 59.3841 43.0395C59.3054 42.1977 57.6166 44.0272 57.5379 43.5698C57.4592 43.1125 57.5379 41.3784 56.7708 41.3784C56.0036 41.3784 55.54 42.2791 55.0848 42.2791C54.6295 42.2791 52.7777 41.9761 52.7777 41.9761L50.4201 47.9526H32.6609V103.647H76.7331V47.9526H57.8301Z" fill="url(#paint1_linear)"/>
<path d="M76.2297 48.2612H33.155V103.273H76.2297V48.2612Z" fill="#F6F7F9"/>
<path opacity="0.1" d="M57.7599 48.2612C56.8523 50.6154 55.8294 53.0958 55.5962 53.6878C55.1438 54.8102 54.8459 54.2125 54.3177 54.0638C53.7894 53.9151 53.1178 54.2125 52.8171 54.0638C52.5164 53.9151 50.7518 54.0638 50.7518 54.0638C50.7715 53.7882 50.7715 53.5116 50.7518 53.2361C50.7124 52.9386 48.6836 53.2361 48.6836 53.2361L50.6169 48.2612H57.7599Z" fill="black"/>
<path d="M52.8171 42.3605L48.6836 52.9387C48.6836 52.9387 50.7124 52.6384 50.749 52.9387C50.7702 53.2132 50.7702 53.489 50.749 53.7636C50.749 53.7636 52.5164 53.6121 52.8171 53.7636C53.1178 53.9151 53.7922 53.6121 54.3177 53.7636C54.8431 53.9151 55.1438 54.5128 55.5962 53.3876C56.0486 52.2625 59.3532 44.2348 59.2773 43.4099C59.2015 42.585 57.5492 44.3863 57.4733 43.9346C57.3974 43.4828 57.4733 41.7712 56.723 41.7712C55.9728 41.7712 55.5203 42.6607 55.0707 42.6607C54.6211 42.6607 52.8171 42.3605 52.8171 42.3605Z" fill="#9D9CB5"/>
<g opacity="0.35">
<path opacity="0.2" d="M70.3203 62.8632H39.0674V63.7386H70.3203V62.8632Z" fill="#6C63FF"/>
</g>
<g opacity="0.35">
<path opacity="0.2" d="M70.3203 66.1656H39.0674V67.0411H70.3203V66.1656Z" fill="#6C63FF"/>
</g>
<g opacity="0.35">
<path opacity="0.2" d="M70.3203 69.4653H39.0674V70.3408H70.3203V69.4653Z" fill="#6C63FF"/>
</g>
<g opacity="0.35">
<path opacity="0.2" d="M70.3203 72.7678H39.0674V73.6433H70.3203V72.7678Z" fill="#6C63FF"/>
</g>
<g opacity="0.35">
<path opacity="0.2" d="M70.3203 76.0676H39.0674V76.9431H70.3203V76.0676Z" fill="#6C63FF"/>
</g>
<g opacity="0.35">
<path opacity="0.2" d="M70.3203 79.3674H39.0674V80.2429H70.3203V79.3674Z" fill="#6C63FF"/>
</g>
<path d="M220.375 130.303H220.257C221.347 127.497 222.353 124.755 222.305 124.242C222.212 123.212 220.139 125.46 220.057 124.899C219.976 124.337 220.057 122.194 219.116 122.194C218.174 122.194 217.61 123.316 217.045 123.316C216.48 123.316 214.218 122.94 214.218 122.94L211.312 130.303H189.549V199.016H243.566V130.303H220.375Z" fill="url(#paint2_linear)"/>
<path d="M243.057 130.78H189.982V198.57H243.057V130.78Z" fill="#F6F7F9"/>
<path opacity="0.1" d="M220.271 130.78C219.164 133.659 217.922 136.672 217.632 137.396C217.07 138.782 216.708 138.041 216.059 137.859C215.41 137.677 214.578 138.041 214.207 137.859C213.836 137.677 211.661 137.859 211.661 137.859C211.685 137.52 211.685 137.179 211.661 136.84C211.613 136.473 209.115 136.84 209.115 136.84L211.484 130.78H220.271Z" fill="black"/>
<path d="M214.207 123.507L209.115 136.54C209.115 136.54 211.613 136.17 211.661 136.54C211.685 136.878 211.685 137.218 211.661 137.556C211.661 137.556 213.836 137.374 214.207 137.556C214.578 137.738 215.41 137.374 216.059 137.556C216.708 137.738 217.076 138.482 217.632 137.096C218.189 135.71 222.26 125.816 222.168 124.8C222.075 123.785 220.038 126.001 219.945 125.449C219.852 124.896 219.945 122.78 219.02 122.78C218.096 122.78 217.54 123.877 216.983 123.877C216.427 123.877 214.207 123.507 214.207 123.507Z" fill="#9D9CB5"/>
<g opacity="0.35">
<path opacity="0.2" d="M232.146 149.722H200.893V151.947H232.146V149.722Z" fill="#6C63FF"/>
</g>
<g opacity="0.35">
<path opacity="0.2" d="M232.146 164.175H200.893V166.4H232.146V164.175Z" fill="#6C63FF"/>
</g>
<g opacity="0.35">
<path opacity="0.2" d="M232.146 178.631H200.893V180.856H232.146V178.631Z" fill="#6C63FF"/>
</g>
<path d="M66.8698 132.651V124.354H55.2054V132.651H30.8511V198.023H88.0544V132.651H66.8698Z" fill="url(#paint3_linear)"/>
<path d="M87.4501 132.982H31.4551V197.596H87.4501V132.982Z" fill="#F6F7F9"/>
<path opacity="0.1" d="M66.715 132.982H55.2952V141.784H66.715V132.982Z" fill="black"/>
<path d="M66.715 124.781H55.2952V141.484H66.715V124.781Z" fill="#9D9CB5"/>
<g opacity="0.35">
<path opacity="0.2" d="M75.0779 148.611H43.825V150.836H75.0779V148.611Z" fill="#6C63FF"/>
</g>
<g opacity="0.35">
<path opacity="0.2" d="M75.0779 153.036H43.825V155.261H75.0779V153.036Z" fill="#6C63FF"/>
</g>
<g opacity="0.35">
<path opacity="0.2" d="M75.0779 157.464H43.825V159.689H75.0779V157.464Z" fill="#6C63FF"/>
</g>
<g opacity="0.35">
<path opacity="0.2" d="M75.0779 161.889H43.825V164.114H75.0779V161.889Z" fill="#6C63FF"/>
</g>
<g opacity="0.35">
<path opacity="0.2" d="M75.0805 166.816H66.7151V173.567H75.0805V166.816Z" fill="#6C63FF"/>
</g>
<g opacity="0.35">
<path opacity="0.2" d="M52.1904 175.166H43.825V181.917H52.1904V175.166Z" fill="#6C63FF"/>
</g>
<path d="M147.205 132.547H147.127C148.037 128.992 148.723 126.161 148.723 126.161L144.839 127.985C144.839 127.985 142.083 124.337 141.063 124.946C140.043 125.555 137.803 127.073 137.803 127.073L134.83 125.552L133.692 132.547H110.214V183.023L111.723 183.923C112.968 183.477 115.017 182.719 115.017 182.719L114.075 185.329L114.71 185.705L115.781 184.737L116.177 186.586L117.45 187.346L119.459 186.07L118.897 188.219L120.783 189.341L126.265 187.285L124.613 191.628L125.7 192.279L128.182 191.844C128.182 191.844 128.069 192.711 127.999 193.651L130.489 195.138C131.509 194.743 132.47 194.353 132.47 194.353C132.47 194.353 132.371 195.301 132.326 196.233L133.995 197.232C135.313 196.463 136.991 195.416 136.991 195.416L135.586 198.026H167.311V132.547H147.205Z" fill="url(#paint4_linear)"/>
<path d="M166.687 132.982V197.596H135.572L136.96 195.023C136.96 195.023 135.316 196.053 134.024 196.813L132.388 195.826C132.433 194.908 132.531 193.971 132.531 193.971C132.531 193.971 131.587 194.355 130.587 194.746L128.145 193.278C128.215 192.352 128.322 191.496 128.322 191.496L125.891 191.926L124.826 191.283L126.445 186.996L121.069 189.027L119.218 187.905L119.757 185.784L117.79 187.043L116.542 186.294L116.155 184.47L115.104 185.43L114.48 185.057L115.404 182.484C115.404 182.484 113.395 183.23 112.173 183.671L110.695 182.784V132.982H166.687Z" fill="#F6F7F9"/>
<g opacity="0.35">
<path opacity="0.2" d="M154.314 153.036H123.061V155.261H154.314V153.036Z" fill="#6C63FF"/>
</g>
<g opacity="0.35">
<path opacity="0.2" d="M154.314 159.689H123.061V161.914H154.314V159.689Z" fill="#6C63FF"/>
</g>
<g opacity="0.35">
<path opacity="0.2" d="M154.314 166.339H123.061V168.564H154.314V166.339Z" fill="#6C63FF"/>
</g>
<g opacity="0.35">
<path opacity="0.2" d="M129.322 172.991H123.061V175.217H129.322V172.991Z" fill="#6C63FF"/>
</g>
<path opacity="0.1" d="M146.966 132.982C145.443 138.981 143.223 147.292 142.645 147.146C141.745 146.902 140.34 145.182 140.34 145.182C140.34 145.182 137.036 148.283 135.434 146.683C133.832 145.084 131.626 146.181 131.626 146.181L133.762 132.979L146.966 132.982Z" fill="black"/>
<path d="M134.833 126.094L131.626 145.898C131.626 145.898 133.83 144.798 135.431 146.4C137.033 148.002 140.34 144.893 140.34 144.893C140.34 144.893 141.745 146.61 142.645 146.857C143.544 147.104 148.456 126.694 148.456 126.694L144.648 128.496C144.648 128.496 141.945 124.893 140.942 125.493C139.938 126.094 137.747 127.595 137.747 127.595L134.833 126.094Z" fill="#9D9CB5"/>
<path d="M161.022 39.6893V37.7897H131.202C129.833 37.7897 130.671 39.6893 130.671 39.6893H114.468V82.0414H185.59V39.6724L161.022 39.6893Z" fill="url(#paint5_linear)"/>
<path d="M185.163 39.8912H114.918V81.7523H185.163V39.8912Z" fill="#F6F7F9"/>
<path opacity="0.1" d="M160.898 46.718H133.026C133.026 46.718 132.725 43.4912 133.703 42.8935C134.681 42.2959 130.921 40.1915 130.921 40.1915C130.879 40.0933 130.843 39.9931 130.812 39.8912H160.898V40.8677C160.898 40.8677 164.731 44.2432 160.898 46.718Z" fill="black"/>
<path d="M131.447 38.017H160.898V40.5675C160.898 40.5675 164.731 43.9346 160.898 46.4178H133.026C133.026 46.4178 132.725 43.191 133.703 42.5934C134.681 41.9957 130.921 39.8913 130.921 39.8913C130.921 39.8913 130.095 38.017 131.447 38.017Z" fill="#9D9CB5"/>
<g opacity="0.35">
<path opacity="0.2" d="M176.539 53.02H123.548V53.8955H176.539V53.02Z" fill="#6C63FF"/>
</g>
<g opacity="0.35">
<path opacity="0.2" d="M155.202 56.3198H123.548V57.1953H155.202V56.3198Z" fill="#6C63FF"/>
</g>
<g opacity="0.35">
<path opacity="0.2" d="M176.539 59.6223H123.548V60.4977H176.539V59.6223Z" fill="#6C63FF"/>
</g>
<g opacity="0.35">
<path opacity="0.2" d="M176.539 62.922H123.548V63.7974H176.539V62.922Z" fill="#6C63FF"/>
</g>
<g opacity="0.35">
<path opacity="0.2" d="M176.539 66.2218H123.548V67.0972H176.539V66.2218Z" fill="#6C63FF"/>
</g>
<path d="M198.336 233.074C197.833 230.936 197.524 229.062 197.524 229.062C197.524 229.062 197.64 226.735 196.594 224.99V224.409V220.114C196.891 219.336 197.253 218.585 197.679 217.869C198.454 216.516 197.679 211.567 197.679 211.567C197.679 211.567 194.807 204.589 195.507 200.164C196.206 195.739 189.606 180.508 189.606 180.508C189.646 179.039 189.855 177.579 190.227 176.156C190.295 175.858 190.324 175.551 190.311 175.245C190.311 175.208 190.311 175.172 190.311 175.132V175.169C190.213 172.251 187.903 166.779 187.903 166.779L188.212 156.35C188.212 156.35 189.687 150.199 187.282 141.947C186.439 139.065 185.902 136.762 185.562 134.983C185.523 134.781 185.486 134.587 185.453 134.402C190.407 133.647 194.189 133.019 194.189 133.019C194.189 133.019 191.314 121.01 189.375 118.911C187.436 116.812 185.882 110.213 185.882 110.213C185.882 110.213 184.871 101.736 186.503 99.2695C188.136 96.8032 188.364 92.5158 188.364 92.5158C188.364 92.5158 192.09 89.8165 192.556 88.6156C193.023 87.4147 193.798 84.7154 193.798 83.2844C193.798 81.8534 193.332 80.5823 193.489 79.8332C193.647 79.084 192.402 76.2332 193.023 74.8808C193.184 74.4655 193.268 74.0242 193.27 73.5788C193.272 73.5658 193.272 73.5526 193.27 73.5396C193.27 73.5396 193.27 73.5395 193.27 73.5255C193.274 72.3439 193.164 71.1646 192.941 70.0041C192.941 70.0041 191.255 68.5198 189.257 68.04L189.176 67.7173L188.965 66.8756C188.846 66.796 188.724 66.723 188.597 66.6567V66.3509L188.563 65.1331L189.148 62.3918C190.291 57.6217 183.927 56.9175 183.927 56.9175C183.545 56.1827 182.903 55.6164 182.125 55.3293C180.844 54.8776 181.912 62.4956 182.51 62.981C182.963 63.3486 184.354 65.7364 185.023 66.9092L185.132 67.1028C185.031 67.1972 184.937 67.2995 184.851 67.4087L185.093 69.0613L185.129 69.3139C184.708 69.8383 184.366 70.4216 184.115 71.0451C184.115 71.0451 185.281 72.319 185.048 73.7444C184.815 75.1698 185.405 76.9459 185.433 77.0441C185.363 76.9655 184.545 76.0789 183.727 76.2949C182.909 76.511 180.636 77.1956 180.636 77.1956C180.636 77.1956 178.928 77.4959 179.085 77.8718C179.242 78.2478 177.919 79.8977 177.919 79.8977L173.33 75.5542C173.285 75.4251 173.24 75.296 173.198 75.1614C173.007 74.5408 172.873 73.904 172.799 73.259C173.299 73.1399 173.789 72.9842 174.266 72.7932C174.748 72.6289 175.184 72.3507 175.536 71.9823C175.997 71.4211 176.098 70.6888 176.275 70.0182C176.638 68.6826 177.419 67.4929 177.978 66.2274C178.922 64.0897 179.24 61.7283 178.894 59.4175C178.822 58.7067 178.58 58.0236 178.189 57.4253C177.441 56.3956 176.081 55.9775 175.098 55.1554C174.114 54.3332 173.473 53.0818 172.321 52.4645C171.282 51.9033 170.012 51.9735 168.84 52.1643C166.543 52.5418 164.337 53.343 162.335 54.5268C161.666 54.9225 160.93 55.3686 160.16 55.2395C159.502 55.1217 159.019 54.5942 158.594 54.0919C158.6 54.07 158.606 54.0485 158.614 54.0274L158.564 53.9685C158.078 55.0456 157.834 56.216 157.85 57.3973C157.85 57.5797 157.85 57.762 157.872 57.9584C157.872 58.023 157.872 58.0875 157.872 58.1521C157.876 58.2043 157.876 58.2569 157.872 58.3092C157.872 58.3908 157.861 58.472 157.839 58.5505C157.741 58.7853 157.594 58.9967 157.409 59.1706C157.268 59.3279 157.143 59.4979 157.035 59.6785C157.055 59.6167 157.074 59.555 157.097 59.4933C156.804 59.919 156.639 60.4194 156.622 60.9355C156.597 61.3125 156.721 61.6843 156.967 61.9709C157.196 62.1951 157.447 62.3963 157.715 62.5713C157.399 64.3315 157.63 66.1463 158.379 67.7709C159.128 69.3955 160.357 70.7517 161.902 71.6568C161.955 71.7859 162.006 71.9177 162.059 72.0496C162.644 73.5929 163.085 75.3886 162.902 77.0469C162.885 77.1704 162.868 77.291 162.846 77.4117C162.787 77.4734 162.731 77.5379 162.68 77.6025C162.68 77.6025 155.093 77.6754 153.32 76.062C151.547 74.4487 148.824 79.9903 148.824 79.9903C148.824 79.9903 146.107 80.5178 145.564 79.9903C145.022 79.4628 141.838 79.9173 141.838 79.9173C141.838 79.9173 139.897 78.0402 137.104 78.1917C136.043 77.3866 134.872 76.7366 133.628 76.2613L133.54 76.2304C132.994 76.0333 132.41 75.9595 131.832 76.0143C131.832 76.0143 128.106 72.9279 127.021 71.2892C125.937 69.6506 120.758 63.5169 120.735 63.4889L120.716 63.2083L120.657 62.316C120.503 62.3401 120.348 62.3533 120.193 62.3553L120.089 62.0466C119.792 61.1762 119.423 60.3315 118.987 59.5213C118.987 59.5213 118.987 58.399 119.316 58.1184C119.645 57.8378 119.181 53.7103 119.181 53.7103C119.181 53.7103 115.823 45.8707 112.817 51.7238C112.817 51.7238 107.132 55.5089 111.903 59.917C111.903 59.917 113.806 60.8401 114.075 61.5696C114.253 62.0438 114.899 63.3654 115.334 64.2464C115.407 64.3924 115.472 64.527 115.528 64.6393L115.475 64.6842L115.545 65.4193L115.573 65.6999C114.674 66.2106 114.064 66.7128 114.213 67.1028C114.479 67.7526 114.661 68.4333 114.756 69.1287C114.756 69.1287 121.353 77.3808 122.208 80.9134C122.208 80.9134 139.911 91.4159 145.727 92.1678L144.719 97.4177C144.719 97.4177 144.407 100.569 144.485 101.694C144.564 102.819 143.786 107.923 143.786 107.923C143.786 107.923 142.777 115.423 141.923 116.472C141.068 117.522 141.226 122.025 141.226 122.025C141.02 124.181 140.63 126.314 140.06 128.403C139.217 131.254 139.829 134.778 139.829 134.778C139.829 134.778 136.879 141.532 143.943 136.955C143.943 136.955 147.411 136.739 151.404 136.605C151.404 136.734 151.404 136.866 151.404 137C151.404 137.514 151.387 138.069 151.381 138.656C151.328 142.522 151.305 147.851 151.48 151.883C151.789 159.01 153.964 173.115 153.964 173.115V180.2C153.823 180.866 153.754 181.545 153.758 182.226C153.711 184.723 154.374 187.183 155.672 189.319L156.153 193.996C156.153 193.996 157.428 197.111 157.454 198.971C157.448 199.123 157.429 199.274 157.397 199.423C157.35 199.661 157.329 199.904 157.336 200.147C157.263 202.293 158.558 207.425 158.558 207.425C158.558 207.425 158.637 212.602 159.401 212.902C160.064 213.158 158.516 215.885 158.052 216.668C158.052 216.617 158.032 216.57 158.024 216.519C157.965 216.62 157.928 216.676 157.928 216.676C157.769 217.094 157.687 217.537 157.687 217.984C157.643 218.338 157.7 218.696 157.853 219.019C158.005 219.341 158.245 219.614 158.547 219.805C160.022 220.706 160.814 221.455 159.564 221.769C159.103 221.839 158.646 221.933 158.195 222.05C158.173 221.991 158.15 221.932 158.131 221.876C157.956 221.948 157.811 222.076 157.718 222.24C157.625 222.405 157.591 222.596 157.619 222.782C157.586 223.161 157.712 223.713 158.083 224.538C159.325 227.313 160.185 228.366 160.185 228.366L160.781 228.298C160.69 228.524 160.574 228.738 160.435 228.938C160.208 229.264 159.907 229.53 159.555 229.715C159.232 229.91 158.871 230.033 158.496 230.077C158.075 230.091 157.661 230.194 157.282 230.378C156.903 230.562 156.567 230.824 156.296 231.146C155.523 232.145 155.037 233.509 156.577 234.704L162.129 236.618C162.129 236.618 171.683 237.855 171.169 235.717C170.655 233.579 170.357 231.705 170.357 231.705C170.357 231.705 170.464 229.617 169.582 227.911C169.483 227.716 169.37 227.529 169.244 227.35L169.582 227.311C169.582 227.311 170.278 222.586 171.211 221.699C171.425 221.491 171.473 221.331 171.422 221.211C171.52 220.952 171.276 220.801 170.964 220.717L170.897 220.902C170.592 220.836 170.281 220.801 169.969 220.798C169.969 220.798 169.657 218.323 170.666 217.431C170.748 217.329 170.808 217.211 170.842 217.084C170.876 216.958 170.883 216.825 170.863 216.696C170.871 216.357 170.837 216.019 170.759 215.689C170.759 215.705 170.736 215.728 170.722 215.745C170.214 213.5 168.494 209.928 168.494 209.928C168.494 209.928 168.415 207.683 169.036 206.78C169.657 205.876 168.961 194.549 168.961 194.549C168.961 194.549 169.194 189.075 168.494 186.524C167.794 183.974 169.337 180.971 169.337 180.971C169.337 180.971 169.337 180.912 169.32 180.809L169.34 180.769C169.34 180.769 169.306 180.433 169.25 179.908C169.242 179.924 169.236 179.941 169.23 179.958C169.076 178.511 168.778 175.884 168.562 174.669C168.25 172.944 168.637 164.692 168.637 164.692L170.042 161.167L172.526 167.242L175.168 175.346C175.168 175.346 176.475 177.057 176.505 178.791C176.505 178.875 176.505 178.96 176.489 179.044C176.467 179.223 176.457 179.404 176.458 179.585C176.411 180.609 176.693 181.62 177.261 182.473C177.261 182.473 177.961 186.297 179.049 187.273C180.136 188.25 180.133 190.124 180.133 190.124C180.133 190.124 181.454 195.674 182.075 196.651C182.598 197.473 182.637 199.737 182.62 200.425C182.62 200.554 182.62 200.627 182.62 200.627C182.62 200.627 182.803 202.61 182.797 204.274C182.797 204.479 182.797 204.678 182.777 204.866V204.824C182.776 205.279 182.722 205.732 182.617 206.174C182.608 206.199 182.601 206.224 182.595 206.25C182.595 206.157 182.595 206.062 182.617 205.969C182.347 207.102 182.216 208.264 182.229 209.429C182.193 211.424 182.51 213.789 183.708 215.175C185.804 217.577 187.124 217.277 187.124 217.277C187.124 217.277 186.113 220.276 184.876 220.877C184.83 220.9 184.786 220.929 184.744 220.961C184.744 220.902 184.722 220.846 184.713 220.787C184.455 221.011 184.351 221.415 184.351 221.909C184.261 223.228 185.093 225.372 185.888 226.357C186.181 226.644 186.542 226.854 186.936 226.968C186.873 227.012 186.807 227.052 186.74 227.089C186.601 227.164 186.459 227.231 186.312 227.288C186.112 227.377 185.898 227.433 185.68 227.454C185.259 227.463 184.844 227.562 184.464 227.744C184.083 227.926 183.746 228.187 183.474 228.509C182.702 229.505 182.215 230.868 183.755 232.064L189.308 233.977C189.308 233.977 198.845 235.212 198.336 233.074Z" fill="url(#paint6_linear)"/>
<path d="M161.873 236.618L156.501 234.704C155.017 233.509 155.489 232.145 156.239 231.146C156.496 230.826 156.819 230.565 157.186 230.381C157.553 230.197 157.956 230.093 158.366 230.077C158.731 230.033 159.081 229.909 159.392 229.715C159.731 229.527 160.02 229.261 160.235 228.938C160.628 228.317 160.84 227.599 160.848 226.865C160.848 226.865 166.749 225.139 168.362 226.865C168.65 227.177 168.89 227.529 169.075 227.911C169.918 229.617 169.828 231.705 169.828 231.705C169.828 231.705 170.129 233.576 170.615 235.717C171.101 237.858 161.873 236.618 161.873 236.618Z" fill="#2D293D"/>
<path d="M188.167 233.975L182.794 232.061C181.313 230.866 181.785 229.502 182.532 228.506C182.789 228.185 183.112 227.924 183.479 227.739C183.846 227.555 184.249 227.452 184.66 227.437C184.873 227.416 185.081 227.36 185.275 227.271C185.417 227.214 185.555 227.147 185.688 227.072C187.191 226.247 187.152 224.221 187.152 224.221C187.152 224.221 193.053 222.496 194.666 224.221C194.882 224.455 195.071 224.712 195.228 224.987C196.24 226.733 196.127 229.062 196.127 229.062C196.127 229.062 196.428 230.936 196.917 233.074C197.406 235.212 188.167 233.975 188.167 233.975Z" fill="#2D293D"/>
<path opacity="0.1" d="M168.37 226.865C168.658 227.177 168.899 227.529 169.084 227.911L160.244 228.935C160.637 228.314 160.849 227.596 160.856 226.862C160.856 226.862 166.757 225.142 168.37 226.865Z" fill="black"/>
<path opacity="0.1" d="M195.231 224.987V226.64C193.857 228.902 187.205 228.408 185.275 227.271C185.417 227.214 185.555 227.147 185.688 227.072C187.191 226.247 187.152 224.221 187.152 224.221C187.152 224.221 193.053 222.496 194.666 224.221C194.883 224.454 195.072 224.711 195.231 224.987Z" fill="black"/>
<path d="M196.282 217.863C195.87 218.581 195.518 219.332 195.231 220.108V226.04C193.728 228.514 185.913 227.689 184.862 226.34C183.811 224.99 182.684 221.463 183.884 220.863C185.084 220.262 186.059 217.263 186.059 217.263C186.059 217.263 184.781 217.563 182.752 215.161C180.723 212.759 181.324 207.434 181.704 206.16C182.083 204.886 181.704 200.607 181.704 200.607C181.704 200.607 181.78 197.607 181.178 196.631C180.577 195.655 179.315 190.105 179.315 190.105C179.315 190.105 179.315 188.23 178.261 187.254C177.208 186.277 176.533 182.453 176.533 182.453C175.918 181.497 175.653 180.358 175.783 179.229C176.008 177.352 174.504 175.326 174.504 175.326L171.95 167.225L169.548 161.148L168.196 164.675C168.196 164.675 167.819 172.927 168.12 174.653C168.421 176.378 168.87 180.955 168.87 180.955C168.87 180.955 167.37 183.954 168.044 186.505C168.719 189.055 168.497 194.532 168.497 194.532C168.497 194.532 169.171 205.86 168.57 206.76C167.968 207.661 168.044 209.911 168.044 209.911C168.044 209.911 171.135 216.511 170.149 217.411C169.163 218.312 169.472 220.779 169.472 220.779C169.472 220.779 171.576 220.778 170.674 221.679C169.772 222.58 169.095 227.291 169.095 227.291L160.013 228.343C160.013 228.343 159.17 227.291 157.979 224.516C156.787 221.741 158.204 222.041 159.412 221.741C160.62 221.441 159.856 220.692 158.428 219.777C157.001 218.862 157.827 216.85 157.827 216.85C157.827 216.85 160.005 213.175 159.255 212.874C158.504 212.574 158.428 207.397 158.428 207.397C158.428 207.397 156.925 201.247 157.304 199.597C157.684 197.947 156.088 193.996 156.088 193.996L155.562 189.268C152.856 184.619 153.91 180.343 153.91 180.343V173.076C153.91 173.076 151.805 158.973 151.505 151.846C151.313 147.281 151.367 141.052 151.429 137.166C151.465 134.986 151.505 133.541 151.505 133.541L183.96 130.174C183.96 130.174 183.926 131.669 184.55 134.988C184.879 136.767 185.393 139.071 186.214 141.953C188.543 150.205 187.116 156.355 187.116 156.355L186.815 166.779C186.815 166.779 189.67 173.757 189.063 176.156C188.703 177.581 188.501 179.04 188.462 180.508C188.462 180.508 194.855 195.733 194.177 200.169C193.5 204.605 196.282 211.572 196.282 211.572C196.282 211.572 197.032 216.511 196.282 217.863Z" fill="#575988"/>
<path opacity="0.05" d="M177.725 178.777L187.605 177.464C187.605 177.464 182.007 183.166 177.725 178.777Z" fill="black"/>
<path opacity="0.1" d="M186.177 167.826C186.177 167.826 186.514 171.314 184.373 172.627C184.373 172.627 188.206 172.026 186.177 167.826Z" fill="black"/>
<path opacity="0.1" d="M185.57 156.723C185.57 156.723 177.312 163.51 174.308 162.949C171.304 162.388 185.57 156.723 185.57 156.723Z" fill="black"/>
<path opacity="0.1" d="M165.479 181.968C165.479 181.968 159.207 183.39 159.016 185.896C158.825 188.401 165.479 181.968 165.479 181.968Z" fill="black"/>
<path opacity="0.05" d="M166.858 213.248C166.858 213.248 157.992 214.9 160.51 216.025C163.028 217.151 167.159 218.048 167.159 218.048C167.159 218.048 170.014 218.2 166.858 213.248Z" fill="black"/>
<g opacity="0.05">
<path opacity="0.05" d="M158.721 217.81C158.498 217.671 158.309 217.483 158.168 217.261C158.027 217.039 157.939 216.789 157.909 216.528L157.819 216.685C157.819 216.685 156.993 218.711 158.42 219.611L158.884 219.914C159.145 219.867 159.429 219.83 159.704 219.76C160.913 219.46 160.148 218.711 158.721 217.81Z" fill="black"/>
<path opacity="0.05" d="M170.14 217.209C170.382 216.985 170.374 216.41 170.225 215.669C169.826 216.25 169.73 217.153 169.722 217.841C169.814 217.603 169.957 217.388 170.14 217.209Z" fill="black"/>
<path opacity="0.05" d="M168.775 179.888C168.446 180.775 168.245 181.703 168.176 182.646C168.346 181.995 168.575 181.361 168.862 180.752C168.862 180.752 168.828 180.413 168.775 179.888Z" fill="black"/>
<path opacity="0.05" d="M189.071 175.949C189.132 175.68 189.16 175.405 189.152 175.13C189.043 175.691 188.965 176.21 188.909 176.664C188.956 176.431 189.009 176.193 189.071 175.949Z" fill="black"/>
<path opacity="0.05" d="M168.561 206.558C168.685 206.373 168.753 205.756 168.786 204.892C168.505 205.439 168.39 206.323 168.354 206.996C168.405 206.842 168.475 206.695 168.561 206.558Z" fill="black"/>
<path opacity="0.05" d="M170.424 220.706C169.806 222.389 169.387 225.313 169.387 225.313L160.302 226.362C160.302 226.362 159.459 225.313 158.268 222.538C158.164 222.294 158.08 222.075 158.012 221.876C157.467 222.125 157.253 222.689 157.967 224.336C159.17 227.111 160.002 228.164 160.002 228.164L169.086 227.106C169.086 227.106 169.764 222.381 170.666 221.494C171.11 221.045 170.826 220.818 170.424 220.706Z" fill="black"/>
<path opacity="0.05" d="M158.42 207.232C158.42 207.232 158.496 212.409 159.246 212.709C159.625 211.853 159.878 211.025 159.527 210.905C158.777 210.607 158.701 205.43 158.701 205.43C158.701 205.43 157.197 199.277 157.577 197.627C157.956 195.977 156.374 192.001 156.374 192.001L155.849 187.276C153.143 182.624 154.196 178.348 154.196 178.348V171.075C154.196 171.075 152.092 156.97 151.791 149.843C151.6 145.28 151.653 139.051 151.715 135.165C151.715 134.461 151.74 133.838 151.752 133.313L151.49 133.339C151.49 133.339 151.451 134.784 151.415 136.964C151.353 140.85 151.299 147.065 151.49 151.644C151.791 158.771 153.896 172.874 153.896 172.874V180.152C153.896 180.152 152.842 184.428 155.548 189.078L156.073 193.806C156.073 193.806 157.65 197.781 157.276 199.417C156.902 201.053 158.42 207.232 158.42 207.232Z" fill="black"/>
<path opacity="0.05" d="M185.165 224.336C184.427 223.27 183.936 222.053 183.727 220.773C182.799 221.615 183.864 224.856 184.851 226.138C185.902 227.487 193.716 228.312 195.22 225.838V224.409C193.202 226.421 186.16 225.613 185.165 224.336Z" fill="black"/>
<path opacity="0.05" d="M196.586 215.86C196.172 216.577 195.819 217.328 195.532 218.105V219.157C195.703 218.772 195.948 218.259 196.285 217.656C196.501 217.266 196.591 216.578 196.614 215.795C196.602 215.821 196.594 215.843 196.586 215.86Z" fill="black"/>
<path opacity="0.05" d="M185.626 217.041C185.914 216.465 186.161 215.869 186.368 215.259C186.368 215.259 185.089 215.559 183.061 213.16C181.585 211.412 181.501 208.11 181.712 205.958C181.332 207.234 180.734 212.56 182.76 214.959C184.092 216.53 185.089 216.943 185.626 217.041Z" fill="black"/>
<path opacity="0.05" d="M181.709 200.405C181.841 201.884 181.891 203.368 181.858 204.852C181.896 204.618 181.948 204.385 182.012 204.157C182.392 202.883 182.012 198.606 182.012 198.606C182.012 198.606 182.088 195.604 181.487 194.631C180.886 193.657 179.596 188.104 179.596 188.104C179.596 188.104 179.596 186.227 178.545 185.253C177.494 184.28 176.817 180.452 176.817 180.452C176.202 179.495 175.937 178.355 176.066 177.226C176.291 175.351 174.788 173.325 174.788 173.325L172.234 165.222L169.831 159.147L168.477 162.671C168.477 162.671 168.457 163.115 168.432 163.811L169.53 160.946L171.933 167.023L174.487 175.124C174.487 175.124 175.991 177.15 175.766 179.027C175.636 180.156 175.901 181.295 176.516 182.251C176.516 182.251 177.193 186.078 178.244 187.052C179.295 188.025 179.315 189.903 179.315 189.903C179.315 189.903 180.593 195.455 181.195 196.429C181.796 197.403 181.709 200.405 181.709 200.405Z" fill="black"/>
</g>
<path d="M188.026 62.4001L187.464 65.1387L187.498 66.3564L187.52 67.2571L184.373 67.5658L184.022 66.9176C183.373 65.7447 182.027 63.3569 181.588 62.9893C181.009 62.5011 179.975 54.8859 181.217 55.3377C181.974 55.6301 182.596 56.1918 182.962 56.9146C182.962 56.9146 189.127 57.6301 188.026 62.4001Z" fill="#FFCDD3"/>
<path opacity="0.1" d="M187.509 67.2431L184.373 67.5657L184.022 66.9176C184.472 66.4546 185.756 65.4024 187.484 66.3564L187.509 67.2431Z" fill="black"/>
<path d="M188.307 68.7247L184.168 69.6955L184.081 69.0782L183.848 67.4256C183.848 67.4256 185.48 65.2482 187.849 66.8784L188.054 67.7202L188.307 68.7247Z" fill="#DCE6F2"/>
<path d="M121.339 62.6809L116.933 65.049C116.933 65.049 116.764 64.7011 116.534 64.2073C116.112 63.329 115.488 62.0046 115.317 61.5304C115.056 60.8009 113.212 59.8806 113.212 59.8806C108.596 55.4725 114.097 51.6846 114.097 51.6846C117.009 45.8343 120.257 53.6712 120.257 53.6712C120.257 53.6712 120.707 57.8014 120.389 58.0792C120.072 58.357 120.072 59.4822 120.072 59.4822C120.493 60.2941 120.848 61.1386 121.134 62.0075C121.266 62.4283 121.339 62.6809 121.339 62.6809Z" fill="#FFCDD3"/>
<path opacity="0.1" d="M121.339 62.6807L116.933 65.0489C116.933 65.0489 116.765 64.701 116.534 64.2071C117.155 63.688 119.364 61.9007 120.089 61.9821C120.436 62.025 120.786 62.0334 121.134 62.0073C121.266 62.4282 121.339 62.6807 121.339 62.6807Z" fill="black"/>
<path d="M121.791 64.0163L116.831 66.4574L116.733 65.3912L116.652 64.6448C116.652 64.6448 119.523 62.1868 120.372 62.2822C120.802 62.3454 121.238 62.3454 121.668 62.2822L121.724 63.1745L121.791 64.0163Z" fill="#DCE6F2"/>
<path d="M175.997 80.5794C175.997 80.5794 154.377 83.015 158.417 81.7018C161.227 80.7871 162.351 78.9997 162.582 77.0188C162.773 75.3605 162.346 73.5675 161.778 72.0243C161.267 70.6622 160.62 69.3555 159.845 68.1241C159.845 68.1241 176.373 59.0443 173.052 67.2823C172.542 68.531 172.227 69.85 172.116 71.1937C172.015 72.5282 172.159 73.87 172.54 75.1529C173.166 77.2467 174.363 79.1255 175.997 80.5794Z" fill="#FFCDD3"/>
<path opacity="0.1" d="M173.065 67.2993C172.556 68.5479 172.24 69.8669 172.13 71.2107C170.573 72.5154 168.864 72.4312 166.673 72.4312C164.987 72.4312 163.124 72.8381 161.778 72.0272C161.267 70.6651 160.619 69.3584 159.844 68.127C159.844 68.127 176.373 59.0471 173.065 67.2993Z" fill="black"/>
<path d="M166.38 73.0037C171.319 73.0037 175.322 69.0063 175.322 64.0753C175.322 59.1443 171.319 55.147 166.38 55.147C161.442 55.147 157.439 59.1443 157.439 64.0753C157.439 69.0063 161.442 73.0037 166.38 73.0037Z" fill="#FFCDD3"/>
<path opacity="0.1" d="M175.997 80.5795C175.997 80.5795 154.377 83.015 158.417 81.7019C161.227 80.7872 162.351 78.9998 162.582 77.0189C163.658 75.8572 165.822 75.0154 167.21 74.5693C168.483 74.1414 169.857 74.1188 171.144 74.5048C171.648 74.655 172.128 74.8781 172.568 75.167C173.189 77.2526 174.376 79.1259 175.997 80.5795Z" fill="black"/>
<path opacity="0.1" d="M188.307 68.7246L184.168 69.6954L184.081 69.0781C185.247 67.591 186.717 67.4114 188.054 67.7229L188.307 68.7246Z" fill="black"/>
<path opacity="0.1" d="M121.792 64.0163L116.832 66.4574L116.734 65.3912C118.507 64.3474 121.477 63.2728 121.735 63.1802L121.792 64.0163Z" fill="black"/>
<path opacity="0.1" d="M184.55 134.98C176.176 136.299 164.259 138.019 162.368 137.444C160.8 136.967 155.79 137.017 151.429 137.163C151.465 134.983 151.505 133.538 151.505 133.538L183.96 130.171C183.96 130.171 183.926 131.661 184.55 134.98Z" fill="black"/>
<path d="M192.901 133.016C192.901 133.016 165.329 137.744 162.368 136.843C159.406 135.942 144.218 136.919 144.218 136.919C137.381 141.492 140.236 134.742 140.236 134.742C140.236 134.742 139.635 131.217 140.461 128.367C141.012 126.275 141.388 124.142 141.585 121.989C141.585 121.989 141.436 117.499 142.262 116.439C143.088 115.378 144.063 107.886 144.063 107.886C144.063 107.886 144.816 102.785 144.74 101.66C144.665 100.535 144.965 97.3839 144.965 97.3839L145.946 92.1425C140.326 91.3933 123.185 80.8909 123.185 80.8909C122.359 77.3639 115.972 69.1062 115.972 69.1062C115.879 68.4122 115.702 67.732 115.446 67.0803C114.994 65.8794 121.757 63.4803 121.757 63.4803C121.757 63.4803 126.79 69.6309 127.841 71.2807C128.892 72.9306 132.5 76.0086 132.5 76.0086C133.06 75.9511 133.626 76.0251 134.152 76.2247C134.183 76.2247 134.208 76.2415 134.239 76.2499C134.27 76.2584 134.239 76.2499 134.239 76.2499C135.925 76.8364 137.611 78.1776 137.611 78.1776C140.317 78.0289 142.195 79.9032 142.195 79.9032C142.195 79.9032 145.286 79.4543 145.8 79.979C146.314 80.5037 148.955 79.979 148.955 79.979C148.955 79.979 151.586 74.4261 153.314 76.0507C155.042 77.6753 162.373 77.5884 162.373 77.5884C163.351 76.292 165.728 75.3633 167.215 74.8835C168.488 74.4555 169.862 74.433 171.149 74.8189C171.703 74.9767 172.226 75.2292 172.694 75.5653L177.143 79.9144C177.143 79.9144 178.421 78.2646 178.267 77.8886C178.112 77.5126 179.77 77.2152 179.77 77.2152C179.77 77.2152 181.948 76.539 182.774 76.3145C183.6 76.09 184.359 76.9823 184.426 77.0608C184.398 76.9654 183.833 75.15 184.052 73.7639C184.272 72.3778 183.15 71.0619 183.15 71.0619C185.781 64.6083 191.715 70.0125 191.715 70.0125C191.715 70.0125 192.393 73.5395 191.791 74.8891C191.19 76.2387 192.392 79.0979 192.241 79.8387C192.089 80.5794 192.541 81.8645 192.541 83.2899C192.541 84.7153 191.791 87.4174 191.339 88.6211C190.886 89.8248 187.267 92.5073 187.267 92.5073C187.267 92.5073 187.039 96.7834 185.463 99.2582C183.887 101.733 184.862 110.201 184.862 110.201C184.862 110.201 186.365 116.803 188.234 118.899C190.102 120.995 192.901 133.016 192.901 133.016Z" fill="#656691"/>
<path opacity="0.1" d="M152.707 83.6548C152.707 83.6548 151.881 81.18 151.13 80.9527C150.382 80.6781 149.654 80.3528 148.95 79.979L149.433 79.0559C149.433 79.0559 152.257 79.8275 152.707 80.6525C153.156 81.4774 152.707 83.6548 152.707 83.6548Z" fill="black"/>
<path opacity="0.1" d="M137.606 78.1776C137.457 78.9296 130.769 79.603 130.769 79.603L134.141 76.2191L134.226 76.2472C135.934 76.8364 137.606 78.1776 137.606 78.1776Z" fill="black"/>
<path d="M118.26 68.4805C118.592 68.4805 118.861 68.2116 118.861 67.88C118.861 67.5484 118.592 67.2795 118.26 67.2795C117.927 67.2795 117.658 67.5484 117.658 67.88C117.658 68.2116 117.927 68.4805 118.26 68.4805Z" fill="#575988"/>
<path d="M119.029 69.6815C119.361 69.6815 119.63 69.4127 119.63 69.0811C119.63 68.7494 119.361 68.4806 119.029 68.4806C118.697 68.4806 118.428 68.7494 118.428 69.0811C118.428 69.4127 118.697 69.6815 119.029 69.6815Z" fill="#575988"/>
<path d="M119.782 70.7898C120.115 70.7898 120.384 70.5209 120.384 70.1893C120.384 69.8577 120.115 69.5889 119.782 69.5889C119.45 69.5889 119.181 69.8577 119.181 70.1893C119.181 70.5209 119.45 70.7898 119.782 70.7898Z" fill="#575988"/>
<path d="M120.569 71.9879C120.901 71.9879 121.17 71.7191 121.17 71.3875C121.17 71.0558 120.901 70.787 120.569 70.787C120.237 70.787 119.968 71.0558 119.968 71.3875C119.968 71.7191 120.237 71.9879 120.569 71.9879Z" fill="#575988"/>
<path d="M191.387 71.811C191.657 71.811 191.876 71.5925 191.876 71.3228C191.876 71.0532 191.657 70.8346 191.387 70.8346C191.117 70.8346 190.898 71.0532 190.898 71.3228C190.898 71.5925 191.117 71.811 191.387 71.811Z" fill="#575988"/>
<path d="M191.463 72.9166C191.733 72.9166 191.952 72.698 191.952 72.4284C191.952 72.1588 191.733 71.9402 191.463 71.9402C191.193 71.9402 190.974 72.1588 190.974 72.4284C190.974 72.698 191.193 72.9166 191.463 72.9166Z" fill="#575988"/>
<path d="M191.53 74.0249C191.8 74.0249 192.019 73.8063 192.019 73.5367C192.019 73.267 191.8 73.0485 191.53 73.0485C191.26 73.0485 191.042 73.267 191.042 73.5367C191.042 73.8063 191.26 74.0249 191.53 74.0249Z" fill="#575988"/>
<path opacity="0.1" d="M152.743 103.983C152.676 103.896 169.603 125.252 182.757 112.912C182.757 112.906 161.985 115.726 152.743 103.983Z" fill="black"/>
<path opacity="0.1" d="M143.015 115.086C143.015 115.086 153.148 115.367 154.21 118.274V121.301C153.922 121.462 153.598 121.547 153.267 121.547C152.937 121.547 152.613 121.462 152.325 121.301C151.302 120.74 145.176 117.654 143.015 119.138V115.086Z" fill="black"/>
<path d="M143.204 115.086C143.204 115.086 152.895 115.35 153.91 118.125V121.012C153.634 121.166 153.324 121.247 153.008 121.247C152.692 121.247 152.381 121.166 152.106 121.012C151.131 120.488 145.269 117.525 143.204 118.95V115.086Z" fill="#656691"/>
<path opacity="0.1" d="M148.548 93.1134C148.548 93.1134 149.709 96.0933 152.482 99.8475C154.197 102.145 156.275 104.148 158.633 105.779C158.633 105.779 148.717 94.5051 148.548 93.1134Z" fill="black"/>
<path opacity="0.1" d="M145.232 81.3539C145.232 81.3539 146.918 88.6492 151.28 91.1184L145.232 81.3539Z" fill="black"/>
<path opacity="0.1" d="M142.639 82.0919C142.597 81.9572 141.139 87.8552 148.259 91.1184C148.256 91.1184 145.233 90.0943 142.639 82.0919Z" fill="black"/>
<path opacity="0.1" d="M186.902 77.2041C186.79 77.2041 190.415 79.5077 191.398 80.5712C191.398 80.5796 189.032 77.0526 186.902 77.2041Z" fill="black"/>
<path d="M163.964 72.1675C164.09 72.6277 164.245 73.1327 164.661 73.3741C164.923 73.5002 165.212 73.5646 165.504 73.5621C168.229 73.7304 171.065 73.8426 173.588 72.8017C174.058 72.6347 174.479 72.3553 174.816 71.988C175.263 71.4408 175.35 70.6972 175.53 70.0238C175.884 68.691 176.637 67.4985 177.182 66.2331C178.095 64.0877 178.402 61.7332 178.067 59.426C177.997 58.7173 177.763 58.0344 177.384 57.431C176.659 56.4013 175.344 55.9832 174.386 55.1639C173.428 54.3445 172.815 53.0903 171.7 52.473C170.694 51.9118 169.452 51.982 168.328 52.1728C166.098 52.5524 163.962 53.3533 162.033 54.5325C161.387 54.931 160.676 55.3883 159.929 55.248C159.277 55.1246 158.805 54.5774 158.383 54.0639C157.849 55.2875 157.619 56.6215 157.711 57.9529C157.74 58.148 157.733 58.3466 157.692 58.5393C157.599 58.7726 157.457 58.9832 157.276 59.1566C156.604 59.9367 156.183 61.1713 156.849 61.9625C157.13 62.3048 157.582 62.4928 157.863 62.8408C158.369 63.4693 158.198 64.37 158.186 65.1725C158.156 65.4511 158.226 65.7314 158.383 65.9637C158.636 66.2696 159.097 66.2948 159.487 66.2275C159.878 66.1601 160.277 66.0282 160.662 66.1152C161.082 66.2548 161.442 66.5316 161.685 66.9009C162.944 68.4862 163.435 70.2567 163.964 72.1675Z" fill="#2D293D"/>
<g opacity="0.1">
<path opacity="0.1" d="M175.117 71.3004C174.78 71.6678 174.358 71.9472 173.889 72.1141C171.36 73.1636 168.53 73.0429 165.804 72.8717C165.513 72.8766 165.224 72.8131 164.961 72.6866C164.548 72.4424 164.399 71.9402 164.264 71.48C163.736 69.5552 163.244 67.7987 161.985 66.1993C161.743 65.8301 161.382 65.5533 160.963 65.4137C160.578 65.3267 160.179 65.4586 159.788 65.5259C159.397 65.5933 158.945 65.568 158.684 65.2622C158.527 65.0299 158.457 64.7496 158.487 64.4709C158.487 63.6684 158.667 62.7649 158.164 62.1392C157.883 61.7885 157.439 61.6033 157.147 61.261C156.731 60.7643 156.742 60.0937 156.975 59.468C156.497 60.2256 156.289 61.1993 156.849 61.8586C157.13 62.2038 157.582 62.3889 157.863 62.7397C158.366 63.3654 158.197 64.2689 158.186 65.0714C158.156 65.35 158.226 65.6303 158.383 65.8626C158.636 66.1685 159.097 66.1937 159.487 66.1264C159.878 66.059 160.277 65.9272 160.662 66.0142C161.082 66.1537 161.442 66.4305 161.685 66.7998C162.944 68.3992 163.435 70.1669 163.964 72.0805C164.09 72.5378 164.245 73.0429 164.66 73.287C164.923 73.4136 165.212 73.477 165.503 73.4722C168.229 73.6434 171.064 73.7528 173.588 72.7146C174.058 72.5476 174.479 72.2682 174.816 71.9009C174.986 71.6839 175.117 71.4389 175.204 71.177C175.176 71.2191 175.147 71.2612 175.117 71.3004Z" fill="black"/>
<path opacity="0.1" d="M157.719 58.2924C157.844 58.1632 157.939 58.0093 158 57.8406C158.042 57.6479 158.049 57.4493 158.02 57.2542C157.946 56.1607 158.088 55.0633 158.439 54.0246L158.391 53.9657C157.857 55.1892 157.626 56.5233 157.719 57.8547C157.733 58.0002 157.733 58.1468 157.719 58.2924Z" fill="black"/>
</g>
<path opacity="0.1" d="M162.368 77.5773C162.368 77.5773 173.537 79.056 174.541 77.3809L162.368 77.5773Z" fill="black"/>
<path opacity="0.1" d="M184.092 72.9644C184.092 72.9644 190.297 72.9644 191.662 75.2933L184.092 72.9644Z" fill="black"/>
<path d="M68.4912 82.3506L65.6704 83.3518L64.6465 81.6526C63.8629 80.3455 62.7764 78.5574 61.9745 77.2581C60.5588 74.9707 62.4107 71.4886 62.4107 71.4886C62.4107 71.4886 62.7346 68.0065 63.9308 66.919C65.1271 65.8315 65.4536 71.4886 65.4536 71.4886C70.236 73.6662 67.6737 78.7796 67.6737 78.7796L68.1386 80.8108L68.4912 82.3506Z" fill="#A1616A"/>
<path opacity="0.1" d="M68.4915 82.3506L65.6706 83.3518L64.6467 81.6526V81.5036C64.6467 81.5036 66.2635 80.3925 68.1493 80.8108L68.4915 82.3506Z" fill="black"/>
<path d="M63.9309 93.8006L65.344 92.6138L64.6361 81.8381C64.6361 81.8381 68.2798 79.3363 70.9988 83.255C70.9988 83.255 70.8891 85.6496 70.9988 86.3031C71.1085 86.9566 70.2387 87.6102 70.9988 88.2611C71.7588 88.9121 70.9988 91.0897 70.9988 91.0897C70.9988 91.0897 71.8581 92.6138 72.4014 93.0503C72.9447 93.4869 73.4906 97.0762 72.4014 97.8395C71.3122 98.6029 69.2488 100.341 69.2488 101.105C69.2488 101.868 66.6369 103.719 66.6369 103.719L64.3514 100.671L63.9309 93.8006Z" fill="#5A5773"/>
<path d="M33.3718 159.216C28.1009 156.978 29.2711 151.512 30.2636 148.759C30.4626 148.201 30.6955 147.657 30.961 147.128L33.9229 145.337C33.9229 145.337 34.5263 146.877 35.1714 148.944C36.6628 153.731 38.3841 161.343 33.3718 159.216Z" fill="#A1616A"/>
<path d="M40.6172 209.092C40.2598 209.787 39.9963 210.526 39.8336 211.29C39.577 212.522 39.4674 213.781 39.5071 215.039C39.528 215.909 39.6011 216.479 39.6011 216.479L33.7295 220.521C33.7295 220.521 33.7634 220.048 33.8209 219.352C33.9724 217.502 34.2884 214.066 34.5862 213.622C34.7925 213.311 34.9362 212.072 35.0276 210.924C35.119 209.777 35.1556 208.765 35.1556 208.765C35.1556 208.765 42.2078 206.111 40.6172 209.092Z" fill="#A1616A"/>
<path d="M54.4837 211.991C54.4837 211.991 54.4837 213.115 54.4419 214.422C54.4001 215.729 54.3217 217.269 54.1572 217.991C54.0057 218.647 53.9953 219.86 54.024 220.976C54.0632 222.283 54.1572 223.459 54.1572 223.459C54.1572 223.459 48.1498 217.787 48.774 217.337C48.9386 217.217 49.1005 216.733 49.2494 216.09C49.4322 215.306 49.5968 214.26 49.7195 213.369C49.8658 212.323 49.9572 211.46 49.9572 211.46L54.4837 211.991Z" fill="#A1616A"/>
<path d="M66.7573 156.4C64.3648 161.628 63.3853 167.827 63.3853 167.827L62.5181 173.055C62.5181 173.055 62.9517 175.34 62.5181 176.21C62.0845 177.081 61.2122 178.495 61.2122 178.495C61.2122 178.495 61.8651 183.831 61.2122 184.372C60.5592 184.913 61.2122 188.183 61.2122 188.183L59.0364 199.176L55.9909 213.324C53.0551 215.719 49.1477 212.671 49.1477 212.671L50.0096 203.422C50.0096 203.422 51.3156 187.214 50.7723 186.55C50.229 185.886 50.9891 183.831 50.9891 183.831C50.9891 183.831 51.7518 181.87 51.2085 181.107C50.6652 180.343 51.3156 178.712 51.3156 178.712C51.3156 178.712 51.0988 172.075 51.7518 170.551C52.4047 169.027 51.7518 159.597 51.7518 159.597L51.4906 156.662L51.3417 155.036L51.326 154.876C51.326 154.876 51.2268 155.53 51.0648 156.539C50.5842 159.61 49.5604 165.976 49.1555 167.286C48.8753 168.225 48.4971 169.133 48.0272 169.994C48.0272 169.994 48.5913 173.259 48.0272 174.13C47.463 175 47.941 175.98 47.941 175.98C47.941 175.98 48.4842 178.699 46.8518 179.789C45.2193 180.879 46.8518 181.421 46.8518 181.421C46.8518 181.421 45.6555 184.035 45.2219 185.122C44.7884 186.21 45.2219 187.736 45.2219 187.736L44.3705 196.549C44.3705 196.549 43.6078 200.248 43.7175 202.752C43.8272 205.257 42.7249 211.037 42.7249 211.037C42.7249 211.037 34.3511 211.037 33.0608 210.056C31.7705 209.076 35.2287 199.487 35.2287 199.487C35.2287 199.487 36.2082 182.725 35.9888 182.288C35.7694 181.852 35.9888 178.589 36.7515 177.936C37.5142 177.282 36.7515 175.978 36.7515 175.978C36.7515 175.978 36.5347 173.364 36.7515 172.713C36.9683 172.062 36.7175 169.881 36.7175 169.881C36.7175 169.881 35.9888 164.549 35.8817 161.5C35.7746 158.452 35.2287 151.595 35.2287 151.595C35.2287 151.595 35.7981 147.355 35.8843 145.337C35.9156 144.594 36.2474 143.669 36.6548 142.796C37.1258 141.809 37.667 140.858 38.2742 139.949C38.2742 139.949 64.0461 132.331 65.1353 133.092C65.4226 133.293 65.8405 134.66 66.2532 136.642C67.3946 142.166 68.5177 152.542 66.7573 156.4Z" fill="#605D82"/>
<path d="M45.6604 94.3444C45.6604 94.3444 38.6996 95.4345 37.0698 96.522C35.4399 97.6095 32.175 99.6721 32.175 104.142C32.175 108.613 31.415 113.174 30.9788 114.482C30.5426 115.789 37.8403 126.337 37.8403 126.337L35.2284 142.336C35.2284 142.336 45.6761 142.012 49.1552 142.336C52.6343 142.66 64.8085 136.896 64.8085 136.896C64.8085 136.896 71.986 133.084 73.5088 132.974C75.0315 132.865 70.4633 124.593 70.4633 124.593C70.4633 124.593 63.3954 111.206 64.5917 109.028C65.7879 106.851 66.6577 103.695 66.6577 103.695L65.3517 92.5929C65.3517 92.5929 63.3954 91.942 61.763 93.1367C60.1305 94.3313 54.5854 93.683 54.5854 93.683L45.6604 94.3444Z" fill="#5A5773"/>
<path d="M33.6978 113.718L30.9788 114.482L30.2187 124.713C30.2187 124.713 31.1982 127.432 30.2187 128.305C29.2393 129.179 29.0225 147.786 29.0225 147.786C29.0225 147.786 32.1751 150.074 35.8735 148.33C35.8735 148.33 35.3303 146.262 36.9601 138.752C38.59 131.241 38.5926 127.432 38.5926 127.432C38.5926 127.432 38.5926 118.073 39.3526 116.549C40.1127 115.025 39.3526 111.216 39.3526 111.216C39.3526 111.216 37.8299 109.149 37.9396 108.385C38.0493 107.622 33.6978 113.718 33.6978 113.718Z" fill="#5A5773"/>
<path opacity="0.1" d="M61.5385 115.357C61.5385 115.357 60.1254 127.547 55.9907 129.832C55.9907 129.827 65.2343 127.215 61.5385 115.357Z" fill="black"/>
<path opacity="0.1" d="M40.7688 116.44C40.7688 116.44 45.8777 118.944 44.6867 120.685C43.4956 122.426 40.7688 116.44 40.7688 116.44Z" fill="black"/>
<path opacity="0.1" d="M40.7688 121.448C40.7688 121.448 44.0311 124.821 43.3807 126.018C42.7303 127.215 40.7688 121.448 40.7688 121.448Z" fill="black"/>
<path opacity="0.1" d="M67.0942 93.4739C67.0942 93.4739 68.3741 95.6515 68.4969 97.0658C68.6196 98.4801 67.0942 93.4739 67.0942 93.4739Z" fill="black"/>
<path opacity="0.1" d="M67.0942 90.5355C67.0942 90.5355 67.7368 89.9917 69.3771 90.5355C71.0174 91.0792 67.0942 90.5355 67.0942 90.5355Z" fill="black"/>
<path opacity="0.1" d="M39.3528 176.645C39.4755 176.561 45.0625 175.256 45.7572 176.195L39.3528 176.645Z" fill="black"/>
<path d="M40.1702 220.113C39.3419 222.004 38.9244 224.049 38.9453 226.113C38.9779 227.809 38.5481 229.482 37.702 230.952C37.58 231.158 37.442 231.355 37.2893 231.54C37.2893 231.54 33.2095 231.508 31.7807 230.322C31.6242 230.198 31.4952 230.043 31.402 229.867C30.5845 228.235 32.9927 221.99 32.9927 221.99C34.2569 217.172 36.8244 214.602 36.8244 214.602C41.3926 213.418 40.1702 220.113 40.1702 220.113Z" fill="#5A5773"/>
<path d="M37.1382 222.591L36.8535 233.135H38.2222C38.2222 233.135 38.4442 223.886 39.0554 222.591C39.6666 221.297 37.1382 222.591 37.1382 222.591Z" fill="#5A5773"/>
<path d="M55.0533 229.786C55.0067 229.803 54.9586 229.816 54.9096 229.825C54.2044 229.95 51.6055 229.877 50.1507 229.825C49.8854 229.812 49.6349 229.699 49.4501 229.508C49.2652 229.317 49.1599 229.063 49.1556 228.798C49.1556 228.405 49.1556 227.927 49.1242 227.417C49.0563 225.807 48.863 223.891 48.2858 223.459C47.2645 222.675 46.4574 220.011 48.2858 216.642C48.2858 216.642 51.791 213.965 54.3193 222.016C54.3193 222.016 54.5649 224.317 55.6671 225.132C56.7693 225.948 55.5443 229.54 55.0533 229.786Z" fill="#5A5773"/>
<path d="M48.7295 222.764L49.3851 231.54H50.2209V222.016L48.7295 222.764Z" fill="#5A5773"/>
<path d="M50.7722 70.0586C48.4017 70.2391 46.1081 70.981 44.0804 72.2231C43.558 72.5395 43.0356 72.9211 42.8188 73.491C42.6308 73.9825 42.7091 74.5367 42.717 75.0595C42.7875 79.5612 37.7726 82.9675 37.9293 87.4665C37.992 89.252 38.8879 90.9146 39.0524 92.6949C39.3267 95.6646 37.5715 98.3964 35.8894 100.856C37.6222 100.961 39.3289 100.395 40.6562 99.2748C42.4351 105.198 42.6671 111.478 41.33 117.517H43.7356C43.9733 117.501 44.2118 117.531 44.4382 117.606C44.6499 117.705 44.8392 117.846 44.9946 118.021C47.2434 120.262 48.7505 123.574 47.8912 126.632L53.0106 124.711C54.2356 124.251 55.4788 123.783 56.5445 123.022C57.6102 122.261 58.5035 121.166 58.7281 119.885C58.8665 119.101 58.8221 118.165 59.4673 117.71C59.7841 117.539 60.1235 117.413 60.4755 117.336C61.8807 116.84 62.5023 115.214 62.7896 113.75C63.1395 111.953 63.2493 110.119 63.1161 108.294C62.8889 105.235 61.9852 102.13 62.7296 99.1441C63.1501 97.4684 64.0852 95.9051 64.1609 94.1771C64.2837 91.3224 62.0557 88.8677 61.724 86.0313C61.4915 84.0524 62.2046 82.0551 61.9721 80.0788C61.843 79.0587 61.4701 78.0849 60.8849 77.2398C60.2997 76.3947 59.5196 75.7033 58.6106 75.2242C57.9811 74.9001 57.3046 74.6831 56.6829 74.325C55.2647 73.5015 54.3583 72.0166 53.0707 70.9971C51.783 69.9776 49.6386 69.5933 48.6696 70.9213L50.7722 70.0586Z" fill="#4A4347"/>
<path opacity="0.1" d="M33.0605 125.529C33.0605 125.529 35.0038 124.714 35.4374 125.529C35.871 126.345 33.0605 125.529 33.0605 125.529Z" fill="black"/>
<path opacity="0.1" d="M33.7344 126.928C33.7344 126.928 35.6776 126.109 36.1138 126.928C36.55 127.746 33.7344 126.928 33.7344 126.928Z" fill="black"/>
<path opacity="0.1" d="M42.8528 234.572C60.0016 234.572 73.9034 233.894 73.9034 233.056C73.9034 232.219 60.0016 231.54 42.8528 231.54C25.7041 231.54 11.8022 232.219 11.8022 233.056C11.8022 233.894 25.7041 234.572 42.8528 234.572Z" fill="#6C63FF"/>
<defs>
<linearGradient id="paint0_linear" x1="216.523" y1="104.326" x2="216.523" y2="45.5845" gradientUnits="userSpaceOnUse">
<stop stop-color="#808080" stop-opacity="0.25"/>
<stop offset="0.54" stop-color="#808080" stop-opacity="0.12"/>
<stop offset="1" stop-color="#808080" stop-opacity="0.1"/>
</linearGradient>
<linearGradient id="paint1_linear" x1="11998.7" y1="24638" x2="11998.7" y2="10818.8" gradientUnits="userSpaceOnUse">
<stop stop-color="#808080" stop-opacity="0.25"/>
<stop offset="0.54" stop-color="#808080" stop-opacity="0.12"/>
<stop offset="1" stop-color="#808080" stop-opacity="0.1"/>
</linearGradient>
<linearGradient id="paint2_linear" x1="45971" y1="56578.2" x2="45971" y2="35541.2" gradientUnits="userSpaceOnUse">
<stop stop-color="#808080" stop-opacity="0.25"/>
<stop offset="0.54" stop-color="#808080" stop-opacity="0.12"/>
<stop offset="1" stop-color="#808080" stop-opacity="0.1"/>
</linearGradient>
<linearGradient id="paint3_linear" x1="12133.4" y1="52115.2" x2="12133.4" y2="32773.6" gradientUnits="userSpaceOnUse">
<stop stop-color="#808080" stop-opacity="0.25"/>
<stop offset="0.54" stop-color="#808080" stop-opacity="0.12"/>
<stop offset="1" stop-color="#808080" stop-opacity="0.1"/>
</linearGradient>
<linearGradient id="paint4_linear" x1="32694.6" y1="53621.6" x2="32694.6" y2="34553.4" gradientUnits="userSpaceOnUse">
<stop stop-color="#808080" stop-opacity="0.25"/>
<stop offset="0.54" stop-color="#808080" stop-opacity="0.12"/>
<stop offset="1" stop-color="#808080" stop-opacity="0.1"/>
</linearGradient>
<linearGradient id="paint5_linear" x1="43553.9" y1="14111.6" x2="43553.9" y2="7130.89" gradientUnits="userSpaceOnUse">
<stop stop-color="#808080" stop-opacity="0.25"/>
<stop offset="0.54" stop-color="#808080" stop-opacity="0.12"/>
<stop offset="1" stop-color="#808080" stop-opacity="0.1"/>
</linearGradient>
<linearGradient id="paint6_linear" x1="55373.9" y1="163137" x2="55373.9" y2="37927.2" gradientUnits="userSpaceOnUse">
<stop stop-color="#808080" stop-opacity="0.25"/>
<stop offset="0.54" stop-color="#808080" stop-opacity="0.12"/>
<stop offset="1" stop-color="#808080" stop-opacity="0.1"/>
</linearGradient>
</defs>
</svg>
