<svg width="247" height="197" viewBox="0 0 247 197" fill="none" xmlns="http://www.w3.org/2000/svg">
<g clip-path="url(#clip0)">
<path d="M144.857 36.2905C129.228 35.7454 114.34 30.6845 100.126 25.1463C85.9126 19.6082 71.8341 13.4716 56.5795 10.5378C46.768 8.65054 35.5462 8.38405 27.6424 13.6606C20.0333 18.7481 17.575 27.506 16.254 35.6413C15.2591 41.7609 14.6747 48.2003 17.4011 53.9298C19.2919 57.9078 22.651 61.2511 24.9716 65.074C33.0541 78.3307 27.343 94.6788 18.5844 107.623C14.4791 113.697 9.70981 119.494 6.54153 125.953C3.37326 132.411 1.90503 139.822 4.67727 146.417C7.42778 152.958 13.9793 157.861 21.0741 161.314C35.4883 168.327 52.467 170.333 69.0353 171.469C105.7 173.987 142.558 172.896 179.319 171.806C192.924 171.402 206.587 170.992 219.97 168.882C227.403 167.709 235.075 165.851 240.472 161.36C247.321 155.659 249.018 146.005 244.43 138.858C236.729 126.868 215.452 123.891 210.062 111.022C207.102 103.941 210.144 96.0524 214.448 89.4822C223.682 75.3921 239.159 63.0293 239.975 46.9235C240.535 35.8593 233.093 24.783 221.588 19.5476C209.531 14.0409 192.806 14.7387 183.914 23.8212C174.752 33.1798 158.655 36.7702 144.857 36.2905Z" fill="#000066"/>
<path d="M105.154 170.282L22.499 169.877L14.2861 150.552L43.3271 148.437L38.2655 127.249L95.7051 119.78L40.7021 100.597L45.5608 99.439L134.004 113.914L129.134 146.981L122.172 165.153L105.154 170.282Z" fill="#6C63FF"/>
<path d="M23.7666 161.783C23.7666 161.783 28.8378 160.969 31.8805 164.564C31.8805 164.564 29.6492 166.328 24.8485 163.886L23.7666 161.783Z" fill="#6C63FF"/>
<path d="M23.2357 161.703C23.2357 161.703 19.9998 165.698 21.5936 170.146C21.5936 170.146 24.2306 169.087 24.518 163.695L23.2357 161.703Z" fill="#6C63FF"/>
<path d="M20.3281 155.136C20.3281 155.136 22.3566 151.402 30.4705 156.628C30.4705 156.628 29.3886 159.138 25.805 158.934C22.2214 158.731 21.2747 157.103 20.3281 155.136Z" fill="#6C63FF"/>
<path d="M19.8047 154.867C19.8047 154.867 15.5956 154.382 15.1875 164.049C15.1875 164.049 17.8559 164.603 19.7516 161.546C21.6472 158.489 20.8696 156.773 19.8047 154.867Z" fill="#6C63FF"/>
<path d="M17.3525 147.155C17.3525 147.155 19.7191 140.576 28.3063 145.256C28.3063 145.256 26.3454 151.293 18.2315 149.394L17.3525 147.155Z" fill="#6C63FF"/>
<path d="M14.7158 137.319C14.7158 137.319 19.1785 130.672 27.0895 136.835C27.0895 136.835 24.3172 143.075 15.392 139.684L14.7158 137.319Z" fill="#6C63FF"/>
<path d="M13.7695 127.959C13.7695 127.959 18.9759 121.851 26.8097 127.959C26.8097 127.959 21.8738 133.317 13.7695 129.519V127.959Z" fill="#6C63FF"/>
<path d="M12.958 118.866C12.958 118.866 18.232 112.49 25.7374 118.527C25.7374 118.527 19.7872 124.157 12.958 120.359V118.866Z" fill="#6C63FF"/>
<path d="M13.4316 110.794C13.4316 110.794 18.9858 102.586 26.0082 108.148C26.0082 108.148 20.058 115.203 13.4316 112.354V110.794Z" fill="#6C63FF"/>
<path d="M14.7158 101.365C14.7158 101.365 20.5984 93.225 27.4276 99.4658C27.4276 99.4658 20.4632 106.52 14.7158 102.857V101.365Z" fill="#6C63FF"/>
<path d="M16.6773 92.9365C16.6773 92.9365 23.6417 85.2858 29.7175 88.3335C29.7175 88.3335 22.4609 96.4591 16.373 94.9667L16.6773 92.9365Z" fill="#6C63FF"/>
<path d="M19.1109 84.947C19.1109 84.947 27.1475 75.5762 31.8227 78.7063C31.8227 78.7063 25.9015 85.9742 18.541 86.701L19.1109 84.947Z" fill="#6C63FF"/>
<path d="M22.6249 75.6804C22.6249 75.6804 29.6593 68.0296 34.7981 69.929C34.7981 69.929 28.7803 77.8656 21.6807 78.0691L22.6249 75.6804Z" fill="#6C63FF"/>
<path d="M25.8049 67.0116C25.8049 67.0116 33.5807 59.6855 36.9615 60.9744C36.9615 60.9744 31.3494 69.1145 25.4668 68.6396L25.8049 67.0116Z" fill="#6C63FF"/>
<path d="M28.915 59.0077C28.915 59.0077 35.609 50.2547 39.2626 50.933C39.2626 50.933 35.2033 58.7363 28.915 59.8968V59.0077Z" fill="#6C63FF"/>
<path d="M32.2918 48.2143C32.2918 48.2143 38.2081 41.506 41.4054 41.5205C41.4054 41.5205 36.7351 50.4843 32.0479 50.402L32.2918 48.2143Z" fill="#6C63FF"/>
<path d="M34.2903 41.029L40.0063 27.0552C40.0063 27.0552 40.2912 39.6869 33.5635 43.6212L34.2903 41.029Z" fill="#6C63FF"/>
<path d="M36.6109 25.6186C36.6109 25.6186 37.5575 13.9487 36.949 12.999C36.949 12.999 41.0349 22.7017 36.5723 30.774L36.6109 25.6186Z" fill="#6C63FF"/>
<path d="M17.1314 147C17.1314 147 11.2054 143.316 7.36816 152.33C7.36816 152.33 12.6422 155.843 17.8293 149.3L17.1314 147Z" fill="#6C63FF"/>
<path d="M14.5248 136.944C14.5248 136.944 7.25614 133.618 3.73047 143.03C3.73047 143.03 9.34498 146.906 15.1865 139.324L14.5248 136.944Z" fill="#6C63FF"/>
<path d="M13.4318 128.518C13.4318 128.518 8.22536 122.411 0.391602 128.518C0.391602 128.518 5.32754 133.877 13.4318 130.078V128.518Z" fill="#6C63FF"/>
<path d="M12.7794 118.866C12.7794 118.866 7.50534 112.49 0 118.527C0 118.527 5.95018 124.157 12.7794 120.359V118.866Z" fill="#6C63FF"/>
<path d="M13.4314 111.027C13.4314 111.027 9.73186 101.833 1.69043 105.786C1.69043 105.786 6.03715 113.939 13.103 112.553L13.4314 111.027Z" fill="#6C63FF"/>
<path d="M15.1824 101.319C15.1824 101.319 11.5045 91.9651 3.34961 96.3016C3.34961 96.3016 8.34351 104.875 14.8201 102.763L15.1824 101.319Z" fill="#6C63FF"/>
<path d="M17.4624 92.9828C17.4624 92.9828 16.0135 82.7278 9.25195 81.8096C9.25195 81.8096 10.6864 92.6243 16.552 94.8313L17.4624 92.9828Z" fill="#6C63FF"/>
<path d="M19.2824 84.9664C19.2824 84.9664 18.7173 72.6109 13.127 72.1797C13.127 72.1797 13.3153 81.5578 18.6521 86.7156L19.2824 84.9664Z" fill="#6C63FF"/>
<path d="M23.2042 75.3341C23.2042 75.3341 21.538 65.0596 16.2012 63.8047C16.2012 63.8047 16.8628 73.7545 22.6754 77.856L23.2042 75.3341Z" fill="#6C63FF"/>
<path d="M26.438 67.0969C26.438 67.0969 26.3825 56.3936 23.1224 54.8213C23.1224 54.8213 21.1012 64.5119 25.4938 68.4632L26.438 67.0969Z" fill="#6C63FF"/>
<path d="M29.164 58.886C29.164 58.886 28.7076 47.8654 25.3317 46.3125C25.3317 46.3125 24.1774 55.034 28.6593 59.608L29.164 58.886Z" fill="#6C63FF"/>
<path d="M32.7624 49.094C32.7624 49.094 32.7431 40.1302 30.3331 38.0273C30.3331 38.0273 27.9376 47.8463 31.5043 50.8965L32.7624 49.094Z" fill="#6C63FF"/>
<path d="M34.0083 40.5881L31.6635 25.6694C31.6635 25.6694 28.4783 37.8941 34.1194 43.2821L34.0083 40.5881Z" fill="#6C63FF"/>
<path d="M34.4649 25.7594C34.4649 25.7594 28.4471 15.7297 28.5702 14.6152C28.5702 14.6152 29.2102 25.1271 36.7807 30.3624L34.4649 25.7594Z" fill="#6C63FF"/>
<path d="M35.17 22.7963C35.17 22.7963 29.4903 8.55113 26.9209 7.39795C26.9209 7.39795 35.0348 11.5358 35.6433 22.3893L35.17 22.7963Z" fill="#6C63FF"/>
<path d="M32.0177 50.487L31.6289 50.3683C36.4224 34.6865 37.6177 24.6883 34.9976 22.1808L35.2753 21.8853C38.0548 24.5308 36.9271 34.42 32.0177 50.487Z" fill="#444053"/>
<path d="M18.8189 87.2044L18.2441 86.9985C18.7537 85.5618 19.3018 84.1034 19.8766 82.6668C24.8801 70.1562 29.1399 58.5178 31.8711 49.5831L32.371 49.3408C29.635 58.2925 25.45 70.3767 20.4416 82.9042C19.8693 84.3142 19.3236 85.7653 18.8189 87.2044Z" fill="#444053"/>
<path d="M30.9124 173.518C30.8351 173.434 23.0666 164.656 17.6501 149.672C14.4763 140.9 12.71 131.678 12.4171 122.35C12.0452 110.689 14.4842 97.6701 18.6619 85.8428L19.1159 86.3758C9.73662 112.921 13.4627 135.667 18.4059 149.365C23.7645 164.213 31.4461 172.893 31.5209 172.981L30.9124 173.518Z" fill="#444053"/>
<path d="M152.311 154.884C152.311 154.884 146.837 161.587 151.184 171.721L107.475 190.739L103.281 191.621L101.349 183.142L102.641 172.441V166.592L152.311 154.884Z" fill="#D5D6DB"/>
<path d="M14.2861 150.552L74.7828 139.488L154.944 152.299L105.154 170.282L14.2861 150.552Z" fill="#6C63FF"/>
<path d="M14.2861 150.552L74.7828 139.488L154.944 152.299L105.154 170.282L14.2861 150.552Z" fill="#6C63FF"/>
<path d="M14.2862 150.55C14.2862 150.55 8.62825 161.304 15.1483 171.237L104.86 190.739C104.86 190.739 99.2912 182.173 105.147 170.282L14.2862 150.55Z" fill="#6C63FF"/>
<path opacity="0.1" d="M14.2862 150.55C14.2862 150.55 8.62825 161.304 15.1483 171.237L104.86 190.739C104.86 190.739 99.2912 182.173 105.147 170.282L14.2862 150.55Z" fill="black"/>
<path opacity="0.1" d="M16.9596 154.278C16.9596 154.278 13.7261 162.147 16.9596 167.24V154.278Z" fill="black"/>
<path d="M104.86 190.739L154.944 169.299C154.944 169.299 157.745 169.904 155.934 171.964C154.123 174.023 105.826 192.799 105.826 192.799L15.1484 171.237L104.86 190.739Z" fill="#6C63FF"/>
<path opacity="0.1" d="M104.86 190.739L154.944 169.299C154.944 169.299 157.745 169.904 155.934 171.964C154.123 174.023 105.826 192.799 105.826 192.799L15.1484 171.237L104.86 190.739Z" fill="black"/>
<path opacity="0.1" d="M100.755 172.448C100.755 172.448 95.9252 178.263 100.755 186.984V172.448Z" fill="black"/>
<path opacity="0.1" d="M124.137 172.35L102.474 179.601L102.55 179.83L124.213 172.58L124.137 172.35Z" fill="black"/>
<path opacity="0.1" d="M128.476 171.628L102.467 181.551L102.553 181.777L128.562 171.855L128.476 171.628Z" fill="black"/>
<path opacity="0.1" d="M132.46 171.593L102.611 183.851L102.703 184.075L132.552 171.818L132.46 171.593Z" fill="black"/>
<path opacity="0.1" d="M136.794 170.544L102.96 185.877L103.059 186.098L136.893 170.765L136.794 170.544Z" fill="black"/>
<path opacity="0.1" d="M140.434 170.549L103.228 186.864L103.324 187.086L140.531 170.771L140.434 170.549Z" fill="black"/>
<path opacity="0.1" d="M148.398 169.192L103.789 188.521L103.885 188.743L148.493 169.414L148.398 169.192Z" fill="black"/>
<path opacity="0.3" d="M36.7607 151.734L79.262 142.771L105.154 147.737L70.3271 159.002L36.7607 151.734Z" fill="white"/>
<path d="M154.944 152.299C154.944 152.299 157.141 153.188 155.852 154.562C154.562 155.935 105.147 170.282 105.147 170.282L154.944 152.299Z" fill="#6C63FF"/>
<path d="M176.289 131.583C176.289 131.583 170.817 138.284 175.163 148.42L131.455 167.438L127.26 168.325L125.328 159.846L126.639 149.147V143.292L176.289 131.583Z" fill="#D5D6DB"/>
<path d="M38.2656 127.248L98.7599 116.187L178.923 128.997L129.134 146.981L38.2656 127.248Z" fill="#3A3768"/>
<path d="M38.2557 127.249C38.2557 127.249 32.5953 138.003 39.1154 147.936L128.827 167.438C128.827 167.438 123.261 158.864 129.124 146.979L38.2557 127.249Z" fill="#3A3768"/>
<path opacity="0.1" d="M38.2557 127.249C38.2557 127.249 32.5953 138.003 39.1154 147.936L128.827 167.438C128.827 167.438 123.261 158.864 129.124 146.979L100.754 140.818L38.2557 127.249Z" fill="black"/>
<path opacity="0.1" d="M40.936 130.977C40.936 130.977 37.705 138.843 40.936 143.938V130.977Z" fill="black"/>
<path d="M128.837 167.438L178.924 145.998C178.924 145.998 181.723 146.603 179.911 148.662C178.1 150.722 129.803 169.497 129.803 169.497L39.126 147.936L128.837 167.438Z" fill="#3A3768"/>
<path opacity="0.1" d="M128.837 167.438L178.924 145.998C178.924 145.998 181.723 146.603 179.911 148.662C178.1 150.722 129.803 169.497 129.803 169.497L39.126 147.936L128.837 167.438Z" fill="black"/>
<path opacity="0.1" d="M124.731 149.147C124.731 149.147 119.902 154.961 124.731 163.683V149.147Z" fill="black"/>
<path opacity="0.1" d="M148.115 149.051L126.452 156.302L126.529 156.532L148.192 149.281L148.115 149.051Z" fill="black"/>
<path opacity="0.1" d="M152.457 148.329L126.448 158.251L126.534 158.477L152.543 148.555L152.457 148.329Z" fill="black"/>
<path opacity="0.1" d="M156.439 148.29L126.59 160.547L126.681 160.772L156.53 148.514L156.439 148.29Z" fill="black"/>
<path opacity="0.1" d="M160.775 147.241L126.941 162.574L127.041 162.795L160.875 147.462L160.775 147.241Z" fill="black"/>
<path opacity="0.1" d="M164.413 147.243L127.206 163.559L127.303 163.781L164.509 147.465L164.413 147.243Z" fill="black"/>
<path opacity="0.1" d="M172.377 145.887L127.769 165.216L127.864 165.438L172.473 146.109L172.377 145.887Z" fill="black"/>
<path opacity="0.45" d="M60.7402 128.434L103.242 119.47L129.133 124.436L94.3066 135.701L60.7402 128.434Z" fill="white"/>
<path d="M178.923 128.998C178.923 128.998 181.118 129.887 179.831 131.258C178.544 132.63 129.134 146.979 129.134 146.979L178.923 128.998Z" fill="#3A3768"/>
<path d="M178.559 104.926C178.559 104.926 173.084 116.96 177.431 127.093L133.722 140.781L129.537 141.671L127.605 133.191L128.897 122.49V116.635L178.559 104.926Z" fill="#D5D6DB"/>
<path d="M40.3281 100.551L100.825 89.4868L180.988 102.298L131.196 120.281L40.3281 100.551Z" fill="#000066"/>
<path d="M40.543 100.592C40.543 100.592 34.8753 111.346 41.3954 121.279L131.107 140.782C131.107 140.782 125.538 132.208 131.401 120.325L40.543 100.592Z" fill="#000066"/>
<path opacity="0.1" d="M130.677 120.679C127.964 126.483 127.909 131.495 128.564 135.099C128.901 136.957 129.427 138.437 129.87 139.456C129.968 139.68 130.061 139.882 130.148 140.061L41.7028 120.834C38.6364 116.054 38.4357 111.091 39.0184 107.287C39.3132 105.362 39.8078 103.74 40.2283 102.601C40.4385 102.032 40.6297 101.584 40.7675 101.28C40.7863 101.239 40.8041 101.2 40.8208 101.164L130.677 120.679Z" fill="#7C7CFF" stroke="black"/>
<path opacity="0.1" d="M43.2164 104.32C43.2164 104.32 39.9829 112.189 43.2164 117.281V104.32Z" fill="black"/>
<path d="M131.117 140.782L181.201 124.671C181.201 124.671 184.002 125.277 182.191 127.336C180.38 129.395 132.083 142.841 132.083 142.841L41.4053 121.279L131.117 140.782Z" fill="#000066"/>
<path opacity="0.1" d="M131.117 140.782L181.201 124.671C181.201 124.671 184.002 125.277 182.191 127.336C180.38 129.395 132.083 142.841 132.083 142.841L41.4053 121.279L131.117 140.782Z" fill="#000066"/>
<path opacity="0.1" d="M127.011 122.49C127.011 122.49 122.181 128.305 127.011 137.026V122.49Z" fill="black"/>
<path opacity="0.1" d="M150.396 122.394L128.732 129.645L128.809 129.875L150.472 122.624L150.396 122.394Z" fill="black"/>
<path opacity="0.1" d="M154.736 121.673L128.727 131.595L128.812 131.822L154.822 121.899L154.736 121.673Z" fill="black"/>
<path opacity="0.1" d="M158.715 121.636L128.866 133.893L128.958 134.117L158.807 121.86L158.715 121.636Z" fill="black"/>
<path opacity="0.1" d="M163.056 120.585L129.222 135.918L129.321 136.139L163.155 120.806L163.056 120.585Z" fill="black"/>
<path opacity="0.1" d="M166.694 120.589L129.487 136.904L129.584 137.126L166.791 120.811L166.694 120.589Z" fill="black"/>
<path opacity="0.1" d="M174.657 119.234L130.049 138.563L130.145 138.785L174.753 119.456L174.657 119.234Z" fill="black"/>
<path opacity="0.3" d="M63.0176 101.777L105.519 92.8135L131.411 97.7799L96.5839 109.045L63.0176 101.777Z" fill="white"/>
<path d="M181.2 102.341C181.2 102.341 183.398 103.23 182.108 104.604C180.819 105.978 131.411 120.325 131.411 120.325L181.2 102.341Z" fill="#000066"/>
<path d="M74.9619 28.7995C74.9619 28.7995 65.7855 28.2447 66.8576 34.7035C66.8576 34.7035 66.6427 35.8446 67.6739 36.363C67.6739 36.363 67.6908 35.8785 68.6157 36.0457C68.9457 36.1025 69.2814 36.1188 69.6154 36.0941C70.0656 36.0632 70.4936 35.8863 70.8349 35.5902C70.8349 35.5902 73.4164 34.5194 74.421 30.2846C74.421 30.2846 75.1647 29.3616 75.1454 29.1242L73.5902 29.788C73.5902 29.788 74.1191 30.9096 73.7037 31.8424C73.7037 31.8424 73.653 29.8291 73.3536 29.8752C73.2932 29.8752 72.5494 30.2652 72.5494 30.2652C72.5494 30.2652 73.4598 32.2203 72.7716 33.64C72.7716 33.64 73.0324 31.2319 72.2645 30.4057L71.173 31.0453C71.173 31.0453 72.2379 33.0634 71.5159 34.7108C71.5159 34.7108 71.7018 32.184 70.9436 31.2004L69.9535 31.9756C69.9535 31.9756 70.9556 33.9646 70.3447 35.331C70.3447 35.331 70.265 32.3899 69.741 32.167C69.741 32.167 68.874 32.9326 68.7436 33.2475C68.7436 33.2475 69.4295 34.7011 69.002 35.4545C69.002 35.4545 68.7436 33.4946 68.5191 33.4849C68.5191 33.4849 67.657 34.7835 67.5676 35.6653C67.6094 34.8432 67.865 34.0464 68.309 33.3541C67.8121 33.4484 67.3537 33.6868 66.9905 34.0397C66.9905 34.0397 67.1233 33.1215 68.5239 33.0416C68.5239 33.0416 69.2363 32.0556 69.427 31.9974C69.427 31.9974 68.0337 31.8787 67.1909 32.2542C67.1909 32.2542 67.9347 31.3893 69.6806 31.7697L70.6465 30.9702C70.6465 30.9702 68.8161 30.728 68.0385 30.9969C68.0385 30.9969 68.9344 30.2313 70.9098 30.7885L71.9747 30.1514C71.9747 30.1514 70.4123 29.8146 69.4826 29.9357C69.4826 29.9357 70.463 29.4052 72.2862 29.9793L73.0445 29.6378C73.0445 29.6378 71.9023 29.4125 71.5666 29.3761C71.2309 29.3398 71.214 29.2477 71.214 29.2477C71.939 29.1283 72.6828 29.2121 73.3632 29.49C73.3632 29.49 74.9933 28.9013 74.9619 28.7995Z" fill="#F9BF64"/>
<path opacity="0.5" d="M204.059 55.3469C204.059 55.3469 194.882 54.7921 195.954 61.2509C195.954 61.2509 195.739 62.3919 196.771 62.9104C196.771 62.9104 196.787 62.4259 197.712 62.593C198.043 62.6486 198.378 62.6648 198.712 62.6415C199.158 62.6085 199.582 62.4317 199.92 62.1376C199.92 62.1376 202.503 61.0667 203.506 56.832C203.506 56.832 204.249 55.9089 204.23 55.6715L202.68 56.3353C202.68 56.3353 203.209 57.457 202.793 58.3897C202.793 58.3897 202.742 56.3765 202.445 56.4225C202.385 56.4225 201.639 56.8126 201.639 56.8126C201.639 56.8126 202.549 58.7677 201.863 60.1873C201.863 60.1873 202.124 57.7792 201.354 56.9531L200.262 57.5927C200.262 57.5927 201.327 59.6107 200.605 61.2581C200.605 61.2581 200.791 58.7313 200.033 57.7477L199.045 58.523C199.045 58.523 200.045 60.512 199.434 61.8783C199.434 61.8783 199.354 58.9372 198.83 58.7144C198.83 58.7144 197.966 59.4799 197.833 59.7949C197.833 59.7949 198.519 61.2484 198.094 62.0019C198.094 62.0019 197.833 60.042 197.611 60.0323C197.611 60.0323 196.749 61.3308 196.659 62.2127C196.701 61.3902 196.958 60.5932 197.403 59.9015C196.906 59.996 196.447 60.2343 196.082 60.5871C196.082 60.5871 196.218 59.6689 197.616 59.5889C197.616 59.5889 198.328 58.6029 198.519 58.5424C198.519 58.5424 197.128 58.4261 196.283 58.8016C196.283 58.8016 197.027 57.9367 198.772 58.317L199.738 57.5176C199.738 57.5176 197.906 57.2753 197.13 57.5442C197.13 57.5442 198.024 56.7787 200.002 57.3359L201.064 56.6987C201.064 56.6987 199.502 56.362 198.572 56.4831C198.572 56.4831 199.552 55.9525 201.376 56.5267L202.136 56.1851C202.136 56.1851 200.992 55.9598 200.656 55.9235C200.32 55.8871 200.303 55.7951 200.303 55.7951C201.028 55.6741 201.773 55.758 202.453 56.0373C202.453 56.0373 204.088 55.4486 204.059 55.3469Z" fill="#F9BF64"/>
<path opacity="0.5" d="M90.4163 68.7005C90.4163 68.7005 86.4173 60.3836 81.3268 64.4827C81.3268 64.4827 80.228 64.851 80.2812 66.0066C80.2812 66.0066 80.7038 65.7861 81.0056 66.6776C81.1184 66.9928 81.2675 67.2936 81.4499 67.574C81.697 67.9541 82.0606 68.2432 82.4859 68.3977C82.4859 68.3977 84.6762 70.1372 88.8514 68.9501C88.8514 68.9501 90.0178 69.1512 90.2086 69.0106L88.8756 67.9762C88.8756 67.9762 88.1511 68.9864 87.1417 69.0761C87.1417 69.0761 88.8708 68.0513 88.6848 67.8139C88.6462 67.7654 87.9604 67.2978 87.9604 67.2978C87.9604 67.2978 86.7022 69.0494 85.1326 69.139C85.1326 69.139 87.3542 68.1942 87.6971 67.1161L86.6105 66.4717C86.6105 66.4717 85.3717 68.3905 83.5871 68.56C83.5871 68.56 85.8764 67.4916 86.3617 66.3482L85.2074 65.8636C85.2074 65.8636 83.9638 67.7097 82.4763 67.8429C82.4763 67.8429 84.9974 66.3385 84.9346 65.7691C84.9346 65.7691 83.8455 65.3864 83.5074 65.4227C83.5074 65.4227 82.5849 66.7285 81.7156 66.7285C81.7156 66.7285 83.2925 65.5438 83.1959 65.3524C83.1959 65.3524 81.6455 65.2313 80.8293 65.5947C81.5648 65.228 82.3833 65.0609 83.2031 65.1102C82.8779 64.7211 82.4465 64.4356 81.9619 64.2889C81.9619 64.2889 82.8264 63.9594 83.5774 65.1441C83.5774 65.1441 84.7848 65.287 84.9273 65.4251C84.9273 65.4251 84.3502 64.1508 83.6136 63.596C83.6136 63.596 84.7293 63.8213 85.2388 65.5341L86.41 65.9993C86.41 65.9993 85.7363 64.2744 85.1157 63.7293C85.1157 63.7293 86.2169 64.1387 86.6974 66.1519L87.7696 66.7721C87.7696 66.7721 87.3035 65.2386 86.7433 64.4851C86.7433 64.4851 87.6827 65.086 88.0715 66.9611L88.7404 67.4602C88.7404 67.4602 88.3781 66.3482 88.2574 66.0381C88.1367 65.728 88.197 65.665 88.197 65.665C88.6564 66.2402 88.9474 66.9322 89.0374 67.6637C89.0374 67.6637 90.3293 68.7732 90.4163 68.7005Z" fill="#F9BF64"/>
<path opacity="0.5" d="M183.094 43.597C183.094 43.597 179.097 35.2801 174.004 39.3792C174.004 39.3792 172.908 39.7474 172.959 40.903C172.959 40.903 173.384 40.685 173.683 41.5741C173.796 41.8906 173.946 42.1923 174.13 42.4729C174.376 42.8523 174.739 43.1406 175.163 43.2942C175.163 43.2942 177.356 45.0337 181.529 43.849C181.529 43.849 182.695 44.0476 182.889 43.9071L181.563 42.8702C181.563 42.8702 180.838 43.8829 179.831 43.9725C179.831 43.9725 181.558 42.9453 181.372 42.7079C181.333 42.6595 180.648 42.1919 180.648 42.1919C180.648 42.1919 179.392 43.9435 177.82 44.0331C177.82 44.0331 180.044 43.0883 180.387 42.0126L179.283 41.373C179.283 41.373 178.047 43.2894 176.26 43.4614C176.26 43.4614 178.549 42.3905 179.037 41.2471L177.88 40.7625C177.88 40.7625 176.637 42.611 175.151 42.7418C175.151 42.7418 177.67 41.2374 177.607 40.6705C177.607 40.6705 176.521 40.2853 176.183 40.324C176.183 40.324 175.26 41.6274 174.388 41.6274C174.388 41.6274 175.968 40.4427 175.871 40.2513C175.871 40.2513 174.321 40.1302 173.502 40.4936C174.238 40.1268 175.056 39.9597 175.876 40.0091C175.552 39.6197 175.121 39.3342 174.637 39.1878C174.637 39.1878 175.502 38.8583 176.253 40.043C176.253 40.043 177.46 40.1884 177.602 40.3264C177.602 40.3264 177.025 39.0497 176.286 38.4949C176.286 38.4949 177.402 38.7227 177.912 40.4452L179.085 40.9103C179.085 40.9103 178.411 39.183 177.791 38.6379C177.791 38.6379 178.892 39.0473 179.37 41.0605L180.445 41.6807C180.445 41.6807 179.976 40.1496 179.416 39.3937C179.416 39.3937 180.358 39.9945 180.744 41.8697L181.413 42.3687C181.413 42.3687 181.053 41.2567 180.93 40.9466C180.807 40.6365 180.87 40.576 180.87 40.576C181.328 41.1517 181.618 41.8435 181.708 42.5747C181.708 42.5747 183.019 43.6746 183.094 43.597Z" fill="#F9BF64"/>
<path opacity="0.5" d="M195.866 84.7359C195.866 84.7359 191.869 76.4165 186.769 80.5157C186.769 80.5157 185.673 80.8839 185.723 82.0395C185.723 82.0395 186.148 81.8215 186.448 82.7106C186.56 83.0269 186.709 83.3287 186.892 83.6094C187.138 83.9888 187.501 84.2771 187.926 84.4307C187.926 84.4307 190.118 86.1726 194.294 84.9855C194.294 84.9855 195.458 85.1865 195.651 85.0436L194.318 84.0091C194.318 84.0091 193.593 85.0218 192.584 85.1114C192.584 85.1114 194.311 84.0842 194.125 83.8468C194.086 83.7984 193.4 83.3308 193.4 83.3308C193.4 83.3308 192.144 85.0824 190.572 85.1744C190.572 85.1744 192.796 84.2272 193.139 83.1515L192.05 82.5071C192.05 82.5071 190.814 84.4258 189.027 84.5954C189.027 84.5954 191.316 83.5246 191.804 82.3811L190.647 81.8966C190.647 81.8966 189.404 83.7426 187.918 83.8759C187.918 83.8759 190.44 82.3714 190.377 81.8021C190.377 81.8021 189.288 81.4169 188.95 81.4557C188.95 81.4557 188.027 82.759 187.155 82.759C187.155 82.759 188.735 81.5744 188.638 81.383C188.638 81.383 187.088 81.2618 186.269 81.6252C187.006 81.2586 187.825 81.0916 188.645 81.1407C188.321 80.7507 187.889 80.4651 187.404 80.3194C187.404 80.3194 188.269 79.9875 189.02 81.1746C189.02 81.1746 190.227 81.3176 190.37 81.4557C190.37 81.4557 189.792 80.1813 189.056 79.6241C189.056 79.6241 190.172 79.8519 190.681 81.5744L191.852 82.0395C191.852 82.0395 191.179 80.3122 190.558 79.7695C190.558 79.7695 191.659 80.1765 192.137 82.1921L193.212 82.8099C193.212 82.8099 192.743 81.2788 192.183 80.5229C192.183 80.5229 193.125 81.1237 193.514 83.0013L194.183 83.4858C194.183 83.4858 193.82 82.3738 193.7 82.0637C193.579 81.7536 193.639 81.6931 193.639 81.6931C194.098 82.2681 194.389 82.9603 194.477 83.6918C194.477 83.6918 195.791 84.8086 195.866 84.7359Z" fill="#F9BF64"/>
<path d="M172.652 94.4022C171.073 90.0972 162.379 89.6926 158.607 90.7901C155.927 91.5726 150.276 92.4544 147.257 92.8978L147.062 92.7112C147.453 92.5949 147.463 92.3091 147.414 91.8851C147.386 91.3263 147.394 90.7663 147.439 90.2086C149.288 90.7852 150.935 89.4213 150.935 89.4213C153.109 88.4522 152.524 84.3046 152.94 83.1708C153.251 82.3229 153.587 77.3274 153.736 74.8369H153.768L153.785 74.0011C153.806 73.6402 153.816 73.4294 153.816 73.4294C153.816 73.4294 154.029 67.3388 154.444 66.1057C154.83 64.9719 155.144 59.2593 155.193 58.3532C155.193 58.2757 155.193 58.2345 155.193 58.2345L155.161 57.7064C155.183 57.3212 155.193 56.8924 155.19 56.4418C155.19 54.3704 154.975 51.7612 154.949 51.3397C154.949 51.2791 154.949 51.2064 154.949 51.1192C154.966 50.235 154.855 45.8064 151.099 44.1323C149.716 43.5121 148.052 42.7732 146.441 42.0537C146.026 38.456 145.077 34.8778 145.159 31.2535C145.159 30.7084 145.207 30.1633 145.26 29.6206C145.26 29.7781 145.243 29.938 145.241 30.1052C145.241 30.4565 145.241 30.8102 145.241 31.1615C145.384 26.6287 147.091 22.0717 146.931 17.6358C146.917 18.0695 146.886 18.5055 146.844 18.9416C146.928 17.4412 146.771 15.9371 146.381 14.4864C146.236 13.9752 146.04 13.4471 145.623 13.1055C145.228 12.8303 144.775 12.6504 144.299 12.5797C143.157 12.2863 141.996 12.0694 140.824 11.9305C140.646 11.3839 140.382 10.8694 140.042 10.4066C137.593 7.03431 133.966 3.86548 129.677 3.13869C127.526 2.77529 125.05 3.07812 123.587 4.62135C123.434 4.75692 123.291 4.9026 123.157 5.05742C122.37 5.99983 122.032 7.23781 121.225 8.1778C121.172 8.24078 121.112 8.29893 121.054 8.35949C119.475 9.77674 117.014 10.0723 115.258 11.3442C114.949 11.5725 114.659 11.8261 114.391 12.1025C113.684 12.8058 113.05 13.5793 112.498 14.4113C111.708 15.5257 110.897 16.6861 110.646 18.0162C110.141 20.6811 111.95 23.2079 112.286 25.8898C113.034 31.8907 106.415 37.2156 107.668 43.1366C108.003 44.5912 108.741 45.9209 109.798 46.9716C107.217 49.3168 105.019 51.5916 105.019 51.5916V51.7273H104.611L104.652 52.2118H104.611L104.836 54.8404L104.611 58.6682C104.611 58.6682 104.611 58.7094 104.611 58.7869V58.8063V58.9105C104.611 58.9105 104.611 58.9516 104.611 59.0292H104.626C104.701 60.4319 104.998 65.4758 105.35 66.5394C105.766 67.7725 105.976 73.863 105.976 73.863C105.976 73.863 106.434 82.4707 106.855 83.6093C107.275 84.748 106.678 88.8834 108.859 89.8598C109.497 90.3507 110.252 90.6648 111.049 90.7707C110.938 91.6768 111.008 92.3333 111.368 92.5392C111.522 92.6301 111.697 92.6801 111.875 92.6846C111.727 92.9047 111.596 93.1355 111.481 93.375C110.616 93.2844 109.766 93.0833 108.951 92.7766C106.608 91.8076 98.8349 89.6272 96.5771 91.1607C94.3192 92.6943 88.8858 94.0849 91.3948 100.258C93.9038 106.431 95.0726 106.586 95.0726 106.586C95.8449 107.148 96.5224 107.831 97.0793 108.609C97.8328 109.745 104.853 112.344 106.608 112.344C107.355 112.333 108.101 112.37 108.842 112.456C108.842 112.456 106.937 114.132 107.19 115.106C107.444 116.08 106.611 123.876 106.611 123.876C106.611 123.876 108.543 125.829 109.368 123.268L109.397 123.307C109.552 123.518 110.388 124.47 111.96 123.268C112.603 122.778 113.286 122.344 114.003 121.97L121.614 120.889C122.408 120.839 123.203 120.834 123.998 120.872C125.205 120.971 126.391 120.254 127.137 119.7C128.714 120.3 130.486 120.957 131.329 121.197C133.039 121.681 140.897 123.796 142.734 123.135C143.116 122.982 143.456 122.74 143.724 122.427L145.478 122.483L144.657 122.648C144.657 122.648 146.255 122.675 148.429 122.704L148.337 122.757L151.063 122.733C155.053 122.769 159.534 122.781 160.124 122.648C161.046 122.442 165.84 122.587 167.252 122.648H167.646C167.646 122.648 172.913 121.594 170.739 116.233C169.068 112.114 163.932 110.917 161.652 110.588C162.295 110.46 162.848 110.36 163.215 110.302C164.806 110.06 167.897 108.606 168.148 108.11C168.399 107.613 170.991 106.171 171.659 105.35C172.328 104.529 174.238 98.7073 172.652 94.4022ZM129.028 106.45L128.769 106.535L128.595 106.593L128.262 106.922C127.997 106.743 127.712 106.554 127.415 106.36C127.939 106.392 128.477 106.423 129.028 106.45Z" fill="url(#paint0_linear)"/>
<path d="M144.425 80.9059C144.425 80.9059 148.12 90.5964 150.22 89.6274C152.321 88.6583 151.751 84.5398 152.152 83.4109C152.553 82.2819 152.997 73.7203 152.997 73.7203C152.997 73.7203 153.2 67.6637 153.601 66.4378C153.973 65.3113 154.275 59.6302 154.326 58.7362C154.326 58.6587 154.326 58.6175 154.326 58.6175L153.927 51.5918L151.672 51.0273L146.441 52.9655L145.717 57.1155L145.434 58.7362L145.313 59.4267L144.425 80.9059Z" fill="#BE6F72"/>
<path opacity="0.1" d="M145.642 79.2827C145.642 79.2827 149.167 82.1778 150.23 82.4322C151.292 82.6865 151.944 84.9444 151.944 84.9444" fill="black"/>
<path d="M115.531 81.3297C115.531 81.3297 111.836 91.0203 109.735 90.0512C107.634 89.0821 108.204 84.9636 107.803 83.8347C107.402 82.7057 106.958 74.1441 106.958 74.1441C106.958 74.1441 106.755 68.0875 106.354 66.8616C105.982 65.7351 105.681 60.054 105.63 59.16C105.63 59.0825 105.63 59.0413 105.63 59.0413L106.031 52.0156L108.286 51.4512L113.517 53.3893L114.241 57.5393L114.524 59.16L114.644 59.8505L115.531 81.3297Z" fill="#BE6F72"/>
<path d="M139.589 29.4707H131.343V42.3665H139.589V29.4707Z" fill="#3E373A"/>
<path opacity="0.1" d="M139.589 29.4707H131.343V42.3665H139.589V29.4707Z" fill="black"/>
<path d="M114.082 90.9819C114.082 90.9819 111.264 94.0901 112.31 94.6546C113.355 95.2191 120.119 105.799 120.119 105.799C120.119 105.799 142.336 108.544 146.526 104.425C150.715 100.307 150.631 92.9491 150.631 92.9491C150.631 92.9491 147.265 93.6759 146.898 93.281C146.531 92.8861 144.514 90.9819 144.514 90.9819C144.514 90.9819 116.014 89.2473 114.082 90.9819Z" fill="#4B4B5B"/>
<path opacity="0.02" d="M114.082 90.9819C114.082 90.9819 111.264 94.0901 112.31 94.6546C113.355 95.2191 120.119 105.799 120.119 105.799C120.119 105.799 142.336 108.544 146.526 104.425C150.715 100.307 150.631 92.9491 150.631 92.9491C150.631 92.9491 147.265 93.6759 146.898 93.281C146.531 92.8861 144.514 90.9819 144.514 90.9819C144.514 90.9819 116.014 89.2473 114.082 90.9819Z" fill="black"/>
<path d="M154.077 51.6936L146.833 57.508L144.642 57.6679L143.838 57.726L130.332 58.7193L116.326 57.6921L114.242 57.5395L111.585 57.3457L106.031 52.0158C106.031 52.0158 109.963 47.7907 113.406 44.9393C114.763 43.8128 116.046 42.9018 116.98 42.5433L117.14 42.4876C117.727 42.2576 118.252 41.8905 118.671 41.4168C121.39 38.6041 123.904 31.6632 123.904 31.6632C123.904 31.6632 135.898 25.4467 134.449 33.6013C133 41.7559 139.842 39.7403 139.842 39.7403L142.097 40.7723L142.988 41.1818L145.26 42.2259L150.387 44.5856C154.41 46.4438 154.077 51.6936 154.077 51.6936Z" fill="#BE6F72"/>
<path opacity="0.1" d="M129.769 38.3036C135.726 38.3036 140.556 33.4584 140.556 27.4816C140.556 21.5048 135.726 16.6597 129.769 16.6597C123.811 16.6597 118.981 21.5048 118.981 27.4816C118.981 33.4584 123.811 38.3036 129.769 38.3036Z" fill="black"/>
<path opacity="0.1" d="M154.093 59.4021H105.63C105.63 59.3246 105.63 59.2834 105.63 59.2834L106.031 52.2577C106.031 52.2577 109.962 48.0326 113.406 45.1812L143.833 43.9698L145.248 42.4727L150.375 44.8323C154.4 46.6881 154.076 51.9379 154.076 51.9379C154.076 51.9379 154.627 58.0212 154.093 59.4021Z" fill="black"/>
<path d="M154.093 59.1599H105.63C105.63 59.0824 105.63 59.0412 105.63 59.0412L106.031 52.0155C106.031 52.0155 109.962 47.7904 113.406 44.939L143.833 43.7277L145.248 42.2305L150.375 44.5901C154.4 46.4459 154.076 51.6958 154.076 51.6958C154.076 51.6958 154.627 57.779 154.093 59.1599Z" fill="#E7C7CA"/>
<path opacity="0.1" d="M122 39.4595C122 39.4595 129.645 49.2325 139.829 39.2584C150.012 29.2844 140.957 61.5056 140.957 61.5056L118.981 64.1221L122 39.4595Z" fill="black"/>
<path d="M122 39.9439C122 39.9439 129.645 49.7168 139.829 39.7428C150.012 29.7688 140.957 61.99 140.957 61.99L118.981 64.6064L122 39.9439Z" fill="#E7C7CA"/>
<path opacity="0.1" d="M142.975 41.659L143.784 54.0363L144.651 58.1548L145.313 61.3043C145.313 61.3043 147.003 85.5307 146.52 86.7421C146.037 87.9534 146.762 88.9224 146.863 89.5669C146.965 90.2113 146.762 91.8296 146.842 92.5564C146.921 93.2832 146.842 93.6054 144.992 93.3462C143.142 93.087 140.563 92.6364 140.563 92.6364C140.563 92.6364 134.043 93.1209 131.79 92.3141C129.537 91.5074 125.27 91.505 125.27 91.505C125.27 91.505 118.829 91.6673 116.738 91.425C114.647 91.1828 113.517 94.01 112.15 93.2008C110.783 92.3917 113.758 84.5617 114.724 82.2989C115.69 80.0362 113.437 74.3042 113.437 74.3042L116.335 58.1766L116.98 54.5208V43.0278L117.139 42.9721C117.727 42.7421 118.252 42.3751 118.67 41.9013L119.395 53.467L142.094 54.2762V41.2593" fill="black"/>
<path d="M142.975 41.1741L143.784 53.5515L144.651 57.67L145.313 60.8194C145.313 60.8194 147.003 85.0459 146.52 86.2572C146.037 87.4685 146.762 88.4376 146.863 89.082C146.965 89.7264 146.762 91.3448 146.842 92.0715C146.921 92.7983 146.842 93.1206 144.992 92.8613C143.142 92.6021 140.563 92.1515 140.563 92.1515C140.563 92.1515 134.043 92.636 131.79 91.8293C129.537 91.0225 125.27 91.0201 125.27 91.0201C125.27 91.0201 118.829 91.1824 116.738 90.9402C114.647 90.6979 113.517 93.5251 112.15 92.716C110.783 91.9068 113.758 84.0768 114.724 81.8141C115.69 79.5513 113.437 73.8193 113.437 73.8193L116.335 57.6918L116.98 54.036V42.5429L117.139 42.4872C117.727 42.2572 118.252 41.8902 118.67 41.4164L119.395 52.9821L142.094 53.7913V40.7744" fill="#E7C7CA"/>
<path opacity="0.1" d="M145.586 15.3444C145.448 14.838 145.257 14.3123 144.861 13.9731C144.483 13.7007 144.046 13.5215 143.586 13.4499C142.485 13.1593 141.365 12.944 140.234 12.8054C140.073 12.2675 139.829 11.7582 139.51 11.2961C137.143 7.94317 133.642 4.78162 129.522 4.06694C127.366 3.69143 124.866 4.02818 123.485 5.73372C122.727 6.67128 122.401 7.9141 121.635 8.83471C120.16 10.6226 117.496 10.8431 115.637 12.2264C114.644 12.9532 113.925 14.0071 113.222 15.0294C112.461 16.1366 111.679 17.2897 111.437 18.6125C110.954 21.2556 112.696 23.7752 113.017 26.4425C113.741 32.4095 107.366 37.703 108.571 43.59C109.274 47.0229 112.435 49.4407 115.704 50.6666C116.856 51.1002 118.172 51.5314 118.711 52.641C118.952 53.1255 118.993 53.6852 119.22 54.1746C119.984 55.8074 122.493 55.8704 123.84 54.6809C125.188 53.4914 125.613 51.5678 125.772 49.7726C126.419 41.9329 123.289 34.1877 123.654 26.3286C123.763 23.952 124.429 21.2556 126.552 20.18C129.409 18.7264 132.845 21.149 135.989 20.6863C137.477 24.3182 137.793 28.3265 136.892 32.1478C136.392 34.2386 135.528 36.2663 135.465 38.4225C135.371 41.7052 137.136 44.7044 138.662 47.6068C138.99 48.1495 139.209 48.751 139.307 49.3777C139.331 50.0136 139.213 50.6468 138.962 51.231C138.1 53.5592 136.612 55.7202 136.443 58.1986C136.394 58.4879 136.459 58.7852 136.624 59.0271C136.794 59.1886 137.014 59.2876 137.247 59.3081C139.855 59.7563 142.111 57.4379 143.383 55.1097C144.802 52.5383 145.629 49.6807 145.803 46.7467C146.066 41.8142 144.303 36.9616 144.412 32.0243C144.538 26.411 147.066 20.759 145.586 15.3444Z" fill="black"/>
<path d="M145.827 15.1022C145.689 14.5958 145.499 14.0701 145.103 13.731C144.724 13.4585 144.288 13.2793 143.827 13.2077C142.726 12.9171 141.606 12.7018 140.476 12.5632C140.314 12.0253 140.07 11.516 139.751 11.0539C137.385 7.70099 133.883 4.53943 129.763 3.82475C127.607 3.44924 125.108 3.78599 123.726 5.49153C122.968 6.4291 122.642 7.67192 121.877 8.59252C120.401 10.3804 117.737 10.6009 115.878 11.9842C114.886 12.711 114.166 13.7649 113.463 14.7872C112.703 15.8944 111.92 17.0476 111.679 18.3703C111.196 21.0134 112.937 23.533 113.258 26.2003C113.982 32.1673 107.607 37.4608 108.812 43.3478C109.515 46.7807 112.676 49.1985 115.946 50.4244C117.098 50.858 118.414 51.2893 118.952 52.3988C119.194 52.8834 119.235 53.443 119.462 53.9324C120.225 55.5652 122.734 55.6282 124.081 54.4387C125.429 53.2492 125.854 51.3256 126.013 49.5304C126.66 41.6907 123.531 33.9455 123.895 26.0865C124.004 23.7098 124.671 21.0134 126.793 19.9378C129.65 18.4842 133.086 20.9068 136.23 20.4441C137.718 24.076 138.034 28.0844 137.134 31.9057C136.634 33.9964 135.769 36.0242 135.706 38.1803C135.612 41.463 137.377 44.4622 138.904 47.3646C139.231 47.9073 139.45 48.5088 139.548 49.1355C139.572 49.7714 139.454 50.4046 139.203 50.9889C138.341 53.317 136.853 55.478 136.684 57.9564C136.635 58.2457 136.7 58.543 136.865 58.7849C137.036 58.9464 137.255 59.0455 137.488 59.066C140.097 59.5142 142.352 57.1957 143.625 54.8675C145.043 52.2961 145.87 49.4385 146.044 46.5045C146.308 41.572 144.545 36.7195 144.653 31.7821C144.779 26.1688 147.307 20.5168 145.827 15.1022Z" fill="#3E373A"/>
<path d="M140.493 122.37L150.073 122.677L148.699 115.55L141.36 116.25L140.493 122.37Z" fill="#C3C7D9"/>
<path d="M170.177 105.476C169.532 106.283 167.038 107.736 166.796 108.221C166.555 108.705 163.577 110.159 162.046 110.401C160.515 110.643 155.688 111.695 154.802 112.259C154.166 112.666 149.069 113.955 145.719 114.67C144.812 114.885 143.894 115.051 142.969 115.167C141.52 115.247 125.664 109.837 125.664 109.837L128.721 106.687L128.89 106.629C129.755 106.336 133.749 104.982 135.966 104.337C138.463 103.611 141.361 100.623 141.361 100.623C141.361 100.623 145.625 99.1698 146.19 99.0075C146.755 98.8452 144.741 93.3555 144.741 93.3555C144.741 93.3555 153.997 92.0666 157.62 90.974C161.242 89.8814 169.614 90.286 171.143 94.5668C172.671 98.8476 170.831 104.669 170.177 105.476Z" fill="#4B4B5B"/>
<path d="M127.997 119.123C127.997 119.123 126.147 121.061 124.295 120.901C122.443 120.741 115.966 121.385 115.966 121.385C114.792 121.855 113.693 122.494 112.704 123.282C111.189 124.479 110.385 123.525 110.236 123.321L110.209 123.282C109.403 125.829 107.553 123.888 107.553 123.888C107.553 123.888 108.357 116.136 108.111 115.167C107.864 114.197 109.702 112.533 109.702 112.533L111.875 111.978L117.381 110.563L125.27 113.308L127.997 119.123Z" fill="#E7C7CA"/>
<path opacity="0.1" d="M111.866 111.979L110.236 123.321L110.209 123.283C109.403 125.829 107.553 123.888 107.553 123.888C107.553 123.888 108.357 116.136 108.111 115.167C107.864 114.198 109.702 112.533 109.702 112.533L111.866 111.979Z" fill="black"/>
<path opacity="0.1" d="M123.259 79.7139C123.259 79.7139 127.523 81.1675 131.228 79.7139H123.259Z" fill="black"/>
<path opacity="0.1" d="M137.817 82.4609C137.817 82.4609 139.587 83.3477 140.957 82.4609H137.817Z" fill="black"/>
<path opacity="0.1" d="M137.817 84.5642C137.817 84.5642 140.795 84.964 141.36 84.1572L137.817 84.5642Z" fill="black"/>
<path opacity="0.1" d="M136.852 89.0821C136.852 89.0821 142.444 88.3553 143.833 87.3862L136.852 89.0821Z" fill="black"/>
<path opacity="0.1" d="M119.786 87.3862C119.786 87.3862 122.925 89.162 125.261 89.0821L119.786 87.3862Z" fill="black"/>
<path opacity="0.1" d="M145.716 114.67C144.809 114.885 143.891 115.051 142.966 115.167C141.517 115.247 125.661 109.837 125.661 109.837L128.718 106.688L128.887 106.629C129.37 106.971 129.766 107.264 130.049 107.487C131.379 108.538 132.664 107.165 133.147 107.165C133.63 107.165 137.815 110.636 137.815 110.636C137.815 110.636 141.679 111.526 142.324 112.332C142.968 113.139 145.221 112.979 145.622 113.544C145.743 113.718 145.758 114.147 145.716 114.67Z" fill="black"/>
<path d="M115.966 93.6854C115.966 93.6854 112.058 93.9107 109.805 92.9586C107.552 92.0065 100.066 89.8092 97.8929 91.3524C95.7195 92.8956 90.4866 94.2596 92.9014 100.399C95.3163 106.538 96.444 106.697 96.444 106.697C97.1912 107.26 97.8434 107.938 98.3759 108.708C99.1003 109.84 105.862 112.422 107.552 112.422C109.243 112.422 112.22 112.422 116.405 115.329C120.59 118.237 124.374 118.561 124.374 118.561C124.374 118.561 129.687 120.742 131.341 121.226C132.995 121.711 140.554 123.809 142.326 123.164C144.099 122.52 145.224 118.479 145.224 118.479C145.224 118.479 146.028 114.845 145.625 114.28C145.221 113.716 142.968 113.876 142.326 113.069C141.684 112.262 137.818 111.373 137.818 111.373C137.818 111.373 133.642 107.899 133.159 107.899C132.676 107.899 131.392 109.27 130.061 108.221C127.411 106.252 124.626 104.471 121.727 102.891C118.67 101.276 115.966 93.6854 115.966 93.6854Z" fill="#4B4B5B"/>
<path opacity="0.1" d="M108.11 96.0282C108.806 95.8856 109.525 95.9061 110.212 96.0881C110.898 96.27 111.534 96.6085 112.068 97.0772C114 98.6931 120.501 101.937 120.501 101.937" fill="black"/>
<path opacity="0.1" d="M156.411 95.9258C156.411 95.9258 147.798 97.234 146.189 99.0098L156.411 95.9258Z" fill="black"/>
<path d="M166.313 122.677H165.934C164.572 122.628 159.957 122.483 159.068 122.677C158.023 122.919 144.176 122.677 144.176 122.677L146.883 122.112C146.883 122.112 145.878 118.58 146.516 118.287C146.516 118.287 142.893 115.893 145.625 114.277C148.356 112.661 151.3 113.342 151.3 113.342L158.155 111.012L159.471 110.563C159.471 110.563 167.199 110.968 169.29 116.298C171.381 121.628 166.313 122.677 166.313 122.677Z" fill="#E7C7CA"/>
<path opacity="0.1" d="M166.313 122.677H165.933C168.182 120.817 173.267 115.153 158.155 111.024L159.471 110.576C159.471 110.576 167.199 110.981 169.29 116.311C171.381 121.64 166.313 122.677 166.313 122.677Z" fill="black"/>
<path d="M152.106 116.398C152.34 116.398 152.529 116.208 152.529 115.974C152.529 115.74 152.34 115.55 152.106 115.55C151.873 115.55 151.684 115.74 151.684 115.974C151.684 116.208 151.873 116.398 152.106 116.398Z" fill="#4B4B5B"/>
<path d="M149.65 117.098C149.884 117.098 150.073 116.908 150.073 116.674C150.073 116.44 149.884 116.25 149.65 116.25C149.417 116.25 149.228 116.44 149.228 116.674C149.228 116.908 149.417 117.098 149.65 117.098Z" fill="#4B4B5B"/>
<g opacity="0.1">
<path opacity="0.1" d="M137.685 27.082C137.778 24.4172 137.306 21.763 136.298 19.2956C133.159 19.7656 129.72 17.3357 126.861 18.7892C124.746 19.8649 124.082 22.5613 123.963 24.9379C123.934 25.5654 123.93 26.1928 123.942 26.8203C123.942 26.5974 123.942 26.3721 123.963 26.1492C124.075 23.7726 124.739 21.0762 126.861 20.0006C129.72 18.547 133.154 20.9696 136.298 20.5069C137.152 22.5969 137.621 24.8244 137.685 27.082Z" fill="black"/>
<path opacity="0.1" d="M113.358 26.6386C113.399 26.1107 113.389 25.58 113.326 25.0542C113.07 22.9222 111.909 20.8848 111.699 18.8062C111.428 21.3136 113.02 23.7217 113.326 26.2655C113.358 26.3963 113.358 26.5126 113.358 26.6386Z" fill="black"/>
<path opacity="0.1" d="M126.081 48.3794C125.932 50.177 125.509 52.0982 124.149 53.2901C122.79 54.4821 120.286 54.4166 119.53 52.7838C119.288 52.2992 119.252 51.7348 119.018 51.2502C118.482 50.1407 117.163 49.7094 116.011 49.2758C112.739 48.0475 109.583 45.6418 108.88 42.1992C108.818 41.8874 108.775 41.5718 108.752 41.2544C108.693 41.9756 108.736 42.7015 108.88 43.4106C109.583 46.8434 112.744 49.2588 116.011 50.4871C117.163 50.9208 118.482 51.352 119.018 52.4616C119.259 52.9461 119.3 53.5057 119.53 53.9951C120.291 55.628 122.8 55.691 124.149 54.5014C125.499 53.3119 125.92 51.3883 126.081 49.5907C126.155 48.6446 126.18 47.6953 126.156 46.7465C126.156 47.2965 126.125 47.8392 126.081 48.3794Z" fill="black"/>
<path opacity="0.1" d="M144.733 30.6335C144.733 30.9848 144.733 31.3336 144.733 31.6825C144.869 27.1764 146.516 22.646 146.354 18.2344C146.228 22.3141 144.825 26.4859 144.733 30.6335Z" fill="black"/>
<path opacity="0.1" d="M139.552 48.8616C139.611 48.5742 139.63 48.2798 139.607 47.9871C139.51 47.3601 139.291 46.7584 138.962 46.2161C137.567 43.5512 135.975 40.8233 135.787 37.8652C135.787 37.9912 135.77 38.1075 135.767 38.2432C135.671 41.5234 137.436 44.5251 138.962 47.4274C139.222 47.8769 139.42 48.3593 139.552 48.8616Z" fill="black"/>
<path opacity="0.1" d="M146.122 45.3561C145.942 48.2912 145.109 51.1487 143.686 53.7191C142.411 56.0473 140.158 58.3657 137.547 57.9175C137.313 57.8973 137.093 57.7973 136.924 57.6341C136.875 57.5786 136.837 57.5146 136.811 57.4451C136.782 57.6341 136.757 57.8255 136.743 58.0193C136.693 58.3078 136.758 58.6045 136.924 58.8454C137.093 59.0086 137.313 59.1086 137.547 59.1289C140.158 59.5771 142.411 57.2586 143.686 54.9304C145.109 52.36 145.942 49.5025 146.122 46.5674C146.151 46.0005 146.154 45.4361 146.137 44.8716C146.132 45.0339 146.132 45.1938 146.122 45.3561Z" fill="black"/>
</g>
<path opacity="0.1" d="M146.516 118.287C146.516 118.287 152.628 120.86 156.658 115.167" stroke="black" stroke-miterlimit="10"/>
<path opacity="0.1" d="M147.719 122.784C147.719 122.784 152.71 119.528 159.069 122.677" stroke="black" stroke-miterlimit="10"/>
<path opacity="0.1" d="M114.307 122.045C114.307 122.045 116.403 117.301 122 120.918" stroke="black" stroke-miterlimit="10"/>
<path opacity="0.1" d="M107.512 51.8947L111.786 48.0184C111.786 48.0184 128.359 46.9282 129.045 52.5803C129.045 52.5803 134.92 45.8792 147.277 47.3716L152.505 51.5482L138.055 57.9101L124.012 62.7966L113.67 58.1524L107.512 51.8947Z" fill="black"/>
<path d="M107.512 52.1369L111.786 48.2606C111.786 48.2606 128.359 47.1704 129.045 52.8225C129.045 52.8225 134.92 46.1214 147.277 47.6138L152.505 51.7904L138.055 58.1523L124.012 63.0388L113.67 58.3946L107.512 52.1369Z" fill="#D5D6DB"/>
<path opacity="0.1" d="M105.62 52.6211L107.511 75.314L127.554 76.3243L126.685 53.7282L126.668 53.3479L105.62 52.6211Z" fill="black"/>
<path d="M105.62 52.1367L107.511 74.8297L127.554 75.8399L126.685 53.2439L126.668 52.8635L105.62 52.1367Z" fill="#6C63FF"/>
<path opacity="0.1" d="M153.422 52.1367L132.746 55.2474V78.0421L152.951 75.1131L153.422 52.1367Z" fill="black"/>
<path d="M153.422 51.6523L132.746 54.763V77.5577L152.951 74.6287L153.422 51.6523Z" fill="#6C63FF"/>
<path opacity="0.3" d="M148.547 57.2148L137.378 58.4601L137.622 62.2782L148.539 61.0814L148.547 57.2148Z" fill="white"/>
<path d="M108.598 86.9819L109.735 90.0514C109.735 90.0514 111.425 91.505 113.275 90.7782C115.125 90.0514 116.738 89.6904 117.542 88.983C118.346 88.2756 119.474 84.7215 119.474 84.7215C119.474 84.7215 120.602 80.8453 121.727 79.8762C122.852 78.9072 125.832 65.556 121.727 66.8618C117.622 68.1676 114.483 80.2808 114.483 80.2808C114.483 80.2808 113.758 81.1675 112.713 81.2499C111.667 81.3323 109.573 81.0876 109.17 81.9767C108.767 82.8658 107.39 85.2061 108.598 86.9819Z" fill="#BE6F72"/>
<path opacity="0.1" d="M132.746 55.2451C131.688 55.4844 130.588 55.4719 129.535 55.2086C128.482 54.9452 127.505 54.4384 126.683 53.7285L127.554 76.3221C127.554 76.3221 129.607 78.551 132.746 78.0422V55.2451Z" fill="black"/>
<path d="M132.746 54.7607C131.688 55 130.588 54.9875 129.535 54.7242C128.482 54.4608 127.505 53.954 126.683 53.2441L127.554 75.8377C127.554 75.8377 129.607 78.0666 132.746 77.5578V54.7607Z" fill="#6C63FF"/>
<path opacity="0.1" d="M132.746 54.7607C131.688 55 130.588 54.9875 129.535 54.7242C128.482 54.4608 127.505 53.954 126.683 53.2441L127.554 75.8377C127.554 75.8377 129.607 78.0666 132.746 77.5578V54.7607Z" fill="black"/>
<path opacity="0.1" d="M133.229 52.2147C133.229 52.2147 141.64 49.6346 143.833 49.998L133.229 52.2147Z" fill="black"/>
<path opacity="0.1" d="M123.821 51.088C123.821 51.088 115.669 49.1499 114.307 49.6998L123.821 51.088Z" fill="black"/>
<path opacity="0.1" d="M138.532 52.5366C138.532 52.5366 144.156 50.4677 146.19 51.4512L138.532 52.5366Z" fill="black"/>
<path opacity="0.1" d="M135.699 104.437C136.571 103.78 137.498 103.202 138.471 102.71C139.92 102.009 142.577 100.192 142.577 100.192" fill="black"/>
<path opacity="0.1" d="M114.307 79.7139C114.307 79.7139 110.779 82.6089 109.718 82.8633C108.658 83.1177 108.004 85.3756 108.004 85.3756" fill="black"/>
<path d="M151.348 86.5503L150.222 89.627C150.222 89.627 148.532 91.0806 146.68 90.3538C144.828 89.627 143.219 89.2661 142.413 88.5586C141.606 87.8512 140.481 84.2972 140.481 84.2972C140.481 84.2972 139.356 80.421 138.228 79.4519C137.1 78.4829 134.123 65.1317 138.228 66.4375C142.333 67.7433 145.472 79.8565 145.472 79.8565C145.472 79.8565 146.197 80.7432 147.243 80.8256C148.288 80.9079 150.382 80.6632 150.785 81.5524C151.188 82.4415 152.555 84.7817 151.348 86.5503Z" fill="#BE6F72"/>
<path opacity="0.1" d="M149.375 80.8911C149.375 80.8911 151.681 82.3786 151.672 84.1568L149.375 80.8911Z" fill="black"/>
<path d="M129.808 37.7728C135.765 37.7728 140.595 32.9277 140.595 26.9509C140.595 20.9741 135.765 16.1289 129.808 16.1289C123.85 16.1289 119.021 20.9741 119.021 26.9509C119.021 32.9277 123.85 37.7728 129.808 37.7728Z" fill="#BE6F72"/>
<path d="M123.034 24.0461C124.343 23.8402 125.49 23.0771 126.741 22.6386C129.539 21.6526 132.635 22.3285 135.468 23.2176C136.554 23.5592 137.658 23.9444 138.798 23.9444C139.938 23.9444 141.148 23.4768 141.729 22.4908C142.266 21.5847 142.162 20.4073 141.71 19.4552C141.259 18.5031 140.503 17.7376 139.74 17.0156C137.228 14.6366 134.113 12.4126 130.667 12.6549C129.281 12.7542 127.955 13.2508 126.68 13.8008C125.075 14.4949 123.512 15.2844 122 16.1653C120.839 16.8412 118.687 17.7448 118.018 18.9804C116.497 21.764 120.667 24.4192 123.034 24.0461Z" fill="#3E373A"/>
<path opacity="0.1" d="M141.73 21.4734C141.148 22.4594 139.938 22.927 138.798 22.927C137.658 22.927 136.554 22.5563 135.465 22.2148C132.633 21.3256 129.539 20.6473 126.738 21.6357C125.49 22.0742 124.34 22.8471 123.031 23.0409C121.124 23.3413 118.052 21.6745 117.719 19.5547C117.344 22.004 120.906 24.102 123.031 23.7677C124.34 23.5617 125.49 22.7986 126.738 22.3625C129.539 21.3741 132.633 22.0524 135.465 22.9415C136.554 23.2831 137.656 23.6683 138.798 23.6538C139.94 23.6393 141.148 23.1887 141.73 22.2002C142.031 21.6625 142.15 21.0408 142.068 20.4293C142.03 20.7974 141.915 21.1533 141.73 21.4734Z" fill="black"/>
<path d="M33.3201 183.797C32.8253 182.679 32.3562 181.392 32.8511 180.273C33.1741 179.615 33.729 179.096 34.4107 178.817C35.0852 178.543 35.7963 178.369 36.5214 178.299C38.7973 178.003 41.1004 177.971 43.3836 178.206C43.5501 179.516 43.1983 180.844 42.8958 182.11C42.6214 183.275 42.4643 183.448 41.2541 183.508C40.4708 183.55 33.5054 184.21 33.3201 183.797Z" fill="#FBBEBE"/>
<path d="M54.2042 176.251C72.7262 176.251 87.7413 172.078 87.7413 166.929C87.7413 161.78 72.7262 157.606 54.2042 157.606C35.6821 157.606 20.667 161.78 20.667 166.929C20.667 172.078 35.6821 176.251 54.2042 176.251Z" fill="#464353"/>
<path opacity="0.1" d="M54.2042 176.251C72.7262 176.251 87.7413 172.078 87.7413 166.929C87.7413 161.78 72.7262 157.606 54.2042 157.606C35.6821 157.606 20.667 161.78 20.667 166.929C20.667 172.078 35.6821 176.251 54.2042 176.251Z" fill="black"/>
<path d="M60.2178 117.715C59.0682 119.923 57.159 121.646 54.8378 122.572C53.4674 123.069 52.0251 123.341 50.5671 123.379C48.9747 123.451 47.3494 123.348 45.8531 122.808C43.8456 122.085 42.1781 120.608 40.9281 118.885C39.6781 117.163 38.8174 115.196 38.0692 113.213C37.6752 112.18 37.3 111.08 37.4853 109.989C38.6931 109.717 40.0158 109.316 40.6396 108.251C41.172 107.337 41.0242 106.242 40.717 105.198C40.6302 104.902 40.5294 104.608 40.4285 104.326C40.194 103.65 39.3849 102.366 39.9595 101.788C40.3183 101.422 41.8216 101.236 42.3399 100.998C43.9371 100.266 45.4099 99.2079 47.1641 98.8606C48.6815 98.56 50.2481 98.842 51.7632 99.1543C51.9641 99.1833 52.1572 99.2523 52.3307 99.357C52.5286 99.5228 52.675 99.741 52.7529 99.9863C53.1844 101.03 53.4377 102.184 53.7848 103.272C54.146 104.412 54.6103 105.482 55.4804 106.291C56.1582 106.922 57.0212 107.318 57.8655 107.703L59.9434 108.649C60.313 108.787 60.6483 109.002 60.9261 109.281C61.1978 109.652 61.3602 110.091 61.3951 110.549C61.7674 113.001 61.3557 115.508 60.2178 117.715Z" fill="#FBBEBE"/>
<path opacity="0.1" d="M53.7754 103.272C52.1208 104.984 49.9411 106.102 47.5782 106.451C45.2154 106.799 42.803 106.358 40.7194 105.198C40.6326 104.902 40.5318 104.608 40.4309 104.326C40.1964 103.65 39.3873 102.366 39.9619 101.788C40.3207 101.422 41.824 101.236 42.3423 100.998C43.9394 100.266 45.4123 99.2079 47.1665 98.8606C48.6839 98.56 50.2505 98.842 51.7656 99.1543C51.9665 99.1833 52.1595 99.2523 52.3331 99.357C52.531 99.5228 52.6774 99.741 52.7553 99.9863C53.1751 101.03 53.4283 102.184 53.7754 103.272Z" fill="black"/>
<path d="M45.9962 106.099C51.9543 106.099 56.7844 101.3 56.7844 95.3786C56.7844 89.4576 51.9543 84.6577 45.9962 84.6577C40.038 84.6577 35.208 89.4576 35.208 95.3786C35.208 101.3 40.038 106.099 45.9962 106.099Z" fill="#FBBEBE"/>
<path d="M78.8643 130.172L77.9778 124.835C77.5299 122.157 77.0679 119.428 75.8155 117.016C74.9923 115.436 73.686 113.93 71.9247 113.618C71.5778 113.587 71.2368 113.509 70.9116 113.385C70.3956 113.138 70.1142 112.583 69.7178 112.173C68.6953 111.119 67.0302 111.103 65.6605 110.567C64.4504 110.101 63.4607 109.204 62.3584 108.518C61.2562 107.833 59.8842 107.353 58.6646 107.791C58.4676 109.877 58.2589 112.01 57.3677 113.909C56.7877 115.146 55.9368 116.238 54.8774 117.105C53.818 117.973 52.5768 118.595 51.2447 118.924C49.9125 119.254 48.523 119.284 47.1778 119.011C45.8326 118.739 44.5657 118.171 43.4697 117.349C41.3801 115.785 40.041 113.373 39.4171 110.849C39.2647 110.234 39.0911 109.528 38.5212 109.246C37.9044 108.938 37.1633 109.311 36.645 109.763C35.7069 110.6 34.94 111.798 33.7064 112.08C33.2608 112.182 32.7683 112.161 32.3978 112.429C32.1515 112.655 31.9454 112.921 31.788 113.215C31.5181 113.594 31.1574 113.9 30.7385 114.106C30.3197 114.312 29.8558 114.411 29.3888 114.394C28.9596 114.373 28.4507 114.275 28.1576 114.585C27.9394 114.818 27.923 115.182 27.6885 115.398C27.3719 115.704 26.8583 115.554 26.4174 115.538C25.5825 115.503 24.8062 116.035 24.3278 116.703C23.8493 117.372 23.6242 118.2 23.3896 119.001C25.953 124.674 28.2983 130.354 30.8616 136.027C30.9817 136.24 31.0455 136.481 31.0469 136.726C30.9955 136.98 30.8864 137.219 30.728 137.425C29.4709 139.432 29.5108 141.956 29.6491 144.314C29.7875 146.673 29.9564 149.164 28.8963 151.278C28.6078 151.859 28.2326 152.39 27.9582 152.97C27.3156 154.285 27.0834 158.489 27.4587 159.901H80.4802C79.4694 157.14 79.854 151.597 80.0651 148.666C80.2129 146.615 79.8306 144.566 79.6664 142.515C79.3076 138.327 79.5609 134.353 78.8643 130.172Z" fill="#6C63FF"/>
<path d="M19.3282 136.279C19.2344 136.953 19.2249 137.636 19.3001 138.313L19.9732 147.932C20.0365 148.838 20.0998 149.743 20.1842 150.647C20.3461 152.402 20.5876 154.143 20.8878 155.881C20.8946 156.128 20.9996 156.362 21.1799 156.532C21.3602 156.702 21.6009 156.794 21.8494 156.788C24.8161 157.413 27.8814 157.387 30.9091 157.217C35.5292 156.96 40.1424 156.375 44.7696 156.476C45.9609 156.501 47.3493 156.476 48.0717 155.543C48.794 154.611 48.3742 153.103 47.4314 152.35C46.4886 151.598 45.2081 151.418 43.998 151.418C42.3962 151.402 40.7943 151.628 39.1972 151.535C37.7314 151.449 36.2985 151.097 34.8773 150.745L30.8903 149.759C31.0428 148.559 31.5024 147.428 31.9387 146.289C32.722 144.268 33.4537 142.18 33.4678 140.015C33.4818 137.849 32.661 135.572 30.8763 134.332C29.4081 133.314 27.5178 133.125 25.7284 133.167C24.4268 133.204 22.1777 132.895 20.9887 133.4C20.0482 133.81 19.5041 135.363 19.3282 136.279Z" fill="#FBBEBE"/>
<path d="M81.5784 158.27C82.3593 157.974 83.22 158.081 84.0573 158.193C86.752 158.559 89.4866 158.934 91.9843 160.004C93.1569 160.503 94.2732 161.17 95.0659 162.151C95.7695 163.034 96.1799 164.115 96.5692 165.181L97.4698 167.632C97.8122 168.565 98.1593 169.515 98.2555 170.506C98.5369 173.44 96.5176 176.207 93.9777 177.731C91.4378 179.255 88.4476 179.798 85.5348 180.367C82.622 180.935 79.6975 181.565 76.7964 182.231C75.4433 182.58 74.0704 182.849 72.6851 183.035C69.58 183.385 66.3342 182.87 63.3839 183.891C62.2112 184.299 61.0597 184.905 59.8425 185.187C59.034 185.356 58.2166 185.479 57.3941 185.557L51.81 186.191C50.6745 186.342 49.5313 186.429 48.3859 186.452C45.9469 186.452 43.5477 185.879 41.179 185.305C40.9271 185.261 40.6874 185.165 40.4754 185.023C40.1002 184.73 40.0181 184.21 39.9641 183.739C39.7249 181.656 39.5154 179.57 39.3356 177.481C39.2793 176.803 39.2371 176.069 39.61 175.498C40.079 174.799 40.9937 174.58 41.8286 174.445C45.3689 173.869 48.9554 173.622 52.5417 173.706C53.9043 172.352 56.1511 172.345 57.9358 171.608C58.5924 171.309 59.2278 170.965 59.8378 170.581C63.0304 168.73 66.5981 167.609 70.2813 167.301C71.0025 167.279 71.7191 167.178 72.4178 166.998C73.7991 166.572 75.0585 165.411 76.4774 165.696C76.6533 165.213 76.7753 164.568 77.181 164.237C77.3827 164.066 77.6313 163.952 77.8166 163.77C78.2082 163.377 78.2434 162.757 78.1848 162.207C78.1261 161.657 77.9948 161.093 78.1379 160.557C78.1974 160.354 78.285 160.16 78.3982 159.981C79.1018 158.774 80.1642 158.154 81.5784 158.27Z" fill="#464353"/>
<path opacity="0.05" d="M81.5784 158.27C82.3593 157.974 83.22 158.081 84.0573 158.193C86.752 158.559 89.4866 158.934 91.9843 160.004C93.1569 160.503 94.2732 161.17 95.0659 162.151C95.7695 163.034 96.1799 164.115 96.5692 165.181L97.4698 167.632C97.8122 168.565 98.1593 169.515 98.2555 170.506C98.5369 173.44 96.5176 176.207 93.9777 177.731C91.4378 179.255 88.4476 179.798 85.5348 180.367C82.622 180.935 79.6975 181.565 76.7964 182.231C75.4433 182.58 74.0704 182.849 72.6851 183.035C69.58 183.385 66.3342 182.87 63.3839 183.891C62.2112 184.299 61.0597 184.905 59.8425 185.187C59.034 185.356 58.2166 185.479 57.3941 185.557L51.81 186.191C50.6745 186.342 49.5313 186.429 48.3859 186.452C45.9469 186.452 43.5477 185.879 41.179 185.305C40.9271 185.261 40.6874 185.165 40.4754 185.023C40.1002 184.73 40.0181 184.21 39.9641 183.739C39.7249 181.656 39.5154 179.57 39.3356 177.481C39.2793 176.803 39.2371 176.069 39.61 175.498C40.079 174.799 40.9937 174.58 41.8286 174.445C45.3689 173.869 48.9554 173.622 52.5417 173.706C53.9043 172.352 56.1511 172.345 57.9358 171.608C58.5924 171.309 59.2278 170.965 59.8378 170.581C63.0304 168.73 66.5981 167.609 70.2813 167.301C71.0025 167.279 71.7191 167.178 72.4178 166.998C73.7991 166.572 75.0585 165.411 76.4774 165.696C76.6533 165.213 76.7753 164.568 77.181 164.237C77.3827 164.066 77.6313 163.952 77.8166 163.77C78.2082 163.377 78.2434 162.757 78.1848 162.207C78.1261 161.657 77.9948 161.093 78.1379 160.557C78.1974 160.354 78.285 160.16 78.3982 159.981C79.1018 158.774 80.1642 158.154 81.5784 158.27Z" fill="black"/>
<path d="M35.477 185.238C34.0253 186.909 32.7471 187.506 30.4746 187.452C29.0768 187.419 27.6806 187.347 26.286 187.235C25.3327 187.133 24.3741 187.088 23.4154 187.102C20.5213 187.214 17.7281 188.531 14.8411 188.3C14.4142 188.267 13.9921 188.189 13.5817 188.067C12.9268 187.888 12.3348 187.531 11.872 187.037C11.3185 186.415 11.0535 185.59 10.9011 184.774C10.1295 180.593 12.2449 176.039 15.9481 173.911C16.4312 173.601 16.9805 173.407 17.5522 173.345C18.1129 173.342 18.6671 173.463 19.1751 173.699L19.2103 173.713C20.7148 174.328 22.0812 175.234 23.2301 176.379C23.4044 176.578 23.6124 176.744 23.8445 176.871C24.0763 176.958 24.3216 177.004 24.5692 177.006L27.6509 177.2C28.173 177.215 28.6919 177.286 29.1988 177.412C29.7575 177.606 30.3015 177.839 30.8264 178.111C32.4845 178.847 34.3232 179.043 36.1149 179.327C36.2876 179.337 36.4524 179.402 36.584 179.514C36.6555 179.602 36.7053 179.706 36.7294 179.817C36.9812 180.753 36.9987 181.737 36.7804 182.682C36.5622 183.627 36.1147 184.504 35.477 185.238Z" fill="#3F3D56"/>
<path opacity="0.1" d="M19.2103 173.715C18.0147 174.849 16.9775 176.138 16.1263 177.546C14.7604 179.871 13.9022 182.455 13.6075 185.13C13.4957 186.106 13.4871 187.091 13.5817 188.069C12.9268 187.89 12.3348 187.533 11.872 187.039C11.3185 186.417 11.0535 185.592 10.9011 184.776C10.1295 180.595 12.2449 176.041 15.9481 173.913C16.4312 173.603 16.9805 173.409 17.5522 173.347C18.1129 173.344 18.6671 173.465 19.1751 173.701L19.2103 173.715Z" fill="black"/>
<path d="M78.8952 179.514C80.619 179.467 82.5538 179.381 83.8203 180.535C85.0281 181.626 85.1876 183.425 85.2673 185.045L85.3588 186.925C85.3869 187.499 85.4104 188.091 85.1782 188.622C84.7654 189.554 83.6327 190.004 82.5984 189.95C81.5641 189.897 80.6143 189.447 79.6692 189.042C77.1033 187.943 74.4315 187.107 71.6953 186.545C71.7844 185.245 71.933 183.951 72.1409 182.663C72.284 181.77 72.3074 180.276 72.9078 179.535C73.5434 178.752 74.3712 179.176 75.2343 179.321C76.4453 179.504 77.6715 179.569 78.8952 179.514Z" fill="#FBBEBE"/>
<path d="M33.3407 160.615C33.3407 160.848 32.9725 160.615 32.9397 160.365C32.6817 158.48 31.176 156.925 29.4218 156.17C27.6675 155.415 25.6694 155.375 23.7697 155.555C20.8968 155.825 17.672 156.918 16.6214 159.587C16.3728 160.211 16.2602 160.887 15.9553 161.486C15.6176 162.143 15.0665 162.668 14.7006 163.306C14.0697 164.411 14.0439 165.765 14.2714 167.014C14.8835 170.347 17.1772 173.198 19.9563 175.172C22.7355 177.146 25.9836 178.325 29.2224 179.388C37.7865 182.195 46.5732 184.28 55.4893 185.622C56.934 185.839 58.3927 186.039 59.7764 186.501C61.0147 186.913 62.1733 187.531 63.3834 188.016C66.1977 189.139 69.2255 189.54 72.225 189.934C72.7363 189.999 73.3226 190.046 73.7002 189.701C74.188 189.251 74.0262 188.468 73.8878 187.822C73.3787 185.368 73.8058 182.812 75.0863 180.653C75.5881 179.814 76.2401 178.954 76.1463 177.982C76.0337 176.85 74.8986 176.048 73.7682 175.866C72.6378 175.684 71.4886 175.952 70.3535 176.099C69.9619 176.15 69.535 176.183 69.1926 175.985C69.0239 175.872 68.871 175.737 68.7376 175.584C67.9557 174.834 66.9549 174.35 65.8788 174.201C64.8028 174.051 63.7067 174.244 62.7479 174.752C62.3281 174.985 61.6925 174.465 61.2563 174.27L56.3242 172.051C50.6581 169.504 44.9638 166.945 38.9693 165.332C38.491 165.238 38.0365 165.05 37.6325 164.779C37.3347 164.546 37.1213 164.229 36.8469 163.971C36.2488 163.409 35.4163 163.185 34.6986 162.787C33.981 162.388 33.1765 161.414 33.3407 160.615Z" fill="#464353"/>
<path d="M109.377 191.074C108.589 192.526 107.06 193.43 105.418 193.803C105.006 193.895 104.587 193.955 104.166 193.98C102.09 194.108 100.04 193.537 98.0398 192.973L95.324 192.214C94.8572 192.068 94.3785 191.961 93.8934 191.897C93.233 191.853 92.5699 191.875 91.914 191.964C88.7042 192.261 85.4686 192.117 82.2985 191.535C82.0333 191.507 81.7786 191.417 81.555 191.272C81.3592 191.081 81.1854 190.869 81.0367 190.64C80.298 189.757 79.5029 189.242 80.3777 188.077C80.8819 187.401 81.8177 187.063 82.2094 186.287C82.601 185.511 82.3501 184.408 82.1179 183.607C81.8013 182.5 80.76 182.022 80.3871 181.006C80.108 180.239 80.5771 179.349 81.283 178.931C81.9889 178.514 82.8613 178.482 83.6751 178.589C84.489 178.696 85.2863 178.924 86.1048 178.987C88.5111 179.178 90.9712 177.946 93.2813 178.64C93.7902 178.794 94.271 179.039 94.787 179.174C95.7928 179.397 96.8436 179.307 97.7959 178.915C98.1337 178.789 98.4643 178.638 98.7927 178.489C99.4259 178.161 100.1 177.919 100.798 177.768C103.052 177.384 105.141 178.934 106.842 180.446C107.425 180.928 107.942 181.484 108.378 182.101C108.847 182.828 109.095 183.674 109.316 184.509C109.937 186.664 110.451 189.093 109.377 191.074Z" fill="#3F3D56"/>
<path opacity="0.1" d="M109.377 191.074C108.589 192.526 107.059 193.43 105.418 193.803C106.056 192.57 106.344 191.187 106.25 189.804C106.11 187.587 105.129 185.499 103.879 183.658C103.11 182.524 102.235 181.465 101.267 180.495C100.521 179.749 99.6038 179.157 98.8018 178.474C99.435 178.147 100.109 177.905 100.807 177.754C103.061 177.37 105.15 178.92 106.851 180.432C107.434 180.914 107.951 181.47 108.387 182.087C108.856 182.814 109.104 183.66 109.325 184.494C109.937 186.664 110.451 189.093 109.377 191.074Z" fill="black"/>
<path d="M23.2567 119.174C23.0283 119.412 22.8511 119.693 22.7361 120.002C20.8403 124.247 19.7206 128.795 19.4293 133.431C19.4344 133.657 19.3819 133.88 19.2768 134.081C19.1732 134.214 19.0578 134.338 18.9321 134.451C18.8179 134.586 18.7327 134.742 18.6817 134.911C18.6308 135.079 18.6151 135.256 18.6358 135.431C18.6565 135.606 18.713 135.775 18.8019 135.927C18.8907 136.079 19.0101 136.211 19.1525 136.316C19.5395 135.591 20.4659 135.356 21.289 135.293C25.2314 134.983 29.0823 136.805 33.0364 136.668C32.7573 135.71 32.3563 134.789 32.1288 133.82C31.1227 129.515 33.6321 124.828 32.0936 120.682C31.7864 119.852 31.2728 119.037 30.4637 118.673C30.1287 118.539 29.7781 118.446 29.42 118.398C28.421 118.219 26.4322 117.452 25.4659 117.759C25.1095 117.874 24.9687 118.207 24.6732 118.407C24.2253 118.694 23.6296 118.799 23.2567 119.174Z" fill="#6C63FF"/>
<path d="M82.0023 127.658H33.4414C32.4091 127.658 31.5723 128.489 31.5723 129.515V158.895C31.5723 159.921 32.4091 160.752 33.4414 160.752H82.0023C83.0346 160.752 83.8715 159.921 83.8715 158.895V129.515C83.8715 128.489 83.0346 127.658 82.0023 127.658Z" fill="#3F3D56"/>
<path d="M57.6054 145.603C58.3825 145.603 59.0125 144.977 59.0125 144.205C59.0125 143.433 58.3825 142.807 57.6054 142.807C56.8282 142.807 56.1982 143.433 56.1982 144.205C56.1982 144.977 56.8282 145.603 57.6054 145.603Z" fill="white"/>
<path d="M38.5419 77.978C37.7538 78.5443 37.2144 79.3577 36.6656 80.1385C35.6548 81.5811 34.5104 83.0215 32.8945 83.8255C32.2824 84.1308 31.5835 84.3616 31.1778 84.8929C30.9369 85.2523 30.7806 85.6609 30.7204 86.0885C30.4109 87.5921 30.2491 89.1219 30.2373 90.6566C30.2373 91.421 30.2701 92.2087 30.6102 92.9033C30.9315 93.5558 31.5108 94.1082 31.6304 94.819C31.7219 95.3737 31.5155 95.9261 31.4428 96.4831C31.3701 97.0401 31.4967 97.6997 32.015 97.9654C32.2943 98.0698 32.5859 98.1379 32.8828 98.1681C34.4423 98.5131 34.9653 100.331 35.2022 101.834C35.7322 101.804 35.9715 101.2 36.0817 100.709L37.7069 93.5279C37.8828 92.7495 38.176 91.8475 38.957 91.5748C39.48 91.3954 40.0522 91.5632 40.5986 91.6098C42.7446 91.7846 44.5598 90.1368 46.6588 89.6824C47.3307 89.5476 48.0176 89.5021 48.7015 89.5472C50.3573 89.6288 52.2827 90.3046 52.6345 91.8405C52.6931 92.0899 52.7283 92.3882 52.9628 92.5117C53.1974 92.6352 53.4436 92.5304 53.6899 92.5117C54.7405 92.4068 55.3597 93.5815 55.6622 94.5417L56.7645 98.0376C56.9287 98.5667 57.2054 99.1889 57.7823 99.2565C58.3147 99.3218 58.7673 98.8207 58.8471 98.3243C58.9268 97.8279 58.7533 97.3128 58.6384 96.8141C58.1201 94.5184 58.9128 92.1691 59.3959 89.8688C59.879 87.5685 59.9658 84.9256 58.3452 83.1543C57.7565 82.5134 56.9826 82.0356 56.4338 81.3597C55.9225 80.7258 55.6341 79.9474 55.1041 79.3251C53.6383 77.6074 49.8788 76.2813 47.5734 76.0622C44.9397 75.7779 40.6713 76.4421 38.5419 77.978Z" fill="#3F3D56"/>
<g opacity="0.1">
<path opacity="0.1" d="M57.7922 97.625C57.2152 97.5551 56.9385 96.9258 56.7743 96.4061C56.4069 95.2393 56.0395 94.0739 55.6721 92.9102C55.3695 91.9476 54.7504 90.773 53.6997 90.8802C53.4535 90.9059 53.1884 91.0014 52.9727 90.8802C52.7569 90.759 52.703 90.4584 52.6443 90.209C52.2926 88.6708 50.3671 87.9972 48.7113 87.9157C48.0275 87.871 47.3408 87.9157 46.6686 88.0485C44.5696 88.5146 42.7544 90.1461 40.6085 89.9759C40.055 89.9317 39.4828 89.7639 38.9668 89.9433C38.1765 90.2137 37.8927 91.1086 37.7168 91.8964L36.0915 99.0747C35.9813 99.5688 35.7421 100.172 35.2121 100.2C34.9775 98.6994 34.4522 96.8816 32.8926 96.5366C32.5962 96.5042 32.3048 96.4361 32.0248 96.3339C31.8208 96.2231 31.6611 96.0463 31.5722 95.8328C31.53 96.0495 31.4807 96.2663 31.4526 96.483C31.3822 97.0377 31.5065 97.6996 32.0248 97.9653C32.3041 98.0697 32.5958 98.1378 32.8926 98.1681C34.4522 98.513 34.9752 100.331 35.2121 101.834C35.7421 101.804 35.9813 101.2 36.0915 100.708L37.7168 93.5278C37.8927 92.7494 38.1858 91.8474 38.9668 91.5747C39.4898 91.3953 40.062 91.5631 40.6085 91.6097C42.7544 91.7845 44.5696 90.1368 46.6686 89.6823C47.3405 89.5475 48.0274 89.5021 48.7113 89.5471C50.3671 89.6287 52.2926 90.3046 52.6443 91.8404C52.703 92.0898 52.7381 92.3881 52.9727 92.5116C53.2072 92.6352 53.4535 92.5303 53.6997 92.5116C54.7504 92.4068 55.3695 93.5814 55.6721 94.5416C56.0379 95.7085 56.4054 96.8738 56.7743 98.0375C56.9385 98.5666 57.2152 99.1889 57.7922 99.2565C58.3246 99.3217 58.7772 98.8206 58.8569 98.3242C58.893 97.9065 58.8451 97.4858 58.7162 97.0867C58.6325 97.2568 58.5003 97.3986 58.3359 97.4943C58.1715 97.5901 57.9824 97.6355 57.7922 97.625Z" fill="black"/>
<path opacity="0.1" d="M31.6333 93.1877C31.5137 92.4768 30.9297 91.9245 30.6131 91.2719C30.4096 90.8318 30.2918 90.3573 30.266 89.8735C30.266 90.1346 30.2426 90.3956 30.2402 90.659C30.2402 91.4234 30.2731 92.2111 30.6131 92.9057C30.8735 93.4347 31.3026 93.9008 31.5184 94.4392C31.6322 94.0323 31.6711 93.6083 31.6333 93.1877Z" fill="black"/>
<path opacity="0.1" d="M59.4057 88.2282C58.9788 90.2605 58.3128 92.3301 58.5192 94.367C58.6528 92.8638 59.0938 91.3512 59.4057 89.8596C59.6659 88.7269 59.7575 87.5624 59.6777 86.4033C59.6268 87.0168 59.5359 87.6264 59.4057 88.2282Z" fill="black"/>
</g>
<g opacity="0.1">
<path opacity="0.1" d="M24.2506 102.184C24.2506 102.184 6.71514 94.8568 4.41679 108.078C4.41679 108.078 3.21836 110.139 4.88584 111.84C4.88584 111.84 5.24466 110.926 6.93794 111.87C7.54273 112.203 8.18515 112.462 8.85167 112.644C9.7518 112.891 10.7083 112.84 11.5769 112.5C11.5769 112.5 17.3438 112.19 22.1938 104.692C22.1938 104.692 24.2741 103.415 24.3773 102.935L20.9016 103.168C20.9016 103.168 21.169 105.697 19.729 107.214C19.729 107.214 21.0048 103.289 20.3927 103.179C20.2684 103.156 18.5563 103.38 18.5563 103.38C18.5563 103.38 18.9996 107.778 16.6801 110.052C16.6801 110.052 18.8331 105.58 17.8973 103.459L15.3316 103.951C15.3316 103.951 16.0352 108.577 13.4976 111.267C13.4976 111.267 15.5849 106.512 14.7781 104.098L12.3226 104.918C12.3226 104.918 12.9137 109.442 10.7912 111.677C10.7912 111.677 12.6439 105.941 11.7715 105.151C11.7715 105.151 9.56228 106.041 9.09088 106.55C9.09088 106.55 9.44033 109.812 8.0918 110.989C8.0918 110.989 8.91968 107.027 8.50926 106.864C8.50926 106.864 5.94355 108.785 5.16023 110.442C5.16023 110.442 6.13586 107.911 8.18796 106.48C8.18796 106.48 6.4642 106.191 5.13913 106.906C5.13913 106.906 6.02564 105.226 8.80945 106.023C8.80945 106.023 10.8709 104.603 11.2837 104.624C11.2837 104.624 8.64998 103.459 6.74797 103.604C6.74797 103.604 8.78835 102.438 11.9263 104.384L14.3771 103.506C14.3771 103.506 10.9765 101.774 9.27381 101.781C9.27381 101.781 11.5393 100.909 15.0127 103.333L17.5221 102.825C17.5221 102.825 14.7078 101.112 12.8105 100.714C12.8105 100.714 15.0854 100.355 18.2468 102.706L19.9611 102.564C19.9611 102.564 17.8856 101.348 17.2571 101.052C16.6285 100.756 16.6567 100.564 16.6567 100.564C18.1482 100.818 19.5397 101.478 20.6764 102.471C20.6764 102.471 24.2365 102.401 24.2506 102.184Z" fill="#6C63FF"/>
</g>
<g opacity="0.1">
<path opacity="0.1" d="M23.604 89.0488C23.604 89.0488 17.3937 74.7691 8.4466 81.3181C8.4466 81.3181 6.55632 81.8635 6.57039 83.8119C6.57039 83.8119 7.3068 83.4716 7.77351 84.9935C7.94464 85.5334 8.18088 86.0506 8.47709 86.5341C8.86857 87.1911 9.46576 87.7027 10.1774 87.9907C10.1774 87.9907 13.7821 91.0718 20.9656 89.3634C20.9656 89.3634 22.9356 89.7806 23.271 89.5569L21.0758 87.7227C21.0758 87.7227 19.7836 89.3774 18.0528 89.4566C18.0528 89.4566 21.0617 87.8485 20.7615 87.436C20.7006 87.3521 19.5537 86.5177 19.5537 86.5177C19.5537 86.5177 17.2976 89.3797 14.6287 89.424C14.6287 89.424 18.4726 87.9837 19.1316 86.1961L17.3257 85.0308C17.3257 85.0308 15.0485 88.1795 11.9997 88.3426C11.9997 88.3426 15.9655 86.6995 16.8708 84.8071L14.9406 83.9051C14.9406 83.9051 12.6985 86.9349 10.1633 87.0491C10.1633 87.0491 14.5536 84.6905 14.4856 83.728C14.4856 83.728 12.6634 83.0055 12.0841 83.0474C12.0841 83.0474 10.426 85.18 8.94614 85.1194C8.94614 85.1194 11.7112 83.2339 11.5611 82.9053C11.5611 82.9053 8.93441 82.593 7.52022 83.1383C7.52022 83.1383 9.55121 82.1875 11.5892 82.4998C11.5892 82.4998 10.7309 81.3508 9.53714 81.0315C9.53714 81.0315 11.0287 80.535 12.2248 82.5813C12.2248 82.5813 14.2605 82.9076 14.4997 83.15C14.4997 83.15 13.6062 80.9615 12.389 79.9757C12.389 79.9757 14.2652 80.4418 15.0157 83.3714L16.9763 84.2361C16.9763 84.2361 15.9491 81.2808 14.9312 80.323C14.9312 80.323 16.7769 81.0874 17.4524 84.4948L19.2348 85.6111C19.2348 85.6111 18.5453 83.0008 17.647 81.6887C17.647 81.6887 19.2043 82.7654 19.732 85.9514L20.8342 86.837C20.8342 86.837 20.2972 84.9399 20.0931 84.4085C19.8891 83.8771 20.0157 83.7793 20.0157 83.7793C20.7566 84.7786 21.2025 85.9634 21.3033 87.2006C21.3033 87.2006 23.4703 89.1677 23.604 89.0488Z" fill="#6C63FF"/>
</g>
</g>
<defs>
<linearGradient id="paint0_linear" x1="132.005" y1="124.596" x2="132.005" y2="2.99817" gradientUnits="userSpaceOnUse">
<stop stop-color="#808080" stop-opacity="0.25"/>
<stop offset="0.54" stop-color="#808080" stop-opacity="0.12"/>
<stop offset="1" stop-color="#808080" stop-opacity="0.1"/>
</linearGradient>
<clipPath id="clip0">
<rect width="247" height="197" fill="white"/>
</clipPath>
</defs>
</svg>
