<svg width="271" height="527" viewBox="0 0 271 527" fill="none" xmlns="http://www.w3.org/2000/svg">
<path d="M201.393 106.881C227.931 168.71 190.871 204.421 172.298 214.561C176.354 206.644 192.858 183.765 168.639 140.374C165.325 134.436 150.596 112.262 145.825 99.2891C95.2171 201.779 133.696 214.411 133.696 214.411C120.23 214.359 91.0584 173.089 90.4548 150.297C89.6868 121.302 103.165 97.6593 120.392 74.2275C144.832 40.9842 131.783 28.5149 125.135 0.145919C154.763 17.4371 168.135 51.6487 167.991 88.5963C169.639 122.325 181.874 87.7971 181.937 71.8172C187.33 79.7719 195.861 94.7565 201.393 106.881Z" fill="url(#paint0_linear)"/>
<path d="M0.710938 138.53C35.4322 189.899 137.979 282.076 270.395 239.84L186.208 365.407L164.211 526.64H147.211L119.694 365.407L0.710938 138.53Z" fill="#000E8C"/>
<path d="M186.246 365.31L119.734 365.496L113.062 352.758L194.674 352.748L186.246 365.31Z" fill="#000066"/>
<defs>
<linearGradient id="paint0_linear" x1="151.574" y1="0.248725" x2="150.741" y2="214.477" gradientUnits="userSpaceOnUse">
<stop stop-color="#0CD3FF" stop-opacity="0.7"/>
<stop offset="1" stop-color="#3344D9" stop-opacity="0"/>
</linearGradient>
</defs>
</svg>
